<svg id="Layer_1" data-name="Layer 1" xmlns="http://www.w3.org/2000/svg" viewBox="0 0 150.19 175.49">
  <defs>
    <style>
      .cls-1 {
        fill: #2e1f00;
      }

      .cls-2 {
        fill: #9ec96b;
      }

      .cls-3 {
        fill: #6c511b;
      }

      .cls-4 {
        fill: #fff;
      }
    </style>
  </defs>
  <title>avocado_rotaed_01</title>
  <g>
    <path class="cls-1" d="M136,87.09c16.1-34.38,19.86-67.26-2.16-80s-60.12.61-85.08,30.14A71.73,71.73,0,0,0,10.74,69C-8.87,103,2.06,146,35.17,165.12S105.4,169,125,135.1C134.05,119.48,137.79,102.61,136,87.09Z"/>
    <path class="cls-2" d="M132.62,83.63c15.76-33.45,20.51-64.48,1.77-75.31-.52-.3-1.06-.58-1.61-.85s-1.1-.72-1.67-1c-19.54-11.3-52.61-.21-77,25A74,74,0,0,0,13,65.07C-6.58,99,2.8,141.12,34,159.15s67.09,2.1,86.71-31.83C129,113,133,97.8,132.62,83.63Z"/>
    <circle class="cls-1" cx="65.78" cy="105.7" r="31.66"/>
    <circle class="cls-3" cx="62.48" cy="103.79" r="31.66"/>
    <path class="cls-1" d="M139,11.86c-.63,1.09-3.51.61-6.43-1.08s-4.77-3.94-4.14-5,4.94-1.56,7.85.13S139.62,10.76,139,11.86Z"/>
    <path class="cls-4" d="M61.82,77.74c-3-.52-6.08-1-9-.33S47,80.33,46.61,83.34c2.83,1.43,5.63-2.21,8.76-2.74a23.71,23.71,0,0,1,3.37,0,3.42,3.42,0,0,0,2.94-1.33c.58-1,0-2.55-1.16-2.49"/>
  </g>
</svg>
