<svg id="Layer_1" data-name="Layer 1" xmlns="http://www.w3.org/2000/svg" xmlns:xlink="http://www.w3.org/1999/xlink" viewBox="0 0 1080 1920">
  <defs>
    <style>
      .cls-1 {
        fill: url(#radial-gradient);
      }

      .cls-2 {
        fill: url(#linear-gradient);
      }

      .cls-3 {
        fill: url(#linear-gradient-2);
      }

      .cls-4 {
        fill: url(#linear-gradient-3);
      }

      .cls-5 {
        fill: url(#linear-gradient-4);
      }

      .cls-6 {
        fill: url(#linear-gradient-5);
      }

      .cls-7 {
        fill: url(#linear-gradient-6);
      }

      .cls-8 {
        fill: url(#linear-gradient-7);
      }

      .cls-9 {
        fill: url(#linear-gradient-8);
      }

      .cls-10 {
        fill: url(#linear-gradient-9);
      }

      .cls-11 {
        fill: url(#linear-gradient-10);
      }

      .cls-12 {
        fill: url(#linear-gradient-11);
      }

      .cls-13 {
        fill: url(#linear-gradient-12);
      }

      .cls-14 {
        fill: url(#linear-gradient-13);
      }

      .cls-15 {
        fill: url(#linear-gradient-14);
      }

      .cls-16 {
        fill: url(#linear-gradient-15);
      }

      .cls-17 {
        fill: url(#linear-gradient-16);
      }

      .cls-18 {
        fill: url(#linear-gradient-17);
      }

      .cls-19 {
        fill: url(#linear-gradient-18);
      }

      .cls-20 {
        fill: url(#linear-gradient-19);
      }

      .cls-21 {
        fill: url(#linear-gradient-20);
      }

      .cls-22 {
        fill: url(#linear-gradient-21);
      }
    </style>
    <radialGradient id="radial-gradient" cx="540.5" cy="967.5" r="784.88" gradientUnits="userSpaceOnUse">
      <stop offset="0" stop-color="#fff"/>
      <stop offset="1" stop-color="#80bed6"/>
    </radialGradient>
    <linearGradient id="linear-gradient" x1="9" y1="490.4" x2="568.26" y2="490.4" gradientUnits="userSpaceOnUse">
      <stop offset="0.13" stop-color="#80bed6"/>
      <stop offset="0.88" stop-color="#fff"/>
    </linearGradient>
    <linearGradient id="linear-gradient-2" x1="551.63" y1="494.3" x2="1081" y2="494.3" gradientUnits="userSpaceOnUse">
      <stop offset="0.26" stop-color="#fff"/>
      <stop offset="0.82" stop-color="#80bed6"/>
      <stop offset="0.9" stop-color="#8ec5db"/>
    </linearGradient>
    <linearGradient id="linear-gradient-3" x1="10" y1="1448.89" x2="550.61" y2="1448.89" gradientUnits="userSpaceOnUse">
      <stop offset="0" stop-color="#80bed6"/>
      <stop offset="0.19" stop-color="#86c1d8"/>
      <stop offset="0.7" stop-color="#fff"/>
    </linearGradient>
    <linearGradient id="linear-gradient-4" x1="552.29" y1="1447.04" x2="1081" y2="1447.04" gradientUnits="userSpaceOnUse">
      <stop offset="0.32" stop-color="#fff"/>
      <stop offset="0.58" stop-color="#80bed6"/>
      <stop offset="0.84" stop-color="#86c1d8"/>
    </linearGradient>
    <linearGradient id="linear-gradient-5" x1="528.03" y1="695.86" x2="378.94" y2="4.67" gradientUnits="userSpaceOnUse">
      <stop offset="0" stop-color="#fff"/>
      <stop offset="0.58" stop-color="#bfdeea"/>
      <stop offset="1" stop-color="#80bed6"/>
    </linearGradient>
    <linearGradient id="linear-gradient-6" x1="603.41" y1="823.3" x2="756.24" y2="-164.71" gradientUnits="userSpaceOnUse">
      <stop offset="0.02" stop-color="#fff"/>
      <stop offset="0.71" stop-color="#80bed6"/>
      <stop offset="0.9" stop-color="#8ec5db"/>
    </linearGradient>
    <linearGradient id="linear-gradient-7" x1="303.81" y1="1449.87" x2="552.31" y2="1449.87" xlink:href="#linear-gradient-3"/>
    <linearGradient id="linear-gradient-8" x1="554.51" y1="1447.04" x2="805.94" y2="1447.04" gradientUnits="userSpaceOnUse">
      <stop offset="0" stop-color="#80bed6"/>
      <stop offset="0" stop-color="#fff"/>
      <stop offset="0.65" stop-color="#8fc6db"/>
      <stop offset="0.75" stop-color="#86c1d8"/>
    </linearGradient>
    <linearGradient id="linear-gradient-9" x1="-1" y1="688.06" x2="552" y2="688.06" gradientUnits="userSpaceOnUse">
      <stop offset="0" stop-color="#fff"/>
      <stop offset="0" stop-color="#80bed6"/>
      <stop offset="0.84" stop-color="#fbfdfe"/>
    </linearGradient>
    <linearGradient id="linear-gradient-10" x1="-1" y1="1257.53" x2="548" y2="1257.53" xlink:href="#linear-gradient-3"/>
    <linearGradient id="linear-gradient-11" x1="548.99" y1="704.86" x2="1081" y2="704.86" gradientUnits="userSpaceOnUse">
      <stop offset="0.39" stop-color="#fff"/>
      <stop offset="0.82" stop-color="#80bed6"/>
      <stop offset="0.9" stop-color="#8ec5db"/>
    </linearGradient>
    <linearGradient id="linear-gradient-12" x1="552.99" y1="1245.73" x2="1081" y2="1245.73" gradientUnits="userSpaceOnUse">
      <stop offset="0.06" stop-color="#fff"/>
      <stop offset="0.28" stop-color="#f7fbfc"/>
      <stop offset="0.6" stop-color="#86c1d8"/>
      <stop offset="0.84" stop-color="#80bed6"/>
    </linearGradient>
    <linearGradient id="linear-gradient-13" x1="-1" y1="859.96" x2="555.06" y2="859.96" gradientUnits="userSpaceOnUse">
      <stop offset="0" stop-color="#80bed6"/>
      <stop offset="0.7" stop-color="#fff"/>
    </linearGradient>
    <linearGradient id="linear-gradient-14" x1="-1" y1="1087.47" x2="555.06" y2="1087.47" xlink:href="#linear-gradient-3"/>
    <linearGradient id="linear-gradient-15" x1="550.64" y1="1082.15" y2="1082.15" xlink:href="#linear-gradient-11"/>
    <linearGradient id="linear-gradient-16" x1="554.64" y1="863.11" x2="1081" y2="863.11" gradientUnits="userSpaceOnUse">
      <stop offset="0.31" stop-color="#fff"/>
      <stop offset="0.82" stop-color="#80bed6"/>
      <stop offset="0.9" stop-color="#8ec5db"/>
    </linearGradient>
    <linearGradient id="linear-gradient-17" x1="544.15" y1="973.03" y2="973.03" xlink:href="#linear-gradient-11"/>
    <linearGradient id="linear-gradient-18" x1="-1" y1="974" x2="560.85" y2="974" xlink:href="#linear-gradient-3"/>
    <linearGradient id="linear-gradient-19" x1="537.69" y1="2115.85" x2="532.63" y2="1596.79" gradientUnits="userSpaceOnUse">
      <stop offset="0" stop-color="#656565"/>
      <stop offset="0.36" stop-color="#00003f"/>
      <stop offset="0.74" stop-color="#86baff"/>
      <stop offset="0.98" stop-color="#3e3e3e"/>
    </linearGradient>
    <linearGradient id="linear-gradient-20" x1="-0.5" y1="1708.42" x2="1080.5" y2="1708.42" gradientUnits="userSpaceOnUse">
      <stop offset="0" stop-color="#656565"/>
      <stop offset="0.12"/>
      <stop offset="0.42" stop-color="#3e3e3e"/>
      <stop offset="0.95" stop-color="#fff"/>
    </linearGradient>
    <linearGradient id="linear-gradient-21" x1="545.89" y1="2157.56" x2="534.13" y2="1069.75" gradientUnits="userSpaceOnUse">
      <stop offset="0" stop-color="#656565"/>
      <stop offset="0.36" stop-color="#00003f"/>
      <stop offset="0.79" stop-color="#86baff"/>
      <stop offset="0.98" stop-color="#3e3e3e"/>
    </linearGradient>
  </defs>
  <title>background_basket</title>
  <rect class="cls-1" y="-2" width="1081" height="1939"/>
  <polygon class="cls-2" points="568.26 973.8 9 152.84 9 7 138.57 7 568.26 973.8"/>
  <polygon class="cls-3" points="1081 12 1081 220.03 554.79 972.08 554.27 972.83 554.05 973.15 554.04 973.15 553.68 973.67 553.35 974.14 553.3 974.2 553.3 974.21 553 974.64 551.63 976.6 552.11 975.56 552.11 975.55 552.12 975.54 553.09 973.42 553.29 972.98 553.3 972.98 553.82 971.84 554.14 971.13 994.88 12 1081 12"/>
  <polygon class="cls-4" points="550.61 977.78 550.24 978.68 550.23 978.71 550.04 979.15 549.99 979.27 549.87 979.57 549.78 979.77 549.53 980.38 549.13 981.33 157.47 1920 10 1920 10 1812.9 548.27 981.39 548.71 980.71 549.35 979.73 549.51 979.48 549.67 979.24 550 978.73 550.07 978.61 550.61 977.78"/>
  <polygon class="cls-5" points="1081 1744.14 1081 1920 977.44 1920 556.27 982.94 555.58 981.4 555.29 980.76 555.06 980.24 555.01 980.14 554.87 979.83 554.82 979.72 554.45 978.89 554.42 978.84 554.42 978.83 554.27 978.49 554.23 978.41 554.2 978.34 554.17 978.26 553.82 977.49 553.05 975.77 552.78 975.17 552.29 974.08 552.81 974.84 553.16 975.35 554.14 976.78 554.73 977.63 554.74 977.65 554.79 977.73 555.03 978.08 555.08 978.16 555.15 978.26 555.79 979.18 555.97 979.44 556.24 979.85 556.61 980.38 556.78 980.62 556.79 980.63 559.01 983.87 563.52 990.46 563.54 990.48 1081 1744.14"/>
  <polygon class="cls-6" points="549.31 933.17 300.74 -2 454.26 -2 549.31 933.17"/>
  <polygon class="cls-7" points="807.72 12 552.51 972.17 650.09 12 807.72 12"/>
  <polygon class="cls-8" points="552.31 979.74 552.28 979.99 552.27 980.09 552.18 981.04 552.17 981.09 552.17 981.16 552.12 981.57 552.05 982.26 457.29 1920 303.81 1920 551.55 982.62 551.64 982.26 551.65 982.24 551.84 981.52 551.96 981.06 552.22 980.08 552.24 979.99 552.31 979.74"/>
  <polygon class="cls-9" points="805.94 1920 650.64 1920 618.43 1603 554.67 975.61 554.62 975.15 554.61 975.04 554.6 974.92 554.59 974.83 554.58 974.78 554.56 974.53 554.51 974.07 554.63 974.53 554.68 974.71 554.73 974.89 554.74 974.95 554.79 975.14 554.8 975.18 555.01 975.96 721.68 1603 805.94 1920"/>
  <polygon class="cls-10" points="-1 403.34 552 972.77 -1 577.77 -1 403.34"/>
  <polygon class="cls-11" points="548 974.88 547.26 975.65 547.08 975.83 -1 1540.19 -1 1367.02 546.49 975.96 546.61 975.87 548 974.88"/>
  <polygon class="cls-12" points="1081 430.96 1081 598.76 556.21 973.61 555.97 973.78 555.23 974.31 555.01 974.47 554.41 974.9 554.16 975.08 548.99 978.77 552.11 975.56 552.11 975.55 552.12 975.54 553 974.64 553.36 974.27 553.43 974.2 553.87 973.75 554.38 973.22 554.42 973.18 554.42 973.17 555.08 972.5 1081 430.96"/>
  <polygon class="cls-13" points="1081 1351.03 1081 1517.57 563.54 984.75 563.52 984.73 556.27 977.26 555.01 975.96 554.67 975.61 554.26 975.18 553.84 974.76 553.53 974.44 553.3 974.21 553.3 974.2 552.99 973.88 553.35 974.14 553.43 974.2 553.8 974.46 553.94 974.56 554.37 974.87 554.41 974.9 554.61 975.04 554.75 975.14 554.8 975.17 554.8 975.18 555.58 975.73 559.01 978.18 1081 1351.03"/>
  <polygon class="cls-14" points="555.06 975.02 554.43 974.88 553.05 974.59 553.04 974.58 552.6 974.49 550.93 974.13 550.92 974.13 549.01 973.71 549 973.71 547.47 973.38 547.45 973.38 -1 854.99 -1 744.9 550.91 973.3 550.92 973.3 551.91 973.72 552.11 973.8 552.12 973.8 552.79 974.08 553.26 974.27 553.33 974.3 554.54 974.81 555.06 975.02"/>
  <polygon class="cls-15" points="555.06 972.41 554.36 972.7 553.2 973.18 551.91 973.72 551.77 973.77 550.93 974.13 550.92 974.13 546.74 975.86 546.73 975.86 -1 1202.53 -1 1092.43 533.72 977.02 533.75 977.01 533.78 977.01 549 973.71 549.01 973.71 549.65 973.58 550.91 973.3 550.92 973.3 553.39 972.77 554.47 972.54 555.06 972.41"/>
  <polygon class="cls-16" points="1081 1086.88 1081 1191.89 556.8 974.96 556.79 974.96 556.78 974.95 556.08 974.66 555.23 974.31 554.87 974.16 554.55 974.03 553.87 973.75 553.68 973.67 553.09 973.42 552.85 973.33 552.15 973.04 551.82 972.9 550.64 972.41 551.87 972.67 551.92 972.69 552.59 972.83 552.85 972.89 553.29 972.98 553.3 972.98 553.55 973.04 554.04 973.15 554.05 973.15 554.38 973.22 554.45 973.23 555.79 973.52 556.21 973.61 560.74 974.59 560.8 974.6 564.59 975.42 1081 1086.88"/>
  <polygon class="cls-17" points="1081 754.2 1081 858.4 560.09 970.84 555.79 971.77 555.78 971.77 554.87 971.97 554.74 972 554.64 972.02 554.73 971.98 554.91 971.91 556.15 971.39 556.16 971.38 563.67 968.28 1081 754.2"/>
  <polygon class="cls-18" points="1081 924.64 1081 1021.42 564.6 975.42 564.59 975.42 558.11 974.84 556.61 974.71 556.09 974.66 556.08 974.66 555.06 974.57 554.89 974.56 554.63 974.53 554.56 974.53 553.8 974.46 553.68 974.45 553.53 974.44 553.22 974.41 553.17 974.4 552.66 974.36 552.28 974.32 552.24 974.32 551.51 974.26 550.77 974.19 549.78 974.1 549.35 974.06 547.95 973.94 544.15 973.6 547.01 973.34 547.19 973.32 550 973.07 550.23 973.05 550.28 973.04 551.82 972.9 552.59 972.83 553.4 972.76 553.49 972.75 554.2 972.68 554.38 972.67 554.46 972.66 554.97 972.61 555.15 972.6 557.99 972.34 558 972.34 1081 924.64"/>
  <polygon class="cls-19" points="560.85 974.6 553.97 975.21 552.51 975.34 552.3 975.36 552.29 975.36 552.2 975.37 546.74 975.86 546.73 975.86 533.8 977.01 533.75 977.01 533.72 977.02 -1 1024.65 -1 923.36 547.45 973.38 547.47 973.38 549.65 973.58 551.77 973.77 552.11 973.8 552.12 973.8 552.88 973.87 552.89 973.87 553.5 973.93 553.67 973.95 555.51 974.11 560.85 974.6"/>
  <path class="cls-20" d="M1073.5,1686,1035,1936H69.5L26.22,1793.61-6.5,1686c0-29.51,60.65-54.72,144.17-63.58a628.31,628.31,0,0,1,65.93-3.4H863.4C979,1619,1073.5,1649.14,1073.5,1686Z"/>
  <path class="cls-21" d="M1080.5,1646.08v193c-75.48,28.15-245.1,10.64-531.95,9.58-264-1-474.42,19-549-32.2V1671c78-132.84,269.85-107,549.05-107C809.1,1564,994.76,1540.76,1080.5,1646.08Z"/>
  <path class="cls-22" d="M1077.5,1683.84v82.55c-47.66,37.75-212.35,21.06-529.37,20.19-334-.92-576.75,24.61-539.94-79.84,49.89-141.57,242-118.38,539.94-118.38C829,1588.36,1017.22,1567.06,1077.5,1683.84Z"/>
</svg>
