<svg id="Layer_1" data-name="Layer 1" xmlns="http://www.w3.org/2000/svg" xmlns:xlink="http://www.w3.org/1999/xlink" width="1080" height="1920" viewBox="0 0 1080 1920"><defs><style>.cls-1{fill:url(#radial-gradient);}.cls-2{fill:url(#linear-gradient);}.cls-3{fill:url(#linear-gradient-2);}.cls-4{fill:url(#linear-gradient-3);}.cls-5{fill:url(#linear-gradient-4);}.cls-6{fill:url(#linear-gradient-5);}.cls-7{fill:url(#linear-gradient-6);}.cls-8{fill:url(#linear-gradient-7);}.cls-9{fill:url(#linear-gradient-8);}.cls-10{fill:url(#linear-gradient-9);}.cls-11{fill:url(#linear-gradient-10);}.cls-12{fill:url(#linear-gradient-11);}.cls-13{fill:url(#linear-gradient-12);}.cls-14{fill:url(#linear-gradient-13);}.cls-15{fill:url(#linear-gradient-14);}.cls-16{fill:url(#linear-gradient-15);}.cls-17{fill:url(#linear-gradient-16);}.cls-18{fill:url(#linear-gradient-17);}.cls-19{fill:url(#linear-gradient-18);}</style><radialGradient id="radial-gradient" cx="544.5" cy="945.8" r="781.48" gradientTransform="translate(0 11.31) scale(1 1.01)" gradientUnits="userSpaceOnUse"><stop offset="0" stop-color="#fff"/><stop offset="1" stop-color="#80bed6"/></radialGradient><linearGradient id="linear-gradient" x1="3" y1="502.4" x2="562.26" y2="502.4" gradientUnits="userSpaceOnUse"><stop offset="0.13" stop-color="#80bed6"/><stop offset="0.88" stop-color="#fff"/></linearGradient><linearGradient id="linear-gradient-2" x1="545.63" y1="506.3" x2="1075" y2="506.3" gradientUnits="userSpaceOnUse"><stop offset="0.26" stop-color="#fff"/><stop offset="0.82" stop-color="#80bed6"/><stop offset="0.9" stop-color="#8ec5db"/></linearGradient><linearGradient id="linear-gradient-3" x1="4" y1="1460.89" x2="544.61" y2="1460.89" gradientUnits="userSpaceOnUse"><stop offset="0" stop-color="#80bed6"/><stop offset="0.19" stop-color="#86c1d8"/><stop offset="0.7" stop-color="#fff"/></linearGradient><linearGradient id="linear-gradient-4" x1="546.29" y1="1459.04" x2="1075" y2="1459.04" gradientUnits="userSpaceOnUse"><stop offset="0.32" stop-color="#fff"/><stop offset="0.58" stop-color="#80bed6"/><stop offset="0.84" stop-color="#86c1d8"/></linearGradient><linearGradient id="linear-gradient-5" x1="524.55" y1="737.53" x2="372.12" y2="30.82" gradientUnits="userSpaceOnUse"><stop offset="0" stop-color="#fff"/><stop offset="0.58" stop-color="#bfdeea"/><stop offset="1" stop-color="#80bed6"/></linearGradient><linearGradient id="linear-gradient-6" x1="597.41" y1="835.3" x2="750.24" y2="-152.71" gradientUnits="userSpaceOnUse"><stop offset="0.02" stop-color="#fff"/><stop offset="0.71" stop-color="#80bed6"/><stop offset="0.9" stop-color="#8ec5db"/></linearGradient><linearGradient id="linear-gradient-7" x1="297.81" y1="1461.87" x2="546.31" y2="1461.87" xlink:href="#linear-gradient-3"/><linearGradient id="linear-gradient-8" x1="548.51" y1="1459.04" x2="799.94" y2="1459.04" gradientUnits="userSpaceOnUse"><stop offset="0" stop-color="#80bed6"/><stop offset="0" stop-color="#fff"/><stop offset="0.65" stop-color="#8fc6db"/><stop offset="0.75" stop-color="#86c1d8"/></linearGradient><linearGradient id="linear-gradient-9" x1="-7" y1="700.06" x2="546" y2="700.06" gradientUnits="userSpaceOnUse"><stop offset="0" stop-color="#fff"/><stop offset="0" stop-color="#80bed6"/><stop offset="0.84" stop-color="#fbfdfe"/></linearGradient><linearGradient id="linear-gradient-10" x1="-7" y1="1269.53" x2="542" y2="1269.53" xlink:href="#linear-gradient-3"/><linearGradient id="linear-gradient-11" x1="542.99" y1="716.86" x2="1075" y2="716.86" gradientUnits="userSpaceOnUse"><stop offset="0.39" stop-color="#fff"/><stop offset="0.82" stop-color="#80bed6"/><stop offset="0.9" stop-color="#8ec5db"/></linearGradient><linearGradient id="linear-gradient-12" x1="546.99" y1="1257.73" x2="1075" y2="1257.73" gradientUnits="userSpaceOnUse"><stop offset="0.06" stop-color="#fff"/><stop offset="0.28" stop-color="#f7fbfc"/><stop offset="0.6" stop-color="#86c1d8"/><stop offset="0.84" stop-color="#80bed6"/></linearGradient><linearGradient id="linear-gradient-13" x1="-7" y1="871.96" x2="549.06" y2="871.96" gradientUnits="userSpaceOnUse"><stop offset="0" stop-color="#80bed6"/><stop offset="0.7" stop-color="#fff"/></linearGradient><linearGradient id="linear-gradient-14" x1="-7" y1="1099.47" x2="549.06" y2="1099.47" xlink:href="#linear-gradient-3"/><linearGradient id="linear-gradient-15" x1="544.64" y1="1094.15" x2="1075" y2="1094.15" xlink:href="#linear-gradient-11"/><linearGradient id="linear-gradient-16" x1="548.64" y1="875.11" x2="1075" y2="875.11" gradientUnits="userSpaceOnUse"><stop offset="0.31" stop-color="#fff"/><stop offset="0.82" stop-color="#80bed6"/><stop offset="0.9" stop-color="#8ec5db"/></linearGradient><linearGradient id="linear-gradient-17" x1="538.15" y1="985.03" x2="1075" y2="985.03" gradientTransform="translate(0.53 -0.43) rotate(0.03)" xlink:href="#linear-gradient-11"/><linearGradient id="linear-gradient-18" x1="-7" y1="986" x2="554.85" y2="986" xlink:href="#linear-gradient-3"/></defs><title>background</title><rect class="cls-1" x="4" y="-7" width="1081" height="1939"/><polygon class="cls-2" points="562.26 985.8 3 164.84 3 19 132.57 19 562.26 985.8"/><polygon class="cls-3" points="1075 24 1075 232.03 548.79 984.08 548.27 984.83 548.05 985.15 548.04 985.15 547.68 985.67 547.35 986.14 547.3 986.2 547.3 986.21 547 986.64 545.63 988.6 546.11 987.56 546.11 987.55 546.12 987.54 547.09 985.42 547.29 984.98 547.3 984.98 547.82 983.84 548.14 983.13 988.88 24 1075 24"/><polygon class="cls-4" points="544.61 989.78 544.24 990.68 544.23 990.71 544.04 991.15 543.99 991.27 543.87 991.57 543.78 991.77 543.53 992.38 543.13 993.33 151.47 1932 4 1932 4 1824.9 542.27 993.39 542.71 992.71 543.35 991.73 543.51 991.48 543.67 991.24 544 990.73 544.07 990.61 544.61 989.78"/><polygon class="cls-5" points="1075 1756.14 1075 1932 971.44 1932 550.27 994.94 549.58 993.4 549.29 992.76 549.06 992.24 549.01 992.14 548.87 991.83 548.82 991.72 548.45 990.89 548.42 990.84 548.42 990.83 548.27 990.49 548.23 990.41 548.2 990.34 548.17 990.26 547.82 989.49 547.05 987.77 546.78 987.17 546.29 986.08 546.81 986.84 547.16 987.35 548.14 988.78 548.73 989.63 548.74 989.65 548.79 989.73 549.03 990.08 549.08 990.16 549.15 990.26 549.79 991.18 549.97 991.44 550.24 991.85 550.61 992.38 550.78 992.62 550.79 992.63 553.01 995.87 557.52 1002.46 557.54 1002.48 1075 1756.14"/><polygon class="cls-6" points="546.31 980.17 292.16 24 449.13 24 546.31 980.17"/><polygon class="cls-7" points="801.72 24 546.51 984.17 644.09 24 801.72 24"/><polygon class="cls-8" points="546.31 991.74 546.28 991.99 546.27 992.09 546.18 993.04 546.17 993.09 546.17 993.16 546.12 993.57 546.05 994.26 451.29 1932 297.81 1932 545.55 994.62 545.64 994.26 545.65 994.24 545.84 993.52 545.96 993.06 546.22 992.08 546.24 991.99 546.31 991.74"/><polygon class="cls-9" points="799.94 1932 644.64 1932 612.43 1615 548.67 987.61 548.62 987.15 548.61 987.04 548.6 986.92 548.59 986.83 548.58 986.78 548.56 986.53 548.51 986.07 548.63 986.53 548.68 986.71 548.73 986.89 548.74 986.95 548.79 987.14 548.8 987.18 549.01 987.96 715.68 1615 799.94 1932"/><polygon class="cls-10" points="-7 415.34 546 984.77 -7 589.77 -7 415.34"/><polygon class="cls-11" points="542 986.88 541.26 987.65 541.08 987.83 -7 1552.19 -7 1379.02 540.49 987.96 540.61 987.87 542 986.88"/><polygon class="cls-12" points="1075 442.96 1075 610.76 550.21 985.61 549.97 985.78 549.23 986.31 549.01 986.47 548.41 986.9 548.16 987.08 542.99 990.77 546.11 987.56 546.11 987.55 546.12 987.54 547 986.64 547.36 986.27 547.43 986.2 547.87 985.75 548.38 985.22 548.42 985.18 548.42 985.17 549.08 984.5 1075 442.96"/><polygon class="cls-13" points="1075 1363.03 1075 1529.57 557.54 996.75 557.52 996.73 550.27 989.26 549.01 987.96 548.67 987.61 548.26 987.18 547.84 986.76 547.53 986.44 547.3 986.21 547.3 986.2 546.99 985.88 547.35 986.14 547.43 986.2 547.8 986.46 547.94 986.56 548.37 986.87 548.41 986.9 548.61 987.04 548.75 987.14 548.8 987.17 548.8 987.18 549.58 987.73 553.01 990.18 1075 1363.03"/><polygon class="cls-14" points="549.06 987.02 548.43 986.88 547.05 986.59 547.04 986.58 546.6 986.49 544.93 986.13 544.92 986.13 543.01 985.71 543 985.71 541.47 985.38 541.45 985.38 -7 866.99 -7 756.9 544.91 985.3 544.92 985.3 545.91 985.72 546.11 985.8 546.12 985.8 546.79 986.08 547.26 986.27 547.33 986.3 548.54 986.81 549.06 987.02"/><polygon class="cls-15" points="549.06 984.41 548.36 984.7 547.2 985.18 545.91 985.72 545.77 985.77 544.93 986.13 544.92 986.13 540.74 987.86 540.73 987.86 -7 1214.53 -7 1104.43 527.72 989.02 527.75 989.01 527.78 989.01 543 985.71 543.01 985.71 543.65 985.58 544.91 985.3 544.92 985.3 547.39 984.77 548.47 984.54 549.06 984.41"/><polygon class="cls-16" points="1075 1098.88 1075 1203.89 550.8 986.96 550.79 986.96 550.78 986.95 550.08 986.66 549.23 986.31 548.87 986.16 548.55 986.03 547.87 985.75 547.68 985.67 547.09 985.42 546.85 985.33 546.15 985.04 545.82 984.9 544.64 984.41 545.87 984.67 545.92 984.69 546.59 984.83 546.85 984.89 547.29 984.98 547.3 984.98 547.55 985.04 548.04 985.15 548.05 985.15 548.38 985.22 548.45 985.23 549.79 985.52 550.21 985.61 554.74 986.59 554.8 986.6 558.59 987.42 1075 1098.88"/><polygon class="cls-17" points="1075 766.2 1075 870.4 554.09 982.84 549.79 983.77 549.78 983.77 548.87 983.97 548.74 984 548.64 984.02 548.73 983.98 548.91 983.91 550.15 983.39 550.16 983.38 557.67 980.28 1075 766.2"/><polygon class="cls-18" points="1075.03 936.78 1074.97 1033.56 558.6 987.29 558.59 987.29 552.11 986.7 550.61 986.57 550.09 986.52 550.08 986.52 549.06 986.43 548.89 986.42 548.63 986.39 548.56 986.39 547.8 986.32 547.68 986.31 547.53 986.3 547.22 986.27 547.17 986.26 546.66 986.22 546.28 986.18 546.24 986.18 545.51 986.12 544.77 986.05 543.78 985.96 543.35 985.92 541.95 985.8 538.15 985.46 541.01 985.2 541.19 985.18 544 984.93 544.23 984.91 544.28 984.9 545.82 984.76 546.59 984.69 547.4 984.62 547.49 984.61 548.2 984.54 548.38 984.53 548.46 984.52 548.97 984.47 549.15 984.46 551.99 984.2 552 984.2 1075.03 936.78"/><polygon class="cls-19" points="554.85 986.6 547.97 987.21 546.51 987.34 546.3 987.36 546.29 987.36 546.2 987.37 540.74 987.86 540.73 987.86 527.8 989.01 527.75 989.01 527.72 989.02 -7 1036.65 -7 935.36 541.45 985.38 541.47 985.38 543.65 985.58 545.77 985.77 546.11 985.8 546.12 985.8 546.88 985.87 546.89 985.87 547.5 985.93 547.67 985.95 549.51 986.11 554.85 986.6"/></svg>
