<svg id="Layer_1" data-name="Layer 1" xmlns="http://www.w3.org/2000/svg" xmlns:xlink="http://www.w3.org/1999/xlink" width="1080" height="1920" viewBox="0 0 1080 1920"><defs><style>.cls-1{fill:#262660;}.cls-2{stroke:#000;stroke-width:0.25px;}.cls-10,.cls-2,.cls-4{stroke-miterlimit:10;}.cls-3{fill:#ff000f;opacity:0.65;}.cls-10,.cls-4{fill:none;stroke:#fff;}.cls-4{stroke-width:35px;}.cls-5{fill:#352900;}.cls-6{fill:url(#radial-gradient);}.cls-7{fill:url(#radial-gradient-2);}.cls-8{fill:#e2c791;}.cls-9{fill:#fff;}.cls-10{stroke-width:41px;}</style><radialGradient id="radial-gradient" cx="900.95" cy="732.25" fx="844.4054090303595" r="68.83" gradientUnits="userSpaceOnUse"><stop offset="0" stop-color="#fff"/><stop offset="0.47" stop-color="#d0ebf4"/><stop offset="0.87" stop-color="#e2f2f7"/></radialGradient><radialGradient id="radial-gradient-2" cx="899.95" cy="1344.25" fx="843.4054090303576" r="68.83" gradientTransform="matrix(1, 0, 0, -1, 0, 1998.5)" xlink:href="#radial-gradient"/></defs><title>bottums_full</title><circle cx="280.94" cy="272.38" r="184.61"/><circle class="cls-1" cx="270.84" cy="263.73" r="184.61"/><circle class="cls-2" cx="732.6" cy="283.32" r="26.68"/><circle class="cls-2" cx="800.38" cy="289.09" r="26.68"/><path class="cls-3" d="M836.34,448.88c3.79,2.14,14.14-9.1,18.29-15,5.49-7.82,14.6-21.28,10.8-23.42s-18.29,6.09-23,14.41S832.55,446.73,836.34,448.88Z"/><path d="M627.82,190.41l-1-.25c11.81-45.69,57-73.66,100.8-62.35l-.25,1C684.16,117.61,639.5,145.25,627.82,190.41Z"/><path d="M879.86,261a45,45,0,0,0-46.22-43.6l0-1A46,46,0,0,1,880.86,261Z"/><path d="M795.64,463.85a66.6,66.6,0,0,1-7.08-.37c-16.62-1.78-30.32-9.7-38.58-22.3l4.18-2.75c7.42,11.33,19.83,18.46,34.93,20.08,15.28,1.63,31.46-2.55,45.56-11.8,29-19,39.94-53.57,24.51-77.12l4.18-2.74c16.95,25.85,5.31,63.55-26,84A76.69,76.69,0,0,1,795.64,463.85Z"/><path d="M703.63,445.07q-9.52,0-19.24-.74l.38-5c100.7,7.76,187.36-47.28,193.18-122.7l5,.39C877.28,390.3,798.66,445.07,703.63,445.07Z"/><circle cx="285.94" cy="761.38" r="184.61"/><path class="cls-4" d="M265.5,673.27c54.85-10.09,101,41.57,101,92.83s-45.22,92.83-101,92.83"/><circle cx="292.31" cy="1274.22" r="184.61"/><circle class="cls-1" cx="287.31" cy="1263.21" r="184.61"/><rect class="cls-5" x="807" y="771" width="186" height="7"/><rect class="cls-5" x="806" y="607" width="186" height="7"/><rect class="cls-5" x="800" y="780" width="203" height="17"/><rect class="cls-5" x="797" y="588" width="203" height="17"/><path class="cls-6" d="M989,771c9.71-41.69-39.18-77.5-87.5-77.5S799.75,730.64,814,771"/><path class="cls-7" d="M988,615.5c9.71,41.69-39.18,77.5-87.5,77.5S798.75,655.86,813,615.5"/><path class="cls-8" d="M989.11,767.85a1.74,1.74,0,0,0,.23-2.38,4.86,4.86,0,0,0-2.19-1.45,49.35,49.35,0,0,0-12.75-3.29,20.9,20.9,0,0,1-6.5-1.32c-2-.93-3.73-2.94-3.53-5.15l-12.87-5.85c-6.83-3.11-14-6.49-18.25-12.66a32.28,32.28,0,0,0-2.32-3.32c-2-2.24-5.25-7.38-7.28-5.2C922,729,911.54,721.22,911,716s-6.87-5.83-6-11c.25-1.49-1-10.91,0-12s14.63-1.64,16-2c4.8-1.27,9-1,15-4,8-4,16-8,23-12-.55-2.19-3-1.79-5.06-2.61-5.55-2.17-12-4.31-17.25-1.51-3.13,1.66-5.37,4.88-8.75,5.91-2.35.71-4.89.24-7.32.58-5.47.78-10.07,5.61-15.57,5.16-5.24-.43-9.47-5.6-14.71-5.13-3,.27-5.52,2.36-8.47,2.92-3.89.74-7.74-1.28-11-3.49s-6.6-4.76-10.53-5.25-8.58,2.14-8.51,6.1c0,1.1-.59,1.25-.8,2.32a114.13,114.13,0,0,0,21,9c3.2.89,7.91,1.36,12,3,5,2,11.76-.46,14,2,2.89,3.17-7.57,9.73-8,14-.53,5.27-3.87,10.07-5.18,15.2-1,3.85-1.11,8.14-3.61,11.24-4.11,5.1-12.07,4.19-18.07,6.84-2.49,1.11-4.64,2.84-7,4.23-7.21,4.3-15.93,5.22-23.61,8.64a76.89,76.89,0,0,0-11.89,7.08c-2.74,1.85-5.81,4.39-5.44,7.68l34.28-.3c13.48-.12,27,.5,40.51.39,13.18-.11,28.16.29,42,0,7.45-.16,14-1,21-1C966,768,976,769,989.11,767.85Z"/><path class="cls-9" d="M722,265.26a9.28,9.28,0,0,0-6.16,6.86,4.62,4.62,0,0,0,.47,3.5,2.37,2.37,0,0,0,3.15.82c1.83-1.26.38-4.65,2.08-6.07.87-.74,2.2-.58,3.21-1.1a2.6,2.6,0,1,0-3.76-2.71"/><path class="cls-9" d="M817.57,279.31a7.54,7.54,0,0,0-3.39-6.26,5.07,5.07,0,0,0-2.8-1.09c-1,0-1.8.68-1.57,1.53.42,1.55,3.43,2,4,3.57.3.79-.22,1.5-.12,2.29a2.78,2.78,0,0,0,3.27,1.92c1.22-.44,1.17-2.22-.09-3.06"/><path class="cls-9" d="M825.4,647.76a35.26,35.26,0,0,0,3.26,7.06c2.06,3.73,4.25,7.6,7.79,9.95a23.7,23.7,0,0,0,6.29,2.69c1.55.48,3.32.9,4.71.06a4,4,0,0,0,1.63-3.92,12.08,12.08,0,0,0-1.59-4.16c-1.68-3.15-3.43-6.39-6.17-8.68-1.86-1.55-4.23-2.74-5.15-5-.75-1.81-.35-3.85-.42-5.81-.12-3.5-6.31-14.73-11-10.74C822.37,631.19,824.71,645.39,825.4,647.76Z"/><path class="cls-9" d="M962,721.63c1.65,1.49,3.3,3,4.87,4.57,2.49,2.52,4.74,5.25,7,8a20.37,20.37,0,0,1,2.58,3.62c1.82,3.55,1.4,7.82.56,11.72-.35,1.62-1.5,3.67-3.07,3.11-1.22-.43-1.36-2.06-1.4-3.35-.2-6.36-3.28-12.31-7.05-17.43-2.73-3.7-7.2-7.2-9.28-11.24C953.48,715.22,960.39,720.14,962,721.63Z"/><path class="cls-9" d="M376.6,232.24A25.09,25.09,0,0,1,380,275.57l-68.71,47.12-68.7,47.13a25.1,25.1,0,0,1-39.22-18.75L196.89,268l-6.46-83.07a25.09,25.09,0,0,1,35.84-24.58l75.16,35.94Z"/><path class="cls-9" d="M117,226c3.81,1,6.66-3.4,8.12-7.06,7.85-19.79,15-40.17,27.24-57.6a116.34,116.34,0,0,1,33-31.38c9.11-5.74,24.53-9.85,30.05-19.35-18.74-2.53-45.65,20-57.71,32C135.36,164.8,120.29,194.54,117,226Z"/><circle class="cls-1" cx="278.31" cy="753.92" r="184.61"/><path class="cls-9" d="M118,725c3.81,1,6.66-3.4,8.12-7.06,7.85-19.79,15-40.17,27.24-57.6a116.34,116.34,0,0,1,33-31.38c9.11-5.74,24.53-9.85,30.05-19.35-18.74-2.53-45.65,20-57.71,32C136.36,663.8,121.29,693.54,118,725Z"/><path class="cls-10" d="M284.5,681.22c54.68,0,99,40.67,99,90.84s-44.32,90.84-99,90.84"/><path class="cls-9" d="M221,679.43a8,8,0,0,1,.32-13.9L248,650.94l26.71-14.59a8,8,0,0,1,11.87,7.24L285.89,674l-.72,30.43A8,8,0,0,1,273,711.11l-26-15.84Z"/><path class="cls-9" d="M130,1237c3.81,1,6.66-3.4,8.12-7.06,7.85-19.79,15-40.17,27.24-57.6a116.34,116.34,0,0,1,33-31.38c9.11-5.74,24.53-9.85,30.05-19.35-18.74-2.53-45.65,20-57.71,32C148.36,1175.8,133.29,1205.54,130,1237Z"/><path class="cls-9" d="M422,1281v-41H385.24a91.92,91.92,0,0,0-13.42-28.6l25.78-23.2-24.75-27.5-28.17,25.35A86.37,86.37,0,0,0,320,1176v-36H275v37.49a86.71,86.71,0,0,0-25.56,12.79l-27.77-27.77-26.16,26.16,29.09,29.09A91.58,91.58,0,0,0,214.27,1244H174v37h39.45a91.74,91.74,0,0,0,11.6,31.11L195.4,1338.8l24.75,27.5,30-27A86.57,86.57,0,0,0,278,1352.47V1388h45v-35.66a86.84,86.84,0,0,0,26.07-12.11l23.26,23.26,26.16-26.16-23.86-23.87A91.8,91.8,0,0,0,387.05,1281Z"/><ellipse class="cls-1" cx="300" cy="1264" rx="30" ry="31"/><path class="cls-1" d="M866.52,1070.26h-4.89l-2-1.32c-4.26-2.82-41.94-28.1-53.33-48.21l-2.68-4.83A38.46,38.46,0,0,1,864.07,971a38.46,38.46,0,0,1,60.46,44.95l-.27.53-2.38,4.26c-11.42,20.15-49.1,45.43-53.36,48.25ZM818,1008.89l2.23,4c7.12,12.56,31,30.8,43.84,39.73,12.82-8.93,36.74-27.19,43.86-39.77l2.21-4a22.17,22.17,0,0,0,2-9.21,22.47,22.47,0,0,0-41.35-12.19l-6.72,10.37-6.71-10.37A22.47,22.47,0,0,0,816,999.68,22.17,22.17,0,0,0,818,1008.89Z"/><path class="cls-1" d="M946.1,1256s32.16-21.27,40.82-36.56l1.92-3.42a24.49,24.49,0,0,0-42.77-23.62A24.49,24.49,0,0,0,903.3,1216l1.92,3.42C913.88,1234.73,946,1256,946,1256Z"/><path class="cls-1" d="M848,1256s32.16-21.27,40.82-36.56l1.92-3.42A24.49,24.49,0,0,0,848,1192.4,24.49,24.49,0,0,0,805.22,1216l1.91,3.42C815.8,1234.73,848,1256,848,1256Z"/><path class="cls-1" d="M743.1,1256s32.16-21.27,40.82-36.56l1.92-3.42a24.49,24.49,0,0,0-42.77-23.62A24.49,24.49,0,0,0,700.3,1216l1.92,3.42C710.88,1234.73,743,1256,743,1256Z"/></svg>
