<svg id="Layer_1" data-name="Layer 1" xmlns="http://www.w3.org/2000/svg" width="300" height="80" viewBox="0 0 300 80"><defs><style>.cls-1{fill:#262660;}</style></defs><title>full_life</title><path class="cls-1" d="M251.53,77.4s32.16-21.27,40.82-36.55l1.92-3.43A24.48,24.48,0,0,0,251.5,13.81a24.48,24.48,0,0,0-42.77,23.61l1.92,3.43c8.66,15.28,40.82,36.55,40.82,36.55Z"/><path class="cls-1" d="M153.45,77.4s32.16-21.27,40.82-36.55l1.91-3.43a24.48,24.48,0,0,0-42.76-23.61,24.48,24.48,0,0,0-42.77,23.61l1.91,3.43c8.66,15.28,40.83,36.55,40.83,36.55Z"/><path class="cls-1" d="M48.53,77.4S80.69,56.13,89.35,40.85l1.92-3.43A24.48,24.48,0,0,0,48.5,13.81,24.48,24.48,0,0,0,5.73,37.42l1.92,3.43C16.31,56.13,48.47,77.4,48.47,77.4Z"/></svg>
