<svg id="Layer_1" data-name="Layer 1" xmlns="http://www.w3.org/2000/svg" xmlns:xlink="http://www.w3.org/1999/xlink" width="1080" height="1920" viewBox="0 0 1080 1920"><defs><style>.cls-1{fill:url(#radial-gradient);}.cls-2{fill:url(#linear-gradient);}.cls-3{fill:url(#linear-gradient-2);}.cls-4{fill:url(#linear-gradient-3);}.cls-5{fill:url(#linear-gradient-4);}.cls-6{fill:url(#linear-gradient-5);}.cls-7{fill:url(#linear-gradient-6);}.cls-8{fill:url(#linear-gradient-7);}.cls-9{fill:url(#linear-gradient-8);}.cls-10{fill:url(#linear-gradient-9);}.cls-11{fill:url(#linear-gradient-10);}.cls-12{fill:url(#linear-gradient-11);}.cls-13{fill:url(#linear-gradient-12);}.cls-14{fill:url(#linear-gradient-13);}.cls-15{fill:url(#linear-gradient-14);}.cls-16{fill:url(#linear-gradient-15);}.cls-17{fill:url(#linear-gradient-16);}.cls-18{fill:url(#linear-gradient-17);}.cls-19{fill:url(#linear-gradient-18);}.cls-20{fill:url(#linear-gradient-19);}.cls-21{fill:url(#linear-gradient-20);}.cls-22{fill:url(#linear-gradient-21);}.cls-23{fill:#f7f7f7;}.cls-24{stroke:#000;stroke-width:0.25px;}.cls-24,.cls-27,.cls-29{stroke-miterlimit:10;}.cls-25{fill:#39c;}.cls-26{fill:#fff;}.cls-27,.cls-29{fill:none;stroke:#fff;}.cls-27{stroke-width:35px;}.cls-28{fill:#262660;}.cls-29{stroke-width:41px;}</style><radialGradient id="radial-gradient" cx="540.5" cy="964" r="781.48" gradientUnits="userSpaceOnUse"><stop offset="0" stop-color="#fff"/><stop offset="1" stop-color="#80bed6"/></radialGradient><linearGradient id="linear-gradient" x1="-6" y1="485.4" x2="553.26" y2="485.4" gradientUnits="userSpaceOnUse"><stop offset="0.13" stop-color="#80bed6"/><stop offset="0.88" stop-color="#fff"/></linearGradient><linearGradient id="linear-gradient-2" x1="546.63" y1="484.3" x2="1076" y2="484.3" gradientUnits="userSpaceOnUse"><stop offset="0.26" stop-color="#fff"/><stop offset="0.82" stop-color="#80bed6"/><stop offset="0.9" stop-color="#8ec5db"/></linearGradient><linearGradient id="linear-gradient-3" x1="-6" y1="1444.07" x2="545.61" y2="1444.07" gradientUnits="userSpaceOnUse"><stop offset="0" stop-color="#80bed6"/><stop offset="0.19" stop-color="#86c1d8"/><stop offset="0.7" stop-color="#fff"/></linearGradient><linearGradient id="linear-gradient-4" x1="547.29" y1="1442.23" x2="1076" y2="1442.23" gradientUnits="userSpaceOnUse"><stop offset="0.32" stop-color="#fff"/><stop offset="0.58" stop-color="#80bed6"/><stop offset="0.84" stop-color="#86c1d8"/></linearGradient><linearGradient id="linear-gradient-5" x1="525.55" y1="715.53" x2="373.12" y2="8.82" gradientUnits="userSpaceOnUse"><stop offset="0" stop-color="#fff"/><stop offset="0.58" stop-color="#bfdeea"/><stop offset="1" stop-color="#80bed6"/></linearGradient><linearGradient id="linear-gradient-6" x1="598.41" y1="813.3" x2="751.24" y2="-174.71" gradientUnits="userSpaceOnUse"><stop offset="0.02" stop-color="#fff"/><stop offset="0.71" stop-color="#80bed6"/><stop offset="0.9" stop-color="#8ec5db"/></linearGradient><linearGradient id="linear-gradient-7" x1="291.63" y1="1445.04" x2="547.31" y2="1445.04" xlink:href="#linear-gradient-3"/><linearGradient id="linear-gradient-8" x1="549.51" y1="1445.04" x2="805.19" y2="1445.04" gradientUnits="userSpaceOnUse"><stop offset="0" stop-color="#80bed6"/><stop offset="0" stop-color="#fff"/><stop offset="0.65" stop-color="#8fc6db"/><stop offset="0.75" stop-color="#86c1d8"/></linearGradient><linearGradient id="linear-gradient-9" x1="-6" y1="678.06" x2="547" y2="678.06" gradientUnits="userSpaceOnUse"><stop offset="0" stop-color="#fff"/><stop offset="0" stop-color="#80bed6"/><stop offset="0.84" stop-color="#fbfdfe"/></linearGradient><linearGradient id="linear-gradient-10" y1="1247.53" x2="543" y2="1247.53" xlink:href="#linear-gradient-3"/><linearGradient id="linear-gradient-11" x1="543.99" y1="694.86" x2="1076" y2="694.86" gradientUnits="userSpaceOnUse"><stop offset="0.39" stop-color="#fff"/><stop offset="0.82" stop-color="#80bed6"/><stop offset="0.9" stop-color="#8ec5db"/></linearGradient><linearGradient id="linear-gradient-12" x1="547.99" y1="1235.73" x2="1076" y2="1235.73" gradientUnits="userSpaceOnUse"><stop offset="0.06" stop-color="#fff"/><stop offset="0.28" stop-color="#f7fbfc"/><stop offset="0.6" stop-color="#86c1d8"/><stop offset="0.84" stop-color="#80bed6"/></linearGradient><linearGradient id="linear-gradient-13" x1="-6" y1="849.96" x2="550.06" y2="849.96" gradientUnits="userSpaceOnUse"><stop offset="0" stop-color="#80bed6"/><stop offset="0.7" stop-color="#fff"/></linearGradient><linearGradient id="linear-gradient-14" y1="1077.47" x2="550.06" y2="1077.47" xlink:href="#linear-gradient-3"/><linearGradient id="linear-gradient-15" x1="545.64" y1="1072.15" y2="1072.15" xlink:href="#linear-gradient-11"/><linearGradient id="linear-gradient-16" x1="549.64" y1="853.11" x2="1076" y2="853.11" gradientUnits="userSpaceOnUse"><stop offset="0.31" stop-color="#fff"/><stop offset="0.82" stop-color="#80bed6"/><stop offset="0.9" stop-color="#8ec5db"/></linearGradient><linearGradient id="linear-gradient-17" x1="539.15" y1="963.03" y2="963.03" xlink:href="#linear-gradient-11"/><linearGradient id="linear-gradient-18" y1="964" x2="555.85" y2="964" xlink:href="#linear-gradient-3"/><linearGradient id="linear-gradient-19" x1="558.57" y1="2434.71" x2="544.33" y2="975.49" gradientUnits="userSpaceOnUse"><stop offset="0" stop-color="#656565"/><stop offset="0.36" stop-color="#00003f"/><stop offset="0.74" stop-color="#86baff"/><stop offset="0.98" stop-color="#3e3e3e"/></linearGradient><linearGradient id="linear-gradient-20" x1="-4.5" y1="1113.42" x2="1076.5" y2="1113.42" gradientUnits="userSpaceOnUse"><stop offset="0" stop-color="#656565"/><stop offset="0.12"/><stop offset="0.42" stop-color="#3e3e3e"/><stop offset="0.95" stop-color="#fff"/></linearGradient><linearGradient id="linear-gradient-21" x1="543.89" y1="1571.56" x2="532.13" y2="483.75" gradientUnits="userSpaceOnUse"><stop offset="0" stop-color="#656565"/><stop offset="0.36" stop-color="#00003f"/><stop offset="0.79" stop-color="#86baff"/><stop offset="0.98" stop-color="#3e3e3e"/></linearGradient></defs><title>game_over_full</title><rect class="cls-1" width="1081" height="1928"/><polygon class="cls-2" points="553.26 968.8 -6 147.84 -6 2 123.57 2 553.26 968.8"/><polygon class="cls-3" points="1076 2 1076 210.03 549.79 962.08 549.27 962.83 549.05 963.15 549.04 963.15 548.68 963.67 548.35 964.14 548.3 964.2 548.3 964.21 548 964.64 546.63 966.6 547.11 965.56 547.11 965.55 547.12 965.54 548.09 963.42 548.29 962.98 548.3 962.98 548.82 961.84 549.14 961.13 989.88 2 1076 2"/><polygon class="cls-4" points="545.61 962.13 545.24 963.02 545.23 963.05 545.04 963.49 544.99 963.61 544.87 963.9 544.78 964.1 544.53 964.71 544.13 965.65 141.14 1926 -6 1926 -6 1809.41 543.27 965.72 543.71 965.04 544.35 964.06 544.51 963.82 544.67 963.58 545 963.07 545.07 962.95 545.61 962.13"/><polygon class="cls-5" points="1076 1724.14 1076 1926 984.64 1926 551.27 967.26 550.58 965.73 550.29 965.09 550.06 964.57 550.01 964.47 549.87 964.16 549.82 964.05 549.45 963.23 549.42 963.18 549.42 963.17 549.27 962.83 549.23 962.75 549.2 962.68 549.17 962.6 548.82 961.84 548.05 960.13 547.78 959.53 547.29 958.45 547.81 959.2 548.16 959.71 549.14 961.13 549.73 961.98 549.74 962 549.79 962.08 550.03 962.42 550.08 962.5 550.15 962.6 550.79 963.52 550.97 963.78 551.24 964.18 551.61 964.71 551.78 964.95 551.79 964.96 554.01 968.18 558.52 974.73 558.54 974.75 1076 1724.14"/><polygon class="cls-6" points="547.31 958.17 293.16 2 450.13 2 547.31 958.17"/><polygon class="cls-7" points="802.72 2 547.51 962.17 645.09 2 802.72 2"/><polygon class="cls-8" points="547.31 964.07 547.28 964.32 547.27 964.42 547.18 965.37 547.17 965.42 547.17 965.49 547.12 965.89 547.05 966.58 449.55 1926 291.63 1926 546.55 966.94 546.64 966.58 546.65 966.56 546.84 965.84 546.96 965.39 547.22 964.41 547.24 964.32 547.31 964.07"/><polygon class="cls-9" points="805.19 1926 647.27 1926 549.67 965.61 549.62 965.15 549.61 965.04 549.6 964.92 549.59 964.83 549.58 964.78 549.56 964.53 549.51 964.07 549.63 964.53 549.68 964.71 549.73 964.89 549.74 964.95 549.79 965.14 549.8 965.18 550.01 965.96 805.19 1926"/><polygon class="cls-10" points="-6 393.34 547 962.77 -6 567.77 -6 393.34"/><polygon class="cls-11" points="543 964.88 542.26 965.65 542.08 965.83 -6 1530.19 -6 1357.02 541.49 965.96 541.61 965.87 543 964.88"/><polygon class="cls-12" points="1076 420.96 1076 588.76 551.21 963.61 550.97 963.78 550.23 964.31 550.01 964.47 549.41 964.9 549.16 965.08 543.99 968.77 547.11 965.56 547.11 965.55 547.12 965.54 548 964.64 548.36 964.27 548.43 964.2 548.87 963.75 549.38 963.22 549.42 963.18 549.42 963.17 550.08 962.5 1076 420.96"/><polygon class="cls-13" points="1076 1341.03 1076 1507.57 558.54 974.75 558.52 974.73 551.27 967.26 550.01 965.96 549.67 965.61 549.26 965.18 548.84 964.76 548.53 964.44 548.3 964.21 548.3 964.2 547.99 963.88 548.35 964.14 548.43 964.2 548.8 964.46 548.94 964.56 549.37 964.87 549.41 964.9 549.61 965.04 549.75 965.14 549.8 965.17 549.8 965.18 550.58 965.73 554.01 968.18 1076 1341.03"/><polygon class="cls-14" points="550.06 965.02 549.43 964.88 548.05 964.59 548.04 964.58 547.6 964.49 545.93 964.13 545.92 964.13 544.01 963.71 544 963.71 542.47 963.38 542.45 963.38 -6 844.99 -6 734.9 545.91 963.3 545.92 963.3 546.91 963.72 547.11 963.8 547.12 963.8 547.79 964.08 548.26 964.27 548.33 964.3 549.54 964.81 550.06 965.02"/><polygon class="cls-15" points="550.06 962.41 549.36 962.7 548.2 963.18 546.91 963.72 546.77 963.77 545.93 964.13 545.92 964.13 541.74 965.86 541.73 965.86 -6 1192.53 -6 1082.43 528.72 967.02 528.75 967.01 528.78 967.01 544 963.71 544.01 963.71 544.65 963.58 545.91 963.3 545.92 963.3 548.39 962.77 549.47 962.54 550.06 962.41"/><polygon class="cls-16" points="1076 1076.88 1076 1181.89 551.8 964.96 551.79 964.96 551.78 964.95 551.08 964.66 550.23 964.31 549.87 964.16 549.55 964.03 548.87 963.75 548.68 963.67 548.09 963.42 547.85 963.33 547.15 963.04 546.82 962.9 545.64 962.41 546.87 962.67 546.92 962.69 547.59 962.83 547.85 962.89 548.29 962.98 548.3 962.98 548.55 963.04 549.04 963.15 549.05 963.15 549.38 963.22 549.45 963.23 550.79 963.52 551.21 963.61 555.74 964.59 555.8 964.6 559.59 965.42 1076 1076.88"/><polygon class="cls-17" points="1076 744.2 1076 848.4 555.09 960.84 550.79 961.77 550.78 961.77 549.87 961.97 549.74 962 549.64 962.02 549.73 961.98 549.91 961.91 551.15 961.39 551.16 961.38 558.67 958.28 1076 744.2"/><polygon class="cls-18" points="1076 914.64 1076 1011.42 559.6 965.42 559.59 965.42 553.11 964.84 551.61 964.71 551.09 964.66 551.08 964.66 550.06 964.57 549.89 964.56 549.63 964.53 549.56 964.53 548.8 964.46 548.68 964.45 548.53 964.44 548.22 964.41 548.17 964.4 547.66 964.36 547.28 964.32 547.24 964.32 546.51 964.26 545.77 964.19 544.78 964.1 544.35 964.06 542.95 963.94 539.15 963.6 542.01 963.34 542.19 963.32 545 963.07 545.23 963.05 545.28 963.04 546.82 962.9 547.59 962.83 548.4 962.76 548.49 962.75 549.2 962.68 549.38 962.67 549.46 962.66 549.97 962.61 550.15 962.6 552.99 962.34 553 962.34 1076 914.64"/><polygon class="cls-19" points="555.85 964.6 548.97 965.21 547.51 965.34 547.3 965.36 547.29 965.36 547.2 965.37 541.74 965.86 541.73 965.86 528.8 967.01 528.75 967.01 528.72 967.02 -6 1014.65 -6 913.36 542.45 963.38 542.47 963.38 544.65 963.58 546.77 963.77 547.11 963.8 547.12 963.8 547.88 963.87 547.89 963.87 548.5 963.93 548.67 963.95 550.51 964.11 555.85 964.6"/><path class="cls-20" d="M874.05,1032H219.45C104.8,1032,11,1118.15,11,1223.44L86.4,1938h957.9l38.2-714.56C1082.5,1118.15,988.7,1032,874.05,1032Z"/><path class="cls-21" d="M1076.5,1051.08v193c-75.48,28.15-245.1,10.64-531.95,9.58-264-1-474.42,19-549-32.2V1076c78-132.84,269.85-107,549.05-107C805.1,969,990.76,945.76,1076.5,1051.08Z"/><path class="cls-22" d="M1075.5,1097.84v82.55c-47.66,37.75-212.35,21.06-529.37,20.19-334-.92-576.75,24.61-539.94-79.84,49.89-141.57,242-118.38,539.94-118.38C827,1002.36,1015.22,981.06,1075.5,1097.84Z"/><ellipse class="cls-23" cx="485.6" cy="1464.84" rx="80.4" ry="95.1"/><ellipse class="cls-23" cx="617.68" cy="1479.65" rx="55.9" ry="66.12"/><circle class="cls-24" cx="501.72" cy="1476.07" r="34.06"/><circle class="cls-24" cx="616.25" cy="1478.44" r="34.06"/><path d="M518.42,1305.73c-14.74-23.31-38.1-39.22-65.79-44.78a110.17,110.17,0,0,0-80.86,15.31l-.54-.85A111.16,111.16,0,0,1,452.82,1260c28,5.62,51.56,21.68,66.44,45.23Z"/><path d="M595.67,1362.5l-.83-.56a58.55,58.55,0,0,1,81.23-15.66l-.56.83A57.55,57.55,0,0,0,595.67,1362.5Z"/><path d="M520.91,1731.78a93.23,93.23,0,0,1-14.95-1.24c-26.81-4.36-46-18.58-43.8-32.37l4.93.8c-1.73,10.66,16.43,22.86,39.67,26.64,11.74,1.91,23.1,1.49,32-1.19,8.15-2.46,13.28-6.65,14.07-11.5l4.94.8c-1.12,6.91-7.36,12.41-17.57,15.48A67.23,67.23,0,0,1,520.91,1731.78Z"/><path d="M393.2,1635.64l-4.07-2.91c28.19-39.39,75-61.83,131.82-63.19,56.55-1.32,116.29,18.38,168.21,55.54l-2.91,4.06C581.08,1553.88,449.62,1556.8,393.2,1635.64Z"/><path class="cls-25" d="M224.66,324.81q31.17-10.9,62.39-19A223.68,223.68,0,0,0,289.42,341,253.6,253.6,0,0,0,296.28,373c2.83,10,5.93,19,9.06,27.08s6.19,14.85,9,20.45c3.27,6.68,6.38,12.55,9.25,17.64a84.72,84.72,0,0,1-11.5,17c-4.89,5.78-11.6,11.26-20.27,16.6s-18.5,7.73-29.92,6.88-24.13-5.26-37.81-13.82-28.07-21.58-41.44-40-25.16-42.51-31.21-73.22-4.14-59.74,3.37-85.18A179.57,179.57,0,0,1,189,202c14.45-17.29,30.62-30.18,46.6-38.8s31.19-13.09,44.73-14a106.23,106.23,0,0,1,14.59,0,77.1,77.1,0,0,1,11.14,1.58,41.75,41.75,0,0,1,8.71,2.91c2.53,1.2,4.93,2.49,7.24,3.83a269,269,0,0,0-23.82,44.79c-3.74-10-7.76-17.1-13-20.93S273.07,176,264.27,177c-10.09,1.1-20.91,5.64-31.76,13.92s-21.32,19.7-30.25,34.24a158.26,158.26,0,0,0-19.93,51.13,175.33,175.33,0,0,0-1.25,62.05,181.17,181.17,0,0,0,17.77,55.19A145.7,145.7,0,0,0,226,431c9.62,9.41,19.2,15.45,28.22,18.5s17.07,2.39,24.27-1.65a33,33,0,0,0,7.63-5.65,26.17,26.17,0,0,0,5-7.69Q289,430,286.29,424c-1.52-3.45-3.33-7.65-5.34-12.61s-4.28-10.73-6.7-17.37c-2.62-7.2-5.33-15.23-8-24.14s-5.17-18.62-7.39-29.17q-15,5.2-30,11.08Q226.17,338.47,224.66,324.81Z"/><path class="cls-25" d="M424.72,406.5q-7.71-16.28-13.84-32.73a308.57,308.57,0,0,1-10.38-33.41q-25.37,5.11-50.7,12.17a253.22,253.22,0,0,0,4.85,38.14A301.5,301.5,0,0,0,365,428.27q-12.64,5.39-25.12,11.38a334,334,0,0,1-11.76-52.45,285.7,285.7,0,0,1-2.38-54.81,258.26,258.26,0,0,1,8.64-53.92,262.93,262.93,0,0,1,19.17-49.81,273.11,273.11,0,0,1,26.74-42.42,307.14,307.14,0,0,1,29.13-32.76q22.5,1.4,44.55,3.79a203,203,0,0,0-18.08,30.33A199.8,199.8,0,0,0,422,225.54a195.33,195.33,0,0,0-5.9,43,221.2,221.2,0,0,0,3.55,45A259.54,259.54,0,0,0,432,357.94a331.6,331.6,0,0,0,18.78,41.24Q437.7,402.54,424.72,406.5ZM403.36,192.11A233.31,233.31,0,0,0,364,258.78a224.88,224.88,0,0,0-14.38,69.75q23.16-5.47,46.29-9.41A260,260,0,0,1,392.45,256,234,234,0,0,1,406,192.15Z"/><path class="cls-25" d="M524.22,385.15a311.2,311.2,0,0,1-10.87-39.68A278.27,278.27,0,0,1,508,302.33a233.79,233.79,0,0,1,2.2-44.31,230.28,230.28,0,0,1,10.6-42.91l-1.74-.23a154.15,154.15,0,0,0-10,14.77,183.44,183.44,0,0,0-9,17,180.8,180.8,0,0,0-6.79,16.87C491.4,269,490,273.83,488.88,278a187.14,187.14,0,0,0-5.16,26.53A205.28,205.28,0,0,0,482.29,333a227.74,227.74,0,0,0,2.46,29.15,240,240,0,0,0,5.95,28.19q-12.7,2.36-25.33,5.26c-2-9.6-3.66-19.48-4.9-29.65a283.59,283.59,0,0,1-2.13-30.42,242.67,242.67,0,0,1,1.34-29.72,230,230,0,0,1,4.68-27.64,217.39,217.39,0,0,1,21.35-55.84A230,230,0,0,1,504,194.24,264.43,264.43,0,0,1,526.8,168q21.23,4,41.93,8.87c-22.85,26.13-34.77,53.88-40,80.51s-3.28,52.27,2.3,75.7l2,0a232.77,232.77,0,0,1,41.58-70.34c19.54-22.68,46-44,81.5-60.61q19.47,6.69,38.35,14.18A182.55,182.55,0,0,0,668.89,232a171,171,0,0,0-21.21,18.39,160.51,160.51,0,0,0-16.47,19.77,151.51,151.51,0,0,0-11.85,19.73,155.43,155.43,0,0,0-8.54,20.6A162.65,162.65,0,0,0,605,333.2a172.37,172.37,0,0,0-2.59,23.74,174.79,174.79,0,0,0,.64,23.45q-12.76-.08-25.54.4c-.06-8,.18-16.18.82-24.54a222.32,222.32,0,0,1,3.28-24.79,202.39,202.39,0,0,1,6-23.76A196,196,0,0,1,596,286.06c1.52-3.33,3.41-7.21,5.82-11.59s5.12-8.85,8.18-13.39,6.32-9,9.81-13.3,6.84-8.14,9.93-11.46l-1.64-.43a189.27,189.27,0,0,0-37.3,31.17A174.41,174.41,0,0,0,549.61,344a212.48,212.48,0,0,0-5.72,39Q534.05,383.9,524.22,385.15Z"/><path class="cls-25" d="M811.89,273.37c-5.34,1.92-10.43,4-15.31,6.3q-28.59-15.46-59-28.92a158.83,158.83,0,0,0-28.2,18.8,151,151,0,0,0-21,21.47q29.26,8.75,57.33,19.67-4.79,5-8.94,10.31-28-9.94-57-17.71A145.88,145.88,0,0,0,657.62,369q28.67,3.56,56.81,9.73-1.57,6.12-2.68,12.33a595.25,595.25,0,0,0-80.8-9.85c.76-7.18,1.79-14.51,3.18-22a211.82,211.82,0,0,1,5.3-22,187.13,187.13,0,0,1,7.6-20.9,181.89,181.89,0,0,1,9.53-18.83,177.18,177.18,0,0,1,12-18,180.1,180.1,0,0,1,15.75-18.07,191,191,0,0,1,19.39-17,229.15,229.15,0,0,1,22.18-15A854.93,854.93,0,0,1,811.89,273.37Z"/><path class="cls-25" d="M601.76,523.46c8,16.29,14.18,30.28,18.53,42.44s7.18,22.55,8.48,31.48,1.26,16.36-.13,22.51-3.87,11-7.52,14.48a17.52,17.52,0,0,1-13.5,5.07c-5.41-.23-11.79-2.75-19.56-7.84s-16.87-12.92-27.52-23.81a384.53,384.53,0,0,1-35.83-43.23c-13-17.95-23-34.77-29.53-49.82s-9.94-28.36-10.41-39.48,1.77-20.05,6.24-26.56a31.39,31.39,0,0,1,18.39-12.78,39.91,39.91,0,0,1,23.37,1.21c8,2.7,15.7,7.9,23.36,15.31s15.09,17.14,22.65,28.93S593.83,507.26,601.76,523.46Zm-16.35,6.69c-7.4-13.9-14.13-26-20.49-36.09S552.67,475.71,547,469.42s-11-10.71-16.1-13.1-9.91-3-14.25-1.68-7.77,4.4-9.8,9.23-2.54,11.55-1.22,20.06,4.62,18.85,10.06,30.77S529,540.18,538.91,555a386.35,386.35,0,0,0,27.34,36.32c8.12,9.42,15.1,16.44,21,21.3S598,620.32,602,621.37s7.06.47,9.47-1.63,3.68-5.35,4-9.88-.45-10.31-2.4-17.47a191.73,191.73,0,0,0-9.7-26C598.88,556.1,592.86,544.14,585.41,530.15Z"/><path class="cls-25" d="M674,565.6c-6.09-23.21-11.66-47-15.63-70.91s-6-48.46-4.46-72.9q12.23.16,24.48.91a184,184,0,0,0-4.66,29.11,224.1,224.1,0,0,0-.33,30.45c.55,10.17,1.65,20.2,3.16,30s3.35,19.12,5.36,27.9,4.11,16.84,6.16,24.2,4,13.8,5.73,19.32q-9.91,4-19.28,8.74c-3.46-5.08-7.51-11-12.19-17.9s-9.82-14.54-15.4-23-11.56-17.58-17.85-27.4-12.7-20.06-19.16-30.73S597,471.77,590.74,460.56,578.47,438.14,572.91,427q12-1.72,24.16-2.89c9.33,26.87,21.51,52.32,34.38,76a695.67,695.67,0,0,0,41.32,66Z"/><path class="cls-25" d="M766.49,435.6q-.66,5.5-1,11.06a501.34,501.34,0,0,0-49.94-7.84,189,189,0,0,0,.93,24.59c.82,8.19,2,16.14,3.46,23.8a413.55,413.55,0,0,1,43.57,2.28q.68,5.63,1.55,11.23a392.87,392.87,0,0,0-42.45-1.12c2.09,9.06,4.72,18.67,7.87,28.69s6.71,19.81,10.56,29.26a301.09,301.09,0,0,1,39.84-3.61q1.53,5.25,3.18,10.39a282.65,282.65,0,0,0-55.51,8.07q-2.85-8.46-5.94-17.6t-6.06-18.44q-3-9.29-5.62-18.41t-4.86-17.54c-1.47-5.6-3-11.53-4.39-17.81s-2.79-12.69-4-19.26-2.31-13.21-3.25-19.92-1.73-13.27-2.39-19.72A526,526,0,0,1,766.49,435.6Z"/><path class="cls-25" d="M830.78,455.07c14,5.27,24,12.39,30.28,20.29s8.23,16.48,7,26.07c-.78,6.21-2.84,10.73-6.41,13.71s-8.57,4.62-15.12,5.08a166.34,166.34,0,0,0,7.14,16.13c2.56,5,5.79,10.8,9.74,17.3a233.17,233.17,0,0,0,14.43,20.81q-11.12-2.9-22.15-5c-4.83-8.12-8.74-15.35-11.8-21.56s-5.43-11.49-7.15-15.77c-2-5-3.54-9.24-4.62-12.78q-11.45-2.68-22.84-4.67.68,6,1.82,12.4t2.61,12.77q1.45,6.39,3.24,12.74t3.79,12.25q-9.56-.72-19-.83-1.51-7.21-3.12-14.94t-3-15.53c-.93-5.18-1.76-10.31-2.5-15.35s-1.35-9.89-1.85-14.5-1-9.49-1.36-14.61-.64-10.34-.77-15.66-.14-10.66,0-16,.37-10.63.67-15.77Q810.49,447.49,830.78,455.07ZM811.13,458A136.17,136.17,0,0,0,808,482a187.75,187.75,0,0,0,.41,23.19q8.32,1.62,16.69,3.62a37.34,37.34,0,0,0,9.12,1.17A13.3,13.3,0,0,0,841,508.2a11.55,11.55,0,0,0,4.46-5.19,27.79,27.79,0,0,0,2.13-9.23c.71-7.74-.2-13.92-3.44-18.79s-8.65-8.82-16.45-11.54Q819.44,460.59,811.13,458Z"/><path class="cls-25" d="M905,560.89q-7.21-2.94-14.46-5.54-.27-3.45-.43-6.88a363.06,363.06,0,0,1,.33-37.25,151.91,151.91,0,0,1,3.93-27.43q12.55,6.69,24.85,14.11A101.61,101.61,0,0,0,909,520.26c-3,9.08-4.61,20.49-4.24,34C904.81,556.47,904.91,558.67,905,560.89ZM888.66,572a3.61,3.61,0,0,1,.42-2.55,3.89,3.89,0,0,1,2-1.58,7.72,7.72,0,0,1,3.35-.37,16.72,16.72,0,0,1,4.35,1,22.41,22.41,0,0,1,4.38,2.13,24.35,24.35,0,0,1,3.79,2.88,17.38,17.38,0,0,1,2.7,3.18,7.7,7.7,0,0,1,1.21,3,3.34,3.34,0,0,1-.46,2.42,3.46,3.46,0,0,1-2,1.33,9.51,9.51,0,0,1-3.3.23,18.14,18.14,0,0,1-4.13-.9,24.1,24.1,0,0,1-8.21-4.61C890.37,576.13,889,574.07,888.66,572Z"/><path class="cls-26" d="M487,1456.26a9.28,9.28,0,0,0-6.16,6.86,4.62,4.62,0,0,0,.47,3.5,2.37,2.37,0,0,0,3.15.82c1.83-1.26.38-4.65,2.08-6.07.87-.74,2.2-.58,3.21-1.1a2.6,2.6,0,1,0-3.76-2.71"/><path class="cls-26" d="M640.59,1471c.17-2.16-1.18-4.65-3.39-6.25a5.08,5.08,0,0,0-2.81-1.09c-1,0-1.79.68-1.56,1.53.42,1.55,3.43,2,4,3.56.3.8-.22,1.51-.13,2.3A2.81,2.81,0,0,0,640,1473c1.22-.44,1.16-2.22-.09-3.06"/><circle cx="551.94" cy="897.38" r="184.61"/><path class="cls-27" d="M531.5,809.27c54.85-10.09,101,41.57,101,92.83s-45.22,92.83-101,92.83"/><circle class="cls-28" cx="544.31" cy="889.92" r="184.61"/><path class="cls-26" d="M384,861c3.81,1,6.66-3.4,8.12-7.06,7.85-19.79,15-40.17,27.24-57.6a116.34,116.34,0,0,1,33-31.38c9.11-5.74,24.53-9.85,30-19.35-18.74-2.53-45.65,20-57.71,32C402.36,799.8,387.29,829.54,384,861Z"/><path class="cls-29" d="M550.5,817.22c54.68,0,99,40.67,99,90.84s-44.32,90.84-99,90.84"/><path class="cls-26" d="M487,815.43a8,8,0,0,1,.32-13.9L514,786.94l26.71-14.59a8,8,0,0,1,11.87,7.24L551.89,810l-.72,30.43A8,8,0,0,1,539,847.11l-26-15.84Z"/><circle cx="1008.47" cy="74.29" r="45.53"/><circle class="cls-28" cx="1007.24" cy="71.58" r="45.53"/><path class="cls-26" d="M968.43,65.11c.94.24,1.64-.84,2-1.75,1.94-4.88,3.7-9.9,6.72-14.2a28.63,28.63,0,0,1,8.15-7.74c2.24-1.42,6-2.43,7.41-4.77-4.63-.63-11.26,4.93-14.24,7.89A34.52,34.52,0,0,0,968.43,65.11Z"/><path class="cls-26" d="M1040.45,76V65.85h-9.06a22.7,22.7,0,0,0-3.31-7l6.36-5.72-6.11-6.78-6.95,6.25a21.32,21.32,0,0,0-6.08-2.48V41.19h-11.1v9.25a21.45,21.45,0,0,0-6.31,3.15l-6.84-6.85-6.46,6.45,7.18,7.18a22.64,22.64,0,0,0-2.55,6.47h-9.93V76H989a22.64,22.64,0,0,0,2.86,7.67l-7.31,6.58,6.1,6.78,7.4-6.65a21.17,21.17,0,0,0,6.87,3.24v8.77H1016v-8.8a21.11,21.11,0,0,0,6.43-3l5.73,5.74,6.46-6.45L1028.77,84a22.69,22.69,0,0,0,3.07-8Z"/><ellipse class="cls-28" cx="1010.37" cy="71.77" rx="7.4" ry="7.65"/></svg>
