<svg id="Layer_1" data-name="Layer 1" xmlns="http://www.w3.org/2000/svg" xmlns:xlink="http://www.w3.org/1999/xlink" width="1080" height="1920" viewBox="0 0 1080 1920"><defs><style>.cls-1{fill:#dae5e5;}.cls-1,.cls-8{stroke:#1d1d1b;}.cls-1,.cls-11,.cls-16,.cls-17,.cls-3,.cls-8{stroke-miterlimit:10;}.cls-2{fill:#2e1f00;}.cls-3{fill:#d3b862;stroke:#fff;}.cls-4{fill:#b50f0f;opacity:0.76;}.cls-5{fill:#8c0c0c;}.cls-6{fill:#204417;}.cls-16,.cls-17,.cls-7{fill:none;}.cls-8{fill:#a3c6c5;}.cls-9{fill:#9ec96b;}.cls-10{fill:#6c511b;}.cls-11,.cls-16,.cls-17{stroke-width:0.25px;}.cls-11{fill:url(#linear-gradient);stroke:url(#radial-gradient);}.cls-12{fill:#aaadad;}.cls-13{fill:#403f39;}.cls-14{fill:#e2e230;}.cls-15{fill:#ebf2f1;}.cls-16{stroke:url(#radial-gradient-2);}.cls-17{stroke:url(#radial-gradient-3);}.cls-18{fill:#fff;}.cls-19{fill:#fafcfc;}</style><linearGradient id="linear-gradient" x1="112.76" y1="513.9" x2="297.11" y2="513.9" gradientUnits="userSpaceOnUse"><stop offset="0" stop-color="#fff"/><stop offset="0.12" stop-color="#fbfbfb"/><stop offset="0.24" stop-color="#eee"/><stop offset="0.37" stop-color="#d8d8d8"/><stop offset="0.5" stop-color="#bababa"/><stop offset="0.63" stop-color="#939393"/><stop offset="0.77" stop-color="#636363"/><stop offset="0.9" stop-color="#2c2c2c"/><stop offset="1"/></linearGradient><radialGradient id="radial-gradient" cx="204.93" cy="513.9" r="67.01" xlink:href="#linear-gradient"/><radialGradient id="radial-gradient-2" cx="203.08" cy="707.84" r="57.12" xlink:href="#linear-gradient"/><radialGradient id="radial-gradient-3" cx="157.69" cy="944.69" r="25.62" gradientTransform="matrix(1, 0, 0, -1, 0, 1626.5)" xlink:href="#linear-gradient"/></defs><title>itmens_full</title><polygon class="cls-1" points="249 403 131.5 396.5 134 138 249 138 249 403"/><polygon class="cls-1" points="191.32 39.53 219.84 88.97 248.35 138.41 191.28 138.39 134.21 138.36 162.76 88.95 191.32 39.53"/><path class="cls-2" d="M284.93,1325.34C280.64,1275.77,263.34,1236,230,1236c-33.49,0-67.81,40.13-76.76,90A94,94,0,0,0,131,1387c0,51.36,40.63,93,90.75,93S304,1438.36,304,1387C304,1363.34,297.18,1341.75,284.93,1325.34Z"/><polygon class="cls-3" points="156 821 156 1168 353.5 877.5 156 821"/><rect class="cls-3" x="138.38" y="825.5" width="238.21" height="26" rx="12" transform="matrix(0.96, 0.27, -0.27, 0.96, 239.47, -38.46)"/><path class="cls-4" d="M169.8,844.64c-2.38,9,2.88,18.56,1.51,27.8-.46,3.08-1.64,6-2.5,9-1.63,5.64-2.15,11.54-2.62,17.39a1189.38,1189.38,0,0,0-1.89,160.74c1.7,30.33,4.42,61.72-6,90.24,13.22-6.53,14.36-25,23.57-36.49,3.62-4.53,8.68-8.23,10.36-13.78.84-2.78.74-5.78,1.7-8.52,2.12-6.07,8.63-9.16,13.63-13.21,16.16-13.1,17.88-38.58,34.18-51.52,4.68-3.71,10.59-6.45,13.23-11.81,1.31-2.66,1.65-5.71,2.87-8.42,2.08-4.58,6.41-7.65,9.76-11.4,11-12.26,11.92-32.35,25.56-41.55,2.32-1.56,4.94-2.75,6.86-4.78s2.92-4.6,4-7.12a165.45,165.45,0,0,1,19-33.73c4.34-6,9.37-12.73,7.83-19.94-1.28-6-6.91-10.16-12.79-11.76s-12.08-1.14-18.17-1.06c-8.95.13-18.09-.61-26.31-4.12s-15.34-9.76-23.89-12.65c-6.8-2.31-14.12-2.37-21.26-3.2-14.08-1.63-27.59-6.32-41-11l-23.29-8.1c-2.87,2.42-.43,8.17,3.3,7.78l2.93,20.9"/><circle class="cls-5" cx="206.5" cy="892.5" r="21.5"/><circle class="cls-5" cx="203.5" cy="1029.5" r="21.5"/><circle class="cls-5" cx="271.5" cy="953.5" r="21.5"/><circle class="cls-5" cx="181.5" cy="963.5" r="21.5"/><circle class="cls-5" cx="304.5" cy="895.5" r="21.5"/><path class="cls-6" d="M226,932.94c-1.08,0-1.44,1.59-.82,2.47s1.73,1.27,2.59,1.93c2.4,1.84,2.54,5.53,1.33,8.3s-3.46,4.94-5.31,7.33a1.47,1.47,0,0,0-.42,1.27,1.23,1.23,0,0,0,.77.67c2.53,1,5.09-1.18,7-3.15a2.67,2.67,0,0,0,.82-1.29,3.43,3.43,0,0,0-.5-1.86c-1.27-2.94-.35-6.29,0-9.48.21-1.89.18-4-.93-5.5s-3.62-2.19-4.93-.81"/><path class="cls-7" d="M110.48,163.31v.61"/><path class="cls-6" d="M178.47,1061.19c-.59-.06-.79,2.15-.45,3.33a11.74,11.74,0,0,0,1.4,2.6c1.31,2.48,1.38,7.47.73,11.21a75.73,75.73,0,0,1-2.88,9.88,4.15,4.15,0,0,0-.23,1.71,1.52,1.52,0,0,0,.42.91c1.37,1.31,2.76-1.6,3.77-4.26a5.91,5.91,0,0,0,.44-1.73,10.39,10.39,0,0,0-.27-2.51c-.69-4-.19-8.49,0-12.79a25,25,0,0,0-.5-7.42c-.6-2.1-2-2.95-2.68-1.1"/><path class="cls-6" d="M231.31,896.59a1.11,1.11,0,0,1,1.93-.55,10.08,10.08,0,0,1,1.2,2.49c1.16,2.33,3.93,2.75,6.13,1.87s4-2.74,6-4.23c.3-.23.67-.46,1-.29a1.08,1.08,0,0,1,.43.76c.49,2.37-1.37,4.52-3,6.05a2.06,2.06,0,0,1-1,.64c-.49,0-.92-.32-1.35-.6-2.09-1.38-4.7-.81-7.13-.73a5.14,5.14,0,0,1-4.06-1.28c-1.06-1.12-1.3-3.45-.14-4.54"/><path class="cls-6" d="M173.34,846.39a9,9,0,0,0-7.65,9.73c1.7.33,3.32-.71,4.93-1.36s3.86-.71,4.65.84c.68,1.34-.3,3-1.56,3.82s-2.79,1.18-4.05,2a6.29,6.29,0,0,0-1.91,8,18.12,18.12,0,0,0,9.61-16.82l-8.92-.19c.81-1.68,2.86-2.26,4.5-3.15s3.13-3,2-4.5a2.62,2.62,0,0,0-3.31,1.08"/><path class="cls-6" d="M254.25,979.62c1.4.68,2.54,7.36,2.35,13.85-.52.48-1-1-1.52-1.93s-1.18-1-1.43,1.19a15.28,15.28,0,0,0,.48,5.45c.39,1.18.86,1.68,1.25,2.88.76,2.39,1,7.63.59,11.37-1.88-4.43-3.09-14.24-3-23.95l2.74-.26a12.66,12.66,0,0,0-1.38-4.49,14.87,14.87,0,0,1-.61-6.41c.36-.79.83-.07,1,1.54"/><path class="cls-6" d="M195.42,976.51c8.05.4,14.54,4.24,13.46,8-3,.27-5.84-.58-8.67-1.12s-6.8-.58-8.18.69c-1.2,1.11.53,2.46,2.75,3.14s4.91,1,7.11,1.67c4.38,1.37,5.93,4.39,3.36,6.55-10.7-2.55-17.63-8.21-16.9-13.81l15.69-.15c-1.43-1.39-5-1.86-7.92-2.59s-5.5-2.49-3.46-3.69c2-.46,4.75-.05,5.82.88"/><polygon class="cls-8" points="299.87 363.29 249.13 403 249.13 138.25 302.07 133.84 299.87 363.29"/><path d="M134.25,272.87a12.54,12.54,0,0,1,12.18-10.16,6.54,6.54,0,0,1,5,2c1.73,2,1.25,5.14.3,7.64s-2.33,5-2.09,7.67c.33,3.6,3.48,6.27,6.64,8s6.71,3.11,9,5.88a9.76,9.76,0,0,1,1.63,9.87,8.38,8.38,0,0,1-8.42,5c-2.06-.26-4.6-1.19-5.89.43a4.15,4.15,0,0,0-.7,2c-.63,4.42-.32,8.91-.66,13.36s-1.4,9.06-4.33,12.42-8.11,5.07-12,2.94l-.23-5.86"/><path d="M189.46,202.07c-1.32,7.93,6.47,14.29,8.75,22,1.13,3.84.86,7.94.57,11.93,3.39,0,6.51-1.94,8.83-4.41s4-5.43,6-8.14c1.36-1.83,3.1-3.67,5.36-3.91,2.79-.3,5.29,2.06,6.17,4.71s.57,5.54.33,8.33a12.32,12.32,0,0,0,.48,5.83c.77,1.82,2.67,3.32,4.6,3,2.91-.54,3.69-4.28,3.77-7.22q.15-5.76,0-11.51a10.05,10.05,0,0,0-.79-4.39c-1.71-3.36-6.75-4.29-7.82-7.91-.86-2.9,1.39-5.78,3.78-7.63s5.24-3.48,6.36-6.29c1.37-3.41-.51-7.51-3.56-9.55-8.15-5.45-14.57,1.09-22.28,2.89C202.22,191.59,191.17,191.72,189.46,202.07Z"/><path d="M134.4,160.32c.87-1.61,3.88-3.56,5.69-3.4s2.9,2.25,4.17,3.68a7.55,7.55,0,0,0,8.31,1.91c4.5-1.87,6-7.86,4.5-12.49s-5.16-8.19-8.69-11.53c-4.11.13-9.88-.37-14-.24-.46,1.53,0,2.83,0,4.42C134.4,149.29,132.74,160.51,134.4,160.32Z"/><path d="M223.8,373.33c-2.09,3.17-1.47,8.18,1.92,9.89,2,1,4.68,1,5.77,2.87,1,1.71-.08,3.86-1.3,5.4s-2.73,3.15-2.69,5.12c0,2.43,2.73,4.25,5.14,3.89a6.92,6.92,0,0,0,5.14-4.67,15.94,15.94,0,0,0,.51-7.21c-.23-2.19-.53-4.65.84-6.38a17.6,17.6,0,0,1,2.2-1.92c3.24-2.88,3.32-7.83,3.16-12.16-.05-1.43-.38-3.22-1.77-3.57a3.41,3.41,0,0,0-2.12.42C235.56,367.24,227,368.53,223.8,373.33Z"/><path d="M249.13,255.18c-1.44-.24-3.45.47-4.87.82a3.61,3.61,0,0,0-2.86,2.91,5.78,5.78,0,0,0,.95,3A32.39,32.39,0,0,1,245.59,272a2.59,2.59,0,0,1,0,1c-.28,1.07-1.68,1.33-2.79,1.37s-2.51.34-2.75,1.43a2.25,2.25,0,0,0,.28,1.4,7.5,7.5,0,0,0,3.41,3.45c1.35.67,2.9.93,4.14,1.79a1.82,1.82,0,0,1,.78.93c.31,1-.8,1.85-1.74,2.34a2.44,2.44,0,0,0,2,.86"/><path d="M196.71,312.56a36.77,36.77,0,0,0,.76,21.8c.53,1.51,1.16,3.17.53,4.64-1.52,3.55-8.32,2-9.51,5.71,5.4,1.31,11.11.12,16.37-1.66,4.28-1.45,9.12-4.33,9-8.83-.12-4-4.31-7-4.78-11a3.12,3.12,0,0,1,.42-2.16c.72-1,2.15-1.15,3.39-1.19q8.55-.26,17.11,0a2.59,2.59,0,0,0,2.08-.56,2.13,2.13,0,0,0,.42-1.44c0-3.31-2.49-6-4.83-8.38-2-2-4.15-4.12-6.85-5.08s-6.15-.43-7.73,2c-.42.64-.85,1.48-1.61,1.5a2,2,0,0,1-1.17-.55C203.28,301.8,199.2,303.37,196.71,312.56Z"/><path d="M282,377.27,282,362.41c0-2.27.05-4.74,1.49-6.49a4.91,4.91,0,0,1,8.69,2.95c.84,1.1,2.44-1.1,3.29-2.2s1.31-.84,1.78-2.15,1.5-2.64,2.89-2.63"/><path d="M282.55,375.92a.73.73,0,0,0,.53.37c1.09-1.27,2.84-1.78,4.06-2.92a13.55,13.55,0,0,1,2.25-2.23c.26-.15.55-.25.81-.41a6,6,0,0,0,.71-.54c1.07-.89,2.17-1.74,3.28-2.59L295,367l1.1-.84c.81-.63,1.63-1.25,2.45-1.87a2.72,2.72,0,0,0,1.13-1.32,2.41,2.41,0,0,0,.07-.71l.09-9.36c0-.17-.06-.39-.22-.39a.33.33,0,0,0-.19.11A11.4,11.4,0,0,0,298,354.1c-.26.36-.49.75-.72,1.13a28.12,28.12,0,0,1-5.08,6.22c-1.06,1-2.2,1.86-3.21,2.88a28.93,28.93,0,0,0-5.73,9.48,7.74,7.74,0,0,0-.76,2.81,1.7,1.7,0,0,0,.67-.55"/><path class="cls-7" d="M303,365.57l0,0"/><path d="M288.85,371a.17.17,0,0,0-.2.08.51.51,0,0,0-.06.21.64.64,0,0,0,0,.34.24.24,0,0,0,.28.15.43.43,0,0,0,.12-.11,5.28,5.28,0,0,0,.5-.82.61.61,0,0,0-.69.29"/><path d="M272.2,136.24a37,37,0,0,0-3,6.33,4.6,4.6,0,0,0-.33,3.1,4.4,4.4,0,0,0,1.82,2,21,21,0,0,0,5.92,2.78,3.63,3.63,0,0,0,1.59.21,3,3,0,0,0,1.9-1.39c1.26-1.83,1.39-4.33,2.89-6,1.91-2.11,5.21-2,8-1.46.91.18,2,.36,2.64-.26a2.84,2.84,0,0,0,.69-1.25,7,7,0,0,0,.55-3.58,2.4,2.4,0,0,0-2.59-2"/><path d="M257.91,182.48a4.5,4.5,0,0,0-.38,4.07,7.9,7.9,0,0,0,2.57,3.32c.73.59,1.61,1.24,1.65,2.18s-1,1.79-1.94,2.21-2.06.81-2.52,1.75a2.6,2.6,0,0,0,1,3.05,7.65,7.65,0,0,0,3.23,1.19c2,.41,4.51.63,5.68-1.05.82-1.17.64-2.93,1.72-3.88a3.24,3.24,0,0,1,2.6-.54c1.66.24,3.19,1.05,4.83,1.36s3.64,0,4.46-1.5c1-1.7-.29-3.94-2-4.78s-3.8-.66-5.74-.49a2.14,2.14,0,0,1-1.71-.35,1.45,1.45,0,0,1-.38-1,6.26,6.26,0,0,1,1-2.76,2.76,2.76,0,0,0,.14-2.82,2.69,2.69,0,0,0-1-.74,10.91,10.91,0,0,0-7.14-1.07,28.49,28.49,0,0,1-3.18.48A3.45,3.45,0,0,0,257.91,182.48Z"/><path d="M274.84,260.4c.76,4.34,5.9,6.71,7.13,10.94.88,3.05-.51,6.33-2.43,8.87s-4.35,4.68-6,7.37a2.43,2.43,0,0,0,.78,4.05,25.58,25.58,0,0,0,11.85,3.62,5.47,5.47,0,0,0,2.67-.37,5.93,5.93,0,0,0,1.71-1.49,14.62,14.62,0,0,0,3.41-5.15c.72-2.38.18-5,.74-7.41a8.41,8.41,0,0,1,3-4.7,4.28,4.28,0,0,0,1.64-1.66c.54-1.47-1-2.77-2.06-3.93-2.29-2.49-2.73-6.17-2.48-9.55s1-6.74.75-10.12a30.11,30.11,0,0,0-1-5.12c-.46-1.76-1.1-3.74-2.76-4.5-4.68-2.13-7.34,5.74-9.83,8.2C278.85,252.48,274,255.33,274.84,260.4Z"/><path d="M249.23,323.34c2.31-.13,5,0,6.35,1.91,1.46,2,.53,4.82-.26,7.19a49.3,49.3,0,0,0-2.57,15.61,9.57,9.57,0,0,0,.33,2.92c.32,1,1,1.95,1.2,3,.65,2.88-1.78,5.49-4.18,7.2a14.69,14.69,0,0,1-.44,17.09"/><path d="M289.2,319.54a7.23,7.23,0,0,1-1.46,4.7c-.24.32-.52.74-.31,1.08a.93.93,0,0,0,.55.32,9.45,9.45,0,0,0,3.47.32,3.29,3.29,0,0,0,1.6-.48c1.12-.75,1.29-2.4,2.33-3.25.34-.28.75-.46,1.09-.74a1.19,1.19,0,0,0,.5-1.14,1.63,1.63,0,0,0-.48-.69l-1.32-1.29a3.54,3.54,0,0,0-1.31-.93c-.93-.3-2.33-1.44-3.14-1.36C289,316.26,289.15,318.38,289.2,319.54Z"/><path class="cls-9" d="M278.85,1323.61c-4.05-48.29-19-86.61-47.38-86.61-.8,0-1.59,0-2.39.1s-1.71-.1-2.59-.1c-29.57,0-59.83,34.28-71,78.85A97,97,0,0,0,131,1381c0,51.36,38.28,93,85.5,93s77.5-41.64,77.5-93C294,1359.34,288.62,1339.42,278.85,1323.61Z"/><circle class="cls-2" cx="217.5" cy="1392.5" r="41.5"/><circle class="cls-10" cx="212.5" cy="1392.5" r="41.5"/><rect class="cls-11" x="112.76" y="492.57" width="184.35" height="42.66" rx="9.5"/><path d="M292.54,497.14c0,7.57-35.94,0-86.85,0s-88.36,7.57-88.36,0S176.12,488,227,488,292.54,489.57,292.54,497.14Z"/><path class="cls-7" d="M121.62,583.8H122"/><path class="cls-7" d="M453.52,369.57l0,0"/><path class="cls-7" d="M132.38,583.8H132"/><path class="cls-2" d="M239,1238c0,1.66-3.58,3-8,3s-8-1.34-8-3,4.58-5,9-5S239,1236.34,239,1238Z"/><path d="M212.63,1852H151a17,17,0,0,1-17-17V1634a12,12,0,0,1,12-12h68a12,12,0,0,1,12,12l-1,199.87a2.45,2.45,0,0,1,0,.27c-1,6.93,0,13.86-11.63,17.73A2.23,2.23,0,0,1,212.63,1852Z"/><rect class="cls-12" x="162" y="1839" width="27" height="27" rx="12"/><rect class="cls-12" x="162" y="1609" width="27" height="27" rx="12"/><rect class="cls-13" x="131" y="1622" width="90" height="220" rx="12"/><path class="cls-14" d="M221,1785H131c-5,81,8,64.7,46,66.86C228,1854.77,222,1844.59,221,1785Z"/><polygon class="cls-14" points="196 1660 180 1660 180 1643 173 1643 173 1660 157 1660 157 1667 173 1667 173 1683 180 1683 180 1667 196 1667 196 1660"/><rect x="172.5" y="1801.5" width="7" height="38" transform="translate(1996.5 1644.5) rotate(90)"/><path class="cls-7" d="M237.86,1809.66H238"/><path class="cls-15" d="M282.93,730l-163-1a15,15,0,0,1-15-15l-20-163a15,15,0,0,1,15-15h210a15,15,0,0,1,15,15l-17.5,155.5C307.43,717.5,291.18,730,282.93,730Z"/><path class="cls-16" d="M283.06,702.82c0,11.36-52.36,15.24-90.65,15.24s-69.32-9.21-69.32-20.57"/><path class="cls-17" d="M192.41,671.59c-38.28,0-69.32,9.21-69.32,20.57"/><path class="cls-18" d="M112.74,550.83C106,554,103.81,562.46,103,569.89a158.7,158.7,0,0,0,1.16,43.69c.37,2.23.83,4.55,2.25,6.31s4.08,2.71,6,1.51l1.13-24.92c.22-4.85.48-9.88,2.73-14.19,2.12-4.09,5.8-7.1,9.39-10l13.62-11c7.06-5.7,7.95-14.69-2.81-15.59C130.66,545.23,117.86,548.44,112.74,550.83Z"/><path class="cls-19" d="M280.25,675.51a17.09,17.09,0,0,0,0,7c.65,2.27,2.56,4.37,4.92,4.46,4.07.16,6-4.91,6.57-8.93a216.29,216.29,0,0,0,2.08-40.53c-.12-2.89-.43-6.07-2.49-8.1-7.77-7.63-6.37,12.24-6.75,15.15C283.25,654.92,281.69,665.21,280.25,675.51Z"/><polygon class="cls-8" points="302.5 133.5 249.5 138.5 192 40 248 45 302.5 133.5"/><polygon class="cls-8" points="247.5 44.5 191.5 39.5 190.5 27.5 245.5 33.5 247.5 44.5"/><path class="cls-18" d="M199.06,877.76a3.54,3.54,0,0,0-3.48.11,3.58,3.58,0,0,0-1.64,3.08,1.48,1.48,0,0,0,.46,1.14c.58.47,1.48.09,2-.46a8.93,8.93,0,0,1,1.48-1.69,15.64,15.64,0,0,0,1.69-.84c.48-.41.51-1.41-.11-1.51"/><path class="cls-18" d="M216.59,902.11l-1.26,0-1.72,5.13c1.65,0,3.06-1.12,4.29-2.21.8-.7,1.67-1.75,1.18-2.69a1,1,0,0,1-1.28-.69,3,3,0,0,0-2.52.4"/><path class="cls-18" d="M193.39,897.79a4.07,4.07,0,0,0,.46,3.49,2.28,2.28,0,0,0,3.2.51c.19-.18.34-.39.51-.58.59-.63,1.45-1,2.09-1.53s1-1.67.4-2.27c-1.11-.62-2.62-1.2-3.53-.31a1.1,1.1,0,0,1-.51.4c-.79.15-.51-1.66-1.31-1.78l-1.23,2.64"/><path class="cls-18" d="M310.74,908l.13,2.45c.58.83,1.91.19,2.5-.63s1.17-1.91,2.18-1.93a4.13,4.13,0,0,0,.86,0,1.16,1.16,0,0,0,.83-1.15,3.34,3.34,0,0,0-.43-1.47c-.2-.41-.47-.88-.92-.93-.67-.09-1.05.72-1.6,1.11-1,.73-2.79,0-3.57,1a2.4,2.4,0,0,0,.1,2.29"/><path class="cls-18" d="M286,890.6a19.91,19.91,0,0,0,.21,5.34l1.07-3.12a2.28,2.28,0,0,0,0-2.08c-.46-.61-1.35-.59-2.1-.52"/><path class="cls-18" d="M316.86,885.5a7.79,7.79,0,0,1-.71,3.29,3.39,3.39,0,0,1-1.67,1.84,1.64,1.64,0,0,1-2.13-.79c-.31-.91.38-2.2-.41-2.73a1.39,1.39,0,0,0-.9-.16,6.42,6.42,0,0,0-2.74.82,2.09,2.09,0,0,1,1.12-2.65,6.13,6.13,0,0,1,3.16-.34c-.26.62.68,1.09,1.32.93s1.27-.62,1.93-.47l.34,2"/><path class="cls-18" d="M301.56,897l0,2a2.06,2.06,0,0,0,2.11-.86,1.5,1.5,0,0,0-.58-2.06c-.69-.3-1.66.39-1.38,1.08"/><path class="cls-18" d="M199.48,956.89l-.34,6.48a1.36,1.36,0,0,1-.19.77,1.4,1.4,0,0,1-1,.43,3,3,0,0,1-2-.25c-1-.69-.87-2.25-.43-3.42s1-2.47.49-3.58c-.24-.49-.7-.9-.72-1.45,0-.91,1.28-1.37,2-.87a3,3,0,0,1,1.08,2.41"/><path class="cls-18" d="M164.61,968.4a2.73,2.73,0,0,0,1.78,3.18c1.31.31,2.77-1.17,2.19-2.38a6.19,6.19,0,0,0-.67-.92,3,3,0,0,1-.48-2.39c-.66.07-1.33-.1-2-.08a1.64,1.64,0,0,0-1.6,1,1.1,1.1,0,0,0,1,1.33"/><path class="cls-18" d="M187.84,977a6.08,6.08,0,0,0-2.46-.79,2.09,2.09,0,0,0-2.08,1.26c-.41,1.28,1.17,2.51,2.48,2.22a4.11,4.11,0,0,0,2.65-2.81.56.56,0,0,0-.75-.21"/><path class="cls-18" d="M270.65,968c-.32-.09-.72-.17-.94.08a.65.65,0,0,0-.14.4,1.47,1.47,0,0,0,1,1.29,4.19,4.19,0,0,0,1.69.22c2,0,7.17,1,7.76-1.57C277.1,967.77,273.82,968.86,270.65,968Z"/><path class="cls-18" d="M278.18,937.45l.72,4.27a1.67,1.67,0,0,0,2-.89,2.54,2.54,0,0,0-2.36-3.54"/><path class="cls-18" d="M265.36,950.39a4.55,4.55,0,0,0-2.42-2.09,1.88,1.88,0,0,0-1.34-.06,2.32,2.32,0,0,0-1.05,1.43l-1.76,4.52a4.42,4.42,0,0,0,3.51.85,19.5,19.5,0,0,1,2.23-.53,1.67,1.67,0,0,1,1.82,1.07c.52.3.92-.54.93-1.13a7.61,7.61,0,0,0-.5-3.29,3,3,0,0,0-2.58-1.84"/><path class="cls-18" d="M278,956.67a4.69,4.69,0,0,1,5,2.23,6,6,0,0,0,.12-3.16,2,2,0,0,0-2.5-1.4c-1.05.46-1.19,1.87-1.16,3a.81.81,0,0,1,.8.58"/><path class="cls-18" d="M217.29,1032.15a4,4,0,0,1-6.23,4.16,1.44,1.44,0,0,1-.71-1.06c0-.67.66-1.1,1.21-1.48a7.49,7.49,0,0,0,3.16-5.13,3.94,3.94,0,0,1,.51-1.93c.84-1.09,2.8-.47,3.29.81a4.16,4.16,0,0,1-.92,3.84"/><path class="cls-18" d="M187.18,1023.43l-.1,3.94c0,.66.29,1.61.93,1.42a.94.94,0,0,0,.51-.47,4.74,4.74,0,0,0-2.08-6.54"/><path class="cls-18" d="M200.39,1043.27a6,6,0,0,0-2.76-.64,4.46,4.46,0,0,0,3.52,4.39,3.22,3.22,0,0,0,2.51-.34,1.83,1.83,0,0,0,.69-2.26,3,3,0,0,0-2.12-1.18l-3.2-.72"/><path class="cls-18" d="M202.36,1029.84a5.17,5.17,0,0,0-1.77-.36c-.68,0-1.56.34-1.47,1s.85.77,1.46.81l3.51.22a2.82,2.82,0,0,0-2.11-2.41"/><path class="cls-18" d="M211.25,1015.61a6.67,6.67,0,0,1,2.93,1.67,1.53,1.53,0,0,0,0-1.8,4.53,4.53,0,0,0-1.47-1.24c-.9-.56-2-1.15-3-.7a1.72,1.72,0,0,0,1,1.34"/><path class="cls-18" d="M194.66,1363.37c-3.73,1.38-7.57,2.83-10.47,5.56s-4.62,7.1-3.11,10.78c4.15-.24,4.94-6.2,8.15-8.86a29.31,29.31,0,0,1,3.82-2.19,4.48,4.48,0,0,0,2.47-3.43c0-1.47-1.71-2.87-2.94-2.07"/><path class="cls-7" d="M27.23,1329l.69.7"/><path class="cls-18" d="M170.7,1613a4.28,4.28,0,0,0-4.12,2.34,12,12,0,0,0-1.19,4.85c.64.25,1.09-.6,1.33-1.24a6.64,6.64,0,0,1,3.85-3.88,4.47,4.47,0,0,0,1.4-.64,1.07,1.07,0,0,0,.31-1.37L170,1613"/><path class="cls-18" d="M139.16,1842.82a8.17,8.17,0,0,0,1.28,1.8,7,7,0,0,0,1.66,1.13,22.94,22.94,0,0,0,13.58,2.52,1.5,1.5,0,0,0,1.1-.48c.5-.71-.4-1.58-1.2-1.93-3.82-1.68-8.26-2-11.69-4.36a16.75,16.75,0,0,1-5.68-8,58.68,58.68,0,0,1-2.7-10.86c-.27-1.52-.72-3.76-2.48-1.87a2.61,2.61,0,0,0-.49,2.72C133.92,1830.17,135.79,1836.83,139.16,1842.82Z"/></svg>
