<svg id="Layer_1" data-name="Layer 1" xmlns="http://www.w3.org/2000/svg" xmlns:xlink="http://www.w3.org/1999/xlink" width="1080" height="1920" viewBox="0 0 1080 1920"><defs><style>.cls-1{fill:url(#radial-gradient);}.cls-2{fill:url(#linear-gradient);}.cls-3{fill:url(#linear-gradient-2);}.cls-4{fill:url(#linear-gradient-3);}.cls-5{fill:url(#linear-gradient-4);}.cls-6{fill:url(#linear-gradient-5);}.cls-7{fill:url(#linear-gradient-6);}.cls-8{fill:url(#linear-gradient-7);}.cls-9{fill:url(#linear-gradient-8);}.cls-10{fill:url(#linear-gradient-9);}.cls-11{fill:url(#linear-gradient-10);}.cls-12{fill:url(#linear-gradient-11);}.cls-13{fill:url(#linear-gradient-12);}.cls-14{fill:url(#linear-gradient-13);}.cls-15{fill:url(#linear-gradient-14);}.cls-16{fill:url(#linear-gradient-15);}.cls-17{fill:url(#linear-gradient-16);}.cls-18{fill:url(#linear-gradient-17);}.cls-19{fill:url(#linear-gradient-18);}.cls-20{fill:url(#linear-gradient-19);}.cls-21{fill:url(#linear-gradient-20);}.cls-22{fill:url(#linear-gradient-21);}.cls-23{fill:#f7f7f7;}.cls-24,.cls-27{stroke:#000;stroke-miterlimit:10;}.cls-24{stroke-width:0.25px;}.cls-25{fill:#ff000f;opacity:0.65;}.cls-26{fill:#fff;}.cls-27{fill:none;stroke-width:2px;}.cls-28{fill:url(#linear-gradient-22);}.cls-29{fill:url(#linear-gradient-23);}.cls-30{fill:url(#linear-gradient-24);}.cls-31{fill:url(#linear-gradient-25);}.cls-32{fill:url(#linear-gradient-26);}.cls-33{fill:url(#linear-gradient-27);}.cls-34{fill:url(#linear-gradient-28);}.cls-35{fill:url(#linear-gradient-29);}.cls-36{fill:url(#linear-gradient-30);}.cls-37{fill:url(#linear-gradient-31);}.cls-38{fill:url(#linear-gradient-32);}.cls-39{fill:url(#linear-gradient-33);}.cls-40{fill:url(#linear-gradient-34);}.cls-41{fill:url(#linear-gradient-35);}.cls-42{fill:#39c;}.cls-43{fill:url(#linear-gradient-36);}.cls-44{fill:url(#linear-gradient-37);}</style><radialGradient id="radial-gradient" cx="540.5" cy="964.21" r="781.48" gradientTransform="translate(0 -0.21) scale(1 1.01)" gradientUnits="userSpaceOnUse"><stop offset="0" stop-color="#fff"/><stop offset="1" stop-color="#80bed6"/></radialGradient><linearGradient id="linear-gradient" x1="-1" y1="509.4" x2="558.26" y2="509.4" gradientUnits="userSpaceOnUse"><stop offset="0.13" stop-color="#80bed6"/><stop offset="0.88" stop-color="#fff"/></linearGradient><linearGradient id="linear-gradient-2" x1="541.63" y1="513.3" x2="1071" y2="513.3" gradientUnits="userSpaceOnUse"><stop offset="0.26" stop-color="#fff"/><stop offset="0.82" stop-color="#80bed6"/><stop offset="0.9" stop-color="#8ec5db"/></linearGradient><linearGradient id="linear-gradient-3" y1="1467.89" x2="540.61" y2="1467.89" gradientUnits="userSpaceOnUse"><stop offset="0" stop-color="#80bed6"/><stop offset="0.19" stop-color="#86c1d8"/><stop offset="0.7" stop-color="#fff"/></linearGradient><linearGradient id="linear-gradient-4" x1="542.29" y1="1466.04" x2="1071" y2="1466.04" gradientUnits="userSpaceOnUse"><stop offset="0.32" stop-color="#fff"/><stop offset="0.58" stop-color="#80bed6"/><stop offset="0.84" stop-color="#86c1d8"/></linearGradient><linearGradient id="linear-gradient-5" x1="520.55" y1="744.53" x2="368.12" y2="37.82" gradientUnits="userSpaceOnUse"><stop offset="0" stop-color="#fff"/><stop offset="0.58" stop-color="#bfdeea"/><stop offset="1" stop-color="#80bed6"/></linearGradient><linearGradient id="linear-gradient-6" x1="593.41" y1="842.3" x2="746.24" y2="-145.71" gradientUnits="userSpaceOnUse"><stop offset="0.02" stop-color="#fff"/><stop offset="0.71" stop-color="#80bed6"/><stop offset="0.9" stop-color="#8ec5db"/></linearGradient><linearGradient id="linear-gradient-7" x1="293.81" y1="1468.87" x2="542.31" y2="1468.87" xlink:href="#linear-gradient-3"/><linearGradient id="linear-gradient-8" x1="544.51" y1="1466.04" x2="795.94" y2="1466.04" gradientUnits="userSpaceOnUse"><stop offset="0" stop-color="#80bed6"/><stop offset="0" stop-color="#fff"/><stop offset="0.65" stop-color="#8fc6db"/><stop offset="0.75" stop-color="#86c1d8"/></linearGradient><linearGradient id="linear-gradient-9" x1="-11" y1="707.06" x2="542" y2="707.06" gradientUnits="userSpaceOnUse"><stop offset="0" stop-color="#fff"/><stop offset="0" stop-color="#80bed6"/><stop offset="0.84" stop-color="#fbfdfe"/></linearGradient><linearGradient id="linear-gradient-10" x1="-11" y1="1276.53" x2="538" y2="1276.53" xlink:href="#linear-gradient-3"/><linearGradient id="linear-gradient-11" x1="538.99" y1="723.86" x2="1071" y2="723.86" gradientUnits="userSpaceOnUse"><stop offset="0.39" stop-color="#fff"/><stop offset="0.82" stop-color="#80bed6"/><stop offset="0.9" stop-color="#8ec5db"/></linearGradient><linearGradient id="linear-gradient-12" x1="542.99" y1="1264.73" x2="1071" y2="1264.73" gradientUnits="userSpaceOnUse"><stop offset="0.06" stop-color="#fff"/><stop offset="0.28" stop-color="#f7fbfc"/><stop offset="0.6" stop-color="#86c1d8"/><stop offset="0.84" stop-color="#80bed6"/></linearGradient><linearGradient id="linear-gradient-13" x1="-11" y1="878.96" x2="545.06" y2="878.96" gradientUnits="userSpaceOnUse"><stop offset="0" stop-color="#80bed6"/><stop offset="0.7" stop-color="#fff"/></linearGradient><linearGradient id="linear-gradient-14" x1="-11" y1="1106.47" x2="545.06" y2="1106.47" xlink:href="#linear-gradient-3"/><linearGradient id="linear-gradient-15" x1="540.64" y1="1101.15" x2="1071" y2="1101.15" xlink:href="#linear-gradient-11"/><linearGradient id="linear-gradient-16" x1="544.64" y1="882.11" x2="1071" y2="882.11" gradientUnits="userSpaceOnUse"><stop offset="0.31" stop-color="#fff"/><stop offset="0.82" stop-color="#80bed6"/><stop offset="0.9" stop-color="#8ec5db"/></linearGradient><linearGradient id="linear-gradient-17" x1="534.15" y1="992.03" x2="1071" y2="992.03" xlink:href="#linear-gradient-11"/><linearGradient id="linear-gradient-18" x1="-11" y1="993" x2="550.85" y2="993" xlink:href="#linear-gradient-3"/><linearGradient id="linear-gradient-19" x1="547.57" y1="2419.71" x2="533.33" y2="960.49" gradientUnits="userSpaceOnUse"><stop offset="0" stop-color="#656565"/><stop offset="0.36" stop-color="#00003f"/><stop offset="0.74" stop-color="#86baff"/><stop offset="0.98" stop-color="#3e3e3e"/></linearGradient><linearGradient id="linear-gradient-20" x1="-9" y1="1113.42" x2="1072" y2="1113.42" gradientUnits="userSpaceOnUse"><stop offset="0" stop-color="#656565"/><stop offset="0.12"/><stop offset="0.42" stop-color="#3e3e3e"/><stop offset="0.95" stop-color="#fff"/></linearGradient><linearGradient id="linear-gradient-21" x1="539.39" y1="1555.56" x2="527.63" y2="467.75" gradientUnits="userSpaceOnUse"><stop offset="0" stop-color="#656565"/><stop offset="0.36" stop-color="#00003f"/><stop offset="0.79" stop-color="#86baff"/><stop offset="0.98" stop-color="#3e3e3e"/></linearGradient><linearGradient id="linear-gradient-22" x1="416.66" y1="959.86" x2="416.09" y2="1074.39" gradientUnits="userSpaceOnUse"><stop offset="0" stop-color="#fff"/><stop offset="1" stop-color="#d3c172"/></linearGradient><linearGradient id="linear-gradient-23" x1="599.27" y1="1088.56" x2="598.98" y2="1147.11" xlink:href="#linear-gradient-22"/><linearGradient id="linear-gradient-24" x1="318.65" y1="773.78" x2="318.18" y2="868.5" xlink:href="#linear-gradient-22"/><linearGradient id="linear-gradient-25" x1="504.34" y1="780.63" x2="504.06" y2="838.33" xlink:href="#linear-gradient-22"/><linearGradient id="linear-gradient-26" x1="815.76" y1="599.83" x2="815.61" y2="731.41" gradientUnits="userSpaceOnUse"><stop offset="0.18" stop-color="#fff"/><stop offset="0.84" stop-color="#d3c172"/></linearGradient><linearGradient id="linear-gradient-27" x1="671.4" y1="674.51" x2="670.94" y2="768.61" xlink:href="#linear-gradient-22"/><linearGradient id="linear-gradient-28" x1="686.3" y1="945.22" x2="685.88" y2="1029.45" xlink:href="#linear-gradient-22"/><linearGradient id="linear-gradient-29" x1="744.32" y1="820.41" x2="744.1" y2="865.93" xlink:href="#linear-gradient-22"/><linearGradient id="linear-gradient-30" x1="225.76" y1="510.9" x2="225.46" y2="570.67" xlink:href="#linear-gradient-22"/><linearGradient id="linear-gradient-31" x1="418.26" y1="604.31" x2="418.1" y2="636.66" xlink:href="#linear-gradient-22"/><linearGradient id="linear-gradient-32" x1="440.39" y1="901.94" x2="440.25" y2="929.65" xlink:href="#linear-gradient-22"/><linearGradient id="linear-gradient-33" x1="574.96" y1="893.47" x2="574.84" y2="916.65" xlink:href="#linear-gradient-22"/><linearGradient id="linear-gradient-34" x1="478.88" y1="1147.87" x2="478.69" y2="1186.08" xlink:href="#linear-gradient-22"/><linearGradient id="linear-gradient-35" x1="678.86" y1="1167.71" x2="678.78" y2="1185.24" xlink:href="#linear-gradient-22"/><linearGradient id="linear-gradient-36" x1="759.34" y1="288.63" x2="759.06" y2="346.33" xlink:href="#linear-gradient-22"/><linearGradient id="linear-gradient-37" x1="683.96" y1="401.47" x2="683.84" y2="424.65" xlink:href="#linear-gradient-22"/></defs><title>level_completed</title><rect class="cls-1" width="1081" height="1939"/><polygon class="cls-2" points="558.26 992.8 -1 171.84 -1 26 128.57 26 558.26 992.8"/><polygon class="cls-3" points="1071 31 1071 239.03 544.79 991.08 544.27 991.83 544.05 992.15 544.04 992.15 543.68 992.67 543.35 993.14 543.3 993.2 543.3 993.21 543 993.64 541.63 995.6 542.11 994.56 542.11 994.55 542.12 994.54 543.09 992.42 543.29 991.98 543.3 991.98 543.82 990.84 544.14 990.13 984.88 31 1071 31"/><polygon class="cls-4" points="540.61 996.78 540.24 997.68 540.23 997.71 540.04 998.15 539.99 998.27 539.87 998.57 539.78 998.77 539.53 999.38 539.13 1000.33 147.47 1939 0 1939 0 1831.9 538.27 1000.39 538.71 999.71 539.35 998.73 539.51 998.48 539.67 998.24 540 997.73 540.07 997.61 540.61 996.78"/><polygon class="cls-5" points="1071 1763.14 1071 1939 967.44 1939 546.27 1001.94 545.58 1000.4 545.29 999.76 545.06 999.24 545.01 999.14 544.87 998.83 544.82 998.72 544.45 997.89 544.42 997.84 544.42 997.83 544.27 997.49 544.23 997.41 544.2 997.34 544.17 997.26 543.82 996.49 543.05 994.77 542.78 994.17 542.29 993.08 542.81 993.84 543.16 994.35 544.14 995.78 544.73 996.63 544.74 996.65 544.79 996.73 545.03 997.08 545.08 997.16 545.15 997.26 545.79 998.18 545.97 998.44 546.24 998.85 546.61 999.38 546.78 999.62 546.79 999.63 549.01 1002.87 553.52 1009.46 553.54 1009.48 1071 1763.14"/><polygon class="cls-6" points="542.31 987.17 288.16 31 445.13 31 542.31 987.17"/><polygon class="cls-7" points="797.72 31 542.51 991.17 640.09 31 797.72 31"/><polygon class="cls-8" points="542.31 998.74 542.28 998.99 542.27 999.09 542.18 1000.04 542.17 1000.09 542.17 1000.16 542.12 1000.57 542.05 1001.26 447.29 1939 293.81 1939 541.55 1001.62 541.64 1001.26 541.65 1001.24 541.84 1000.52 541.96 1000.06 542.22 999.08 542.24 998.99 542.31 998.74"/><polygon class="cls-9" points="795.94 1939 640.64 1939 608.43 1622 544.67 994.61 544.62 994.15 544.61 994.04 544.6 993.92 544.59 993.83 544.58 993.78 544.56 993.53 544.51 993.07 544.63 993.53 544.68 993.71 544.73 993.89 544.74 993.95 544.79 994.14 544.8 994.18 545.01 994.96 711.68 1622 795.94 1939"/><polygon class="cls-10" points="-11 422.34 542 991.77 -11 596.77 -11 422.34"/><polygon class="cls-11" points="538 993.88 537.26 994.65 537.08 994.83 -11 1559.19 -11 1386.02 536.49 994.96 536.61 994.87 538 993.88"/><polygon class="cls-12" points="1071 449.96 1071 617.76 546.21 992.61 545.97 992.78 545.23 993.31 545.01 993.47 544.41 993.9 544.16 994.08 538.99 997.77 542.11 994.56 542.11 994.55 542.12 994.54 543 993.64 543.36 993.27 543.43 993.2 543.87 992.75 544.38 992.22 544.42 992.18 544.42 992.17 545.08 991.5 1071 449.96"/><polygon class="cls-13" points="1071 1370.03 1071 1536.57 553.54 1003.75 553.52 1003.73 546.27 996.26 545.01 994.96 544.67 994.61 544.26 994.18 543.84 993.76 543.53 993.44 543.3 993.21 543.3 993.2 542.99 992.88 543.35 993.14 543.43 993.2 543.8 993.46 543.94 993.56 544.37 993.87 544.41 993.9 544.61 994.04 544.75 994.14 544.8 994.17 544.8 994.18 545.58 994.73 549.01 997.18 1071 1370.03"/><polygon class="cls-14" points="545.06 994.02 544.43 993.88 543.05 993.59 543.04 993.58 542.6 993.49 540.93 993.13 540.92 993.13 539.01 992.71 539 992.71 537.47 992.38 537.45 992.38 -11 873.99 -11 763.9 540.91 992.3 540.92 992.3 541.91 992.72 542.11 992.8 542.12 992.8 542.79 993.08 543.26 993.27 543.33 993.3 544.54 993.81 545.06 994.02"/><polygon class="cls-15" points="545.06 991.41 544.36 991.7 543.2 992.18 541.91 992.72 541.77 992.77 540.93 993.13 540.92 993.13 536.74 994.86 536.73 994.86 -11 1221.53 -11 1111.43 523.72 996.02 523.75 996.01 523.78 996.01 539 992.71 539.01 992.71 539.65 992.58 540.91 992.3 540.92 992.3 543.39 991.77 544.47 991.54 545.06 991.41"/><polygon class="cls-16" points="1071 1105.88 1071 1210.89 546.8 993.96 546.79 993.96 546.78 993.95 546.08 993.66 545.23 993.31 544.87 993.16 544.55 993.03 543.87 992.75 543.68 992.67 543.09 992.42 542.85 992.33 542.15 992.04 541.82 991.9 540.64 991.41 541.87 991.67 541.92 991.69 542.59 991.83 542.85 991.89 543.29 991.98 543.3 991.98 543.55 992.04 544.04 992.15 544.05 992.15 544.38 992.22 544.45 992.23 545.79 992.52 546.21 992.61 550.74 993.59 550.8 993.6 554.59 994.42 1071 1105.88"/><polygon class="cls-17" points="1071 773.2 1071 877.4 550.09 989.84 545.79 990.77 545.78 990.77 544.87 990.97 544.74 991 544.64 991.02 544.73 990.98 544.91 990.91 546.15 990.39 546.16 990.38 553.67 987.28 1071 773.2"/><polygon class="cls-18" points="1071 943.64 1071 1040.42 554.6 994.42 554.59 994.42 548.11 993.84 546.61 993.71 546.09 993.66 546.08 993.66 545.06 993.57 544.89 993.56 544.63 993.53 544.56 993.53 543.8 993.46 543.68 993.45 543.53 993.44 543.22 993.41 543.17 993.4 542.66 993.36 542.28 993.32 542.24 993.32 541.51 993.26 540.77 993.19 539.78 993.1 539.35 993.06 537.95 992.94 534.15 992.6 537.01 992.34 537.19 992.32 540 992.07 540.23 992.05 540.28 992.04 541.82 991.9 542.59 991.83 543.4 991.76 543.49 991.75 544.2 991.68 544.38 991.67 544.46 991.66 544.97 991.61 545.15 991.6 547.99 991.34 548 991.34 1071 943.64"/><polygon class="cls-19" points="550.85 993.6 543.97 994.21 542.51 994.34 542.3 994.36 542.29 994.36 542.2 994.37 536.74 994.86 536.73 994.86 523.8 996.01 523.75 996.01 523.72 996.02 -11 1043.65 -11 942.36 537.45 992.38 537.47 992.38 539.65 992.58 541.77 992.77 542.11 992.8 542.12 992.8 542.88 992.87 542.89 992.87 543.5 992.93 543.67 992.95 545.51 993.11 550.85 993.6"/><path class="cls-20" d="M863.05,1017H208.45C93.8,1017,0,1103.15,0,1208.44L75.4,1923h957.9l38.2-714.56C1071.5,1103.15,977.7,1017,863.05,1017Z"/><path class="cls-21" d="M1072,1051.08v193c-75.48,28.15-245.1,10.64-531.95,9.58-264-1-474.42,19-549-32.2V1076C69,943.18,260.85,969,540.05,969,800.6,969,986.26,945.76,1072,1051.08Z"/><path class="cls-22" d="M1071,1081.84v82.55c-47.66,37.75-212.35,21.06-529.37,20.19-334-.92-576.75,24.61-539.94-79.84,49.89-141.57,242-118.38,539.94-118.38C822.45,986.36,1010.72,965.06,1071,1081.84Z"/><ellipse class="cls-23" cx="522.95" cy="1563.26" rx="80.4" ry="95.1"/><ellipse class="cls-23" cx="661.81" cy="1578.49" rx="55.9" ry="66.12"/><circle class="cls-24" cx="549.6" cy="1603.32" r="26.68"/><circle class="cls-24" cx="647.97" cy="1606.27" r="26.68"/><path class="cls-25" d="M560.8,1764.27c1.32,4.16,16.56,3,23.61,1.48,9.35-2,25.19-5.62,23.88-9.78s-17.55-8-26.66-5.12S559.49,1760.12,560.8,1764.27Z"/><path d="M429.82,1479.41l-1-.25c11.81-45.69,57-73.66,100.8-62.35l-.25,1C486.16,1406.61,441.5,1434.25,429.82,1479.41Z"/><path d="M727.49,1515.4a45,45,0,0,0-46.23-43.6l0-1a46,46,0,0,1,47.26,44.57Z"/><path d="M547.05,1762.58a36.73,36.73,0,0,1-4.23-3.85c-9.27-9.9-12.19-24.12-8.24-40.06l4.67-.51c-3.56,14.32-.88,27.16,7.55,36.15s21.88,13.17,37.61,11.44c32.3-3.53,64.58-30.64,72-60.42l4.66-.51c-8.11,32.7-43.08,62.41-77.95,66.22C568.69,1772.62,556.12,1769.63,547.05,1762.58Z"/><path d="M493.44,1700.87q-8.52-4.21-16.91-9.2l2.56-4.3c86.79,51.66,188.88,40.8,227.56-24.2l4.3,2.56C673.36,1728.88,578.6,1743.06,493.44,1700.87Z"/><path class="cls-26" d="M538,1586.26a9.28,9.28,0,0,0-6.16,6.86,4.62,4.62,0,0,0,.47,3.5,2.37,2.37,0,0,0,3.15.82c1.83-1.26.38-4.65,2.08-6.07.87-.74,2.2-.58,3.21-1.1a2.6,2.6,0,1,0-3.76-2.71"/><path class="cls-26" d="M664.57,1595.31a7.54,7.54,0,0,0-3.39-6.26,5.07,5.07,0,0,0-2.8-1.09c-1,0-1.8.68-1.57,1.53.42,1.55,3.43,2,4,3.57.3.79-.22,1.5-.12,2.29a2.78,2.78,0,0,0,3.27,1.92c1.22-.44,1.17-2.22-.09-3.06"/><path class="cls-27" d="M483.09,1678.62a15.76,15.76,0,0,1-16,15.5"/><path class="cls-27" d="M722.08,1664.62a15.76,15.76,0,0,1-20.82-7.92"/><polygon class="cls-28" points="464.71 1060.25 426.11 1048.91 394.89 1074.29 393.74 1034.07 359.97 1012.21 397.86 998.7 408.21 959.82 432.77 991.68 472.95 989.51 450.23 1022.72 464.71 1060.25"/><polygon class="cls-29" points="620.68 1143.85 601.36 1135.72 583.71 1147.04 585.46 1126.15 569.25 1112.86 589.66 1108.08 597.29 1088.55 608.14 1106.48 629.07 1107.7 615.37 1123.57 620.68 1143.85"/><polygon class="cls-30" points="365.4 842.85 332.03 841.66 312.14 868.47 302.95 836.37 271.3 825.73 299 807.08 299.34 773.69 325.63 794.26 357.5 784.27 346.05 815.63 365.4 842.85"/><polygon class="cls-31" points="533.01 822 512.61 821.68 500.78 838.31 494.78 818.81 475.31 812.71 492 800.97 491.79 780.57 508.11 792.81 527.45 786.31 520.85 805.62 533.01 822"/><polygon class="cls-32" points="797.84 745.95 792.26 698.39 749.91 676.02 793.42 656.01 801.6 608.83 834.08 644.02 881.49 637.23 858.05 678.99 879.16 721.98 832.2 712.59 797.84 745.95"/><polygon class="cls-33" points="717.78 743.36 684.65 742.04 664.79 768.58 655.81 736.67 624.42 725.98 652 707.57 652.47 674.42 678.5 694.96 710.17 685.16 698.68 716.26 717.78 743.36"/><polygon class="cls-34" points="658.6 945.5 685.94 959.78 713.2 945.35 708.07 975.76 730.21 997.24 699.7 1001.75 686.12 1029.45 672.4 1001.83 641.86 997.47 663.89 975.88 658.6 945.5"/><polygon class="cls-35" points="767.9 848.14 751.57 850.91 744.59 865.93 736.91 851.26 720.47 849.27 732.05 837.43 728.87 821.17 743.7 828.53 758.18 820.48 755.77 836.87 767.9 848.14"/><polygon class="cls-36" points="255.49 549.09 234.1 546.99 220.24 563.42 215.63 542.43 195.72 534.33 214.26 523.46 215.81 502.02 231.88 516.29 252.74 511.14 244.14 530.83 255.49 549.09"/><polygon class="cls-37" points="434.49 622.76 423.41 625.81 419.65 636.66 413.32 627.07 401.84 626.85 409.01 617.87 405.67 606.88 416.43 610.92 425.85 604.35 425.33 615.83 434.49 622.76"/><polygon class="cls-38" points="451.32 927.09 442.08 923.84 434.16 929.62 434.39 919.82 426.45 914.07 435.84 911.26 438.85 901.94 444.42 910 454.22 909.98 448.28 917.77 451.32 927.09"/><polygon class="cls-39" points="585.95 912.04 577.96 910.77 572.38 916.64 571.12 908.64 563.82 905.16 571.02 901.48 572.09 893.46 577.81 899.18 585.77 897.71 582.09 904.92 585.95 912.04"/><polygon class="cls-40" points="488.51 1167.62 478.88 1147.87 469.06 1167.53 447.3 1170.59 462.96 1186 494.44 1186.14 510.24 1170.88 488.51 1167.62"/><polygon class="cls-41" points="684.47 1179.8 682.86 1167.73 674.26 1176.35 662.27 1174.15 667.82 1185 695.34 1185.33 684.47 1179.8"/><path class="cls-42" d="M165.71,88.72a316.72,316.72,0,0,0-22.41,43,304.37,304.37,0,0,0-14.91,43.93,293.88,293.88,0,0,0-7.61,42.51,286.52,286.52,0,0,0-1.36,39,297.43,297.43,0,0,0,9.25,63.94,315.32,315.32,0,0,0,23.93,63.38q24.61-13.68,49.66-25.47,4.61,11.79,10,23.26Q177.64,400,144,421.51c-6.4-11.9-12.47-24.32-18.05-37.34a383.8,383.8,0,0,1-14.49-39.66,344.74,344.74,0,0,1-9.63-40.2,331.71,331.71,0,0,1-4.52-38.81,323.74,323.74,0,0,1,6-83.23,341,341,0,0,1,12.42-44.92,381.32,381.32,0,0,1,18.72-44.16Q150.15,90.73,165.71,88.72Z"/><path class="cls-42" d="M340.72,79.19q-8.84,10.95-16.32,22.19-31,.47-62.68,2.7a276.88,276.88,0,0,0-24.35,49.18,268,268,0,0,0-13.1,48q28.48-6,56.77-10.29-2.69,11.7-4.27,23.38-27.69,5.13-55.52,11.95a268.62,268.62,0,0,0,2,57.95A281.25,281.25,0,0,0,238.41,343q25.28-10.47,50.84-19.13,2.91,10.93,6.59,21.66-35.61,13.26-70.49,30.23c-4.49-11.24-8.65-22.92-12.31-35.08a348.29,348.29,0,0,1-9-36.79,313.69,313.69,0,0,1-4.63-36.82,299.44,299.44,0,0,1-.26-35.11,296.88,296.88,0,0,1,13.24-73.92,315.52,315.52,0,0,1,15.24-39.15,353.73,353.73,0,0,1,20.72-38Q295.16,78.18,340.72,79.19Z"/><path class="cls-42" d="M350.57,290.27a279.39,279.39,0,0,1,25.82-105.42c15.94-34.2,40.5-67.76,75.53-97.81q14.29,1.72,28.42,3.81a302.55,302.55,0,0,0-42.39,37,260.27,260.27,0,0,0-32.23,41.58,241.13,241.13,0,0,0-21.25,43.17,230.43,230.43,0,0,0-11.24,41.64,246.27,246.27,0,0,0-3.49,37.19,250.9,250.9,0,0,0,1.31,30.38Q356.44,325.6,341.9,330c-3.48-8.45-7.18-18.23-10.73-29.45A303.43,303.43,0,0,1,322,263.62a281.9,281.9,0,0,1-4.56-42.87,255.42,255.42,0,0,1,2.93-46.64,258.28,258.28,0,0,1,12.3-48,266.76,266.76,0,0,1,22.19-46.56q14.83.49,29.52,1.38c-25.77,35-39.6,71.49-44.77,106.75s-1.18,70.08,9.19,103Z"/><path class="cls-42" d="M579.93,110.23q-8.76,6.74-16.56,13.87-28.26-5.92-57.31-10.38A225.56,225.56,0,0,0,478,146.48a216.28,216.28,0,0,0-19.35,33.64q27.18.81,53.88,3.11-4.35,8.21-7.87,16.57-26.41-1.5-53.24-1.52a208.13,208.13,0,0,0-10.38,90q25.82-3.5,51.57-5.29-.06,8.58.5,17.13-36.36,3.51-72.71,10.5c-1-9.2-1.68-18.67-1.91-28.4a273.22,273.22,0,0,1,.82-29.06,246.52,246.52,0,0,1,4-28.32,242.34,242.34,0,0,1,31.18-79.4,265.57,265.57,0,0,1,18.91-26.88,304.28,304.28,0,0,1,22.68-25.25Q538.86,100.2,579.93,110.23Z"/><path class="cls-42" d="M632,124.31a218,218,0,0,0-25,18,207.4,207.4,0,0,0-21,20.19,196.62,196.62,0,0,0-16.55,21.09A182.19,182.19,0,0,0,543.61,241a178.88,178.88,0,0,0-5.48,40.09q25.61-.33,51,1c-.69,4.9-1.2,9.83-1.53,14.76q-36-1-72.41,1.47c.23-8.07.75-16.33,1.69-24.77A243.16,243.16,0,0,1,521,248.43a217.74,217.74,0,0,1,6.74-24.13,218.62,218.62,0,0,1,20.55-43.68,222.26,222.26,0,0,1,15.58-22.21,241.93,241.93,0,0,1,19.44-21.61,283.92,283.92,0,0,1,22.49-19.92Q619,120.44,632,124.31Z"/><path class="cls-42" d="M396.16,648.66c17.72,13.16,33.49,23.87,47.09,32.44a355.18,355.18,0,0,0,34.13,19.39c9.19,4.41,16.2,6.84,21.29,7.37s8.14-.83,9.42-4.06a11.39,11.39,0,0,0,.43-6.53,36.91,36.91,0,0,0-2.37-7.47,88.39,88.39,0,0,0-4-8c-1.54-2.76-3-5.45-4.38-8q15.07,12.75,29.37,25a84.82,84.82,0,0,1,.26,10.08,32.84,32.84,0,0,1-1.73,9.31c-1.61,4.73-5.06,7.41-10.75,8s-13.68-1.17-24.47-5.39S466.05,709.71,449.13,700,412,677.55,388.75,661.15s-43.12-32.22-58.63-47.21-27.06-28.87-34.5-41.29-11.07-23.27-11.19-32.25,2.84-15.86,8.43-20.54a43.29,43.29,0,0,1,11.7-7.11A74.91,74.91,0,0,1,317.28,509c9.82,10.83,20,21.39,30.3,31.71q-4.62-1.41-9.62-3a65.28,65.28,0,0,0-9.67-2.36,31.3,31.3,0,0,0-9-.2,14.09,14.09,0,0,0-7.75,3.58c-3.72,3.35-5,8.5-3.52,15.34s5.62,15.18,12.65,24.83,16.94,20.49,29.65,32.28A545.82,545.82,0,0,0,396.16,648.66Z"/><path class="cls-42" d="M481.71,551.87c14.93,16.86,27.2,31.44,36.87,44.22s17.08,23.74,22.31,33.19,8.46,17.33,9.74,23.83.89,11.57-1.29,15.26-5.9,5.56-11.36,5.42-12.78-2.55-22.34-7.39-21.37-12.3-35.71-22.59a619.51,619.51,0,0,1-50.43-40.94c-19.05-17-34.94-33.15-47-47.89s-20.62-28.06-25.78-39.59-7.08-21.22-6.11-28.78,4.4-13.07,10-16.48S373,466,380.9,467.56s17,6,27,12.88,21.08,16.43,33.32,28.3S466.86,535.1,481.71,551.87Zm-11.18,9.4c-13.09-14.12-24.73-26.35-35-36.43s-19.32-18.21-27.13-24.21-14.44-10-19.93-11.77-9.86-1.7-13,.37-4.67,5.88-4.27,11.3,2.93,12.59,7.81,21.37,12.25,19.17,22.19,30.94A478.58,478.58,0,0,0,439,592c15.32,14.35,28.79,25.89,40.2,34.91a302.56,302.56,0,0,0,28.5,20.42c7.62,4.64,13.47,7.37,17.75,8.3s7.08.23,8.55-2,1.36-5.68-.2-10.41-4.82-10.75-9.79-18.18a329.43,329.43,0,0,0-20.59-26.83C494.68,587.69,483.71,575.49,470.53,561.27Z"/><path class="cls-42" d="M591.89,607.85Q578.53,594.7,563,579.32t-32.22-32.1c-11.13-11.14-22.49-22.56-34-34.27s-22.76-23.33-33.79-34.83l-.86.46c2.78,4.2,6,8.87,9.7,14s7.49,10.22,11.34,15.28,7.63,9.91,11.32,14.54,6.92,8.64,9.68,12.05q8.38,10.37,17.79,21.45t19.19,22.16q9.78,11.09,19.55,21.85t18.84,20.47q-4.5,4.88-8.73,9.93-9-10.39-18.81-21.58t-19.84-22.58q-10-11.37-19.7-22.63t-18.49-21.7c-5.85-7-12-14.36-18.42-22.25s-12.86-16-19.33-24.38-12.89-16.92-19.2-25.63-12.37-17.31-18.17-25.81q11.22-5.39,22.68-10.29c20.25,26.92,41.54,51.09,62,72.95s40.43,41.12,58.81,58.11l.82-.61c-12.37-21.47-25.34-44.56-37.84-69.44s-24.17-51.54-33.13-80q11.86-3.81,23.9-7.14,4.49,12,10.19,24.27t12.09,24.07c4.23,7.88,8.59,15.52,13,22.93s8.78,14.36,13,20.89,8.76,13.31,13.58,20.3,9.82,14,14.94,21.05,10.32,14,15.55,20.81,10.37,13.32,15.36,19.49q-5.53,4-10.86,8.22-7.2-9.86-15-20.51t-15.63-21.5q-7.82-10.85-15.29-21.55T553,505.19c-2.2-3.26-4.77-7.1-7.67-11.54s-5.86-9.07-8.88-13.89-6-9.65-8.9-14.5-5.5-9.22-7.77-13.11l-.91.35A383,383,0,0,0,535,491.88c6.29,13.26,13.17,26.28,20.42,39s14.76,25,22.3,36.82,14.82,22.83,21.73,33.12Q595.61,604.28,591.89,607.85Z"/><path class="cls-42" d="M571.12,395a34.78,34.78,0,0,1,16.8,1.08,41.36,41.36,0,0,1,14.91,8.71,71.25,71.25,0,0,1,12.69,15.34,141.33,141.33,0,0,1,10.75,21.12c1.43,3.41,2.74,7.08,4,11A92.94,92.94,0,0,1,633.07,464a80.78,80.78,0,0,1,1.16,11.67,36.9,36.9,0,0,1-1.18,10.67,23.69,23.69,0,0,1-4.42,8.74,20,20,0,0,1-8.5,5.94q-6.15,2.38-12.19,5c6.36,10.17,13,20.33,19.88,30.42s13.74,19.69,20.51,28.75q-6.14,3.62-12,7.46-6.37-9.63-13.27-20t-13.74-20.88q-6.85-10.5-13.37-20.87T583.63,491c-3.85-6.39-7.87-13.17-12-20.36s-8.22-14.6-12.27-22.2-8-15.33-11.85-23.17S540,409.7,536.6,402.1Q553.73,398,571.12,395ZM561,412.74a402.53,402.53,0,0,0,16.49,38.5c6.16,12.6,12.44,24.18,18.56,34.81,1.27,2.21,2.55,4.4,3.84,6.59q6.27-2.47,12.66-4.77c5-1.79,7-6.36,6.52-13.79S615.44,457,610,444.82c-5.56-12.43-10.83-21.75-16.51-27.84s-11.71-8.64-18.18-7.33Q568.13,411.11,561,412.74Z"/><path class="cls-42" d="M644.11,386.72q1.54,10,4.12,20.3t5.87,20.45c2.18,6.74,4.53,13.32,7,19.73s5,12.46,7.49,18.16c4.2,9.56,9,19.66,14.43,30.19s11.17,20.8,17.14,30.75q15.66-5,32.07-8.68,2.89,5.73,5.87,11.37a343.39,343.39,0,0,0-44.59,14.18q-4.8-8.88-9.93-18.42t-10.14-19.2q-5-9.65-9.65-19.13t-8.67-18.2c-2.69-5.81-5.47-12-8.28-18.5s-5.56-13.22-8.24-20.08-5.25-13.8-7.69-20.83-4.72-13.94-6.85-20.72Q634.07,387.24,644.11,386.72Z"/><path class="cls-42" d="M760.49,392q.25,5.52.77,11.06-21-2.58-41.9-3.62A215.53,215.53,0,0,0,723.08,423c1.66,7.8,3.61,15.36,5.76,22.64q18.35-.6,37,.15,1.38,5.53,2.94,11.06-18.21-.39-36.12.59c2.9,8.63,6.34,17.8,10.36,27.42s8.45,19.07,13.18,28.28q16.89-2.61,34.38-3.73,2.21,5.24,4.51,10.42A365.45,365.45,0,0,0,746.83,527q-3.68-8.19-7.55-17T731.7,492.4q-3.71-8.83-7-17.46t-6.17-16.55c-1.89-5.27-3.81-10.86-5.72-16.75s-3.74-11.92-5.48-18.08-3.38-12.38-4.89-18.67-2.88-12.45-4.13-18.49A605.46,605.46,0,0,1,760.49,392Z"/><path class="cls-42" d="M771.1,393.65a608.34,608.34,0,0,1,73,16.42c-.22,3.05-.38,6.12-.45,9.2q-13.33-3.61-26.73-6.59a152,152,0,0,0,.72,24.72,235.07,235.07,0,0,0,3.76,23.43q1.4,6.57,3.34,13.81t4.41,14.72q2.46,7.47,5.33,15t6,14.51q-8.2-.32-16.31-.28-2.4-7.18-4.92-14.85t-4.79-15.32q-2.28-7.65-4.24-15.08t-3.51-14.17c-1.73-7.49-3.41-15.57-4.83-24.23s-2.58-17.33-3.4-26q-13.42-2.54-26.86-4.43Q771.27,399.05,771.1,393.65Z"/><path class="cls-42" d="M916.83,436.23q-.68,3.78-1.16,7.63-20.37-8.44-41-15.27a120.41,120.41,0,0,0-1.2,16.75c0,5.67.27,11.25.78,16.7Q893.11,467,912,473.43c.16,2.71.39,5.44.66,8.17Q894,475.51,875.33,471c.95,6.55,2.29,13.62,4.13,21.17a222.49,222.49,0,0,0,6.82,22.65q18.5,3.22,37.19,8.2c.73,2.77,1.51,5.55,2.33,8.32a413.37,413.37,0,0,0-52.92-9.9q-1.8-6.57-3.64-13.55t-3.46-13.92q-1.62-6.93-2.94-13.62t-2.29-12.74c-.65-4-1.27-8.29-1.83-12.75s-1-9-1.39-13.6-.62-9.23-.78-13.87-.24-9.17-.26-13.61A614.08,614.08,0,0,1,916.83,436.23Z"/><path class="cls-42" d="M967.4,460.9a119.45,119.45,0,0,1,19.07,12.84,69.8,69.8,0,0,1,13.58,14.81,58,58,0,0,1,7.7,16.79,72.1,72.1,0,0,1,2.34,19.63c0,7.24-.58,12.87-2.19,16.83s-4,6.62-7.3,8-7.5,1.54-12.61.61a104.09,104.09,0,0,1-17.52-5.09Q956.24,540,942,535.77q-1.11-5.71-2.22-11.74t-2-12q-.9-6-1.54-11.64c-.43-3.79-.76-7.38-1-10.8s-.48-7-.61-10.73-.19-7.52-.14-11.35.18-7.67.41-11.5.49-7.58.8-11.24Q951.7,452.34,967.4,460.9Zm-14.54-.32A93.36,93.36,0,0,0,950,478.07a132.78,132.78,0,0,0-.07,17.37A173.55,173.55,0,0,0,952,513.52a171.3,171.3,0,0,0,4.62,19.84q6.2,2.19,12.38,4.57a63.51,63.51,0,0,0,7.49,2.4,20.68,20.68,0,0,0,6.32.7,10.23,10.23,0,0,0,4.94-1.57,9.51,9.51,0,0,0,3.42-4.38,27.72,27.72,0,0,0,1.77-7.72,94.26,94.26,0,0,0,.34-11.58,113.35,113.35,0,0,0-.76-12.28,56.43,56.43,0,0,0-2.14-10,37,37,0,0,0-3.83-8.32,41.81,41.81,0,0,0-5.42-7,47.26,47.26,0,0,0-6.87-5.85,78.54,78.54,0,0,0-8.11-4.95Q959.55,463.9,952.86,460.58Z"/><polygon class="cls-43" points="788.01 330 767.61 329.69 755.78 346.31 749.78 326.81 730.31 320.7 747 308.97 746.79 288.57 763.11 300.81 782.45 294.31 775.85 313.62 788.01 330"/><polygon class="cls-44" points="694.95 420.04 686.96 418.77 681.38 424.64 680.12 416.64 672.82 413.16 680.02 409.48 681.09 401.46 686.81 407.18 694.77 405.71 691.09 412.92 694.95 420.04"/></svg>
