<svg id="Layer_1" data-name="Layer 1" xmlns="http://www.w3.org/2000/svg" viewBox="0 0 170.18 268.31">
  <defs>
    <style>
      .cls-1 {
        fill: #dae5e5;
      }

      .cls-1, .cls-3 {
        stroke: #1d1d1b;
        stroke-miterlimit: 10;
      }

      .cls-2 {
        fill: none;
      }

      .cls-3 {
        fill: #a3c6c5;
      }
    </style>
  </defs>
  <title>milk_rotated</title>
  <g>
    <polygon class="cls-1" points="134.26 255.29 52.16 267.75 16.6 88.81 96.05 72.22 134.26 255.29"/>
    <polygon class="cls-1" points="42 12.52 68.83 42.56 95.66 72.6 56.23 80.81 16.8 89.03 29.4 50.77 42 12.52"/>
    <path class="cls-2" d="M4,109.68l.09.42"/>
    <polygon class="cls-3" points="163.68 220.52 134.35 255.27 96.17 72.38 132.11 61.69 163.68 220.52"/>
    <path d="M36.22,181.94a8.85,8.85,0,0,1,7-8.77,4.63,4.63,0,0,1,3.71.64c1.49,1.16,1.6,3.37,1.3,5.24s-.88,3.79-.33,5.6c.75,2.44,3.3,3.83,5.74,4.58s5.08,1.19,7.09,2.77a6.91,6.91,0,0,1,2.55,6.58,5.92,5.92,0,0,1-5.1,4.68c-1.46.12-3.34-.16-4,1.15A2.9,2.9,0,0,0,54,205.9c.2,3.15,1.06,6.21,1.47,9.33s.33,6.46-1.2,9.21-4.88,4.67-7.89,3.76l-1-4"/>
    <path d="M64.15,125.07c.24,5.67,6.53,8.94,9.22,13.93a23.71,23.71,0,0,1,2.12,8.16A8.83,8.83,0,0,0,81,142.84a62.84,62.84,0,0,0,3-6.5c.67-1.46,1.61-3,3.14-3.47,1.88-.61,3.94.66,4.94,2.36a14.61,14.61,0,0,1,1.42,5.71,8.75,8.75,0,0,0,1.18,4,3.19,3.19,0,0,0,3.61,1.38c1.92-.79,1.92-3.49,1.55-5.54q-.72-4-1.64-8A7,7,0,0,0,97,129.88c-1.67-2.08-5.28-2-6.54-4.34-1-1.88.12-4.2,1.51-5.82s3.11-3.16,3.49-5.26c.45-2.56-1.44-5.11-3.84-6.09-6.42-2.59-9.91,2.86-15,5.21S63.84,117.67,64.15,125.07Z"/>
    <path d="M20.1,104.17A5.39,5.39,0,0,1,23.54,101c1.34-.17,2.33,1.14,3.41,1.94a5.32,5.32,0,0,0,6,.12c2.84-1.94,3-6.3,1.31-9.28s-4.75-4.91-7.68-6.71c-2.81.68-6.87,1.17-9.68,1.85-.11,1.12.4,2,.63,3C18.51,96.54,19,104.54,20.1,104.17Z"/>
    <path d="M112.58,238.43c-1,2.49.16,5.86,2.75,6.56,1.5.4,3.37,0,4.4,1.14s.5,2.68-.12,3.92-1.43,2.57-1.12,3.93a3.17,3.17,0,0,0,4.11,2,4.9,4.9,0,0,0,2.88-4,11.26,11.26,0,0,0-.69-5.06c-.47-1.48-1-3.13-.34-4.52a11.73,11.73,0,0,1,1.25-1.65c1.82-2.46,1.16-5.89.42-8.86-.24-1-.73-2.17-1.73-2.21a2.43,2.43,0,0,0-1.41.6C119.83,232.53,114.08,234.66,112.58,238.43Z"/>
    <path d="M113,153.16a9.79,9.79,0,0,0-3.24,1.26,2.57,2.57,0,0,0-1.56,2.43,4.1,4.1,0,0,0,1.1,2,23.14,23.14,0,0,1,3.69,6.48,1.82,1.82,0,0,1,.15.69c0,.78-1,1.16-1.73,1.35s-1.69.59-1.69,1.38a1.52,1.52,0,0,0,.39.93,5.32,5.32,0,0,0,2.86,1.89,21.43,21.43,0,0,1,3.11.64,1.34,1.34,0,0,1,.68.53c.36.66-.29,1.4-.87,1.87a1.75,1.75,0,0,0,1.51.31"/>
    <path d="M85.1,200.36a25.91,25.91,0,0,0,3.67,14.95c.58,1,1.25,2,1,3.12-.54,2.68-5.46,2.6-5.74,5.32,3.92.12,7.69-1.52,11.07-3.51,2.74-1.62,5.68-4.3,4.93-7.4-.67-2.76-4-4.17-4.88-6.87a2.18,2.18,0,0,1,0-1.55,2.89,2.89,0,0,1,2.18-1.31q5.86-1.41,11.81-2.48a1.85,1.85,0,0,0,1.36-.69,1.51,1.51,0,0,0,.08-1.05c-.48-2.29-2.59-3.81-4.55-5.1a13.61,13.61,0,0,0-5.46-2.52c-2-.27-4.31.59-5.06,2.47-.2.51-.37,1.15-.9,1.27a1.34,1.34,0,0,1-.88-.21C88.08,192,85.5,193.65,85.1,200.36Z"/>
    <path d="M153.38,232.75l-2.18-10.26c-.33-1.56-.65-3.28.1-4.69a3.46,3.46,0,0,1,6.42.78c.74.64,1.53-1.11,2-2s.78-.78.92-1.75a2.48,2.48,0,0,1,1.62-2.23"/>
    <path d="M153.54,231.75a.48.48,0,0,0,.42.17c.56-1,1.7-1.63,2.38-2.6a9.52,9.52,0,0,1,1.23-1.86c.16-.14.34-.26.5-.4a3.21,3.21,0,0,0,.42-.48c.6-.77,1.25-1.51,1.89-2.26l.49-.57.64-.74c.47-.55,1-1.1,1.43-1.64a2,2,0,0,0,.59-1.07,1.67,1.67,0,0,0-.06-.5l-1.29-6.49c0-.11-.09-.26-.21-.23s-.08.06-.11.1a9,9,0,0,0-.77,1.26c-.13.29-.23.59-.33.88a19.91,19.91,0,0,1-2.62,5c-.59.82-1.24,1.6-1.8,2.45a20.58,20.58,0,0,0-2.59,7.38,5.68,5.68,0,0,0-.12,2,1.15,1.15,0,0,0,.38-.47"/>
    <path class="cls-2" d="M166.14,221.65l0,0"/>
    <path d="M157.18,227.46a.1.1,0,0,0-.12.07.44.44,0,0,0,0,.16.45.45,0,0,0,.07.23.15.15,0,0,0,.21.06.31.31,0,0,0,.07-.09,3.77,3.77,0,0,0,.23-.64.44.44,0,0,0-.44.3"/>
    <path d="M111.82,67.66a25.64,25.64,0,0,0-1.16,4.8,3.26,3.26,0,0,0,.22,2.19,3.16,3.16,0,0,0,1.54,1.11,15.1,15.1,0,0,0,4.49,1.07,2.68,2.68,0,0,0,1.13-.09,2.16,2.16,0,0,0,1.12-1.23c.6-1.45.33-3.19,1.13-4.55,1-1.72,3.31-2.14,5.31-2.15.65,0,1.41,0,1.79-.56a2,2,0,0,0,.29-1,4.89,4.89,0,0,0-.13-2.55,1.7,1.7,0,0,0-2.09-1"/>
    <path d="M108.62,101.67a3.13,3.13,0,0,0,.32,2.86,5.65,5.65,0,0,0,2.26,1.93c.59.3,1.29.62,1.45,1.26s-.42,1.38-1,1.81-1.31.85-1.49,1.57a1.86,1.86,0,0,0,1.11,2,5.31,5.31,0,0,0,2.41.35c1.44,0,3.2-.21,3.77-1.54.39-.93,0-2.12.62-2.93a2.31,2.31,0,0,1,1.72-.75c1.18-.07,2.36.27,3.54.25a2.94,2.94,0,0,0,2.86-1.69c.42-1.3-.77-2.68-2.1-3a7.79,7.79,0,0,0-4,.49,1.53,1.53,0,0,1-1.24,0,1,1,0,0,1-.41-.65,4.45,4.45,0,0,1,.31-2,2,2,0,0,0-.31-2,2,2,0,0,0-.77-.37,7.7,7.7,0,0,0-5.1.29,18.93,18.93,0,0,1-2.12.79A2.44,2.44,0,0,0,108.62,101.67Z"/>
    <path d="M131.55,153.05c1.15,2.89,5,3.78,6.5,6.53,1.06,2,.56,4.45-.39,6.48s-2.34,3.86-3.12,6a2.18,2.18,0,0,0,0,2,2.25,2.25,0,0,0,1.13.7,18.11,18.11,0,0,0,8.7.79,3.9,3.9,0,0,0,1.8-.64,4.38,4.38,0,0,0,1-1.28,10.18,10.18,0,0,0,1.6-4.05c.16-1.75-.59-3.47-.55-5.22a5.91,5.91,0,0,1,1.41-3.68,3,3,0,0,0,.89-1.39c.17-1.09-1.09-1.77-2-2.41-1.94-1.4-2.77-3.88-3.09-6.25s-.26-4.8-.94-7.09A21.93,21.93,0,0,0,143,140.1c-.57-1.16-1.31-2.43-2.56-2.71-3.54-.8-4.24,5-5.61,7.07C133.18,147,130.21,149.68,131.55,153.05Z"/>
    <path d="M122.94,200.23c1.57-.43,3.45-.7,4.66.4s1.06,3.26.85,5a34.79,34.79,0,0,0,.48,11.15,6.71,6.71,0,0,0,.65,2c.37.67.94,1.21,1.26,1.9.86,1.89-.43,4.05-1.85,5.57a10.38,10.38,0,0,1,2.16,11.88"/>
    <path d="M150,191.84a5.07,5.07,0,0,1-.33,3.45c-.12.26-.25.59-.06.79a.61.61,0,0,0,.43.15,6.73,6.73,0,0,0,2.44-.28,2.51,2.51,0,0,0,1-.56c.66-.69.54-1.85,1.14-2.59.19-.24.45-.42.64-.66a.83.83,0,0,0,.18-.86,1.06,1.06,0,0,0-.43-.41l-1.09-.7a2.56,2.56,0,0,0-1-.46c-.69-.07-1.82-.65-2.36-.48C149.38,189.6,149.8,191,150,191.84Z"/>
    <polygon class="cls-3" points="132.36 61.4 96.47 72.49 42.54 12.74 81.94 8.12 132.36 61.4"/>
    <polygon class="cls-3" points="81.53 7.84 42.12 12.47 39.7 4.32 78.56 0.53 81.53 7.84"/>
  </g>
</svg>
