<svg id="Layer_1" data-name="Layer 1" xmlns="http://www.w3.org/2000/svg" viewBox="0 0 290.71 210.61">
  <defs>
    <style>
      .cls-1 {
        fill: #d3b862;
        stroke: #fff;
        stroke-miterlimit: 10;
      }

      .cls-2 {
        fill: #b50f0f;
        opacity: 0.76;
      }

      .cls-3 {
        fill: #8c0c0c;
      }

      .cls-4 {
        fill: #204417;
      }

      .cls-5 {
        fill: #fff;
      }
    </style>
  </defs>
  <title>Pizza_rotated</title>
  <g>
    <polygon class="cls-1" points="98.4 191.1 286.21 3.3 22.09 53.63 98.4 191.1"/>
    <rect class="cls-1" x="-38.22" y="116.76" width="182.33" height="19.9" rx="9.95" transform="translate(-32 234.6) rotate(-119.11)"/>
    <path class="cls-2" d="M103.73,170.84c6.18-3.61,8.48-11.61,14.23-15.87a54.7,54.7,0,0,1,6.21-3.5,66.42,66.42,0,0,0,10.83-8,911.21,911.21,0,0,0,88-86c15.5-17.33,31-35.79,52.1-45.58-10.69-3.62-21.29,5.75-32.51,7-4.41.49-9.15-.25-13.06,1.84-2,1-3.53,2.73-5.53,3.69-4.44,2.14-9.63.29-14.53-.22-15.84-1.66-30.56,11.2-46.38,9.38-4.54-.52-9.22-2.24-13.55-.77-2.15.73-4,2.2-6.12,3-3.6,1.36-7.61.68-11.45.89-12.57.71-24,11.06-36.32,8.66-2.1-.41-4.16-1.19-6.3-1.13a17.43,17.43,0,0,0-6,1.71,126.84,126.84,0,0,1-28.54,8c-5.58.88-12,1.82-15,6.56-2.53,3.92-1.76,9.24.56,13.28s5.92,7.16,9.26,10.41c4.91,4.77,9.46,10.12,12,16.48s3,13.58,6.08,19.77c2.44,4.93,6.37,8.92,9.78,13.23C84.2,142.16,89,152,93.71,161.77l8.22,17c2.86.24,4.66-4.19,2.43-6l9.72-12.89"/>
    <circle class="cls-3" cx="109.77" cy="125.07" r="16.46"/>
    <circle class="cls-3" cx="185.54" cy="52.55" r="16.46"/>
    <circle class="cls-3" cx="107.6" cy="56.88" r="16.46"/>
    <circle class="cls-3" cx="161.73" cy="100.18" r="16.46"/>
    <circle class="cls-3" cx="58.35" cy="70.41" r="16.46"/>
    <path class="cls-4" d="M121.12,92.65c.56.61,1.65-.08,1.78-.89a8.23,8.23,0,0,0-.35-2.44c-.31-2.3,1.62-4.38,3.77-5.22s4.54-.8,6.84-1.1a1.11,1.11,0,0,0,.92-.45.93.93,0,0,0-.06-.78c-.84-1.9-3.4-2.12-5.47-2.06a2,2,0,0,0-1.14.26,2.53,2.53,0,0,0-.73,1.27c-.91,2.28-3.22,3.6-5.14,5.12a6.08,6.08,0,0,0-2.48,3.48c-.24,1.44.78,3.14,2.23,3.11"/>
    <path class="cls-4" d="M216.24,48.94c.28.35,1.58-.73,2-1.56a8.74,8.74,0,0,0,.65-2.16c.64-2,3.3-4.79,5.68-6.46a56.67,56.67,0,0,1,6.9-3.79,3.3,3.3,0,0,0,1.05-.8,1.06,1.06,0,0,0,.26-.72c0-1.45-2.35-.63-4.34.26a4.8,4.8,0,0,0-1.18.7,7.86,7.86,0,0,0-1.21,1.51c-1.77,2.52-4.49,4.7-6.92,6.91a19.15,19.15,0,0,0-3.75,4.29c-.81,1.46-.53,2.66.86,2"/>
    <path class="cls-4" d="M98.56,109.43c-.57.5-1.37-.08-1.35-.75a7.58,7.58,0,0,1,.7-2,3.58,3.58,0,0,0-2.31-4.32c-1.66-.71-3.67-.7-5.54-1-.29,0-.62-.12-.7-.38a.84.84,0,0,1,.18-.64c1-1.55,3.19-1.71,4.92-1.64a1.51,1.51,0,0,1,.91.22,1.71,1.71,0,0,1,.41,1.06c.38,1.88,2.11,3,3.46,4.26a3.91,3.91,0,0,1,1.51,2.88,2.7,2.7,0,0,1-2.39,2.53"/>
    <path class="cls-4" d="M102.76,168a6.88,6.88,0,0,0,9.41-1.13c-.74-1.1-2.19-1.41-3.41-1.93s-2.47-1.71-2.06-3c.36-1.1,1.78-1.46,2.91-1.23s2.15.87,3.29,1.1a4.81,4.81,0,0,0,5.35-3.29,13.88,13.88,0,0,0-14.3,3.9l4.73,4.93c-1.35.47-2.77-.32-4.15-.73s-3.33,0-3.49,1.37a2,2,0,0,0,2.37,1.21"/>
    <path class="cls-4" d="M131.08,52.08c-.39-1.13,2.61-5.36,6.22-8.77.54,0,0,1.1-.23,1.87s.1,1.18,1.43.12a11.42,11.42,0,0,0,2.68-3.2c.43-.85.45-1.38.89-2.24a25.71,25.71,0,0,1,5.84-6.47c-1.39,3.41-6,9.38-11.37,14.56l-1.63-1.34a9.59,9.59,0,0,0-1.67,3.18,11.39,11.39,0,0,1-3.14,3.79c-.62.24-.49-.41.28-1.38"/>
    <path class="cls-4" d="M161.24,85.6c-4.15-4.57-5.58-10.16-3-11.61,1.77,1.47,2.85,3.48,4.09,5.3s3.36,4,4.8,4c1.25,0,1.05-1.62.21-3.18s-2.13-3.19-2.94-4.75c-1.63-3.12-.84-5.6,1.72-5.37,4.41,7.17,5.1,14,1.68,16.62l-8.58-8.41c0,1.52,1.72,3.73,2.89,5.69s1.62,4.32-.13,3.87a6,6,0,0,1-2.67-3.63"/>
    <path class="cls-5" d="M105.81,137.08a2.75,2.75,0,0,0,2,1.82,2.72,2.72,0,0,0,2.55-.78,1.13,1.13,0,0,0,.38-.86c-.06-.58-.76-.85-1.33-.83a6.6,6.6,0,0,1-1.71.12,12.25,12.25,0,0,0-1.37-.46c-.49,0-1,.48-.76.87"/>
    <path class="cls-5" d="M109.51,114.41l.7.67,3.71-1.85a5.19,5.19,0,0,0-3.52-1.13c-.81,0-1.85.05-2.1.82a.78.78,0,0,1,.32,1.07,2.26,2.26,0,0,0,1.58,1.14"/>
    <path class="cls-5" d="M119.73,129.31a3.16,3.16,0,0,0,1.64-2.14,1.75,1.75,0,0,0-1.46-2,5.85,5.85,0,0,0-.59,0c-.66,0-1.29-.27-2-.31s-1.45.36-1.44,1c.26.93.77,2.07,1.74,2.07a.81.81,0,0,1,.49.07c.51.34-.62,1.17-.25,1.67L120,129"/>
    <path class="cls-5" d="M61.74,60.26,63,58.87c.14-.76-.93-1.14-1.69-1s-1.66.39-2.22-.14a4.12,4.12,0,0,0-.45-.48.91.91,0,0,0-1.08.17,2.65,2.65,0,0,0-.56,1,1.09,1.09,0,0,0,0,1c.31.4,1,.17,1.47.26.95.16,1.49,1.53,2.45,1.4.61-.08,1-.72,1.19-1.29"/>
    <path class="cls-5" d="M65.72,83.08a15.59,15.59,0,0,0,2.78-3l-2.27,1.11c-.5.25-1.06.57-1.14,1.12s.41,1,.86,1.42"/>
    <path class="cls-5" d="M46.25,69.13a6.19,6.19,0,0,1,2.16-1.4,2.66,2.66,0,0,1,1.9-.09A1.26,1.26,0,0,1,51,69.22c-.33.66-1.4,1-1.26,1.71a1.19,1.19,0,0,0,.4.57,5.1,5.1,0,0,0,1.93,1,1.59,1.59,0,0,1-2,.82,4.63,4.63,0,0,1-1.89-1.52c.47-.2.22-1-.22-1.22s-1-.35-1.29-.79l.91-1.28"/>
    <path class="cls-5" d="M60.75,71.19l1.09-1.11a1.58,1.58,0,0,0-1.61-.67,1.14,1.14,0,0,0-.8,1.43c.21.53,1.11.68,1.33.16"/>
    <path class="cls-5" d="M148.42,94l3.69-3.32a1,1,0,0,1,.52-.31,1.05,1.05,0,0,1,.78.31,2.31,2.31,0,0,1,1,1.23c.19.93-.75,1.69-1.62,2.08s-1.9.77-2.21,1.67c-.13.4-.11.87-.39,1.18-.47.51-1.43,0-1.58-.64a2.3,2.3,0,0,1,.72-1.88"/>
    <path class="cls-5" d="M173.52,106.67a2.09,2.09,0,0,0,.75-2.69,1.44,1.44,0,0,0-2.47.11,5.93,5.93,0,0,0-.13.86,2.27,2.27,0,0,1-1,1.55c.4.31.67.77,1,1.12a1.27,1.27,0,0,0,1.39.35.84.84,0,0,0,.16-1.29"/>
    <path class="cls-5" d="M165.58,89.46a4.67,4.67,0,0,0,.9,1.76,1.61,1.61,0,0,0,1.81.44c.91-.47.73-2-.14-2.54a3.12,3.12,0,0,0-3,.09.41.41,0,0,0,.29.51"/>
    <path class="cls-5" d="M115.89,49.51c.13.22.31.48.56.46a.47.47,0,0,0,.29-.14,1.11,1.11,0,0,0,.17-1.22,3.19,3.19,0,0,0-.79-1c-1.08-1.07-3.33-4.42-5.05-3.35C112.3,46.13,114.66,47.31,115.89,49.51Z"/>
    <path class="cls-5" d="M95.3,62l1.92-2.71a1.28,1.28,0,0,0-1.56-.59A1.94,1.94,0,0,0,95,61.84"/>
    <path class="cls-5" d="M109.25,61.89a3.43,3.43,0,0,0,.18,2.44,1.39,1.39,0,0,0,.68.75,1.85,1.85,0,0,0,1.35-.2l3.4-1.5A3.45,3.45,0,0,0,113.42,61a14.34,14.34,0,0,1-1.5-.92,1.28,1.28,0,0,1-.4-1.56c-.12-.44-.79-.21-1.12.11a5.94,5.94,0,0,0-1.51,2.05,2.25,2.25,0,0,0,.4,2.39"/>
    <path class="cls-5" d="M105.79,51.63a3.58,3.58,0,0,1-1.48-3.9,4.53,4.53,0,0,0-1.78,1.66,1.55,1.55,0,0,0,.59,2.1c.82.32,1.66-.37,2.27-1a.64.64,0,0,1-.12-.75"/>
    <path class="cls-5" d="M179.51,43.65a3.07,3.07,0,0,1,5.63,1.12,1.15,1.15,0,0,1-.19,1c-.35.37-1,.24-1.46.14A5.77,5.77,0,0,0,179,46.94a3.07,3.07,0,0,1-1.32.77c-1,.14-1.77-1.26-1.34-2.22a3.17,3.17,0,0,1,2.57-1.58"/>
    <path class="cls-5" d="M191.09,64.66l2.18-2.07c.37-.35.71-1,.27-1.28a.74.74,0,0,0-.53,0A3.64,3.64,0,0,0,190.59,66"/>
    <path class="cls-5" d="M194.68,46.77a4.5,4.5,0,0,0,1.14,1.85,3.41,3.41,0,0,0,.47-4.28,2.47,2.47,0,0,0-1.53-1.18,1.42,1.42,0,0,0-1.61.86,2.26,2.26,0,0,0,.51,1.77L195,47.92"/>
    <path class="cls-5" d="M186.34,53a4.31,4.31,0,0,0,.76,1.16c.36.37,1,.65,1.35.24s0-.88-.35-1.23l-1.78-2a2.16,2.16,0,0,0-.17,2.45"/>
    <path class="cls-5" d="M173.83,55.87a5.06,5.06,0,0,1-.68-2.49,1.18,1.18,0,0,0-1,1,3.49,3.49,0,0,0,.12,1.47c.19.79.47,1.71,1.24,2a1.35,1.35,0,0,0,.16-1.29"/>
  </g>
</svg>
