<svg id="Layer_1" data-name="Layer 1" xmlns="http://www.w3.org/2000/svg" width="235" height="375" viewBox="0 0 235 375"><defs><style>.cls-1{fill:#d3b862;stroke:#fff;stroke-miterlimit:10;}.cls-2{fill:#b50f0f;opacity:0.76;}.cls-3{fill:#8c0c0c;}.cls-4{fill:#204417;}.cls-5{fill:#fff;}</style></defs><title>pizza</title><polygon class="cls-1" points="16.02 25.84 16.02 372.83 213.52 82.33 16.02 25.84"/><rect class="cls-1" x="-1.61" y="30.33" width="238.21" height="26" rx="12" transform="translate(16.36 -30.52) rotate(15.89)"/><path class="cls-2" d="M29.82,49.48c-2.38,9,2.88,18.55,1.51,27.8-.46,3.07-1.64,6-2.5,9-1.64,5.64-2.15,11.53-2.62,17.39a1187.72,1187.72,0,0,0-1.89,160.74c1.7,30.33,4.41,61.71-6,90.24,13.22-6.54,14.35-25,23.56-36.5,3.62-4.52,8.69-8.23,10.37-13.78.84-2.77.74-5.78,1.69-8.51,2.13-6.07,8.64-9.16,13.63-13.21,16.17-13.1,17.89-38.58,34.18-51.52,4.68-3.72,10.59-6.45,13.23-11.81,1.32-2.67,1.66-5.72,2.88-8.42,2.08-4.58,6.41-7.65,9.76-11.4,11-12.27,11.92-32.36,25.56-41.55,2.32-1.57,4.94-2.75,6.86-4.78s2.92-4.6,4-7.13a166.32,166.32,0,0,1,19-33.72c4.35-6,9.38-12.74,7.83-20-1.27-6-6.9-10.16-12.78-11.76s-12.09-1.14-18.18-1c-8.94.13-18.08-.62-26.31-4.13s-15.33-9.75-23.88-12.65c-6.81-2.3-14.13-2.36-21.26-3.19-14.08-1.64-27.6-6.32-41-11l-23.3-8.1c-2.87,2.42-.42,8.17,3.31,7.79l2.93,20.89"/><circle class="cls-3" cx="66.52" cy="97.34" r="21.5"/><circle class="cls-3" cx="63.52" cy="234.34" r="21.5"/><circle class="cls-3" cx="131.52" cy="158.34" r="21.5"/><circle class="cls-3" cx="41.52" cy="168.34" r="21.5"/><circle class="cls-3" cx="164.52" cy="100.34" r="21.5"/><path class="cls-4" d="M86,137.78c-1.08-.05-1.45,1.59-.82,2.47s1.73,1.27,2.58,1.92c2.4,1.84,2.55,5.54,1.33,8.31s-3.45,4.93-5.3,7.33a1.48,1.48,0,0,0-.43,1.26,1.19,1.19,0,0,0,.78.67c2.53,1,5.09-1.17,6.95-3.15a2.68,2.68,0,0,0,.81-1.29,3.3,3.3,0,0,0-.49-1.85c-1.27-2.94-.35-6.3,0-9.48a7.92,7.92,0,0,0-.92-5.51c-1.11-1.55-3.62-2.18-4.94-.81"/><path class="cls-4" d="M38.49,266c-.59-.06-.79,2.15-.45,3.34a11.65,11.65,0,0,0,1.4,2.59c1.3,2.48,1.38,7.47.72,11.21a75.45,75.45,0,0,1-2.87,9.89,4,4,0,0,0-.23,1.71,1.46,1.46,0,0,0,.42.9c1.37,1.31,2.76-1.59,3.76-4.25a5.68,5.68,0,0,0,.45-1.74,10.3,10.3,0,0,0-.27-2.5c-.69-4-.19-8.5,0-12.79a25.09,25.09,0,0,0-.51-7.43c-.59-2.09-2-2.95-2.67-1.09"/><path class="cls-4" d="M91.32,101.42a1.11,1.11,0,0,1,1.94-.54,9.91,9.91,0,0,1,1.2,2.49c1.16,2.32,3.92,2.75,6.12,1.86s4-2.74,6-4.23c.31-.23.68-.45,1-.29a1.11,1.11,0,0,1,.43.76c.49,2.37-1.38,4.53-3,6.06a2.06,2.06,0,0,1-1,.64,2.24,2.24,0,0,1-1.35-.6c-2.09-1.39-4.71-.82-7.14-.74a5.11,5.11,0,0,1-4-1.27c-1.06-1.13-1.3-3.46-.14-4.54"/><path class="cls-4" d="M33.36,51.22A9,9,0,0,0,25.7,61c1.71.34,3.33-.7,4.94-1.36s3.86-.7,4.64.84c.69,1.35-.3,3-1.56,3.83s-2.79,1.18-4,2a6.3,6.3,0,0,0-1.91,8,18.14,18.14,0,0,0,9.61-16.83l-8.92-.18c.81-1.69,2.86-2.26,4.5-3.15s3.12-3,2-4.5a2.62,2.62,0,0,0-3.31,1.08"/><path class="cls-4" d="M114.26,184.45c1.41.69,2.55,7.37,2.36,13.86-.53.48-1-1-1.52-1.94s-1.19-1-1.43,1.2a15,15,0,0,0,.48,5.44c.39,1.18.86,1.69,1.24,2.89.77,2.39,1,7.63.59,11.37-1.87-4.43-3.08-14.24-3-24l2.74-.26a12.66,12.66,0,0,0-1.38-4.49,14.65,14.65,0,0,1-.61-6.4c.36-.79.83-.07,1,1.53"/><path class="cls-4" d="M55.43,181.35c8,.39,14.54,4.24,13.47,8-3,.27-5.85-.59-8.67-1.12s-6.8-.58-8.18.69c-1.2,1.1.53,2.46,2.75,3.14s4.9,1,7.1,1.66c4.39,1.38,5.94,4.4,3.37,6.56-10.71-2.56-17.63-8.22-16.91-13.82l15.7-.15c-1.43-1.38-5-1.85-7.93-2.59s-5.49-2.48-3.45-3.69c2-.45,4.75,0,5.81.89"/><path class="cls-5" d="M59.08,82.59A3.49,3.49,0,0,0,54,85.78a1.49,1.49,0,0,0,.45,1.15c.59.47,1.48.09,2-.47a9.54,9.54,0,0,1,1.47-1.69,14.91,14.91,0,0,0,1.7-.84c.48-.41.51-1.4-.12-1.5"/><path class="cls-5" d="M76.6,107l-1.26,0-1.71,5.13c1.65,0,3.05-1.12,4.29-2.21.8-.7,1.67-1.75,1.18-2.69a1,1,0,0,1-1.28-.7,3,3,0,0,0-2.52.41"/><path class="cls-5" d="M53.41,102.62a4.12,4.12,0,0,0,.45,3.5,2.29,2.29,0,0,0,3.21.5c.18-.17.33-.39.51-.57.59-.64,1.44-1,2.09-1.53s1-1.67.39-2.27c-1.11-.63-2.62-1.2-3.52-.31-.16.15-.3.35-.51.39-.8.15-.51-1.66-1.31-1.78l-1.23,2.64"/><path class="cls-5" d="M170.76,112.84l.13,2.44c.58.83,1.91.2,2.5-.62s1.17-1.91,2.18-1.93a6.09,6.09,0,0,0,.85,0,1.17,1.17,0,0,0,.84-1.16,3.41,3.41,0,0,0-.43-1.47c-.2-.41-.47-.87-.92-.93-.67-.09-1,.73-1.6,1.12-1,.73-2.8,0-3.57,1-.49.63-.2,1.54.1,2.29"/><path class="cls-5" d="M146,95.44a20.76,20.76,0,0,0,.21,5.34l1.08-3.12a1.72,1.72,0,0,0-2.09-2.61"/><path class="cls-5" d="M176.88,90.33a8,8,0,0,1-.71,3.3,3.38,3.38,0,0,1-1.67,1.83,1.62,1.62,0,0,1-2.13-.79c-.31-.91.38-2.19-.42-2.73a1.42,1.42,0,0,0-.89-.16,6.52,6.52,0,0,0-2.75.83A2.09,2.09,0,0,1,169.44,90a6,6,0,0,1,3.15-.34c-.25.62.68,1.09,1.33.92s1.27-.62,1.92-.47l.35,2"/><path class="cls-5" d="M161.58,101.83l0,2a2,2,0,0,0,2.1-.87,1.49,1.49,0,0,0-.57-2.06c-.69-.3-1.66.39-1.38,1.09"/><path class="cls-5" d="M59.5,161.73l-.34,6.47A1.58,1.58,0,0,1,59,169a1.41,1.41,0,0,1-1,.42,3,3,0,0,1-2-.24c-1-.69-.86-2.26-.42-3.42s1-2.47.49-3.58c-.24-.49-.7-.91-.72-1.45,0-.91,1.27-1.37,2-.87a3,3,0,0,1,1.08,2.4"/><path class="cls-5" d="M24.62,173.23a2.73,2.73,0,0,0,1.79,3.18c1.31.31,2.77-1.17,2.19-2.38a6.61,6.61,0,0,0-.68-.92,3,3,0,0,1-.47-2.39c-.66.08-1.33-.1-2-.08a1.63,1.63,0,0,0-1.6,1,1.08,1.08,0,0,0,1,1.33"/><path class="cls-5" d="M47.86,181.8A6.08,6.08,0,0,0,45.4,181a2.09,2.09,0,0,0-2.08,1.25c-.41,1.28,1.17,2.52,2.48,2.23a4.13,4.13,0,0,0,2.65-2.81.56.56,0,0,0-.75-.21"/><path class="cls-5" d="M130.67,172.81c-.32-.1-.73-.17-.95.08a.62.62,0,0,0-.13.4,1.47,1.47,0,0,0,1,1.29,4.38,4.38,0,0,0,1.69.22c2,0,7.16,1,7.76-1.57C137.11,172.6,133.84,173.7,130.67,172.81Z"/><path class="cls-5" d="M138.19,142.29l.73,4.27a1.69,1.69,0,0,0,2-.89,2.55,2.55,0,0,0-2.36-3.55"/><path class="cls-5" d="M125.37,155.23a4.48,4.48,0,0,0-2.42-2.09,1.81,1.81,0,0,0-1.33-.06,2.33,2.33,0,0,0-1.05,1.42L118.81,159a4.45,4.45,0,0,0,3.5.85,19.67,19.67,0,0,1,2.24-.53,1.68,1.68,0,0,1,1.82,1.07c.52.29.92-.54.92-1.14a7.63,7.63,0,0,0-.49-3.29,3,3,0,0,0-2.59-1.84"/><path class="cls-5" d="M138,161.51a4.68,4.68,0,0,1,5,2.23,5.91,5.91,0,0,0,.11-3.17,2,2,0,0,0-2.49-1.4c-1,.46-1.19,1.87-1.17,3a.84.84,0,0,1,.81.58"/><path class="cls-5" d="M77.31,237a4,4,0,0,1-6.24,4.16,1.49,1.49,0,0,1-.71-1.06c0-.67.67-1.11,1.22-1.48a7.49,7.49,0,0,0,3.16-5.14,4,4,0,0,1,.51-1.93c.83-1.09,2.8-.46,3.29.82a4.14,4.14,0,0,1-.92,3.83"/><path class="cls-5" d="M47.2,228.27l-.1,3.94c0,.66.29,1.6.93,1.42a1,1,0,0,0,.51-.47,4.76,4.76,0,0,0-2.08-6.55"/><path class="cls-5" d="M60.41,248.11a6,6,0,0,0-2.76-.65,4.45,4.45,0,0,0,3.52,4.39,3.2,3.2,0,0,0,2.5-.33,1.85,1.85,0,0,0,.7-2.27,3,3,0,0,0-2.12-1.17l-3.2-.72"/><path class="cls-5" d="M62.37,234.68a5.08,5.08,0,0,0-1.76-.37c-.68,0-1.56.35-1.47,1s.85.78,1.45.82l3.52.21A2.83,2.83,0,0,0,62,234"/><path class="cls-5" d="M71.26,220.44a6.78,6.78,0,0,1,2.94,1.68,1.58,1.58,0,0,0,0-1.81,4.63,4.63,0,0,0-1.47-1.23c-.91-.57-2-1.15-3-.71a1.75,1.75,0,0,0,1,1.35"/></svg>
