<svg id="Layer_1" data-name="Layer 1" xmlns="http://www.w3.org/2000/svg" xmlns:xlink="http://www.w3.org/1999/xlink" width="1080" height="1920" viewBox="0 0 1080 1920"><defs><style>.cls-1{fill:#0a1733;}.cls-2{fill:#1c96c6;}.cls-3,.cls-4,.cls-5{fill:#fff;}.cls-3{opacity:0.2;}.cls-4{opacity:0.31;}.cls-6{fill:#1f4754;}.cls-6,.cls-7,.cls-8{stroke:#0a1733;stroke-miterlimit:10;}.cls-7{fill:url(#radial-gradient);}.cls-8{fill:url(#radial-gradient-2);}</style><radialGradient id="radial-gradient" cx="732.49" cy="847.5" r="50.9" gradientUnits="userSpaceOnUse"><stop offset="0" stop-color="#fff"/><stop offset="1" stop-color="#80bed6"/></radialGradient><radialGradient id="radial-gradient-2" cx="731.49" cy="998.5" r="50.9" xlink:href="#radial-gradient"/></defs><title>settings_on_front</title><rect class="cls-1" x="70" y="572" width="981" height="697" rx="12"/><rect class="cls-2" x="49.5" y="557.5" width="981" height="697" rx="12"/><ellipse class="cls-3" cx="70.5" cy="797.5" rx="4.5" ry="212.5"/><ellipse class="cls-4" cx="857.5" cy="1229.5" rx="140.5" ry="4.5"/><line class="cls-5" x1="171" y1="919" x2="908" y2="917"/><path class="cls-6" d="M891.5,847.5c-1-56.5-47.46-48.5-106-48.5v97C844,896,892.5,906,891.5,847.5Z"/><path class="cls-7" d="M679.5,847.5C678.5,902,727,896,785.5,896V799C727,799,680.5,793,679.5,847.5Z"/><path class="cls-8" d="M678.5,998.5c-1,54.5,47.46,48.5,106,48.5V950C726,950,679.5,944,678.5,998.5Z"/><path class="cls-6" d="M890.5,998.5c-1-56.5-47.46-48.5-106-48.5v97C843,1047,891.5,1057,890.5,998.5Z"/><path d="M732.52,846.48a36.43,36.43,0,0,1-.89,8.58,18.54,18.54,0,0,1-2.46,6,10.22,10.22,0,0,1-3.69,3.48,9.6,9.6,0,0,1-4.56,1.13,9.7,9.7,0,0,1-4.6-1.13,10.3,10.3,0,0,1-3.69-3.48,18.77,18.77,0,0,1-2.47-6,41.21,41.21,0,0,1,0-17.13,19.09,19.09,0,0,1,2.47-6,10.34,10.34,0,0,1,3.69-3.49,9.7,9.7,0,0,1,4.6-1.13,9.6,9.6,0,0,1,4.56,1.13,10.26,10.26,0,0,1,3.69,3.49,18.86,18.86,0,0,1,2.46,6A36.28,36.28,0,0,1,732.52,846.48Zm-4.62,0a40.89,40.89,0,0,0-.54-7.14,19.28,19.28,0,0,0-1.48-5,7.46,7.46,0,0,0-2.21-2.87,4.58,4.58,0,0,0-5.53,0,7.59,7.59,0,0,0-2.23,2.87,18.5,18.5,0,0,0-1.49,5,47.67,47.67,0,0,0,0,14.31,18.23,18.23,0,0,0,1.49,4.94,7.47,7.47,0,0,0,2.23,2.86,4.58,4.58,0,0,0,5.53,0,7.35,7.35,0,0,0,2.21-2.86,19,19,0,0,0,1.48-4.94A41.1,41.1,0,0,0,727.9,846.48Z"/><path d="M757.2,828c-.11,1.52-.2,3.07-.26,4.67s-.11,3.18-.15,4.75-.06,3.13-.08,4.65,0,3,0,4.35,0,2.83,0,4.35,0,3.07.08,4.66.08,3.18.14,4.78.12,3.16.21,4.68h-5c-.91-2.63-1.8-5.13-2.68-7.52s-1.75-4.68-2.62-6.91-1.73-4.4-2.59-6.53-1.72-4.23-2.58-6.32h-.19c0,1.56,0,3.08,0,4.55s0,2.9,0,4.26,0,2.83,0,4.35,0,3.07.08,4.66.08,3.18.14,4.78.12,3.16.21,4.68H737c.11-1.52.19-3.08.25-4.68s.12-3.2.15-4.78.06-3.14.08-4.66,0-3,0-4.35,0-2.83,0-4.35,0-3.07-.08-4.65-.08-3.16-.15-4.75-.14-3.15-.25-4.67h5q2.72,7.89,5.32,14.9t5.21,13.29h.19c0-.78,0-1.61,0-2.47s0-1.71,0-2.56,0-1.68,0-2.49,0-1.55,0-2.25q0-2.07,0-4.35c0-1.52,0-3.07-.08-4.65s-.08-3.16-.15-4.75-.14-3.15-.25-4.67Z"/><path d="M732.52,996.48a36.43,36.43,0,0,1-.89,8.58,18.54,18.54,0,0,1-2.46,6,10.22,10.22,0,0,1-3.69,3.48,9.6,9.6,0,0,1-4.56,1.13,9.7,9.7,0,0,1-4.6-1.13,10.3,10.3,0,0,1-3.69-3.48,18.77,18.77,0,0,1-2.47-6,41.21,41.21,0,0,1,0-17.13,19.09,19.09,0,0,1,2.47-6,10.34,10.34,0,0,1,3.69-3.49,9.7,9.7,0,0,1,4.6-1.13,9.6,9.6,0,0,1,4.56,1.13,10.26,10.26,0,0,1,3.69,3.49,18.86,18.86,0,0,1,2.46,6A36.28,36.28,0,0,1,732.52,996.48Zm-4.62,0a41,41,0,0,0-.54-7.14,19.28,19.28,0,0,0-1.48-5,7.46,7.46,0,0,0-2.21-2.87,4.58,4.58,0,0,0-5.53,0,7.59,7.59,0,0,0-2.23,2.87,18.5,18.5,0,0,0-1.49,5,47.67,47.67,0,0,0,0,14.31,18.23,18.23,0,0,0,1.49,4.94,7.47,7.47,0,0,0,2.23,2.86,4.58,4.58,0,0,0,5.53,0,7.35,7.35,0,0,0,2.21-2.86,19,19,0,0,0,1.48-4.94A41.1,41.1,0,0,0,727.9,996.48Z"/><path d="M757.2,978c-.11,1.52-.2,3.08-.26,4.67s-.11,3.18-.15,4.75-.06,3.13-.08,4.65,0,3,0,4.35,0,2.83,0,4.35,0,3.07.08,4.66.08,3.18.14,4.78.12,3.16.21,4.69h-5c-.91-2.64-1.8-5.14-2.68-7.52s-1.75-4.69-2.62-6.92-1.73-4.4-2.59-6.53-1.72-4.23-2.58-6.32h-.19c0,1.56,0,3.08,0,4.55s0,2.9,0,4.26,0,2.83,0,4.35,0,3.07.08,4.66.08,3.18.14,4.78.12,3.16.21,4.69H737c.11-1.53.19-3.09.25-4.69s.12-3.2.15-4.78.06-3.14.08-4.66,0-3,0-4.35,0-2.83,0-4.35,0-3.07-.08-4.65-.08-3.16-.15-4.75-.14-3.15-.25-4.67h5q2.72,7.89,5.32,14.9t5.21,13.29h.19c0-.78,0-1.61,0-2.47s0-1.71,0-2.56,0-1.68,0-2.49,0-1.55,0-2.25q0-2.07,0-4.35c0-1.52,0-3.07-.08-4.65s-.08-3.16-.15-4.75-.14-3.15-.25-4.67Z"/><path d="M821.52,844.48a36.43,36.43,0,0,1-.89,8.58,18.54,18.54,0,0,1-2.46,6,10.22,10.22,0,0,1-3.69,3.48,9.6,9.6,0,0,1-4.56,1.13,9.7,9.7,0,0,1-4.6-1.13,10.3,10.3,0,0,1-3.69-3.48,18.77,18.77,0,0,1-2.47-6,41.21,41.21,0,0,1,0-17.13,19.09,19.09,0,0,1,2.47-6,10.34,10.34,0,0,1,3.69-3.49,9.7,9.7,0,0,1,4.6-1.13,9.6,9.6,0,0,1,4.56,1.13,10.26,10.26,0,0,1,3.69,3.49,18.86,18.86,0,0,1,2.46,6A36.28,36.28,0,0,1,821.52,844.48Zm-4.62,0a40.89,40.89,0,0,0-.54-7.14,19.28,19.28,0,0,0-1.48-5,7.46,7.46,0,0,0-2.21-2.87,4.58,4.58,0,0,0-5.53,0,7.59,7.59,0,0,0-2.23,2.87,18.5,18.5,0,0,0-1.49,5,47.67,47.67,0,0,0,0,14.31,18.23,18.23,0,0,0,1.49,4.94,7.47,7.47,0,0,0,2.23,2.86,4.58,4.58,0,0,0,5.53,0,7.35,7.35,0,0,0,2.21-2.86,19,19,0,0,0,1.48-4.94A41.1,41.1,0,0,0,816.9,844.48Z"/><path d="M841,826v3.14H830.92q-.17,3.17-.23,6.36t-.1,6.15h9.7v3.14h-9.7c0,1.37,0,2.79,0,4.29s0,3,.08,4.56.08,3.11.13,4.68.13,3.09.22,4.57h-5c.11-1.52.19-3.08.25-4.68s.12-3.2.15-4.78.06-3.14.08-4.66,0-3,0-4.35,0-2.83,0-4.35,0-3.07-.08-4.65-.08-3.16-.15-4.75-.14-3.15-.25-4.67Z"/><path d="M859.89,826v3.14H849.77q-.16,3.17-.23,6.36c0,2.13-.08,4.18-.09,6.15h9.69v3.14h-9.69c0,1.37,0,2.79,0,4.29s0,3,.08,4.56.08,3.11.14,4.68.12,3.09.21,4.57h-5c.11-1.52.19-3.08.26-4.68s.11-3.2.14-4.78.07-3.14.08-4.66,0-3,0-4.35,0-2.83,0-4.35,0-3.07-.08-4.65-.08-3.16-.14-4.75-.15-3.15-.26-4.67Z"/><path d="M825.52,998.48a36.43,36.43,0,0,1-.89,8.58,18.54,18.54,0,0,1-2.46,6,10.22,10.22,0,0,1-3.69,3.48,9.6,9.6,0,0,1-4.56,1.13,9.7,9.7,0,0,1-4.6-1.13,10.3,10.3,0,0,1-3.69-3.48,18.77,18.77,0,0,1-2.47-6,41.21,41.21,0,0,1,0-17.13,19.09,19.09,0,0,1,2.47-6,10.34,10.34,0,0,1,3.69-3.49,9.7,9.7,0,0,1,4.6-1.13,9.6,9.6,0,0,1,4.56,1.13,10.26,10.26,0,0,1,3.69,3.49,18.86,18.86,0,0,1,2.46,6A36.28,36.28,0,0,1,825.52,998.48Zm-4.62,0a41,41,0,0,0-.54-7.14,19.28,19.28,0,0,0-1.48-5,7.46,7.46,0,0,0-2.21-2.87,4.58,4.58,0,0,0-5.53,0,7.59,7.59,0,0,0-2.23,2.87,18.5,18.5,0,0,0-1.49,5,47.67,47.67,0,0,0,0,14.31,18.23,18.23,0,0,0,1.49,4.94,7.47,7.47,0,0,0,2.23,2.86,4.58,4.58,0,0,0,5.53,0,7.35,7.35,0,0,0,2.21-2.86,19,19,0,0,0,1.48-4.94A41.1,41.1,0,0,0,820.9,998.48Z"/><path d="M845,980v3.14H834.92q-.17,3.17-.23,6.36t-.1,6.15h9.7v3.14h-9.7c0,1.37,0,2.79,0,4.29s0,3,.08,4.56.08,3.11.13,4.68.13,3.09.22,4.58h-5c.11-1.53.19-3.09.25-4.69s.12-3.2.15-4.78.06-3.14.08-4.66,0-3,0-4.35,0-2.83,0-4.35,0-3.07-.08-4.65-.08-3.16-.15-4.75-.14-3.15-.25-4.67Z"/><path d="M863.89,980v3.14H853.77q-.16,3.17-.23,6.36c0,2.13-.08,4.18-.09,6.15h9.69v3.14h-9.69c0,1.37,0,2.79,0,4.29s0,3,.08,4.56.08,3.11.14,4.68.12,3.09.21,4.58h-5c.11-1.53.19-3.09.26-4.69s.11-3.2.14-4.78.07-3.14.08-4.66,0-3,0-4.35,0-2.83,0-4.35,0-3.07-.08-4.65-.08-3.16-.14-4.75-.15-3.15-.26-4.67Z"/><path d="M243,967.37c-.15,2-.26,4-.34,6.12s-.15,4.16-.19,6.22-.08,4.09-.11,6.08,0,3.9,0,5.7,0,3.7,0,5.7.06,4,.11,6.1.1,4.16.17,6.25.17,4.15.29,6.14h-6.51c-1.19-3.45-2.37-6.73-3.51-9.85s-2.3-6.13-3.43-9.05-2.27-5.76-3.39-8.54-2.25-5.54-3.38-8.28h-.25c0,2-.06,4,0,6s0,3.79,0,5.57,0,3.7,0,5.7.06,4,.11,6.1.11,4.16.18,6.25.16,4.15.28,6.14h-6.44q.21-3,.34-6.14c.08-2.09.14-4.18.19-6.25s.08-4.11.11-6.1,0-3.9,0-5.7,0-3.7,0-5.7-.06-4-.11-6.08-.11-4.13-.19-6.22-.2-4.12-.34-6.12h6.58q3.54,10.33,7,19.51t6.82,17.41h.24c0-1,0-2.11,0-3.24s0-2.24,0-3.35,0-2.2,0-3.26,0-2,0-3c0-1.8,0-3.7,0-5.7s-.05-4-.1-6.08-.11-4.13-.19-6.22-.2-4.12-.34-6.12Z"/><path d="M279.34,991.56a47.75,47.75,0,0,1-1.16,11.23,24.62,24.62,0,0,1-3.22,7.81,13.43,13.43,0,0,1-4.83,4.55,12.88,12.88,0,0,1-12,0,13.45,13.45,0,0,1-4.84-4.55,24.62,24.62,0,0,1-3.23-7.81,53.88,53.88,0,0,1,0-22.43,24.88,24.88,0,0,1,3.23-7.82,13.52,13.52,0,0,1,4.84-4.57,12.88,12.88,0,0,1,12,0,13.49,13.49,0,0,1,4.83,4.57,24.88,24.88,0,0,1,3.22,7.82A47.71,47.71,0,0,1,279.34,991.56Zm-6,0a53.8,53.8,0,0,0-.7-9.35,25.34,25.34,0,0,0-1.94-6.49,9.71,9.71,0,0,0-2.9-3.76,6,6,0,0,0-3.6-1.21,6.05,6.05,0,0,0-3.64,1.21,9.93,9.93,0,0,0-2.92,3.76,24.92,24.92,0,0,0-1.95,6.49,63.06,63.06,0,0,0,0,18.74,24.76,24.76,0,0,0,1.95,6.47,10,10,0,0,0,2.92,3.74,6.05,6.05,0,0,0,3.64,1.21,6,6,0,0,0,3.6-1.21,9.78,9.78,0,0,0,2.9-3.74,25.17,25.17,0,0,0,1.94-6.47A54.21,54.21,0,0,0,273.29,991.56Z"/><path d="M280.5,967.37h24.08v4.12h-9c-.18,3.44-.3,6.89-.35,10.33s-.07,6.67-.07,9.67c0,1.8,0,3.7,0,5.7s.06,4,.1,6.1.11,4.16.18,6.25.16,4.15.28,6.14h-6.57q.21-3,.33-6.14c.08-2.09.15-4.18.19-6.25s.09-4.11.11-6.1,0-3.9,0-5.7q0-4.5-.08-9.67c-.06-3.44-.17-6.89-.34-10.33h-9Z"/><path d="M315.48,967.37c-.14,2-.25,4-.34,6.12s-.14,4.16-.19,6.22-.08,4.09-.11,6.08,0,3.9,0,5.7,0,3.7,0,5.7.06,4,.11,6.1.11,4.16.18,6.25.16,4.15.28,6.14h-6.58q.21-3,.34-6.14c.08-2.09.14-4.18.19-6.25s.08-4.11.11-6.1,0-3.9,0-5.7,0-3.7,0-5.7-.06-4-.11-6.08-.11-4.13-.19-6.22-.2-4.12-.34-6.12Z"/><path d="M342.37,967.37v4.12H329.12q-.21,4.14-.3,8.33t-.12,8h12.69V992H328.7q0,2.67,0,5.61t.11,6q.06,3,.17,6.11c.07,2.05.17,4.05.28,6h-6.57q.21-3,.33-6.14c.09-2.09.15-4.18.2-6.25s.08-4.11.1-6.1,0-3.9,0-5.7,0-3.7,0-5.7-.06-4-.1-6.08-.11-4.13-.2-6.22-.19-4.12-.33-6.12Z"/><path d="M354.25,967.37c-.14,2-.25,4-.33,6.12s-.15,4.16-.19,6.22-.08,4.09-.11,6.08,0,3.9,0,5.7,0,3.7,0,5.7.06,4,.11,6.1.1,4.16.17,6.25.17,4.15.28,6.14h-6.57q.21-3,.33-6.14c.09-2.09.15-4.18.2-6.25s.08-4.11.1-6.1,0-3.9,0-5.7,0-3.7,0-5.7-.06-4-.1-6.08-.11-4.13-.2-6.22-.19-4.12-.33-6.12Z"/><path d="M366.49,991.56a44.15,44.15,0,0,0,.81,9,22.47,22.47,0,0,0,2.3,6.52,11.14,11.14,0,0,0,3.59,4,8.37,8.37,0,0,0,4.65,1.35,9.18,9.18,0,0,0,2.75-.38,10.65,10.65,0,0,0,2.16-1,13.84,13.84,0,0,0,1.81-1.3l1.65-1.39v7.07c-1.31.32-2.63.59-3.95.79a29.82,29.82,0,0,1-4.42.3,16.1,16.1,0,0,1-7-1.52,14.87,14.87,0,0,1-5.53-4.58,23,23,0,0,1-3.66-7.77,41.14,41.14,0,0,1-1.32-11.06,39.06,39.06,0,0,1,1.39-11.06,23.84,23.84,0,0,1,3.76-7.77,15.2,15.2,0,0,1,5.56-4.58,15.51,15.51,0,0,1,6.76-1.52,29.82,29.82,0,0,1,4.42.3c1.32.2,2.64.47,3.95.79v7.07c-.54-.44-1.09-.91-1.65-1.39a13.84,13.84,0,0,0-1.81-1.3,10.65,10.65,0,0,0-2.16-1,9.18,9.18,0,0,0-2.75-.38,8.37,8.37,0,0,0-4.65,1.35,11.14,11.14,0,0,0-3.59,4,22.47,22.47,0,0,0-2.3,6.52A44.22,44.22,0,0,0,366.49,991.56Z"/><path d="M410.4,1015.68q-.5-3.37-1-6.68l-1.05-6.61H396.9c-.38,2.2-.73,4.4-1.07,6.61s-.68,4.43-1,6.68h-6.68c.75-2.84,1.48-5.76,2.21-8.77s1.42-6,2.07-9,1.29-5.93,1.89-8.83,1.14-5.66,1.65-8.29,1-5.1,1.39-7.37.78-4.29,1.09-6h8.33c.3,1.76.67,3.78,1.09,6s.88,4.73,1.39,7.37,1.05,5.4,1.65,8.29,1.22,5.84,1.88,8.83,1.35,6,2.07,9,1.47,5.93,2.22,8.77Zm-8-41.21q-1.44,6-2.6,11.89t-2.18,11.92h10.05q-1-6-2.2-11.92t-2.58-11.89Z"/><path d="M415.67,967.37h24.08v4.12h-9c-.19,3.44-.3,6.89-.35,10.33s-.07,6.67-.07,9.67q0,2.7,0,5.7c0,2,.06,4,.11,6.1s.1,4.16.17,6.25.17,4.15.29,6.14h-6.58q.21-3,.34-6.14c.08-2.09.14-4.18.19-6.25s.08-4.11.1-6.1,0-3.9,0-5.7q0-4.5-.09-9.67c-.06-3.44-.17-6.89-.33-10.33h-9Z"/><path d="M450.65,967.37c-.14,2-.25,4-.33,6.12s-.15,4.16-.19,6.22-.09,4.09-.11,6.08,0,3.9,0,5.7,0,3.7,0,5.7.06,4,.11,6.1.1,4.16.17,6.25.17,4.15.28,6.14H444q.21-3,.33-6.14c.08-2.09.15-4.18.2-6.25s.08-4.11.1-6.1,0-3.9,0-5.7,0-3.7,0-5.7-.06-4-.1-6.08-.12-4.13-.2-6.22-.19-4.12-.33-6.12Z"/><path d="M487.22,991.56a47.75,47.75,0,0,1-1.16,11.23,24.62,24.62,0,0,1-3.22,7.81,13.38,13.38,0,0,1-4.84,4.55,12.86,12.86,0,0,1-12,0,13.45,13.45,0,0,1-4.84-4.55,24.62,24.62,0,0,1-3.23-7.81,53.88,53.88,0,0,1,0-22.43,24.88,24.88,0,0,1,3.23-7.82A13.52,13.52,0,0,1,466,968a12.86,12.86,0,0,1,12,0,13.44,13.44,0,0,1,4.84,4.57,24.88,24.88,0,0,1,3.22,7.82A47.71,47.71,0,0,1,487.22,991.56Zm-6.05,0a54.8,54.8,0,0,0-.7-9.35,25.34,25.34,0,0,0-1.94-6.49,9.71,9.71,0,0,0-2.9-3.76,6,6,0,0,0-3.6-1.21,6.05,6.05,0,0,0-3.64,1.21,9.93,9.93,0,0,0-2.92,3.76,24.92,24.92,0,0,0-2,6.49,63.06,63.06,0,0,0,0,18.74,24.76,24.76,0,0,0,2,6.47,10,10,0,0,0,2.92,3.74,6.05,6.05,0,0,0,3.64,1.21,6,6,0,0,0,3.6-1.21,9.78,9.78,0,0,0,2.9-3.74,25.17,25.17,0,0,0,1.94-6.47A55.22,55.22,0,0,0,481.17,991.56Z"/><path d="M519.52,967.37c-.14,2-.25,4-.33,6.12s-.15,4.16-.19,6.22-.08,4.09-.11,6.08,0,3.9,0,5.7,0,3.7,0,5.7.06,4,.11,6.1.1,4.16.17,6.25.17,4.15.28,6.14H513q-1.8-5.17-3.52-9.85c-1.14-3.11-2.29-6.13-3.42-9.05s-2.27-5.76-3.4-8.54-2.25-5.54-3.37-8.28H499c0,2-.06,4-.05,6s0,3.79,0,5.57,0,3.7,0,5.7.06,4,.11,6.1.1,4.16.17,6.25.17,4.15.29,6.14h-6.44q.21-3,.34-6.14c.08-2.09.14-4.18.19-6.25s.08-4.11.1-6.1,0-3.9,0-5.7,0-3.7,0-5.7-.05-4-.1-6.08-.11-4.13-.19-6.22-.2-4.12-.34-6.12h6.58q3.54,10.33,7,19.51t6.82,17.41h.24c0-1,0-2.11,0-3.24s0-2.24,0-3.35,0-2.2,0-3.26,0-2,0-3c0-1.8,0-3.7,0-5.7s-.06-4-.1-6.08-.11-4.13-.2-6.22-.19-4.12-.33-6.12Z"/><path d="M534.71,1012.65a8.66,8.66,0,0,0,2.76-.44,6.28,6.28,0,0,0,2.41-1.42,7.12,7.12,0,0,0,1.69-2.51,9.86,9.86,0,0,0,.63-3.75,8.11,8.11,0,0,0-.76-3.51,14.23,14.23,0,0,0-2-3.1,26,26,0,0,0-2.81-2.86q-1.59-1.39-3.24-2.8t-3.23-2.9a23.13,23.13,0,0,1-2.82-3.16,15.6,15.6,0,0,1-2-3.6,11.39,11.39,0,0,1-.76-4.22,11.77,11.77,0,0,1,1.23-5.63,10.84,10.84,0,0,1,3.13-3.67,12.31,12.31,0,0,1,4.2-2,17.79,17.79,0,0,1,4.49-.6,26.42,26.42,0,0,1,4.41.37c1.42.25,2.78.51,4.09.79v7c-.75-.63-1.46-1.21-2.12-1.72a14.43,14.43,0,0,0-2-1.32,9.73,9.73,0,0,0-2-.84,8.26,8.26,0,0,0-2.25-.3,9.48,9.48,0,0,0-2.8.4,6.16,6.16,0,0,0-2.28,1.25,6.09,6.09,0,0,0-1.55,2.14,7.52,7.52,0,0,0-.58,3.1,8.32,8.32,0,0,0,1.3,4.55,20.69,20.69,0,0,0,3.27,3.92q2,1.86,4.25,3.73a40.38,40.38,0,0,1,4.26,4,21.3,21.3,0,0,1,3.27,4.7,12.72,12.72,0,0,1,1.3,5.82,15,15,0,0,1-.57,4.34,11.22,11.22,0,0,1-1.53,3.27,10.15,10.15,0,0,1-2.23,2.34,11.62,11.62,0,0,1-2.7,1.52,13.62,13.62,0,0,1-3,.83,19,19,0,0,1-3,.25c-1.14,0-2.2,0-3.16-.13s-1.86-.2-2.69-.35-1.6-.33-2.32-.53-1.41-.41-2.09-.65v-7.2c.73.68,1.45,1.32,2.18,1.91a15.59,15.59,0,0,0,2.27,1.57,11.65,11.65,0,0,0,2.47,1A10.69,10.69,0,0,0,534.71,1012.65Z"/><path d="M235.49,864.68c-.56-2.91-1.16-6-1.78-9.14s-1.29-6.42-2-9.71-1.48-6.56-2.29-9.84-1.67-6.47-2.58-9.56h-.35c-.05,1-.08,2.14-.09,3.41s0,2.54,0,3.81,0,2.52,0,3.71,0,2.24,0,3.13q0,2.7,0,5.7c0,2,.06,4,.11,6.1s.11,4.16.18,6.25.16,4.15.28,6.14h-6.44q.21-3,.34-6.14c.08-2.09.14-4.18.19-6.25s.08-4.11.11-6.1,0-3.9,0-5.7,0-3.7,0-5.7-.06-4-.11-6.08-.11-4.13-.19-6.22-.2-4.12-.34-6.12h8.34q2.07,10,4.2,19.18t4.62,17.35h.46q2.49-8.19,4.62-17.35t4.2-19.18h8.33c-.14,2-.25,4-.33,6.12s-.15,4.16-.19,6.22-.09,4.09-.11,6.08,0,3.9,0,5.7,0,3.7,0,5.7.06,4,.11,6.1.11,4.16.19,6.25.19,4.15.33,6.14h-6.43q.18-3,.28-6.14c.07-2.09.13-4.18.18-6.25s.08-4.11.1-6.1,0-3.9,0-5.7v-6.84c0-1.27,0-2.55,0-3.81s0-2.4-.05-3.41h-.36q-1.36,4.64-2.58,9.56t-2.28,9.84c-.72,3.29-1.39,6.52-2,9.71s-1.21,6.23-1.77,9.14Z"/><path d="M268.11,839.51c0,1.71.05,3.34.07,4.9s.06,3,.11,4.39.11,2.62.18,3.75.16,2.1.28,2.92a8,8,0,0,0,1.75,4.41,4.45,4.45,0,0,0,3.34,1.35,5.45,5.45,0,0,0,2.4-.6,10.53,10.53,0,0,0,2.37-1.58,17.3,17.3,0,0,0,2.18-2.25,22.37,22.37,0,0,0,1.84-2.6q.21-7,.21-14.1,0-3.27,0-6.22c0-2-.06-3.9-.12-5.8s-.13-3.8-.21-5.71-.19-3.91-.3-6h6.5q-.18,3.14-.3,6c-.08,1.91-.15,3.81-.21,5.71s-.1,3.83-.12,5.8,0,4,0,6.22,0,4.3,0,6.35.06,4.08.12,6.08.13,4,.21,6,.18,4.05.3,6.14h-6.54c.05-.92.1-1.82.14-2.73s.1-1.8.14-2.69a29.2,29.2,0,0,1-2.16,2.41,15.36,15.36,0,0,1-2.48,2,12.77,12.77,0,0,1-2.86,1.37,10.47,10.47,0,0,1-3.33.51,7.43,7.43,0,0,1-6.48-3.33q-2.31-3.32-2.3-9.89c0-1.08,0-2.23,0-3.46s0-2.44.06-3.63,0-2.28.05-3.28,0-1.83,0-2.46c0-2.18,0-4.22,0-6.12s-.06-3.76-.1-5.59-.12-3.67-.2-5.52-.18-3.82-.3-5.91h6.47c-.11,2.09-.22,4.06-.31,5.91s-.17,3.69-.23,5.52-.1,3.69-.13,5.59S268.09,837.33,268.11,839.51Z"/><path d="M303.87,861.65a8.66,8.66,0,0,0,2.76-.44,6.36,6.36,0,0,0,2.41-1.42,7.1,7.1,0,0,0,1.68-2.51,9.66,9.66,0,0,0,.64-3.75,8.26,8.26,0,0,0-.76-3.51,14.28,14.28,0,0,0-2-3.1,25.15,25.15,0,0,0-2.81-2.86q-1.57-1.39-3.23-2.8t-3.24-2.9a23.73,23.73,0,0,1-2.81-3.16,16,16,0,0,1-2-3.6,11.59,11.59,0,0,1-.75-4.22,11.77,11.77,0,0,1,1.23-5.63,10.73,10.73,0,0,1,3.13-3.67,12.14,12.14,0,0,1,4.2-2,17.71,17.71,0,0,1,4.48-.6,26.33,26.33,0,0,1,4.41.37c1.42.25,2.79.51,4.1.79v7c-.75-.63-1.46-1.21-2.13-1.72a14.35,14.35,0,0,0-2-1.32,9.81,9.81,0,0,0-2.06-.84,8.16,8.16,0,0,0-2.25-.3,9.46,9.46,0,0,0-2.79.4,6.29,6.29,0,0,0-2.29,1.25,6.22,6.22,0,0,0-1.55,2.14,7.69,7.69,0,0,0-.58,3.1,8.33,8.33,0,0,0,1.31,4.55,20.26,20.26,0,0,0,3.26,3.92q2,1.86,4.26,3.73a40.27,40.27,0,0,1,4.25,4,20.65,20.65,0,0,1,3.27,4.7,12.59,12.59,0,0,1,1.3,5.82,15,15,0,0,1-.56,4.34,11.22,11.22,0,0,1-1.53,3.27A10.37,10.37,0,0,1,313,863a11.68,11.68,0,0,1-2.71,1.52,13.38,13.38,0,0,1-3,.83,19.2,19.2,0,0,1-3,.25c-1.15,0-2.2,0-3.16-.13s-1.86-.2-2.69-.35-1.61-.33-2.32-.53-1.42-.41-2.1-.65v-7.2c.73.68,1.46,1.32,2.18,1.91a16.75,16.75,0,0,0,2.27,1.57,11.73,11.73,0,0,0,2.48,1A10.69,10.69,0,0,0,303.87,861.65Z"/><path d="M329.46,816.37c-.14,2-.25,4-.33,6.12s-.15,4.16-.2,6.22-.08,4.09-.1,6.08,0,3.9,0,5.7,0,3.7,0,5.7.06,4,.1,6.1.11,4.16.18,6.25.16,4.15.28,6.14h-6.57q.21-3,.33-6.14c.08-2.09.15-4.18.19-6.25s.09-4.11.11-6.1,0-3.9,0-5.7,0-3.7,0-5.7-.06-4-.11-6.08-.11-4.13-.19-6.22-.19-4.12-.33-6.12Z"/><path d="M341.7,840.56a44.93,44.93,0,0,0,.8,9,22.47,22.47,0,0,0,2.31,6.52,11.12,11.12,0,0,0,3.58,4,8.43,8.43,0,0,0,4.66,1.35,9.12,9.12,0,0,0,2.74-.38,10.5,10.5,0,0,0,2.17-1,14.55,14.55,0,0,0,1.81-1.3l1.65-1.39v7.07c-1.31.32-2.63.59-4,.79a29.59,29.59,0,0,1-4.41.3,16,16,0,0,1-7-1.52,14.9,14.9,0,0,1-5.54-4.58,23.17,23.17,0,0,1-3.65-7.77,41.14,41.14,0,0,1-1.32-11.06A39.06,39.06,0,0,1,337,829.5a23.64,23.64,0,0,1,3.76-7.77,15.17,15.17,0,0,1,5.55-4.58,15.59,15.59,0,0,1,6.77-1.52,29.59,29.59,0,0,1,4.41.3c1.33.2,2.65.47,4,.79v7.07c-.54-.44-1.09-.91-1.65-1.39a14.55,14.55,0,0,0-1.81-1.3,10.5,10.5,0,0,0-2.17-1,9.12,9.12,0,0,0-2.74-.38,8.43,8.43,0,0,0-4.66,1.35,11.12,11.12,0,0,0-3.58,4,22.47,22.47,0,0,0-2.31,6.52A45,45,0,0,0,341.7,840.56Z"/><path d="M311.69,444.07a17.83,17.83,0,0,0,5.68-.92,13.14,13.14,0,0,0,4.95-3,15.08,15.08,0,0,0,3.47-5.27,21.12,21.12,0,0,0,1.3-7.86,17.46,17.46,0,0,0-1.56-7.37,29.88,29.88,0,0,0-4.08-6.48,53.2,53.2,0,0,0-5.78-6q-3.26-2.91-6.65-5.86t-6.65-6.08a49.73,49.73,0,0,1-5.78-6.63,32.86,32.86,0,0,1-4.08-7.56A24.42,24.42,0,0,1,291,372.2a25.13,25.13,0,0,1,2.53-11.79,22.63,22.63,0,0,1,6.43-7.7,25.18,25.18,0,0,1,8.64-4.17,36.2,36.2,0,0,1,9.21-1.25,52.52,52.52,0,0,1,9.07.77c2.92.52,5.72,1.07,8.42,1.66v14.67q-2.31-2-4.37-3.61a30.86,30.86,0,0,0-4.12-2.76,19.37,19.37,0,0,0-4.23-1.77,16.43,16.43,0,0,0-4.62-.63,19,19,0,0,0-5.75.85,12.25,12.25,0,0,0-7.87,7.11,16,16,0,0,0-1.2,6.49,17.66,17.66,0,0,0,2.68,9.54,42.38,42.38,0,0,0,6.72,8.22q4,3.92,8.74,7.81a84.88,84.88,0,0,1,8.75,8.41,44.65,44.65,0,0,1,6.72,9.84,26.93,26.93,0,0,1,2.67,12.2,32.08,32.08,0,0,1-1.16,9.1,23.75,23.75,0,0,1-3.14,6.85,20.75,20.75,0,0,1-4.59,4.91,24.53,24.53,0,0,1-5.56,3.2,28.4,28.4,0,0,1-6.11,1.74,38,38,0,0,1-6.1.51c-2.37,0-4.53-.08-6.51-.26s-3.82-.41-5.53-.73-3.3-.69-4.77-1.11-2.9-.87-4.3-1.36V433.83q2.25,2.13,4.48,4a32.08,32.08,0,0,0,4.67,3.28,22.65,22.65,0,0,0,5.09,2.18A21.18,21.18,0,0,0,311.69,444.07Z"/><path d="M398.19,349.13v8.63H369.43q-.44,8.48-.61,16.91t-.26,16.4H396.1v8.63H368.56q0,9.51.15,20.38t.65,21.71h29.27v8.62H356.28q.44-6.26.69-12.86c.16-4.4.3-8.77.39-13.12s.17-8.61.22-12.79.07-8.16.07-11.94,0-7.77-.07-11.94-.12-8.43-.22-12.75-.23-8.68-.39-13.05-.4-8.65-.69-12.83Z"/><path d="M411.42,349.13h49.5v8.63H442.49q-.58,10.83-.72,21.67t-.15,20.27q0,5.67.07,11.94t.22,12.79q.15,6.52.36,13.12t.58,12.86H429.34q.44-6.26.68-12.86t.4-13.12q.15-6.53.22-12.79t.07-11.94q0-9.43-.18-20.27t-.69-21.67H411.42Z"/><path d="M469.15,349.13h49.51v8.63H500.23q-.59,10.83-.73,21.67t-.14,20.27q0,5.67.07,11.94t.22,12.79q.15,6.52.36,13.12t.58,12.86H487.08q.42-6.26.68-12.86t.4-13.12q.13-6.53.22-12.79t.07-11.94q0-9.43-.18-20.27t-.69-21.67H469.15Z"/><path d="M547.13,349.13q-.43,6.27-.69,12.83T546,375c-.09,4.32-.17,8.57-.21,12.75s-.08,8.16-.08,11.94,0,7.76.08,11.94.12,8.44.21,12.79.22,8.72.36,13.12.34,8.69.58,12.86H533.47q.43-6.26.68-12.86t.4-13.12q.15-6.53.22-12.79t.07-11.94c0-3.78,0-7.77-.07-11.94s-.12-8.43-.22-12.75-.23-8.68-.4-13.05-.39-8.65-.68-12.83Z"/><path d="M622.35,349.13q-.44,6.27-.68,12.83t-.4,13.05q-.15,6.48-.22,12.75c0,4.17-.07,8.16-.07,11.94s0,7.76.07,11.94.12,8.44.22,12.79.21,8.72.36,13.12.34,8.69.58,12.86H608.84q-3.69-10.83-7.23-20.64t-7-19q-3.51-9.18-7-17.91t-6.94-17.36h-.5Q580,381.94,580,388c0,4.05,0,7.94,0,11.68s0,7.76.07,11.94.12,8.44.22,12.79.21,8.72.36,13.12.33,8.69.57,12.86H568.08q.43-6.26.69-12.86c.16-4.4.3-8.77.39-13.12s.17-8.61.22-12.79.07-8.16.07-11.94,0-7.77-.07-11.94-.12-8.43-.22-12.75-.23-8.68-.39-13.05-.4-8.65-.69-12.83h13.51Q588.9,370.8,595.9,390t14,36.49h.51q.08-3.24.07-6.78t0-7c0-2.33,0-4.61-.07-6.82s0-4.27,0-6.19c0-3.78,0-7.77-.08-11.94s-.12-8.43-.21-12.75-.23-8.68-.4-13.05-.4-8.65-.69-12.83Z"/><path d="M671.35,400.58h26.3q-.28,6-.4,11.87t-.11,11.13c0,3.54,0,6.77,0,9.69s.08,5.45.18,7.56c.1,2.51.19,4.74.29,6.71a41,41,0,0,1-9,3.24,53.39,53.39,0,0,1-12.79,1.33,30.19,30.19,0,0,1-25.15-12.79A49.17,49.17,0,0,1,643.27,423a87.77,87.77,0,0,1-2.71-23.18,83.44,83.44,0,0,1,2.86-23.19,49.37,49.37,0,0,1,7.76-16.29,32,32,0,0,1,11.46-9.62,31.51,31.51,0,0,1,13.91-3.17,53.52,53.52,0,0,1,5.49.26c1.64.18,3.17.41,4.59.7a32,32,0,0,1,4,1.11c1.25.44,2.48.91,3.69,1.4v14.89a32.47,32.47,0,0,0-8.86-7.56,19.1,19.1,0,0,0-9-2.17,16.46,16.46,0,0,0-9.9,3.13,24.93,24.93,0,0,0-7.34,8.88A50.44,50.44,0,0,0,654.69,382a92.84,92.84,0,0,0-1.56,17.73,98.45,98.45,0,0,0,1.45,17.43A52.18,52.18,0,0,0,658.92,431a25.12,25.12,0,0,0,7.26,9.18,16.42,16.42,0,0,0,10.22,3.31,21.74,21.74,0,0,0,4.45-.4,13.77,13.77,0,0,0,3.79-1.44c.05-1.08.1-2.33.15-3.76,0-1.23.09-2.71.14-4.46s.07-3.77.07-6.08c0-2.51,0-5.28-.1-8.33s-.21-6.34-.4-9.88H671.35Z"/><path d="M734.07,444.07a17.72,17.72,0,0,0,5.67-.92,13,13,0,0,0,5-3,15,15,0,0,0,3.47-5.27,20.92,20.92,0,0,0,1.3-7.86,17.61,17.61,0,0,0-1.55-7.37,30.27,30.27,0,0,0-4.08-6.48,53.32,53.32,0,0,0-5.79-6q-3.24-2.91-6.64-5.86t-6.65-6.08a49,49,0,0,1-5.78-6.63,33.29,33.29,0,0,1-4.09-7.56,24.63,24.63,0,0,1-1.55-8.85,25,25,0,0,1,2.53-11.79,22.52,22.52,0,0,1,6.43-7.7,25.09,25.09,0,0,1,8.64-4.17,36.09,36.09,0,0,1,9.21-1.25,52.6,52.6,0,0,1,9.07.77q4.37.78,8.42,1.66v14.67q-2.31-2-4.37-3.61a31.52,31.52,0,0,0-4.12-2.76,19.79,19.79,0,0,0-4.23-1.77,16.55,16.55,0,0,0-4.63-.63,19,19,0,0,0-5.74.85,12.57,12.57,0,0,0-4.7,2.61,12.88,12.88,0,0,0-3.18,4.5,16.21,16.21,0,0,0-1.19,6.49,17.74,17.74,0,0,0,2.67,9.54,43.13,43.13,0,0,0,6.72,8.22q4,3.92,8.75,7.81a84.78,84.78,0,0,1,8.74,8.41,44,44,0,0,1,6.72,9.84,26.8,26.8,0,0,1,2.68,12.2,32.44,32.44,0,0,1-1.16,9.1,24,24,0,0,1-3.14,6.85,21.17,21.17,0,0,1-4.59,4.91,24.59,24.59,0,0,1-5.57,3.2,28.31,28.31,0,0,1-6.1,1.74,38.16,38.16,0,0,1-6.11.51c-2.36,0-4.53-.08-6.5-.26s-3.82-.41-5.53-.73-3.3-.69-4.77-1.11-2.9-.87-4.3-1.36V433.83c1.49,1.42,3,2.76,4.48,4a32,32,0,0,0,4.66,3.28,22.53,22.53,0,0,0,5.1,2.18A21.18,21.18,0,0,0,734.07,444.07Z"/></svg>
