<svg id="Layer_1" data-name="Layer 1" xmlns="http://www.w3.org/2000/svg" xmlns:xlink="http://www.w3.org/1999/xlink" width="1080" height="1920" viewBox="0 0 1080 1920"><defs><style>.cls-1,.cls-10,.cls-11,.cls-12,.cls-13,.cls-14,.cls-15,.cls-16,.cls-17,.cls-18,.cls-19,.cls-2,.cls-3,.cls-4,.cls-5,.cls-6,.cls-7,.cls-8,.cls-9{opacity:0.53;}.cls-1{fill:url(#radial-gradient);}.cls-2{fill:url(#linear-gradient);}.cls-3{fill:url(#linear-gradient-2);}.cls-4{fill:url(#linear-gradient-3);}.cls-5{fill:url(#linear-gradient-4);}.cls-6{fill:url(#linear-gradient-5);}.cls-7{fill:url(#linear-gradient-6);}.cls-8{fill:url(#linear-gradient-7);}.cls-9{fill:url(#linear-gradient-8);}.cls-10{fill:url(#linear-gradient-9);}.cls-11{fill:url(#linear-gradient-10);}.cls-12{fill:url(#linear-gradient-11);}.cls-13{fill:url(#linear-gradient-12);}.cls-14{fill:url(#linear-gradient-13);}.cls-15{fill:url(#linear-gradient-14);}.cls-16{fill:url(#linear-gradient-15);}.cls-17{fill:url(#linear-gradient-16);}.cls-18{fill:url(#linear-gradient-17);}.cls-19{fill:url(#linear-gradient-18);}.cls-20{fill:#0a1733;}.cls-21{fill:#1c96c6;}.cls-22,.cls-23,.cls-24{fill:#fff;}.cls-22{opacity:0.2;}.cls-23{opacity:0.31;}.cls-25{fill:#1f4754;}.cls-25,.cls-26,.cls-27{stroke:#0a1733;stroke-miterlimit:10;}.cls-26{fill:url(#radial-gradient-2);}.cls-27{fill:url(#radial-gradient-3);}</style><radialGradient id="radial-gradient" cx="533.5" cy="961" r="781.48" gradientUnits="userSpaceOnUse"><stop offset="0" stop-color="#fff"/><stop offset="1" stop-color="#80bed6"/></radialGradient><linearGradient id="linear-gradient" x1="1" y1="484.4" x2="560.26" y2="484.4" gradientUnits="userSpaceOnUse"><stop offset="0.13" stop-color="#80bed6"/><stop offset="0.88" stop-color="#fff"/></linearGradient><linearGradient id="linear-gradient-2" x1="553.63" y1="483.3" x2="1083" y2="483.3" gradientUnits="userSpaceOnUse"><stop offset="0.26" stop-color="#fff"/><stop offset="0.82" stop-color="#80bed6"/><stop offset="0.9" stop-color="#8ec5db"/></linearGradient><linearGradient id="linear-gradient-3" x1="1" y1="1443.07" x2="552.61" y2="1443.07" gradientUnits="userSpaceOnUse"><stop offset="0" stop-color="#80bed6"/><stop offset="0.19" stop-color="#86c1d8"/><stop offset="0.7" stop-color="#fff"/></linearGradient><linearGradient id="linear-gradient-4" x1="554.29" y1="1441.23" x2="1083" y2="1441.23" gradientUnits="userSpaceOnUse"><stop offset="0.32" stop-color="#fff"/><stop offset="0.58" stop-color="#80bed6"/><stop offset="0.84" stop-color="#86c1d8"/></linearGradient><linearGradient id="linear-gradient-5" x1="532.55" y1="714.53" x2="380.12" y2="7.82" gradientUnits="userSpaceOnUse"><stop offset="0" stop-color="#fff"/><stop offset="0.58" stop-color="#bfdeea"/><stop offset="1" stop-color="#80bed6"/></linearGradient><linearGradient id="linear-gradient-6" x1="605.41" y1="812.3" x2="758.24" y2="-175.71" gradientUnits="userSpaceOnUse"><stop offset="0.02" stop-color="#fff"/><stop offset="0.71" stop-color="#80bed6"/><stop offset="0.9" stop-color="#8ec5db"/></linearGradient><linearGradient id="linear-gradient-7" x1="298.63" y1="1444.04" x2="554.31" y2="1444.04" xlink:href="#linear-gradient-3"/><linearGradient id="linear-gradient-8" x1="556.51" y1="1444.04" x2="812.19" y2="1444.04" gradientUnits="userSpaceOnUse"><stop offset="0" stop-color="#80bed6"/><stop offset="0" stop-color="#fff"/><stop offset="0.65" stop-color="#8fc6db"/><stop offset="0.75" stop-color="#86c1d8"/></linearGradient><linearGradient id="linear-gradient-9" x1="1" y1="677.06" x2="554" y2="677.06" gradientUnits="userSpaceOnUse"><stop offset="0" stop-color="#fff"/><stop offset="0" stop-color="#80bed6"/><stop offset="0.84" stop-color="#fbfdfe"/></linearGradient><linearGradient id="linear-gradient-10" y1="1246.53" x2="550" y2="1246.53" xlink:href="#linear-gradient-3"/><linearGradient id="linear-gradient-11" x1="550.99" y1="693.86" x2="1083" y2="693.86" gradientUnits="userSpaceOnUse"><stop offset="0.39" stop-color="#fff"/><stop offset="0.82" stop-color="#80bed6"/><stop offset="0.9" stop-color="#8ec5db"/></linearGradient><linearGradient id="linear-gradient-12" x1="554.99" y1="1234.73" x2="1083" y2="1234.73" gradientUnits="userSpaceOnUse"><stop offset="0.06" stop-color="#fff"/><stop offset="0.28" stop-color="#f7fbfc"/><stop offset="0.6" stop-color="#86c1d8"/><stop offset="0.84" stop-color="#80bed6"/></linearGradient><linearGradient id="linear-gradient-13" x1="1" y1="848.96" x2="557.06" y2="848.96" gradientUnits="userSpaceOnUse"><stop offset="0" stop-color="#80bed6"/><stop offset="0.7" stop-color="#fff"/></linearGradient><linearGradient id="linear-gradient-14" y1="1076.47" x2="557.06" y2="1076.47" xlink:href="#linear-gradient-3"/><linearGradient id="linear-gradient-15" x1="552.64" y1="1071.15" y2="1071.15" xlink:href="#linear-gradient-11"/><linearGradient id="linear-gradient-16" x1="556.64" y1="852.11" x2="1083" y2="852.11" gradientUnits="userSpaceOnUse"><stop offset="0.31" stop-color="#fff"/><stop offset="0.82" stop-color="#80bed6"/><stop offset="0.9" stop-color="#8ec5db"/></linearGradient><linearGradient id="linear-gradient-17" x1="546.15" y1="962.03" y2="962.03" xlink:href="#linear-gradient-11"/><linearGradient id="linear-gradient-18" y1="963" x2="562.85" y2="963" xlink:href="#linear-gradient-3"/><radialGradient id="radial-gradient-2" cx="727.49" cy="855.5" r="50.9" xlink:href="#radial-gradient"/><radialGradient id="radial-gradient-3" cx="726.49" cy="1006.5" r="50.9" xlink:href="#radial-gradient"/></defs><title>settings_on_full</title><rect class="cls-1" x="-7" y="-3" width="1081" height="1928"/><polygon class="cls-2" points="560.26 967.8 1 146.84 1 1 130.57 1 560.26 967.8"/><polygon class="cls-3" points="1083 1 1083 209.03 556.79 961.08 556.27 961.83 556.05 962.15 556.04 962.15 555.68 962.67 555.35 963.14 555.3 963.2 555.3 963.21 555 963.64 553.63 965.6 554.11 964.56 554.11 964.55 554.12 964.54 555.09 962.42 555.29 961.98 555.3 961.98 555.82 960.84 556.14 960.13 996.88 1 1083 1"/><polygon class="cls-4" points="552.61 961.13 552.24 962.02 552.23 962.05 552.04 962.49 551.99 962.61 551.87 962.9 551.78 963.1 551.53 963.71 551.13 964.65 148.14 1925 1 1925 1 1808.41 550.27 964.72 550.71 964.04 551.35 963.06 551.51 962.82 551.67 962.58 552 962.07 552.07 961.95 552.61 961.13"/><polygon class="cls-5" points="1083 1723.14 1083 1925 991.64 1925 558.27 966.26 557.58 964.73 557.29 964.09 557.06 963.57 557.01 963.47 556.87 963.16 556.82 963.05 556.45 962.23 556.42 962.18 556.42 962.17 556.27 961.83 556.23 961.75 556.2 961.68 556.17 961.6 555.82 960.84 555.05 959.13 554.78 958.53 554.29 957.45 554.81 958.2 555.16 958.71 556.14 960.13 556.73 960.98 556.74 961 556.79 961.08 557.03 961.42 557.08 961.5 557.15 961.6 557.79 962.52 557.97 962.78 558.24 963.18 558.61 963.71 558.78 963.95 558.79 963.96 561.01 967.18 565.52 973.73 565.54 973.75 1083 1723.14"/><polygon class="cls-6" points="554.31 957.17 300.16 1 457.13 1 554.31 957.17"/><polygon class="cls-7" points="809.72 1 554.51 961.17 652.09 1 809.72 1"/><polygon class="cls-8" points="554.31 963.07 554.28 963.32 554.27 963.42 554.18 964.37 554.17 964.42 554.17 964.49 554.12 964.89 554.05 965.58 456.55 1925 298.63 1925 553.55 965.94 553.64 965.58 553.65 965.56 553.84 964.84 553.96 964.39 554.22 963.41 554.24 963.32 554.31 963.07"/><polygon class="cls-9" points="812.19 1925 654.27 1925 556.67 964.61 556.62 964.15 556.61 964.04 556.6 963.92 556.59 963.83 556.58 963.78 556.56 963.53 556.51 963.07 556.63 963.53 556.68 963.71 556.73 963.89 556.74 963.95 556.79 964.14 556.8 964.18 557.01 964.96 812.19 1925"/><polygon class="cls-10" points="1 392.34 554 961.77 1 566.77 1 392.34"/><polygon class="cls-11" points="550 963.88 549.26 964.65 549.08 964.83 1 1529.19 1 1356.02 548.49 964.96 548.61 964.87 550 963.88"/><polygon class="cls-12" points="1083 419.96 1083 587.76 558.21 962.61 557.97 962.78 557.23 963.31 557.01 963.47 556.41 963.9 556.16 964.08 550.99 967.77 554.11 964.56 554.11 964.55 554.12 964.54 555 963.64 555.36 963.27 555.43 963.2 555.87 962.75 556.38 962.22 556.42 962.18 556.42 962.17 557.08 961.5 1083 419.96"/><polygon class="cls-13" points="1083 1340.03 1083 1506.57 565.54 973.75 565.52 973.73 558.27 966.26 557.01 964.96 556.67 964.61 556.26 964.18 555.84 963.76 555.53 963.44 555.3 963.21 555.3 963.2 554.99 962.88 555.35 963.14 555.43 963.2 555.8 963.46 555.94 963.56 556.37 963.87 556.41 963.9 556.61 964.04 556.75 964.14 556.8 964.17 556.8 964.18 557.58 964.73 561.01 967.18 1083 1340.03"/><polygon class="cls-14" points="557.06 964.02 556.43 963.88 555.05 963.59 555.04 963.58 554.6 963.49 552.93 963.13 552.92 963.13 551.01 962.71 551 962.71 549.47 962.38 549.45 962.38 1 843.99 1 733.9 552.91 962.3 552.92 962.3 553.91 962.72 554.11 962.8 554.12 962.8 554.79 963.08 555.26 963.27 555.33 963.3 556.54 963.81 557.06 964.02"/><polygon class="cls-15" points="557.06 961.41 556.36 961.7 555.2 962.18 553.91 962.72 553.77 962.77 552.93 963.13 552.92 963.13 548.74 964.86 548.73 964.86 1 1191.53 1 1081.43 535.72 966.02 535.75 966.01 535.78 966.01 551 962.71 551.01 962.71 551.65 962.58 552.91 962.3 552.92 962.3 555.39 961.77 556.47 961.54 557.06 961.41"/><polygon class="cls-16" points="1083 1075.88 1083 1180.89 558.8 963.96 558.79 963.96 558.78 963.95 558.08 963.66 557.23 963.31 556.87 963.16 556.55 963.03 555.87 962.75 555.68 962.67 555.09 962.42 554.85 962.33 554.15 962.04 553.82 961.9 552.64 961.41 553.87 961.67 553.92 961.69 554.59 961.83 554.85 961.89 555.29 961.98 555.3 961.98 555.55 962.04 556.04 962.15 556.05 962.15 556.38 962.22 556.45 962.23 557.79 962.52 558.21 962.61 562.74 963.59 562.8 963.6 566.59 964.42 1083 1075.88"/><polygon class="cls-17" points="1083 743.2 1083 847.4 562.09 959.84 557.79 960.77 557.78 960.77 556.87 960.97 556.74 961 556.64 961.02 556.73 960.98 556.91 960.91 558.15 960.39 558.16 960.38 565.67 957.28 1083 743.2"/><polygon class="cls-18" points="1083 913.64 1083 1010.42 566.6 964.42 566.59 964.42 560.11 963.84 558.61 963.71 558.09 963.66 558.08 963.66 557.06 963.57 556.89 963.56 556.63 963.53 556.56 963.53 555.8 963.46 555.68 963.45 555.53 963.44 555.22 963.41 555.17 963.4 554.66 963.36 554.28 963.32 554.24 963.32 553.51 963.26 552.77 963.19 551.78 963.1 551.35 963.06 549.95 962.94 546.15 962.6 549.01 962.34 549.19 962.32 552 962.07 552.23 962.05 552.28 962.04 553.82 961.9 554.59 961.83 555.4 961.76 555.49 961.75 556.2 961.68 556.38 961.67 556.46 961.66 556.97 961.61 557.15 961.6 559.99 961.34 560 961.34 1083 913.64"/><polygon class="cls-19" points="562.85 963.6 555.97 964.21 554.51 964.34 554.3 964.36 554.29 964.36 554.2 964.37 548.74 964.86 548.73 964.86 535.8 966.01 535.75 966.01 535.72 966.02 1 1013.65 1 912.36 549.45 962.38 549.47 962.38 551.65 962.58 553.77 962.77 554.11 962.8 554.12 962.8 554.88 962.87 554.89 962.87 555.5 962.93 555.67 962.95 557.51 963.11 562.85 963.6"/><rect class="cls-20" x="65" y="580" width="981" height="697" rx="12"/><rect class="cls-21" x="44.5" y="565.5" width="981" height="697" rx="12"/><ellipse class="cls-22" cx="65.5" cy="805.5" rx="4.5" ry="212.5"/><ellipse class="cls-23" cx="852.5" cy="1237.5" rx="140.5" ry="4.5"/><line class="cls-24" x1="166" y1="927" x2="903" y2="925"/><path class="cls-25" d="M886.5,855.5c-1-56.5-47.46-48.5-106-48.5v97C839,904,887.5,914,886.5,855.5Z"/><path class="cls-26" d="M674.5,855.5C673.5,910,722,904,780.5,904V807C722,807,675.5,801,674.5,855.5Z"/><path class="cls-27" d="M673.5,1006.5c-1,54.5,47.46,48.5,106,48.5V958C721,958,674.5,952,673.5,1006.5Z"/><path class="cls-25" d="M885.5,1006.5c-1-56.5-47.46-48.5-106-48.5v97C838,1055,886.5,1065,885.5,1006.5Z"/><path d="M727.52,854.48a36.43,36.43,0,0,1-.89,8.58,18.54,18.54,0,0,1-2.46,6,10.22,10.22,0,0,1-3.69,3.48,9.6,9.6,0,0,1-4.56,1.13,9.7,9.7,0,0,1-4.6-1.13,10.3,10.3,0,0,1-3.69-3.48,18.77,18.77,0,0,1-2.47-6,41.21,41.21,0,0,1,0-17.13,19.09,19.09,0,0,1,2.47-6,10.34,10.34,0,0,1,3.69-3.49,9.7,9.7,0,0,1,4.6-1.13,9.6,9.6,0,0,1,4.56,1.13,10.26,10.26,0,0,1,3.69,3.49,18.86,18.86,0,0,1,2.46,6A36.28,36.28,0,0,1,727.52,854.48Zm-4.62,0a41,41,0,0,0-.54-7.14,19.28,19.28,0,0,0-1.48-5,7.46,7.46,0,0,0-2.21-2.87,4.58,4.58,0,0,0-5.53,0,7.59,7.59,0,0,0-2.23,2.87,18.5,18.5,0,0,0-1.49,5,47.67,47.67,0,0,0,0,14.31,18.23,18.23,0,0,0,1.49,4.94,7.47,7.47,0,0,0,2.23,2.86,4.58,4.58,0,0,0,5.53,0,7.35,7.35,0,0,0,2.21-2.86,19,19,0,0,0,1.48-4.94A41.1,41.1,0,0,0,722.9,854.48Z"/><path d="M752.2,836c-.11,1.52-.2,3.07-.26,4.67s-.11,3.18-.15,4.75-.06,3.13-.08,4.65,0,3,0,4.35,0,2.83,0,4.35,0,3.07.08,4.66.08,3.18.14,4.78.12,3.16.21,4.68h-5q-1.36-3.95-2.68-7.51c-.88-2.39-1.75-4.69-2.62-6.92s-1.73-4.4-2.59-6.53-1.72-4.23-2.58-6.32h-.19c0,1.56,0,3.07,0,4.55s0,2.9,0,4.26,0,2.83,0,4.35,0,3.07.08,4.66.08,3.18.14,4.78.12,3.16.21,4.68H732c.11-1.52.19-3.08.25-4.68s.12-3.2.15-4.78.06-3.14.08-4.66,0-3,0-4.35,0-2.83,0-4.35,0-3.07-.08-4.65-.08-3.16-.15-4.75-.14-3.15-.25-4.67h5q2.72,7.89,5.32,14.9t5.21,13.29h.19c0-.78,0-1.61,0-2.47s0-1.71,0-2.56,0-1.68,0-2.49,0-1.55,0-2.25q0-2.07,0-4.35c0-1.52,0-3.07-.08-4.65s-.08-3.16-.15-4.75-.14-3.15-.25-4.67Z"/><path d="M727.52,1004.48a36.43,36.43,0,0,1-.89,8.58,18.54,18.54,0,0,1-2.46,6,10.22,10.22,0,0,1-3.69,3.48,9.6,9.6,0,0,1-4.56,1.13,9.7,9.7,0,0,1-4.6-1.13,10.3,10.3,0,0,1-3.69-3.48,18.77,18.77,0,0,1-2.47-6,41.21,41.21,0,0,1,0-17.13,19.09,19.09,0,0,1,2.47-6,10.34,10.34,0,0,1,3.69-3.49,9.7,9.7,0,0,1,4.6-1.13,9.6,9.6,0,0,1,4.56,1.13,10.26,10.26,0,0,1,3.69,3.49,18.86,18.86,0,0,1,2.46,6A36.28,36.28,0,0,1,727.52,1004.48Zm-4.62,0a41,41,0,0,0-.54-7.14,19.28,19.28,0,0,0-1.48-5,7.46,7.46,0,0,0-2.21-2.87,4.58,4.58,0,0,0-5.53,0,7.59,7.59,0,0,0-2.23,2.87,18.5,18.5,0,0,0-1.49,5,47.67,47.67,0,0,0,0,14.31,18.23,18.23,0,0,0,1.49,4.94,7.47,7.47,0,0,0,2.23,2.86,4.58,4.58,0,0,0,5.53,0,7.35,7.35,0,0,0,2.21-2.86,19,19,0,0,0,1.48-4.94A41.1,41.1,0,0,0,722.9,1004.48Z"/><path d="M752.2,986c-.11,1.52-.2,3.08-.26,4.67s-.11,3.18-.15,4.75-.06,3.13-.08,4.65,0,3,0,4.35,0,2.83,0,4.35,0,3.07.08,4.66.08,3.18.14,4.78.12,3.16.21,4.69h-5c-.91-2.64-1.8-5.14-2.68-7.52s-1.75-4.69-2.62-6.92-1.73-4.4-2.59-6.53-1.72-4.23-2.58-6.32h-.19c0,1.56,0,3.08,0,4.55s0,2.9,0,4.26,0,2.83,0,4.35,0,3.07.08,4.66.08,3.18.14,4.78.12,3.16.21,4.69H732c.11-1.53.19-3.09.25-4.69s.12-3.2.15-4.78.06-3.14.08-4.66,0-3,0-4.35,0-2.83,0-4.35,0-3.07-.08-4.65-.08-3.16-.15-4.75-.14-3.15-.25-4.67h5q2.72,7.89,5.32,14.9t5.21,13.29h.19c0-.78,0-1.61,0-2.47s0-1.71,0-2.56,0-1.68,0-2.49,0-1.55,0-2.25q0-2.07,0-4.35c0-1.52,0-3.07-.08-4.65s-.08-3.16-.15-4.75-.14-3.15-.25-4.67Z"/><path d="M816.52,852.48a36.43,36.43,0,0,1-.89,8.58,18.54,18.54,0,0,1-2.46,6,10.22,10.22,0,0,1-3.69,3.48,9.6,9.6,0,0,1-4.56,1.13,9.7,9.7,0,0,1-4.6-1.13,10.3,10.3,0,0,1-3.69-3.48,18.77,18.77,0,0,1-2.47-6,41.21,41.21,0,0,1,0-17.13,19.09,19.09,0,0,1,2.47-6,10.34,10.34,0,0,1,3.69-3.49,9.7,9.7,0,0,1,4.6-1.13,9.6,9.6,0,0,1,4.56,1.13,10.26,10.26,0,0,1,3.69,3.49,18.86,18.86,0,0,1,2.46,6A36.28,36.28,0,0,1,816.52,852.48Zm-4.62,0a41,41,0,0,0-.54-7.14,19.28,19.28,0,0,0-1.48-5,7.46,7.46,0,0,0-2.21-2.87,4.58,4.58,0,0,0-5.53,0,7.59,7.59,0,0,0-2.23,2.87,18.5,18.5,0,0,0-1.49,5,47.67,47.67,0,0,0,0,14.31,18.23,18.23,0,0,0,1.49,4.94,7.47,7.47,0,0,0,2.23,2.86,4.58,4.58,0,0,0,5.53,0,7.35,7.35,0,0,0,2.21-2.86,19,19,0,0,0,1.48-4.94A41.1,41.1,0,0,0,811.9,852.48Z"/><path d="M836,834v3.14H825.92q-.17,3.17-.23,6.36t-.1,6.15h9.7v3.14h-9.7c0,1.37,0,2.79,0,4.29s0,3,.08,4.56.08,3.11.13,4.68.13,3.09.22,4.57h-5c.11-1.52.19-3.08.25-4.68s.12-3.2.15-4.78.06-3.14.08-4.66,0-3,0-4.35,0-2.83,0-4.35,0-3.07-.08-4.65-.08-3.16-.15-4.75-.14-3.15-.25-4.67Z"/><path d="M854.89,834v3.14H844.77q-.16,3.17-.23,6.36c0,2.13-.08,4.18-.09,6.15h9.69v3.14h-9.69c0,1.37,0,2.79,0,4.29s0,3,.08,4.56.08,3.11.14,4.68.12,3.09.21,4.57h-5c.11-1.52.19-3.08.26-4.68s.11-3.2.14-4.78.07-3.14.08-4.66,0-3,0-4.35,0-2.83,0-4.35,0-3.07-.08-4.65-.08-3.16-.14-4.75-.15-3.15-.26-4.67Z"/><path d="M820.52,1006.48a36.43,36.43,0,0,1-.89,8.58,18.54,18.54,0,0,1-2.46,6,10.22,10.22,0,0,1-3.69,3.48,9.6,9.6,0,0,1-4.56,1.13,9.7,9.7,0,0,1-4.6-1.13,10.3,10.3,0,0,1-3.69-3.48,18.77,18.77,0,0,1-2.47-6,41.21,41.21,0,0,1,0-17.13,19.09,19.09,0,0,1,2.47-6,10.34,10.34,0,0,1,3.69-3.49,9.7,9.7,0,0,1,4.6-1.13,9.6,9.6,0,0,1,4.56,1.13,10.26,10.26,0,0,1,3.69,3.49,18.86,18.86,0,0,1,2.46,6A36.28,36.28,0,0,1,820.52,1006.48Zm-4.62,0a41,41,0,0,0-.54-7.14,19.28,19.28,0,0,0-1.48-5,7.46,7.46,0,0,0-2.21-2.87,4.58,4.58,0,0,0-5.53,0,7.59,7.59,0,0,0-2.23,2.87,18.5,18.5,0,0,0-1.49,5,47.67,47.67,0,0,0,0,14.31,18.23,18.23,0,0,0,1.49,4.94,7.47,7.47,0,0,0,2.23,2.86,4.58,4.58,0,0,0,5.53,0,7.35,7.35,0,0,0,2.21-2.86,19,19,0,0,0,1.48-4.94A41.1,41.1,0,0,0,815.9,1006.48Z"/><path d="M840,988v3.14H829.92q-.17,3.17-.23,6.36t-.1,6.15h9.7v3.14h-9.7c0,1.37,0,2.79,0,4.29s0,3,.08,4.56.08,3.11.13,4.68.13,3.09.22,4.58h-5c.11-1.53.19-3.09.25-4.69s.12-3.2.15-4.78.06-3.14.08-4.66,0-3,0-4.35,0-2.83,0-4.35,0-3.07-.08-4.65-.08-3.16-.15-4.75-.14-3.15-.25-4.67Z"/><path d="M858.89,988v3.14H848.77q-.16,3.17-.23,6.36c0,2.13-.08,4.18-.09,6.15h9.69v3.14h-9.69c0,1.37,0,2.79,0,4.29s0,3,.08,4.56.08,3.11.14,4.68.12,3.09.21,4.58h-5c.11-1.53.19-3.09.26-4.69s.11-3.2.14-4.78.07-3.14.08-4.66,0-3,0-4.35,0-2.83,0-4.35,0-3.07-.08-4.65-.08-3.16-.14-4.75-.15-3.15-.26-4.67Z"/><path d="M238,975.37c-.15,2-.26,4-.34,6.12s-.15,4.16-.19,6.22-.08,4.09-.11,6.08,0,3.9,0,5.7,0,3.7,0,5.7.06,4,.11,6.1.1,4.16.17,6.25.17,4.15.29,6.14h-6.51c-1.19-3.45-2.37-6.73-3.51-9.85s-2.3-6.13-3.43-9.05-2.27-5.76-3.39-8.54-2.25-5.54-3.38-8.28h-.25c0,2-.06,4,0,6s0,3.79,0,5.57,0,3.7,0,5.7.06,4,.11,6.1.11,4.16.18,6.25.16,4.15.28,6.14h-6.44q.21-3,.34-6.14c.08-2.09.14-4.18.19-6.25s.08-4.11.11-6.1,0-3.9,0-5.7,0-3.7,0-5.7-.06-4-.11-6.08-.11-4.13-.19-6.22-.2-4.12-.34-6.12h6.58q3.54,10.33,7,19.51t6.82,17.41h.24c0-1,0-2.11,0-3.24s0-2.24,0-3.35,0-2.2,0-3.26,0-2,0-3c0-1.8,0-3.7,0-5.7s-.05-4-.1-6.08-.11-4.13-.19-6.22-.2-4.12-.34-6.12Z"/><path d="M274.34,999.56a47.75,47.75,0,0,1-1.16,11.23,24.62,24.62,0,0,1-3.22,7.81,13.43,13.43,0,0,1-4.83,4.55,12.88,12.88,0,0,1-12,0,13.45,13.45,0,0,1-4.84-4.55,24.62,24.62,0,0,1-3.23-7.81,53.88,53.88,0,0,1,0-22.43,24.88,24.88,0,0,1,3.23-7.82,13.52,13.52,0,0,1,4.84-4.57,12.88,12.88,0,0,1,12,0,13.49,13.49,0,0,1,4.83,4.57,24.88,24.88,0,0,1,3.22,7.82A47.71,47.71,0,0,1,274.34,999.56Zm-6,0a53.8,53.8,0,0,0-.7-9.35,25.34,25.34,0,0,0-1.94-6.49,9.71,9.71,0,0,0-2.9-3.76,6,6,0,0,0-3.6-1.21,6.05,6.05,0,0,0-3.64,1.21,9.93,9.93,0,0,0-2.92,3.76,24.92,24.92,0,0,0-2,6.49,63.06,63.06,0,0,0,0,18.74,24.76,24.76,0,0,0,2,6.47,10,10,0,0,0,2.92,3.74,6.05,6.05,0,0,0,3.64,1.21,6,6,0,0,0,3.6-1.21,9.78,9.78,0,0,0,2.9-3.74,25.17,25.17,0,0,0,1.94-6.47A54.21,54.21,0,0,0,268.29,999.56Z"/><path d="M275.5,975.37h24.08v4.12h-9c-.18,3.44-.3,6.89-.35,10.33s-.07,6.67-.07,9.67c0,1.8,0,3.7,0,5.7s.06,4,.1,6.1.11,4.16.18,6.25.16,4.15.28,6.14h-6.57q.21-3,.33-6.14c.08-2.09.15-4.18.19-6.25s.09-4.11.11-6.1,0-3.9,0-5.7q0-4.5-.08-9.67c-.06-3.44-.17-6.89-.34-10.33h-9Z"/><path d="M310.48,975.37c-.14,2-.25,4-.34,6.12s-.14,4.16-.19,6.22-.08,4.09-.11,6.08,0,3.9,0,5.7,0,3.7,0,5.7.06,4,.11,6.1.11,4.16.18,6.25.16,4.15.28,6.14h-6.58q.21-3,.34-6.14c.08-2.09.14-4.18.19-6.25s.08-4.11.11-6.1,0-3.9,0-5.7,0-3.7,0-5.7-.06-4-.11-6.08-.11-4.13-.19-6.22-.2-4.12-.34-6.12Z"/><path d="M337.37,975.37v4.12H324.12q-.21,4.14-.3,8.33t-.12,8h12.69V1000H323.7q0,2.67,0,5.61t.11,6q.06,3,.17,6.11c.07,2.05.17,4.05.28,6h-6.57q.21-3,.33-6.14c.09-2.09.15-4.18.2-6.25s.08-4.11.1-6.1,0-3.9,0-5.7,0-3.7,0-5.7-.06-4-.1-6.08-.11-4.13-.2-6.22-.19-4.12-.33-6.12Z"/><path d="M349.25,975.37c-.14,2-.25,4-.33,6.12s-.15,4.16-.19,6.22-.08,4.09-.11,6.08,0,3.9,0,5.7,0,3.7,0,5.7.06,4,.11,6.1.1,4.16.17,6.25.17,4.15.28,6.14h-6.57q.21-3,.33-6.14c.09-2.09.15-4.18.2-6.25s.08-4.11.1-6.1,0-3.9,0-5.7,0-3.7,0-5.7-.06-4-.1-6.08-.11-4.13-.2-6.22-.19-4.12-.33-6.12Z"/><path d="M361.49,999.56a44.15,44.15,0,0,0,.81,9,22.47,22.47,0,0,0,2.3,6.52,11.14,11.14,0,0,0,3.59,4,8.37,8.37,0,0,0,4.65,1.35,9.18,9.18,0,0,0,2.75-.38,10.65,10.65,0,0,0,2.16-1,13.84,13.84,0,0,0,1.81-1.3l1.65-1.39v7.07c-1.31.32-2.63.59-3.95.79a29.82,29.82,0,0,1-4.42.3,16.1,16.1,0,0,1-7-1.52,14.87,14.87,0,0,1-5.53-4.58,23,23,0,0,1-3.66-7.77,41.14,41.14,0,0,1-1.32-11.06,39.06,39.06,0,0,1,1.39-11.06,23.84,23.84,0,0,1,3.76-7.77,15.2,15.2,0,0,1,5.56-4.58,15.51,15.51,0,0,1,6.76-1.52,29.82,29.82,0,0,1,4.42.3c1.32.2,2.64.47,3.95.79v7.07c-.54-.44-1.09-.91-1.65-1.39a13.84,13.84,0,0,0-1.81-1.3,10.65,10.65,0,0,0-2.16-1,9.18,9.18,0,0,0-2.75-.38,8.37,8.37,0,0,0-4.65,1.35,11.14,11.14,0,0,0-3.59,4,22.47,22.47,0,0,0-2.3,6.52A44.22,44.22,0,0,0,361.49,999.56Z"/><path d="M405.4,1023.68q-.5-3.37-1-6.68l-1.05-6.61H391.9c-.38,2.2-.73,4.4-1.07,6.61s-.68,4.43-1,6.68h-6.68c.75-2.84,1.48-5.76,2.21-8.77s1.42-6,2.07-9,1.29-5.93,1.89-8.83,1.14-5.66,1.65-8.29,1-5.1,1.39-7.37.78-4.29,1.09-6h8.33c.3,1.76.67,3.78,1.09,6s.88,4.73,1.39,7.37,1.05,5.4,1.65,8.29,1.22,5.84,1.88,8.83,1.35,6,2.07,9,1.47,5.93,2.22,8.77Zm-8-41.21q-1.44,6-2.6,11.89t-2.18,11.92h10.05q-1-6-2.2-11.92t-2.58-11.89Z"/><path d="M410.67,975.37h24.08v4.12h-9c-.19,3.44-.3,6.89-.35,10.33s-.07,6.67-.07,9.67q0,2.7,0,5.7c0,2,.06,4,.11,6.1s.1,4.16.17,6.25.17,4.15.29,6.14h-6.58q.21-3,.34-6.14c.08-2.09.14-4.18.19-6.25s.08-4.11.1-6.1,0-3.9,0-5.7q0-4.5-.09-9.67c-.06-3.44-.17-6.89-.33-10.33h-9Z"/><path d="M445.65,975.37c-.14,2-.25,4-.33,6.12s-.15,4.16-.19,6.22-.09,4.09-.11,6.08,0,3.9,0,5.7,0,3.7,0,5.7.06,4,.11,6.1.1,4.16.17,6.25.17,4.15.28,6.14H439q.21-3,.33-6.14c.08-2.09.15-4.18.2-6.25s.08-4.11.1-6.1,0-3.9,0-5.7,0-3.7,0-5.7-.06-4-.1-6.08-.12-4.13-.2-6.22-.19-4.12-.33-6.12Z"/><path d="M482.22,999.56a47.75,47.75,0,0,1-1.16,11.23,24.62,24.62,0,0,1-3.22,7.81,13.38,13.38,0,0,1-4.84,4.55,12.86,12.86,0,0,1-12,0,13.45,13.45,0,0,1-4.84-4.55,24.62,24.62,0,0,1-3.23-7.81,53.88,53.88,0,0,1,0-22.43,24.88,24.88,0,0,1,3.23-7.82A13.52,13.52,0,0,1,461,976a12.86,12.86,0,0,1,12,0,13.44,13.44,0,0,1,4.84,4.57,24.88,24.88,0,0,1,3.22,7.82A47.71,47.71,0,0,1,482.22,999.56Zm-6.05,0a54.8,54.8,0,0,0-.7-9.35,25.34,25.34,0,0,0-1.94-6.49,9.71,9.71,0,0,0-2.9-3.76,6,6,0,0,0-3.6-1.21,6.05,6.05,0,0,0-3.64,1.21,9.93,9.93,0,0,0-2.92,3.76,24.92,24.92,0,0,0-2,6.49,63.06,63.06,0,0,0,0,18.74,24.76,24.76,0,0,0,2,6.47,10,10,0,0,0,2.92,3.74,6.05,6.05,0,0,0,3.64,1.21,6,6,0,0,0,3.6-1.21,9.78,9.78,0,0,0,2.9-3.74,25.17,25.17,0,0,0,1.94-6.47A55.22,55.22,0,0,0,476.17,999.56Z"/><path d="M514.52,975.37c-.14,2-.25,4-.33,6.12s-.15,4.16-.19,6.22-.08,4.09-.11,6.08,0,3.9,0,5.7,0,3.7,0,5.7.06,4,.11,6.1.1,4.16.17,6.25.17,4.15.28,6.14H508q-1.8-5.17-3.52-9.85c-1.14-3.11-2.29-6.13-3.42-9.05s-2.27-5.76-3.4-8.54-2.25-5.54-3.37-8.28H494c0,2-.06,4-.05,6s0,3.79,0,5.57,0,3.7,0,5.7.06,4,.11,6.1.1,4.16.17,6.25.17,4.15.29,6.14h-6.44q.21-3,.34-6.14c.08-2.09.14-4.18.19-6.25s.08-4.11.1-6.1,0-3.9,0-5.7,0-3.7,0-5.7-.05-4-.1-6.08-.11-4.13-.19-6.22-.2-4.12-.34-6.12h6.58q3.54,10.33,7,19.51t6.82,17.41h.24c0-1,0-2.11,0-3.24s0-2.24,0-3.35,0-2.2,0-3.26,0-2,0-3c0-1.8,0-3.7,0-5.7s-.06-4-.1-6.08-.11-4.13-.2-6.22-.19-4.12-.33-6.12Z"/><path d="M529.71,1020.65a8.66,8.66,0,0,0,2.76-.44,6.28,6.28,0,0,0,2.41-1.42,7.12,7.12,0,0,0,1.69-2.51,9.86,9.86,0,0,0,.63-3.75,8.11,8.11,0,0,0-.76-3.51,14.23,14.23,0,0,0-2-3.1,26,26,0,0,0-2.81-2.86q-1.59-1.39-3.24-2.8t-3.23-2.9a23.13,23.13,0,0,1-2.82-3.16,15.6,15.6,0,0,1-2-3.6,11.39,11.39,0,0,1-.76-4.22,11.77,11.77,0,0,1,1.23-5.63,10.84,10.84,0,0,1,3.13-3.67,12.31,12.31,0,0,1,4.2-2,17.79,17.79,0,0,1,4.49-.6,26.42,26.42,0,0,1,4.41.37c1.42.25,2.78.51,4.09.79v7c-.75-.63-1.46-1.21-2.12-1.72a14.43,14.43,0,0,0-2-1.32,9.73,9.73,0,0,0-2-.84,8.26,8.26,0,0,0-2.25-.3,9.48,9.48,0,0,0-2.8.4,6.16,6.16,0,0,0-2.28,1.25,6.09,6.09,0,0,0-1.55,2.14,7.52,7.52,0,0,0-.58,3.1,8.32,8.32,0,0,0,1.3,4.55,20.69,20.69,0,0,0,3.27,3.92q2,1.86,4.25,3.73a40.38,40.38,0,0,1,4.26,4,21.3,21.3,0,0,1,3.27,4.7,12.72,12.72,0,0,1,1.3,5.82,15,15,0,0,1-.57,4.34,11.22,11.22,0,0,1-1.53,3.27,10.15,10.15,0,0,1-2.23,2.34,11.62,11.62,0,0,1-2.7,1.52,13.62,13.62,0,0,1-3,.83,19,19,0,0,1-3,.25c-1.14,0-2.2,0-3.16-.13s-1.86-.2-2.69-.35-1.6-.33-2.32-.53-1.41-.41-2.09-.65v-7.2c.73.68,1.45,1.32,2.18,1.91a15.59,15.59,0,0,0,2.27,1.57,11.65,11.65,0,0,0,2.47,1A10.69,10.69,0,0,0,529.71,1020.65Z"/><path d="M230.49,872.68c-.56-2.91-1.16-6-1.78-9.14s-1.29-6.42-2-9.71-1.48-6.56-2.29-9.84-1.67-6.47-2.58-9.56h-.35c-.05,1-.08,2.14-.09,3.41s0,2.54,0,3.81,0,2.52,0,3.71,0,2.24,0,3.13c0,1.81,0,3.7,0,5.7s.06,4,.11,6.1.11,4.16.18,6.25.16,4.15.28,6.14h-6.44q.21-3,.34-6.14c.08-2.09.14-4.18.19-6.25s.08-4.11.11-6.1,0-3.89,0-5.7,0-3.7,0-5.7-.06-4-.11-6.08-.11-4.13-.19-6.22-.2-4.12-.34-6.12h8.34q2.07,10,4.2,19.18t4.62,17.35h.46q2.49-8.19,4.62-17.35t4.2-19.18h8.33c-.14,2-.25,4-.33,6.12s-.15,4.16-.19,6.22-.09,4.09-.11,6.08,0,3.9,0,5.7,0,3.7,0,5.7.06,4,.11,6.1.11,4.16.19,6.25.19,4.15.33,6.14h-6.43q.18-3,.28-6.14c.07-2.09.13-4.18.18-6.25s.08-4.11.1-6.1,0-3.89,0-5.7v-6.84c0-1.27,0-2.55,0-3.81s0-2.4-.05-3.41h-.36q-1.36,4.64-2.58,9.56t-2.28,9.84c-.72,3.29-1.39,6.52-2,9.71s-1.21,6.23-1.77,9.14Z"/><path d="M263.11,847.51c0,1.71.05,3.34.07,4.9s.06,3,.11,4.39.11,2.62.18,3.75.16,2.1.28,2.92a8,8,0,0,0,1.75,4.41,4.45,4.45,0,0,0,3.34,1.35,5.45,5.45,0,0,0,2.4-.6,10.53,10.53,0,0,0,2.37-1.58,17.3,17.3,0,0,0,2.18-2.25,22.37,22.37,0,0,0,1.84-2.6q.21-7,.21-14.1,0-3.27,0-6.22c0-2-.06-3.9-.12-5.8s-.13-3.8-.21-5.71-.19-3.91-.3-6h6.5q-.18,3.14-.3,6c-.08,1.91-.15,3.81-.21,5.71s-.1,3.83-.12,5.8,0,4,0,6.22,0,4.3,0,6.35.06,4.08.12,6.08.13,4,.21,6,.18,4.05.3,6.14h-6.54c.05-.92.1-1.82.14-2.73s.1-1.8.14-2.69a29.2,29.2,0,0,1-2.16,2.41,15.36,15.36,0,0,1-2.48,2,12.77,12.77,0,0,1-2.86,1.37,10.47,10.47,0,0,1-3.33.51,7.43,7.43,0,0,1-6.48-3.33q-2.31-3.32-2.3-9.89c0-1.08,0-2.23,0-3.46s0-2.44.06-3.63,0-2.28.05-3.28,0-1.83,0-2.46c0-2.18,0-4.22,0-6.12s-.06-3.76-.1-5.59-.12-3.67-.2-5.52-.18-3.82-.3-5.91h6.47c-.11,2.09-.22,4.06-.31,5.91s-.17,3.69-.23,5.52-.1,3.69-.13,5.59S263.09,845.33,263.11,847.51Z"/><path d="M298.87,869.65a8.66,8.66,0,0,0,2.76-.44,6.36,6.36,0,0,0,2.41-1.42,7,7,0,0,0,1.68-2.51,9.66,9.66,0,0,0,.64-3.75,8.26,8.26,0,0,0-.76-3.51,14.28,14.28,0,0,0-2-3.1,25.15,25.15,0,0,0-2.81-2.86q-1.57-1.39-3.23-2.8t-3.24-2.9a23.73,23.73,0,0,1-2.81-3.16,16,16,0,0,1-2-3.6,11.59,11.59,0,0,1-.75-4.22,11.77,11.77,0,0,1,1.23-5.63,10.73,10.73,0,0,1,3.13-3.67,12.14,12.14,0,0,1,4.2-2,17.71,17.71,0,0,1,4.48-.6,26.33,26.33,0,0,1,4.41.37c1.42.25,2.79.51,4.1.79v7c-.75-.63-1.46-1.21-2.13-1.72a14.35,14.35,0,0,0-2-1.32,9.81,9.81,0,0,0-2.06-.84,8.16,8.16,0,0,0-2.25-.3,9.46,9.46,0,0,0-2.79.4,6.29,6.29,0,0,0-2.29,1.25,6.22,6.22,0,0,0-1.55,2.14,7.69,7.69,0,0,0-.58,3.1,8.33,8.33,0,0,0,1.31,4.55,20.26,20.26,0,0,0,3.26,3.92q2,1.86,4.26,3.73a41.34,41.34,0,0,1,4.25,4,20.65,20.65,0,0,1,3.27,4.7,12.59,12.59,0,0,1,1.3,5.82,15,15,0,0,1-.56,4.34,11.22,11.22,0,0,1-1.53,3.27A10.37,10.37,0,0,1,308,871a11.68,11.68,0,0,1-2.71,1.52,13.38,13.38,0,0,1-3,.83,19.2,19.2,0,0,1-3,.25c-1.15,0-2.2,0-3.16-.13s-1.86-.2-2.69-.35-1.61-.33-2.32-.53-1.42-.41-2.1-.65v-7.2c.73.68,1.46,1.32,2.18,1.91a16.75,16.75,0,0,0,2.27,1.57,11.73,11.73,0,0,0,2.48,1A10.69,10.69,0,0,0,298.87,869.65Z"/><path d="M324.46,824.37c-.14,2-.25,4-.33,6.12s-.15,4.16-.2,6.22-.08,4.09-.1,6.08,0,3.9,0,5.7,0,3.7,0,5.7.06,4,.1,6.1.11,4.16.18,6.25.16,4.15.28,6.14h-6.57q.21-3,.33-6.14c.08-2.09.15-4.18.19-6.25s.09-4.11.11-6.1,0-3.89,0-5.7,0-3.7,0-5.7-.06-4-.11-6.08-.11-4.13-.19-6.22-.19-4.12-.33-6.12Z"/><path d="M336.7,848.56a44.93,44.93,0,0,0,.8,9,22.47,22.47,0,0,0,2.31,6.52,11.12,11.12,0,0,0,3.58,4,8.43,8.43,0,0,0,4.66,1.35,9.12,9.12,0,0,0,2.74-.38,10.5,10.5,0,0,0,2.17-1,14.55,14.55,0,0,0,1.81-1.3l1.65-1.39v7.07c-1.31.32-2.63.59-4,.79a29.59,29.59,0,0,1-4.41.3,16,16,0,0,1-7-1.52,14.9,14.9,0,0,1-5.54-4.58,23.17,23.17,0,0,1-3.65-7.77,41.14,41.14,0,0,1-1.32-11.06A39.06,39.06,0,0,1,332,837.5a23.64,23.64,0,0,1,3.76-7.77,15.17,15.17,0,0,1,5.55-4.58,15.59,15.59,0,0,1,6.77-1.52,29.59,29.59,0,0,1,4.41.3c1.33.2,2.65.47,4,.79v7.07c-.54-.44-1.09-.91-1.65-1.39a14.55,14.55,0,0,0-1.81-1.3,10.5,10.5,0,0,0-2.17-1,9.12,9.12,0,0,0-2.74-.38,8.43,8.43,0,0,0-4.66,1.35,11.12,11.12,0,0,0-3.58,4,22.47,22.47,0,0,0-2.31,6.52A45,45,0,0,0,336.7,848.56Z"/><path d="M306.69,452.07a17.83,17.83,0,0,0,5.68-.92,13.14,13.14,0,0,0,4.95-3,15.08,15.08,0,0,0,3.47-5.27,21.1,21.1,0,0,0,1.3-7.85,17.47,17.47,0,0,0-1.56-7.38,29.88,29.88,0,0,0-4.08-6.48,53.2,53.2,0,0,0-5.78-6q-3.26-2.91-6.65-5.86t-6.65-6.08a49.19,49.19,0,0,1-5.78-6.64,32.59,32.59,0,0,1-4.08-7.55A24.42,24.42,0,0,1,286,380.2a25.13,25.13,0,0,1,2.53-11.79,22.63,22.63,0,0,1,6.43-7.7,25.18,25.18,0,0,1,8.64-4.17,36.2,36.2,0,0,1,9.21-1.25,52.52,52.52,0,0,1,9.07.77c2.92.52,5.72,1.07,8.42,1.66v14.67q-2.31-2-4.37-3.61a30.86,30.86,0,0,0-4.12-2.76,19.37,19.37,0,0,0-4.23-1.77,16.43,16.43,0,0,0-4.62-.63,19,19,0,0,0-5.75.85,12.25,12.25,0,0,0-7.87,7.11,16,16,0,0,0-1.2,6.49,17.66,17.66,0,0,0,2.68,9.54,42.38,42.38,0,0,0,6.72,8.22q4,3.92,8.74,7.81a84.88,84.88,0,0,1,8.75,8.41,44.89,44.89,0,0,1,6.72,9.84,26.93,26.93,0,0,1,2.67,12.2,32.08,32.08,0,0,1-1.16,9.1,24.06,24.06,0,0,1-3.14,6.86,20.9,20.9,0,0,1-4.59,4.9,24.53,24.53,0,0,1-5.56,3.2,28.4,28.4,0,0,1-6.11,1.74,38,38,0,0,1-6.1.51c-2.37,0-4.53-.08-6.51-.26s-3.82-.41-5.53-.73-3.3-.69-4.77-1.11-2.9-.87-4.3-1.36V441.83q2.25,2.13,4.48,4a32.08,32.08,0,0,0,4.67,3.28,22.65,22.65,0,0,0,5.09,2.18A21.18,21.18,0,0,0,306.69,452.07Z"/><path d="M393.19,357.13v8.63H364.43q-.44,8.48-.61,16.91t-.26,16.4H391.1v8.63H363.56q0,9.51.15,20.38t.65,21.71h29.27v8.62H351.28q.44-6.26.69-12.86c.16-4.4.3-8.77.39-13.12s.17-8.61.22-12.79.07-8.16.07-11.94,0-7.77-.07-11.94-.12-8.43-.22-12.75-.23-8.68-.39-13.05-.4-8.65-.69-12.83Z"/><path d="M406.42,357.13h49.5v8.63H437.49q-.58,10.83-.72,21.67t-.15,20.27q0,5.67.07,11.94t.22,12.79q.15,6.52.36,13.12t.58,12.86H424.34q.44-6.26.68-12.86t.4-13.12q.15-6.53.22-12.79t.07-11.94q0-9.43-.18-20.27t-.69-21.67H406.42Z"/><path d="M464.15,357.13h49.51v8.63H495.23q-.59,10.83-.73,21.67t-.14,20.27q0,5.67.07,11.94t.22,12.79q.15,6.52.36,13.12t.58,12.86H482.08q.42-6.26.68-12.86t.4-13.12q.13-6.53.22-12.79t.07-11.94q0-9.43-.18-20.27t-.69-21.67H464.15Z"/><path d="M542.13,357.13q-.43,6.27-.69,12.83T541,383c-.09,4.32-.17,8.57-.21,12.75s-.08,8.16-.08,11.94,0,7.76.08,11.94.12,8.44.21,12.79.22,8.72.36,13.12.34,8.69.58,12.86H528.47q.43-6.26.68-12.86t.4-13.12q.15-6.53.22-12.79t.07-11.94c0-3.78,0-7.77-.07-11.94s-.12-8.43-.22-12.75-.23-8.68-.4-13.05-.39-8.65-.68-12.83Z"/><path d="M617.35,357.13q-.44,6.27-.68,12.83t-.4,13.05q-.15,6.48-.22,12.75c0,4.17-.07,8.16-.07,11.94s0,7.76.07,11.94.12,8.44.22,12.79.21,8.72.36,13.12.34,8.69.58,12.86H603.84q-3.69-10.83-7.23-20.64t-7-19q-3.51-9.18-7-17.91t-6.94-17.36h-.5Q575,389.94,575,396c0,4.05,0,7.94,0,11.68s0,7.76.07,11.94.12,8.44.22,12.79.21,8.72.36,13.12.33,8.69.57,12.86H563.08q.43-6.26.69-12.86c.16-4.4.3-8.77.39-13.12s.17-8.61.22-12.79.07-8.16.07-11.94,0-7.77-.07-11.94-.12-8.43-.22-12.75-.23-8.68-.39-13.05-.4-8.65-.69-12.83h13.51Q583.9,378.8,590.9,398t14,36.49h.51q.08-3.24.07-6.78t0-7c0-2.33,0-4.61-.07-6.82s0-4.28,0-6.19c0-3.78,0-7.77-.08-11.94s-.12-8.43-.21-12.75-.23-8.68-.4-13.05-.4-8.65-.69-12.83Z"/><path d="M666.35,408.58h26.3q-.28,6-.4,11.87t-.11,11.13c0,3.54,0,6.77,0,9.69s.08,5.45.18,7.56c.1,2.51.19,4.74.29,6.71a41,41,0,0,1-9,3.24,53.39,53.39,0,0,1-12.79,1.33,30.19,30.19,0,0,1-25.15-12.79A49.17,49.17,0,0,1,638.27,431a87.77,87.77,0,0,1-2.71-23.18,83.44,83.44,0,0,1,2.86-23.19,49.37,49.37,0,0,1,7.76-16.29,32,32,0,0,1,11.46-9.62,31.51,31.51,0,0,1,13.91-3.17,53.52,53.52,0,0,1,5.49.26c1.64.18,3.17.41,4.59.7a32,32,0,0,1,4,1.11c1.25.44,2.48.91,3.69,1.4v14.89a32.47,32.47,0,0,0-8.86-7.56,19.1,19.1,0,0,0-9-2.17,16.46,16.46,0,0,0-9.9,3.13,24.93,24.93,0,0,0-7.34,8.88A50.44,50.44,0,0,0,649.69,390a92.84,92.84,0,0,0-1.56,17.73,98.45,98.45,0,0,0,1.45,17.43A52.18,52.18,0,0,0,653.92,439a25.21,25.21,0,0,0,7.26,9.18,16.42,16.42,0,0,0,10.22,3.31,21.74,21.74,0,0,0,4.45-.4,13.77,13.77,0,0,0,3.79-1.44c.05-1.08.1-2.33.15-3.76,0-1.23.09-2.71.14-4.46s.07-3.77.07-6.08c0-2.51,0-5.28-.1-8.33s-.21-6.34-.4-9.88H666.35Z"/><path d="M729.07,452.07a17.72,17.72,0,0,0,5.67-.92,13,13,0,0,0,5-3,15,15,0,0,0,3.47-5.27,20.9,20.9,0,0,0,1.3-7.85,17.62,17.62,0,0,0-1.55-7.38,30.27,30.27,0,0,0-4.08-6.48,53.32,53.32,0,0,0-5.79-6q-3.24-2.91-6.64-5.86t-6.65-6.08A48.49,48.49,0,0,1,714,396.6a33,33,0,0,1-4.09-7.55,24.63,24.63,0,0,1-1.55-8.85,25,25,0,0,1,2.53-11.79,22.52,22.52,0,0,1,6.43-7.7,25.09,25.09,0,0,1,8.64-4.17,36.09,36.09,0,0,1,9.21-1.25,52.6,52.6,0,0,1,9.07.77q4.37.78,8.42,1.66v14.67q-2.31-2-4.37-3.61a31.52,31.52,0,0,0-4.12-2.76,19.79,19.79,0,0,0-4.23-1.77,16.55,16.55,0,0,0-4.63-.63,19,19,0,0,0-5.74.85,12.57,12.57,0,0,0-4.7,2.61,12.88,12.88,0,0,0-3.18,4.5,16.21,16.21,0,0,0-1.19,6.49,17.74,17.74,0,0,0,2.67,9.54,43.13,43.13,0,0,0,6.72,8.22q4,3.92,8.75,7.81a84.78,84.78,0,0,1,8.74,8.41,44.2,44.2,0,0,1,6.72,9.84,26.8,26.8,0,0,1,2.68,12.2,32.44,32.44,0,0,1-1.16,9.1,24.34,24.34,0,0,1-3.14,6.86,21.32,21.32,0,0,1-4.59,4.9,24.59,24.59,0,0,1-5.57,3.2,28.31,28.31,0,0,1-6.1,1.74,38.16,38.16,0,0,1-6.11.51c-2.36,0-4.53-.08-6.5-.26s-3.82-.41-5.53-.73-3.3-.69-4.77-1.11-2.9-.87-4.3-1.36V441.83c1.49,1.42,3,2.76,4.48,4a32,32,0,0,0,4.66,3.28,22.53,22.53,0,0,0,5.1,2.18A21.18,21.18,0,0,0,729.07,452.07Z"/></svg>
