<svg id="Layer_1" data-name="Layer 1" xmlns="http://www.w3.org/2000/svg" xmlns:xlink="http://www.w3.org/1999/xlink" width="1080" height="1920" viewBox="0 0 1080 1920"><defs><style>.cls-1{fill:url(#radial-gradient);}.cls-2{fill:url(#linear-gradient);}.cls-3{fill:url(#linear-gradient-2);}.cls-4{fill:url(#linear-gradient-3);}.cls-5{fill:url(#linear-gradient-4);}.cls-6{fill:url(#linear-gradient-5);}.cls-7{fill:url(#linear-gradient-6);}.cls-8{fill:url(#linear-gradient-7);}.cls-9{fill:url(#linear-gradient-8);}.cls-10{fill:url(#linear-gradient-9);}.cls-11{fill:url(#linear-gradient-10);}.cls-12{fill:url(#linear-gradient-11);}.cls-13{fill:url(#linear-gradient-12);}.cls-14{fill:url(#linear-gradient-13);}.cls-15{fill:url(#linear-gradient-14);}.cls-16{fill:url(#linear-gradient-15);}.cls-17{fill:url(#linear-gradient-16);}.cls-18{fill:url(#linear-gradient-17);}.cls-19{fill:url(#linear-gradient-18);}.cls-20{fill:url(#linear-gradient-19);}.cls-21{fill:#f7f7f7;}.cls-22{fill:url(#linear-gradient-20);}.cls-23{fill:url(#linear-gradient-21);}.cls-24{fill:#ff000f;opacity:0.65;}.cls-25{fill:#39c;}.cls-26{fill:#fff;}.cls-27{fill:#262660;}</style><radialGradient id="radial-gradient" cx="540.5" cy="960" r="781.48" gradientUnits="userSpaceOnUse"><stop offset="0" stop-color="#fff"/><stop offset="1" stop-color="#80bed6"/></radialGradient><linearGradient id="linear-gradient" x1="-1" y1="483.4" x2="558.26" y2="483.4" gradientUnits="userSpaceOnUse"><stop offset="0.13" stop-color="#80bed6"/><stop offset="0.88" stop-color="#fff"/></linearGradient><linearGradient id="linear-gradient-2" x1="551.63" y1="482.3" x2="1081" y2="482.3" gradientUnits="userSpaceOnUse"><stop offset="0.26" stop-color="#fff"/><stop offset="0.82" stop-color="#80bed6"/><stop offset="0.9" stop-color="#8ec5db"/></linearGradient><linearGradient id="linear-gradient-3" x1="-1" y1="1442.07" x2="550.61" y2="1442.07" gradientUnits="userSpaceOnUse"><stop offset="0" stop-color="#80bed6"/><stop offset="0.19" stop-color="#86c1d8"/><stop offset="0.7" stop-color="#fff"/></linearGradient><linearGradient id="linear-gradient-4" x1="552.29" y1="1440.23" x2="1081" y2="1440.23" gradientUnits="userSpaceOnUse"><stop offset="0.32" stop-color="#fff"/><stop offset="0.58" stop-color="#80bed6"/><stop offset="0.84" stop-color="#86c1d8"/></linearGradient><linearGradient id="linear-gradient-5" x1="530.55" y1="713.53" x2="378.12" y2="6.82" gradientUnits="userSpaceOnUse"><stop offset="0" stop-color="#fff"/><stop offset="0.58" stop-color="#bfdeea"/><stop offset="1" stop-color="#80bed6"/></linearGradient><linearGradient id="linear-gradient-6" x1="603.41" y1="811.3" x2="756.24" y2="-176.71" gradientUnits="userSpaceOnUse"><stop offset="0.02" stop-color="#fff"/><stop offset="0.71" stop-color="#80bed6"/><stop offset="0.9" stop-color="#8ec5db"/></linearGradient><linearGradient id="linear-gradient-7" x1="296.63" y1="1443.04" x2="552.31" y2="1443.04" xlink:href="#linear-gradient-3"/><linearGradient id="linear-gradient-8" x1="554.51" y1="1443.04" x2="810.19" y2="1443.04" gradientUnits="userSpaceOnUse"><stop offset="0" stop-color="#80bed6"/><stop offset="0" stop-color="#fff"/><stop offset="0.65" stop-color="#8fc6db"/><stop offset="0.75" stop-color="#86c1d8"/></linearGradient><linearGradient id="linear-gradient-9" x1="-1" y1="676.06" x2="552" y2="676.06" gradientUnits="userSpaceOnUse"><stop offset="0" stop-color="#fff"/><stop offset="0" stop-color="#80bed6"/><stop offset="0.84" stop-color="#fbfdfe"/></linearGradient><linearGradient id="linear-gradient-10" y1="1245.53" x2="548" y2="1245.53" xlink:href="#linear-gradient-3"/><linearGradient id="linear-gradient-11" x1="548.99" y1="692.86" x2="1081" y2="692.86" gradientUnits="userSpaceOnUse"><stop offset="0.39" stop-color="#fff"/><stop offset="0.82" stop-color="#80bed6"/><stop offset="0.9" stop-color="#8ec5db"/></linearGradient><linearGradient id="linear-gradient-12" x1="552.99" y1="1233.73" x2="1081" y2="1233.73" gradientUnits="userSpaceOnUse"><stop offset="0.06" stop-color="#fff"/><stop offset="0.28" stop-color="#f7fbfc"/><stop offset="0.6" stop-color="#86c1d8"/><stop offset="0.84" stop-color="#80bed6"/></linearGradient><linearGradient id="linear-gradient-13" x1="-1" y1="847.96" x2="555.06" y2="847.96" gradientUnits="userSpaceOnUse"><stop offset="0" stop-color="#80bed6"/><stop offset="0.7" stop-color="#fff"/></linearGradient><linearGradient id="linear-gradient-14" y1="1075.47" x2="555.06" y2="1075.47" xlink:href="#linear-gradient-3"/><linearGradient id="linear-gradient-15" x1="550.64" y1="1070.15" y2="1070.15" xlink:href="#linear-gradient-11"/><linearGradient id="linear-gradient-16" x1="554.64" y1="851.11" x2="1081" y2="851.11" gradientUnits="userSpaceOnUse"><stop offset="0.31" stop-color="#fff"/><stop offset="0.82" stop-color="#80bed6"/><stop offset="0.9" stop-color="#8ec5db"/></linearGradient><linearGradient id="linear-gradient-17" x1="544.15" y1="961.03" y2="961.03" xlink:href="#linear-gradient-11"/><linearGradient id="linear-gradient-18" y1="962" x2="560.85" y2="962" xlink:href="#linear-gradient-3"/><linearGradient id="linear-gradient-19" x1="555.58" y1="2306.71" x2="544.64" y2="1185.82" gradientUnits="userSpaceOnUse"><stop offset="0" stop-color="#656565"/><stop offset="0.36" stop-color="#00003f"/><stop offset="0.74" stop-color="#86baff"/><stop offset="0.98" stop-color="#3e3e3e"/></linearGradient><linearGradient id="linear-gradient-20" x1="4.5" y1="1349.42" x2="1085.5" y2="1349.42" gradientUnits="userSpaceOnUse"><stop offset="0" stop-color="#656565"/><stop offset="0.12"/><stop offset="0.42" stop-color="#3e3e3e"/><stop offset="0.95" stop-color="#fff"/></linearGradient><linearGradient id="linear-gradient-21" x1="549.89" y1="1794.56" x2="538.13" y2="706.75" gradientUnits="userSpaceOnUse"><stop offset="0" stop-color="#656565"/><stop offset="0.36" stop-color="#00003f"/><stop offset="0.79" stop-color="#86baff"/><stop offset="0.98" stop-color="#3e3e3e"/></linearGradient></defs><title>start_side_full</title><rect class="cls-1" y="-4" width="1081" height="1928"/><polygon class="cls-2" points="558.26 966.8 -1 145.84 -1 0 128.57 0 558.26 966.8"/><polygon class="cls-3" points="1081 0 1081 208.03 554.79 960.08 554.27 960.83 554.05 961.15 554.04 961.15 553.68 961.67 553.35 962.14 553.3 962.2 553.3 962.21 553 962.64 551.63 964.6 552.11 963.56 552.11 963.55 552.12 963.54 553.09 961.42 553.29 960.98 553.3 960.98 553.82 959.84 554.14 959.13 994.88 0 1081 0"/><polygon class="cls-4" points="550.61 960.13 550.24 961.02 550.23 961.05 550.04 961.49 549.99 961.61 549.87 961.9 549.78 962.1 549.53 962.71 549.13 963.65 146.14 1924 -1 1924 -1 1807.41 548.27 963.72 548.71 963.04 549.35 962.06 549.51 961.82 549.67 961.58 550 961.07 550.07 960.95 550.61 960.13"/><polygon class="cls-5" points="1081 1722.14 1081 1924 989.64 1924 556.27 965.26 555.58 963.73 555.29 963.09 555.06 962.57 555.01 962.47 554.87 962.16 554.82 962.05 554.45 961.23 554.42 961.18 554.42 961.17 554.27 960.83 554.23 960.75 554.2 960.68 554.17 960.6 553.82 959.84 553.05 958.13 552.78 957.53 552.29 956.45 552.81 957.2 553.16 957.71 554.14 959.13 554.73 959.98 554.74 960 554.79 960.08 555.03 960.42 555.08 960.5 555.15 960.6 555.79 961.52 555.97 961.78 556.24 962.18 556.61 962.71 556.78 962.95 556.79 962.96 559.01 966.18 563.52 972.73 563.54 972.75 1081 1722.14"/><polygon class="cls-6" points="552.31 956.17 298.16 0 455.13 0 552.31 956.17"/><polygon class="cls-7" points="807.72 0 552.51 960.17 650.09 0 807.72 0"/><polygon class="cls-8" points="552.31 962.07 552.28 962.32 552.27 962.42 552.18 963.37 552.17 963.42 552.17 963.49 552.12 963.89 552.05 964.58 454.55 1924 296.63 1924 551.55 964.94 551.64 964.58 551.65 964.56 551.84 963.84 551.96 963.39 552.22 962.41 552.24 962.32 552.31 962.07"/><polygon class="cls-9" points="810.19 1924 652.27 1924 554.67 963.61 554.62 963.15 554.61 963.04 554.6 962.92 554.59 962.83 554.58 962.78 554.56 962.53 554.51 962.07 554.63 962.53 554.68 962.71 554.73 962.89 554.74 962.95 554.79 963.14 554.8 963.18 555.01 963.96 810.19 1924"/><polygon class="cls-10" points="-1 391.34 552 960.77 -1 565.77 -1 391.34"/><polygon class="cls-11" points="548 962.88 547.26 963.65 547.08 963.83 -1 1528.19 -1 1355.02 546.49 963.96 546.61 963.87 548 962.88"/><polygon class="cls-12" points="1081 418.96 1081 586.76 556.21 961.61 555.97 961.78 555.23 962.31 555.01 962.47 554.41 962.9 554.16 963.08 548.99 966.77 552.11 963.56 552.11 963.55 552.12 963.54 553 962.64 553.36 962.27 553.43 962.2 553.87 961.75 554.38 961.22 554.42 961.18 554.42 961.17 555.08 960.5 1081 418.96"/><polygon class="cls-13" points="1081 1339.03 1081 1505.57 563.54 972.75 563.52 972.73 556.27 965.26 555.01 963.96 554.67 963.61 554.26 963.18 553.84 962.76 553.53 962.44 553.3 962.21 553.3 962.2 552.99 961.88 553.35 962.14 553.43 962.2 553.8 962.46 553.94 962.56 554.37 962.87 554.41 962.9 554.61 963.04 554.75 963.14 554.8 963.17 554.8 963.18 555.58 963.73 559.01 966.18 1081 1339.03"/><polygon class="cls-14" points="555.06 963.02 554.43 962.88 553.05 962.59 553.04 962.58 552.6 962.49 550.93 962.13 550.92 962.13 549.01 961.71 549 961.71 547.47 961.38 547.45 961.38 -1 842.99 -1 732.9 550.91 961.3 550.92 961.3 551.91 961.72 552.11 961.8 552.12 961.8 552.79 962.08 553.26 962.27 553.33 962.3 554.54 962.81 555.06 963.02"/><polygon class="cls-15" points="555.06 960.41 554.36 960.7 553.2 961.18 551.91 961.72 551.77 961.77 550.93 962.13 550.92 962.13 546.74 963.86 546.73 963.86 -1 1190.53 -1 1080.43 533.72 965.02 533.75 965.01 533.78 965.01 549 961.71 549.01 961.71 549.65 961.58 550.91 961.3 550.92 961.3 553.39 960.77 554.47 960.54 555.06 960.41"/><polygon class="cls-16" points="1081 1074.88 1081 1179.89 556.8 962.96 556.79 962.96 556.78 962.95 556.08 962.66 555.23 962.31 554.87 962.16 554.55 962.03 553.87 961.75 553.68 961.67 553.09 961.42 552.85 961.33 552.15 961.04 551.82 960.9 550.64 960.41 551.87 960.67 551.92 960.69 552.59 960.83 552.85 960.89 553.29 960.98 553.3 960.98 553.55 961.04 554.04 961.15 554.05 961.15 554.38 961.22 554.45 961.23 555.79 961.52 556.21 961.61 560.74 962.59 560.8 962.6 564.59 963.42 1081 1074.88"/><polygon class="cls-17" points="1081 742.2 1081 846.4 560.09 958.84 555.79 959.77 555.78 959.77 554.87 959.97 554.74 960 554.64 960.02 554.73 959.98 554.91 959.91 556.15 959.39 556.16 959.38 563.67 956.28 1081 742.2"/><polygon class="cls-18" points="1081 912.64 1081 1009.42 564.6 963.42 564.59 963.42 558.11 962.84 556.61 962.71 556.09 962.66 556.08 962.66 555.06 962.57 554.89 962.56 554.63 962.53 554.56 962.53 553.8 962.46 553.68 962.45 553.53 962.44 553.22 962.41 553.17 962.4 552.66 962.36 552.28 962.32 552.24 962.32 551.51 962.26 550.77 962.19 549.78 962.1 549.35 962.06 547.95 961.94 544.15 961.6 547.01 961.34 547.19 961.32 550 961.07 550.23 961.05 550.28 961.04 551.82 960.9 552.59 960.83 553.4 960.76 553.49 960.75 554.2 960.68 554.38 960.67 554.46 960.66 554.97 960.61 555.15 960.6 557.99 960.34 558 960.34 1081 912.64"/><polygon class="cls-19" points="560.85 962.6 553.97 963.21 552.51 963.34 552.3 963.36 552.29 963.36 552.2 963.37 546.74 963.86 546.73 963.86 533.8 965.01 533.75 965.01 533.72 965.02 -1 1012.65 -1 911.36 547.45 961.38 547.47 961.38 549.65 961.58 551.77 961.77 552.11 961.8 552.12 961.8 552.88 961.87 552.89 961.87 553.5 961.93 553.67 961.95 555.51 962.11 560.85 962.6"/><path class="cls-20" d="M82.5,1924l-76-547.36C6.5,1296,101.05,1230,216.6,1230H876.4c115.55,0,210.1,66,210.1,146.64L1048,1924"/><ellipse class="cls-21" cx="498.6" cy="1687.84" rx="80.4" ry="95.1"/><path class="cls-22" d="M1085.5,1287.08v193c-75.48,28.15-245.1,10.64-531.95,9.58-264-1-474.42,19-549-32.2V1312c78-132.84,269.85-107,549.05-107C814.1,1205,999.76,1181.76,1085.5,1287.08Z"/><path class="cls-23" d="M1081.5,1320.84v82.55c-47.66,37.75-212.35,21.06-529.37,20.19-334-.92-576.75,24.61-539.94-79.84,49.89-141.57,242-118.38,539.94-118.38C833,1225.36,1021.22,1204.06,1081.5,1320.84Z"/><ellipse class="cls-21" cx="636.2" cy="1687.52" rx="55.9" ry="66.12"/><circle cx="526.72" cy="1715.07" r="34.06"/><circle cx="638.25" cy="1701.44" r="34.06"/><path class="cls-24" d="M672.16,1853.43c4.84,2.74,18.06-11.62,23.34-19.16,7-10,18.65-27.17,13.8-29.91s-23.35,7.79-29.36,18.41S667.32,1850.69,672.16,1853.43Z"/><path d="M360.82,1610.43l-1-.25a110.93,110.93,0,0,1,48.95-67c24.27-15,52.53-19.44,79.57-12.46l-.25,1c-26.77-6.92-54.76-2.53-78.8,12.34A109.93,109.93,0,0,0,360.82,1610.43Z"/><path d="M711.85,1633.61a57.54,57.54,0,0,0-59.15-55.79l0-1a58.58,58.58,0,0,1,60.18,56.76Z"/><path d="M619.15,1880.81c-23.7,0-45.35-9.8-57.67-28.59l4.18-2.75c19.92,30.38,66.45,35.21,103.72,10.77s51.4-69,31.49-99.41l4.18-2.74c21.43,32.68,6.66,80.38-32.92,106.33C655.3,1875.45,636.67,1880.81,619.15,1880.81Z"/><path d="M497,1857.89q-12.31,0-24.8-1l.39-5c62.59,4.83,122.82-9,169.59-38.8,46.55-29.71,74.17-71.78,77.77-118.47l5,.38c-3.72,48.29-32.15,91.73-80.06,122.3C603.44,1843.81,551.67,1857.89,497,1857.89Z"/><path class="cls-25" d="M171.86,183.56a1095.55,1095.55,0,0,1,135.66-18.08,304.08,304.08,0,0,0-15.23,28.91q-24.48,2.79-49.25,6.79a273.49,273.49,0,0,0-21.55,78.76,281.88,281.88,0,0,0,.86,71.52,294,294,0,0,0,8.58,40.33,325.73,325.73,0,0,0,14.93,41.33,376.64,376.64,0,0,0,20.62,40.21,413.33,413.33,0,0,0,24.74,37.12q-11.45,7.65-22.68,15.85c-8.58-12.4-16.91-25.39-24.78-39a440.52,440.52,0,0,1-21.21-41.7A371.7,371.7,0,0,1,206.72,403a341.44,341.44,0,0,1-9.78-41.41A314.56,314.56,0,0,1,193,288.26a321.8,321.8,0,0,1,15.91-81q-24.93,4.88-50.07,11.05A335.24,335.24,0,0,1,171.86,183.56Z"/><path class="cls-25" d="M392.24,162.92c21.44.27,32.26,7.83,34.82,21.31s-3.94,33.39-13.47,60.84c-6.09,17.78-11.64,32.78-18.35,45.24s-14.43,22.8-24.13,31.22a216.48,216.48,0,0,0,11.64,37.35A299.43,299.43,0,0,0,402,396.76a319.35,319.35,0,0,0,30.54,42.34q-14,5.06-27.94,10.79a400.19,400.19,0,0,1-29.7-48.06,290,290,0,0,1-16.09-36.66,224.27,224.27,0,0,1-8.67-30.84q-16.64,4.1-33.27,8.92a261.06,261.06,0,0,0,5.44,32.35,314.35,314.35,0,0,0,9.51,32.61,341.59,341.59,0,0,0,13.06,31.86c4.9,10.45,10.2,20.42,15.73,29.94q-12,6-23.88,12.64c-6.32-11.91-12.36-24.31-17.94-37.25a394,394,0,0,1-14.54-39.24,335,335,0,0,1-9.72-39.51A308.13,308.13,0,0,1,290,328.78a291,291,0,0,1,.33-38.6,282.06,282.06,0,0,1,6.28-41.72,293.22,293.22,0,0,1,13.25-42.77,324.85,324.85,0,0,1,20-41.54Q361.36,162.61,392.24,162.92Zm-42.72,25.44a251.7,251.7,0,0,0-34.13,129.53q12.38-3.12,24.73-5.86a37.59,37.59,0,0,0,13.66-5.95,41.52,41.52,0,0,0,10.89-11.95,105,105,0,0,0,9-19.12c2.87-7.62,5.64-16.79,8.91-27.53,6.66-21.75,11.6-37.06,10.73-46.47s-6.61-14.14-18.56-13.78Q362.21,187.64,349.52,188.36Z"/><path class="cls-25" d="M520.15,414.38c-3.92-10.68-7.38-21.39-10.3-32.11a292.14,292.14,0,0,1-7-32.48Q478,352.56,453,357a244.69,244.69,0,0,0,1,36.43,290.48,290.48,0,0,0,6.07,36.41q-12.78,3.94-25.44,8.46a325.16,325.16,0,0,1-5.79-50.52,283.43,283.43,0,0,1,3-51.92,256.38,256.38,0,0,1,12.92-50.22,260.2,260.2,0,0,1,22.12-45.62,268.08,268.08,0,0,1,28.36-38.26,305.15,305.15,0,0,1,29.67-29.12q21.24,2.94,42,6.74a201.62,201.62,0,0,0-19,27.79,198.35,198.35,0,0,0-15.63,35.2,192.19,192.19,0,0,0-8.69,40.49,215.53,215.53,0,0,0-.1,43A249.29,249.29,0,0,0,531.67,369a312.26,312.26,0,0,0,14.48,40.57Q533.13,411.7,520.15,414.38Zm-3.37-205.24a231.11,231.11,0,0,0-42.21,60.36A221.28,221.28,0,0,0,455,334.34q22.65-3.19,45.2-5a257,257,0,0,1,1.7-60.14,232.48,232.48,0,0,1,17.31-59.79Z"/><path class="cls-25" d="M591.32,390.33a35.5,35.5,0,0,0,11-2.57,28.26,28.26,0,0,0,9.56-6.45A36,36,0,0,0,619,370.64a53.48,53.48,0,0,0,4-15.58,36.76,36.76,0,0,0-.93-14.74,56.94,56.94,0,0,0-5.81-13.42A99.41,99.41,0,0,0,607,314q-5.34-6.4-10.74-13a163.85,163.85,0,0,1-10.16-13.77,56.71,56.71,0,0,1-7.13-15,40.21,40.21,0,0,1-1.3-16.82c.75-5.93,3.26-12.25,7.79-18.78a72.26,72.26,0,0,1,24.74-22.27,99.82,99.82,0,0,1,29.6-10.64,105.56,105.56,0,0,1,28.52-1.5,105,105,0,0,1,42.24,12.47q8.08,4.45,15.15,8.85a213.31,213.31,0,0,0-27.23,21.18c-1.2-3-2.35-5.85-3.5-8.43a32.86,32.86,0,0,0-4.21-7,26.37,26.37,0,0,0-6.18-5.56,34.12,34.12,0,0,0-9.25-4,60.35,60.35,0,0,0-14.68-2.24,56.43,56.43,0,0,0-30.82,8,47.85,47.85,0,0,0-13.09,11.55c-5.24,6.65-7.42,13.24-6.92,19.49a44.47,44.47,0,0,0,5.85,18.29,143.64,143.64,0,0,0,11.95,17.77A158.57,158.57,0,0,1,640,310.94a80.81,80.81,0,0,1,8.1,20.19c1.82,7.09,1.74,14.84.26,23.47a87.53,87.53,0,0,1-4.55,17.17,61.83,61.83,0,0,1-6.89,13.07,49.81,49.81,0,0,1-8.82,9.67,53.32,53.32,0,0,1-10.31,6.78,57.16,57.16,0,0,1-11.28,4.25,74.79,74.79,0,0,1-11.43,2c-4.47.42-8.58.68-12.38.74s-7.36,0-10.72-.31-6.51-.68-9.46-1.2-5.85-1.14-8.71-1.84A277.65,277.65,0,0,1,550,371.29c3.18,2.92,6.38,5.61,9.55,8.1a63.09,63.09,0,0,0,9.81,6.34,43.3,43.3,0,0,0,10.4,3.82A39.69,39.69,0,0,0,591.32,390.33Z"/><path class="cls-25" d="M869.86,288.73a177.09,177.09,0,0,0-23.55,10,156.37,156.37,0,0,0-20.45,12.54,146.87,146.87,0,0,0-16.75,14.14A137.52,137.52,0,0,0,796.21,340a135.16,135.16,0,0,0-10.31,15.73,145.59,145.59,0,0,0-8.42,17.78,140.57,140.57,0,0,0-6,19,143.93,143.93,0,0,0-3.21,19.21q-12.54-2.33-25.16-4.16c1.29-6.53,2.89-13.17,4.85-19.9a205.69,205.69,0,0,1,6.89-19.79,179.15,179.15,0,0,1,8.87-18.63,176.07,176.07,0,0,1,10.4-16.64Q744,323,712.75,315.73a154.29,154.29,0,0,0-9.33,19.5,161.78,161.78,0,0,0-6.84,21.64,176.67,176.67,0,0,0-4.89,45.37q-12.83-.83-25.67-1.11c.53-7.7,1.35-15.57,2.52-23.59a232.33,232.33,0,0,1,4.74-23.71,205.47,205.47,0,0,1,7.19-22.61,192.25,192.25,0,0,1,36.81-60.16,208.51,208.51,0,0,1,19.54-19,245,245,0,0,1,22.53-17Q774,241,788.2,247.38a176.8,176.8,0,0,0-39.08,24.91,170.09,170.09,0,0,0-27.82,29.92q31.4,8.3,61.6,18.91a176.36,176.36,0,0,1,26.29-25.4,203.86,203.86,0,0,1,34.13-21.57Q856.77,281.26,869.86,288.73Z"/><path class="cls-25" d="M564.82,595.55a384.37,384.37,0,0,0,29.95,36.64c9.15,9.78,17.2,17.15,24.17,22.33s12.8,8.19,17.68,9.19,8.7,0,11.69-2.9a15.2,15.2,0,0,0,3.87-6,31.31,31.31,0,0,0,1.55-7.09A57,57,0,0,0,654,640c-.08-2.67-.13-5.24-.12-7.72q8.58,13.19,16.88,25.72-2.43,4.89-5.12,9.26a52.84,52.84,0,0,1-6.67,8.56,20.37,20.37,0,0,1-15,6.79c-6.07.13-13.24-2.22-21.93-7.33s-18.89-13.15-30.83-24.46a399.93,399.93,0,0,1-40-44.9c-14.53-18.75-25.89-36.52-33.33-52.66s-11.45-30.53-12.15-42.7,1.6-22.12,6.43-29.63A35.52,35.52,0,0,1,532,465.9a72.07,72.07,0,0,1,15.87-3.09,111.63,111.63,0,0,1,15.09-.07c3.85,10.71,8.13,21.3,12.75,31.76q-3.9-2.13-8-4.48a60.09,60.09,0,0,0-8.47-4,36.55,36.55,0,0,0-9.06-2.09,22.83,22.83,0,0,0-9.85,1.27,19.41,19.41,0,0,0-12.09,12c-2.32,6-2.75,13.93-1,23.56s5.74,20.91,12,33.57S554.14,580.83,564.82,595.55Z"/><path class="cls-25" d="M621.31,449.39c14.19-2,26.2,1.72,35.84,10s16.46,21.45,22.09,39.23c3.66,11.5,5.41,21.14,5.15,29.26s-2.35,15-6.32,20.74c4.8,7,10.28,14.5,16.32,22.22,5.25,6.64,11.44,14.09,18.45,22.15s14.75,16.15,23.06,24.15q-8.61,4-16.8,8.45c-8.52-10.11-16.12-19.52-22.55-27.81s-11.83-15.57-16.1-21.58c-5-7-9.16-13.13-12.52-18.36q-9.58,3.6-18.89,7.69,5.06,9.59,10.69,19.45c3.74,6.57,7.56,13.07,11.39,19.51s7.71,12.76,11.58,19,7.64,12.12,11.28,17.73q-6.62,4.65-12.89,9.65-6.18-10.71-13-22.33T654.26,605q-6.93-11.87-13.59-23.64T628.1,558.66q-5.94-10.92-12.29-23.25T603.3,510c-4.1-8.71-8.09-17.58-11.9-26.58s-7.38-17.89-10.71-26.63Q600.85,452.35,621.31,449.39Zm-12.92,19.74a383,383,0,0,0,15,42.51c5.78,13.93,11.84,26.78,17.78,38.57q7-2.78,14.17-5.31a16.26,16.26,0,0,0,7-4.58,14.88,14.88,0,0,0,3.29-8.06,39.77,39.77,0,0,0-.74-12.34,121,121,0,0,0-5.07-17.57c-4.92-13.89-9.73-23.8-15.35-29.55s-12.26-8.15-19.93-6.79Q616.43,467.45,608.39,469.13Z"/><path class="cls-25" d="M773.66,591.74a16.27,16.27,0,0,0,8.06-4.47,16.09,16.09,0,0,0,3.9-7.88,33.32,33.32,0,0,0,.12-11.18,83.05,83.05,0,0,0-3.37-14.33c-3.66-11.52-7-23.28-9.78-35.2-2.64-11.22-5-22.9-6.93-35s-3.44-24.4-4.43-36.89q12,1.26,24,3.05a203.14,203.14,0,0,0-.41,35,257.36,257.36,0,0,0,4.73,33.5c2.38,11.51,5.27,22.89,8.54,34a89.07,89.07,0,0,1,3.69,19.3,38.52,38.52,0,0,1-1.7,15,25.23,25.23,0,0,1-7.36,11,34.71,34.71,0,0,1-13.49,6.94A36.12,36.12,0,0,1,763.37,606a33.94,33.94,0,0,1-14.45-6,57.64,57.64,0,0,1-13.29-13.53A106.88,106.88,0,0,1,724,565.39c-5.45-12.84-10.64-26-15.36-39.51-4.37-12.51-8.68-25.68-12.59-39.51s-7.36-28-10.06-42.5q12-.33,24-.15a234.11,234.11,0,0,0,4.74,40.81,363.3,363.3,0,0,0,10.14,38.59c4.18,13.08,8.85,25.92,13.8,38.43a90.33,90.33,0,0,0,7.49,15,45.17,45.17,0,0,0,8.47,10.19,23.49,23.49,0,0,0,9.21,5.08A19,19,0,0,0,773.66,591.74Z"/><path class="cls-25" d="M852.72,582.37a28.4,28.4,0,0,0,7.66-1.1,14.37,14.37,0,0,0,6-3.39,12.31,12.31,0,0,0,3.37-6,20.56,20.56,0,0,0-.26-9.26,24.53,24.53,0,0,0-4.14-9.16,59.68,59.68,0,0,0-7.64-8.63,116.76,116.76,0,0,0-10.13-8.47q-5.61-4.22-11.49-8.56t-11.62-9A92.24,92.24,0,0,1,814.1,509a54.9,54.9,0,0,1-7.84-11.07,31.55,31.55,0,0,1-3.65-12.71c-.44-6.59.83-12,3.74-16a24,24,0,0,1,11.49-8.6,40.33,40.33,0,0,1,15.61-2.2A73.85,73.85,0,0,1,849.77,461a117.37,117.37,0,0,1,15.62,5.5q7.41,3.22,14.17,6.53c-1.11,5.58-1.93,11.23-2.5,16.94q-3.67-3.45-6.94-6.35a74.43,74.43,0,0,0-6.63-5.26,52.34,52.34,0,0,0-7-4.1,41.17,41.17,0,0,0-7.85-2.83,40.75,40.75,0,0,0-10-1.3,19.91,19.91,0,0,0-8.3,1.64,13,13,0,0,0-5.63,4.91,14.57,14.57,0,0,0-2,8.35,23.22,23.22,0,0,0,5,13.46,78.42,78.42,0,0,0,11.74,12.37q6.94,6,14.9,12t14.89,12.52a91.12,91.12,0,0,1,11.94,13.44,36.65,36.65,0,0,1,6.41,14.84,30.34,30.34,0,0,1,.45,10.27,18.67,18.67,0,0,1-2.69,7.41,18.22,18.22,0,0,1-5.08,5.16,29,29,0,0,1-6.8,3.38,42.72,42.72,0,0,1-7.91,1.9,70.88,70.88,0,0,1-8.26.72c-3.25.08-6.26.1-9,0s-5.38-.21-7.84-.43-4.77-.51-6.94-.86-4.31-.73-6.41-1.16q-3.47-9.71-6.59-19.73c2.69,1.75,5.32,3.38,7.92,4.89a65.39,65.39,0,0,0,7.83,3.88,44.81,44.81,0,0,0,8,2.46A39.54,39.54,0,0,0,852.72,582.37Z"/><path class="cls-25" d="M995.51,525.44a74,74,0,0,0-4.69,9.58,84.54,84.54,0,0,0-3.43,10.45,103.16,103.16,0,0,0-2.17,10.74c-.54,3.58-.88,7.06-1.08,10.41s-.26,6.92-.16,10.72.33,7.69.71,11.69.94,8.08,1.66,12.2S988,609.42,989,613.4q-9.91-3.72-19.83-6.83c-.45-3.9-.86-7.93-1.21-12.06s-.64-8.25-.85-12.34-.33-8.09-.35-12,0-7.63.17-11.16A461.47,461.47,0,0,0,920,542.21c.11,4,.37,8.27.81,12.74s1,9,1.82,13.72,1.72,9.35,2.82,14.05,2.36,9.28,3.75,13.72q-9.84-1.91-19.59-3.24-1.15-6.75-2.31-14c-.77-4.8-1.47-9.61-2.09-14.4s-1.13-9.52-1.54-14.15-.7-9.05-.91-13.26-.36-8.64-.39-13.28,0-9.36.26-14.16.54-9.6,1-14.41,1-9.52,1.63-14.12q11.64,4.46,23.14,9.45a91.73,91.73,0,0,0-6.15,20.62,157.78,157.78,0,0,0-2.3,21.54A480.64,480.64,0,0,1,967.32,551c.44-6.19,1.14-12.58,2.2-19.12s2.38-12.87,3.94-19Q984.58,518.88,995.51,525.44Z"/><path class="cls-26" d="M512,1699.26a9.28,9.28,0,0,0-6.16,6.86,4.62,4.62,0,0,0,.47,3.5,2.37,2.37,0,0,0,3.15.82c1.83-1.26.38-4.65,2.08-6.07.87-.74,2.2-.58,3.21-1.1a2.6,2.6,0,1,0-3.76-2.71"/><path class="cls-26" d="M656.57,1688.31a7.54,7.54,0,0,0-3.39-6.26,5.07,5.07,0,0,0-2.8-1.09c-1,0-1.8.68-1.57,1.53.42,1.55,3.43,2,4,3.57.3.79-.22,1.5-.12,2.29a2.78,2.78,0,0,0,3.27,1.92c1.22-.44,1.17-2.22-.09-3.06"/><circle cx="998.27" cy="83.65" r="45.53"/><circle class="cls-27" cx="997.04" cy="80.94" r="45.53"/><path class="cls-26" d="M958.23,74.46c.94.25,1.64-.83,2-1.74,1.94-4.88,3.7-9.91,6.72-14.2a28.63,28.63,0,0,1,8.15-7.74c2.24-1.42,6-2.43,7.41-4.78-4.62-.62-11.26,4.94-14.23,7.9A34.48,34.48,0,0,0,958.23,74.46Z"/><path class="cls-26" d="M1030.26,85.33V75.21h-9.07a22.7,22.7,0,0,0-3.31-7l6.36-5.72-6.1-6.79-6.95,6.26a21.1,21.1,0,0,0-6.09-2.48V50.55H994V59.8A21.4,21.4,0,0,0,987.7,63l-6.85-6.85-6.45,6.45,7.17,7.18A22.52,22.52,0,0,0,979,76.2h-9.93v9.13h9.73A22.72,22.72,0,0,0,981.68,93l-7.31,6.58,6.1,6.78,7.4-6.65a21.17,21.17,0,0,0,6.87,3.24v8.77h11.1v-8.8a21.35,21.35,0,0,0,6.43-3l5.74,5.74,6.45-6.45-5.89-5.89a22.69,22.69,0,0,0,3.07-8Z"/><ellipse class="cls-27" cx="1000.17" cy="81.13" rx="7.4" ry="7.65"/><circle cx="568.94" cy="969.38" r="184.61"/><circle class="cls-27" cx="558.84" cy="960.73" r="184.61"/><path class="cls-26" d="M664.6,929.24A25.09,25.09,0,0,1,668,972.57l-68.71,47.12-68.7,47.13a25.1,25.1,0,0,1-39.22-18.75L484.89,965l-6.46-83.07a25.09,25.09,0,0,1,35.84-24.58l75.16,35.94Z"/><path class="cls-26" d="M405,923c3.81,1,6.66-3.4,8.12-7.06,7.85-19.79,15-40.17,27.24-57.6a116.34,116.34,0,0,1,33-31.38c9.11-5.74,24.53-9.85,30-19.35-18.74-2.53-45.65,20-57.71,32C423.36,861.8,408.29,891.54,405,923Z"/></svg>
