<svg id="Layer_1" data-name="Layer 1" xmlns="http://www.w3.org/2000/svg" width="180" height="250" viewBox="0 0 180 250"><defs><style>.cls-1{fill:#2e1f00;}.cls-2{fill:#9ec96b;}.cls-3{fill:#6c511b;}.cls-4{fill:#fff;}</style></defs><title>avocado</title><path class="cls-1" d="M157.43,93.84C153.14,44.27,135.84,4.5,102.5,4.5s-67.81,40.13-76.76,90a94,94,0,0,0-22.24,61c0,51.36,40.63,93,90.75,93s82.25-41.64,82.25-93C176.5,131.84,169.68,110.25,157.43,93.84Z"/><path class="cls-2" d="M151.35,92.11c-4-48.29-19-86.61-47.38-86.61-.8,0-1.59,0-2.39.1S99.87,5.5,99,5.5c-29.57,0-59.83,34.28-71,78.85A97,97,0,0,0,3.5,149.5c0,51.36,38.28,93,85.5,93s77.5-41.64,77.5-93C166.5,127.84,161.12,107.92,151.35,92.11Z"/><circle class="cls-1" cx="90" cy="161" r="41.5"/><circle class="cls-3" cx="85" cy="161" r="41.5"/><path class="cls-1" d="M111.5,6.5c0,1.66-3.58,3-8,3s-8-1.34-8-3,4.58-5,9-5S111.5,4.84,111.5,6.5Z"/><path class="cls-4" d="M67.16,131.87c-3.73,1.38-7.57,2.83-10.47,5.56s-4.62,7.1-3.11,10.78c4.15-.24,4.94-6.2,8.15-8.86a29.31,29.31,0,0,1,3.82-2.19A4.48,4.48,0,0,0,68,133.73c0-1.47-1.71-2.87-2.94-2.07"/></svg>
