<svg id="Layer_1" data-name="Layer 1" xmlns="http://www.w3.org/2000/svg" viewBox="0 0 130.45 270.31">
  <defs>
    <style>
      .cls-1 {
        fill: #2e1f00;
      }

      .cls-2 {
        fill: #9ec96b;
      }

      .cls-3 {
        fill: #6c511b;
      }

      .cls-4 {
        fill: #fff;
      }
    </style>
  </defs>
  <title>avocado_rotaded_02</title>
  <g>
    <path class="cls-1" d="M14,135.41C.17,164.31-3.21,192,15.28,202.91s50.72-.13,72-24.89a60.5,60.5,0,0,0,32.25-26.58c16.76-28.5,7.81-64.86-20-81.22S40.27,66.48,23.51,95C15.79,108.1,12.53,122.31,14,135.41Z"/>
    <path class="cls-2" d="M16.77,138.35c-13.51,28.12-17.71,54.27-2,63.53.44.26.89.49,1.35.72s.92.61,1.41.9c16.41,9.65,44.38.51,65.12-20.58a62.39,62.39,0,0,0,34.86-28.15c16.76-28.5,9.11-64.1-17.09-79.51S43.86,73.07,27.1,101.57C20,113.58,16.51,126.4,16.77,138.35Z"/>
    <circle class="cls-1" cx="73.3" cy="120.16" r="26.71"/>
    <circle class="cls-3" cx="76.07" cy="121.79" r="26.71"/>
    <path class="cls-1" d="M10.94,198.86c.54-.92,3-.49,5.42.95s4,3.35,3.46,4.27-4.17,1.28-6.63-.16S10.4,199.78,10.94,198.86Z"/>
    <path class="cls-4" d="M76.46,143.77c2.52.45,5.13.9,7.62.34s4.89-2.43,5.25-5c-2.38-1.22-4.76,1.83-7.41,2.25a19.25,19.25,0,0,1-2.84,0,2.88,2.88,0,0,0-2.49,1.1c-.49.81,0,2.15,1,2.11"/>
  </g>
</svg>
