<svg id="Layer_1" data-name="Layer 1" xmlns="http://www.w3.org/2000/svg" width="110" height="260" viewBox="0 0 110 260"><defs><style>.cls-1{fill:#aaadad;}.cls-2{fill:#403f39;}.cls-3{fill:#e2e230;}.cls-4{fill:#fff;}</style></defs><title>batteri</title><path d="M89.63,244.5H28a17,17,0,0,1-17-17V26.5a12,12,0,0,1,12-12H91a12,12,0,0,1,12,12l-1,199.87a2.45,2.45,0,0,1,0,.27c-1,6.93,0,13.86-11.63,17.73A2.23,2.23,0,0,1,89.63,244.5Z"/><rect class="cls-1" x="39" y="231.5" width="27" height="27" rx="12"/><rect class="cls-1" x="39" y="1.5" width="27" height="27" rx="12"/><rect class="cls-2" x="8" y="14.5" width="90" height="220" rx="12"/><path class="cls-3" d="M98,177.5H8c-5,81,8,64.7,46,66.86C105,247.27,99,237.09,98,177.5Z"/><polygon class="cls-3" points="73 52.5 57 52.5 57 35.5 50 35.5 50 52.5 34 52.5 34 59.5 50 59.5 50 75.5 57 75.5 57 59.5 73 59.5 73 52.5"/><rect x="49.5" y="194" width="7" height="38" transform="translate(266 160) rotate(90)"/><path class="cls-4" d="M47.7,5.46A4.28,4.28,0,0,0,43.58,7.8a12,12,0,0,0-1.19,4.85c.64.25,1.09-.6,1.33-1.24a6.61,6.61,0,0,1,3.85-3.88A4.47,4.47,0,0,0,49,6.89a1.07,1.07,0,0,0,.31-1.37L47,5.46"/><path class="cls-4" d="M16.16,235.32a8.17,8.17,0,0,0,1.28,1.8,7,7,0,0,0,1.66,1.13,22.94,22.94,0,0,0,13.58,2.52,1.48,1.48,0,0,0,1.09-.48c.51-.71-.39-1.58-1.19-1.93-3.82-1.68-8.26-2-11.7-4.36a16.66,16.66,0,0,1-5.67-8,58.68,58.68,0,0,1-2.7-10.86c-.27-1.52-.72-3.76-2.48-1.87A2.61,2.61,0,0,0,9.54,216C10.92,222.67,12.78,229.33,16.16,235.32Z"/></svg>
