<svg id="Layer_1" data-name="Layer 1" xmlns="http://www.w3.org/2000/svg" viewBox="0 0 130.27 145.44">
  <defs>
    <style>
      .cls-1 {
        fill: #aaadad;
      }

      .cls-2 {
        fill: #403f39;
      }

      .cls-3 {
        fill: #e2e230;
      }

      .cls-4 {
        fill: none;
      }

      .cls-5 {
        fill: #fff;
      }
    </style>
  </defs>
  <title>batteri_rotaed</title>
  <g>
    <path d="M124.2,118.51l-30.83,22.6a10.57,10.57,0,0,1-14.74-2.27L4.93,38.27a7.46,7.46,0,0,1,1.6-10.4l34-24.94A7.46,7.46,0,0,1,51,4.54l72.79,100.37a.64.64,0,0,1,.08.14c2,3.85,5.1,6.93.69,13.13A1.26,1.26,0,0,1,124.2,118.51Z"/>
    <rect class="cls-1" x="97.43" y="124" width="16.75" height="16.75" rx="8.37" transform="translate(-57.78 88.14) rotate(-36.23)"/>
    <rect class="cls-1" x="13.1" y="8.93" width="16.75" height="16.75" rx="8.37" transform="translate(-6.07 16.04) rotate(-36.23)"/>
    <rect class="cls-2" x="33.96" y="3.67" width="55.83" height="136.47" rx="12" transform="translate(-30.54 50.48) rotate(-36.23)"/>
    <path class="cls-3" d="M103.82,81.92l-45,33c27.2,42.36,27.74,29.43,47.53,16.59C132.91,114.26,126.18,111.37,103.82,81.92Z"/>
    <polygon class="cls-3" points="45.48 28.55 37.48 34.41 31.25 25.91 27.74 28.47 33.98 36.98 25.97 42.85 28.54 46.35 36.54 40.48 42.41 48.49 45.91 45.92 40.05 37.91 48.05 32.05 45.48 28.55"/>
    <rect x="92.15" y="104.4" width="4.34" height="23.57" transform="translate(132.29 -28.57) rotate(53.77)"/>
    <path class="cls-4" d="M121.3,88.08l.08-.06"/>
    <path class="cls-5" d="M15.58,14.28A2.65,2.65,0,0,0,14.38,17a7.29,7.29,0,0,0,1.18,2.87c.41-.11.32-.7.21-1.11a4.08,4.08,0,0,1,.5-3.35,2.79,2.79,0,0,0,.47-.84.65.65,0,0,0-.35-.79l-1.14.79"/>
    <path class="cls-5" d="M84.08,140.86a5,5,0,0,0,1.3.43,4.3,4.3,0,0,0,1.24,0,14.26,14.26,0,0,0,7.72-3.72,1,1,0,0,0,.37-.64c0-.54-.77-.65-1.3-.53-2.53.56-4.86,2-7.45,2.11a10.42,10.42,0,0,1-5.78-1.93,36.5,36.5,0,0,1-5.33-4.44c-.7-.67-1.74-1.62-1.93,0a1.6,1.6,0,0,0,.76,1.54A41,41,0,0,0,84.08,140.86Z"/>
  </g>
</svg>
