<svg id="Layer_1" data-name="Layer 1" xmlns="http://www.w3.org/2000/svg" width="380" height="380" viewBox="0 0 380 380"><defs><style>.cls-1{fill:#262660;}.cls-2{fill:#fff;}</style></defs><title>bottum_settings</title><circle cx="192.5" cy="195.5" r="184.61"/><circle class="cls-1" cx="187.5" cy="184.5" r="184.61"/><path class="cls-2" d="M30.15,158.25c3.81,1,6.66-3.4,8.11-7.07,7.86-19.79,15-40.17,27.25-57.59a116.07,116.07,0,0,1,33-31.38c9.1-5.74,24.53-9.85,30-19.35-18.73-2.54-45.64,20-57.71,32C48.55,97.09,33.48,126.82,30.15,158.25Z"/><path class="cls-2" d="M322.19,202.28v-41H285.42A91.62,91.62,0,0,0,272,132.69l25.78-23.21L273,82l-28.18,25.36a86,86,0,0,0-24.67-10.06v-36h-45v37.5a86.69,86.69,0,0,0-25.56,12.78L121.86,83.79,95.7,110,124.78,139a92.08,92.08,0,0,0-10.32,26.24H74.19v37h39.44a92,92,0,0,0,11.61,31.12L95.59,260.08l24.75,27.51,30-27a86.78,86.78,0,0,0,27.87,13.15v35.52h45V273.62a86.19,86.19,0,0,0,26.06-12.11l23.27,23.27,26.16-26.17-23.87-23.86a91.75,91.75,0,0,0,12.43-32.47Z"/><ellipse class="cls-1" cx="200.19" cy="185.28" rx="30" ry="31"/></svg>
