<svg id="Layer_1" data-name="Layer 1" xmlns="http://www.w3.org/2000/svg" width="380" height="380" viewBox="0 0 380 380"><defs><style>.cls-1,.cls-4{fill:none;stroke:#fff;stroke-miterlimit:10;}.cls-1{stroke-width:35px;}.cls-2{fill:#262660;}.cls-3{fill:#fff;}.cls-4{stroke-width:41px;}</style></defs><title>bpttum_replay</title><circle cx="193.82" cy="193.73" r="184.61"/><path class="cls-1" d="M173.38,105.62c54.84-10.09,101,41.56,101,92.83s-45.22,92.83-101,92.83"/><circle class="cls-2" cx="186.18" cy="186.27" r="184.61"/><path class="cls-3" d="M25.84,157.31c3.81,1,6.66-3.4,8.11-7.06,7.86-19.79,15-40.17,27.25-57.6a116.34,116.34,0,0,1,33-31.38c9.1-5.74,24.53-9.85,30-19.35-18.73-2.53-45.64,20-57.71,32C44.24,96.15,29.17,125.88,25.84,157.31Z"/><path class="cls-4" d="M192.38,113.57c54.67,0,99,40.67,99,90.84s-44.33,90.84-99,90.84"/><path class="cls-3" d="M128.86,111.78a8,8,0,0,1,.33-13.91L155.9,83.29,182.61,68.7a8,8,0,0,1,11.88,7.24l-.72,30.42-.72,30.43a8,8,0,0,1-12.21,6.67l-26-15.84Z"/></svg>
