<svg id="Layer_1" data-name="Layer 1" xmlns="http://www.w3.org/2000/svg" xmlns:xlink="http://www.w3.org/1999/xlink" width="1080" height="1920" viewBox="0 0 1080 1920"><defs><style>.cls-1{fill:url(#radial-gradient);}.cls-2{fill:url(#linear-gradient);}.cls-3{fill:url(#linear-gradient-2);}.cls-4{fill:url(#linear-gradient-3);}.cls-5{fill:url(#linear-gradient-4);}.cls-6{fill:url(#linear-gradient-5);}.cls-7{fill:url(#linear-gradient-6);}.cls-8{fill:url(#linear-gradient-7);}.cls-9{fill:url(#linear-gradient-8);}.cls-10{fill:url(#linear-gradient-9);}.cls-11{fill:url(#linear-gradient-10);}.cls-12{fill:url(#linear-gradient-11);}.cls-13{fill:url(#linear-gradient-12);}.cls-14{fill:url(#linear-gradient-13);}.cls-15{fill:url(#linear-gradient-14);}.cls-16{fill:url(#linear-gradient-15);}.cls-17{fill:url(#linear-gradient-16);}.cls-18{fill:url(#linear-gradient-17);}.cls-19{fill:url(#linear-gradient-18);}.cls-20{fill:url(#linear-gradient-19);}.cls-21{fill:url(#linear-gradient-20);}.cls-22{fill:url(#linear-gradient-21);}.cls-23,.cls-39,.cls-40{fill:none;}.cls-24{fill:#352900;}.cls-25{fill:url(#radial-gradient-2);}.cls-26{fill:url(#radial-gradient-3);}.cls-27{fill:#e2c791;}.cls-28{fill:#fff;}.cls-29{fill:#262660;}.cls-30{fill:#d3b862;stroke:#fff;}.cls-30,.cls-37,.cls-39,.cls-40,.cls-42,.cls-43{stroke-miterlimit:10;}.cls-31{fill:#b50f0f;opacity:0.76;}.cls-32{fill:#8c0c0c;}.cls-33{fill:#204417;}.cls-34{fill:#aaadad;}.cls-35{fill:#403f39;}.cls-36{fill:#e2e230;}.cls-37,.cls-39,.cls-40{stroke-width:0.25px;}.cls-37{fill:url(#linear-gradient-22);stroke:url(#radial-gradient-4);}.cls-38{fill:#ebf2f1;}.cls-39{stroke:url(#radial-gradient-5);}.cls-40{stroke:url(#radial-gradient-6);}.cls-41{fill:#fafcfc;}.cls-42{fill:#dae5e5;}.cls-42,.cls-43{stroke:#1d1d1b;}.cls-43{fill:#a3c6c5;}.cls-44{fill:#2e1f00;}.cls-45{fill:#9ec96b;}.cls-46{fill:#6c511b;}</style><radialGradient id="radial-gradient" cx="541.5" cy="961" r="781.48" gradientUnits="userSpaceOnUse"><stop offset="0" stop-color="#fff"/><stop offset="1" stop-color="#80bed6"/></radialGradient><linearGradient id="linear-gradient" x1="5" y1="477.4" x2="564.26" y2="477.4" gradientUnits="userSpaceOnUse"><stop offset="0.13" stop-color="#80bed6"/><stop offset="0.88" stop-color="#fff"/></linearGradient><linearGradient id="linear-gradient-2" x1="557.63" y1="476.3" x2="1087" y2="476.3" gradientUnits="userSpaceOnUse"><stop offset="0.26" stop-color="#fff"/><stop offset="0.82" stop-color="#80bed6"/><stop offset="0.9" stop-color="#8ec5db"/></linearGradient><linearGradient id="linear-gradient-3" x1="5" y1="1436.07" x2="556.61" y2="1436.07" gradientUnits="userSpaceOnUse"><stop offset="0" stop-color="#80bed6"/><stop offset="0.19" stop-color="#86c1d8"/><stop offset="0.7" stop-color="#fff"/></linearGradient><linearGradient id="linear-gradient-4" x1="558.29" y1="1434.23" x2="1087" y2="1434.23" gradientUnits="userSpaceOnUse"><stop offset="0.32" stop-color="#fff"/><stop offset="0.58" stop-color="#80bed6"/><stop offset="0.84" stop-color="#86c1d8"/></linearGradient><linearGradient id="linear-gradient-5" x1="536.55" y1="707.53" x2="384.12" y2="0.82" gradientUnits="userSpaceOnUse"><stop offset="0" stop-color="#fff"/><stop offset="0.58" stop-color="#bfdeea"/><stop offset="1" stop-color="#80bed6"/></linearGradient><linearGradient id="linear-gradient-6" x1="609.41" y1="805.3" x2="762.24" y2="-182.71" gradientUnits="userSpaceOnUse"><stop offset="0.02" stop-color="#fff"/><stop offset="0.71" stop-color="#80bed6"/><stop offset="0.9" stop-color="#8ec5db"/></linearGradient><linearGradient id="linear-gradient-7" x1="302.63" y1="1437.04" x2="558.31" y2="1437.04" xlink:href="#linear-gradient-3"/><linearGradient id="linear-gradient-8" x1="560.51" y1="1437.04" x2="816.19" y2="1437.04" gradientUnits="userSpaceOnUse"><stop offset="0" stop-color="#80bed6"/><stop offset="0" stop-color="#fff"/><stop offset="0.65" stop-color="#8fc6db"/><stop offset="0.75" stop-color="#86c1d8"/></linearGradient><linearGradient id="linear-gradient-9" x1="5" y1="670.06" x2="558" y2="670.06" gradientUnits="userSpaceOnUse"><stop offset="0" stop-color="#fff"/><stop offset="0" stop-color="#80bed6"/><stop offset="0.84" stop-color="#fbfdfe"/></linearGradient><linearGradient id="linear-gradient-10" y1="1239.53" x2="554" y2="1239.53" xlink:href="#linear-gradient-3"/><linearGradient id="linear-gradient-11" x1="554.99" y1="686.86" x2="1087" y2="686.86" gradientUnits="userSpaceOnUse"><stop offset="0.39" stop-color="#fff"/><stop offset="0.82" stop-color="#80bed6"/><stop offset="0.9" stop-color="#8ec5db"/></linearGradient><linearGradient id="linear-gradient-12" x1="558.99" y1="1227.73" x2="1087" y2="1227.73" gradientUnits="userSpaceOnUse"><stop offset="0.06" stop-color="#fff"/><stop offset="0.28" stop-color="#f7fbfc"/><stop offset="0.6" stop-color="#86c1d8"/><stop offset="0.84" stop-color="#80bed6"/></linearGradient><linearGradient id="linear-gradient-13" x1="5" y1="841.96" x2="561.06" y2="841.96" gradientUnits="userSpaceOnUse"><stop offset="0" stop-color="#80bed6"/><stop offset="0.7" stop-color="#fff"/></linearGradient><linearGradient id="linear-gradient-14" y1="1069.47" x2="561.06" y2="1069.47" xlink:href="#linear-gradient-3"/><linearGradient id="linear-gradient-15" x1="556.64" y1="1064.15" y2="1064.15" xlink:href="#linear-gradient-11"/><linearGradient id="linear-gradient-16" x1="560.64" y1="845.11" x2="1087" y2="845.11" gradientUnits="userSpaceOnUse"><stop offset="0.31" stop-color="#fff"/><stop offset="0.82" stop-color="#80bed6"/><stop offset="0.9" stop-color="#8ec5db"/></linearGradient><linearGradient id="linear-gradient-17" x1="550.15" y1="955.03" y2="955.03" xlink:href="#linear-gradient-11"/><linearGradient id="linear-gradient-18" y1="956" x2="566.85" y2="956" xlink:href="#linear-gradient-3"/><linearGradient id="linear-gradient-19" x1="543.9" y1="2106.46" x2="538.59" y2="1561.86" gradientUnits="userSpaceOnUse"><stop offset="0" stop-color="#656565"/><stop offset="0.36" stop-color="#00003f"/><stop offset="0.74" stop-color="#86baff"/><stop offset="0.98" stop-color="#3e3e3e"/></linearGradient><linearGradient id="linear-gradient-20" x1="5.5" y1="1690.42" x2="1086.5" y2="1690.42" gradientUnits="userSpaceOnUse"><stop offset="0" stop-color="#656565"/><stop offset="0.12"/><stop offset="0.42" stop-color="#3e3e3e"/><stop offset="0.95" stop-color="#fff"/></linearGradient><linearGradient id="linear-gradient-21" x1="551.89" y1="2139.56" x2="540.13" y2="1051.75" gradientUnits="userSpaceOnUse"><stop offset="0" stop-color="#656565"/><stop offset="0.36" stop-color="#00003f"/><stop offset="0.79" stop-color="#86baff"/><stop offset="0.98" stop-color="#3e3e3e"/></linearGradient><radialGradient id="radial-gradient-2" cx="89.67" cy="150.58" fx="56.125697223754734" r="40.84" gradientUnits="userSpaceOnUse"><stop offset="0" stop-color="#fff"/><stop offset="0.47" stop-color="#d0ebf4"/><stop offset="0.87" stop-color="#e2f2f7"/></radialGradient><radialGradient id="radial-gradient-3" cx="89.08" cy="1860.19" fx="55.53239578834678" r="40.84" gradientTransform="matrix(1, 0, 0, -1, 0, 1964.5)" xlink:href="#radial-gradient-2"/><linearGradient id="linear-gradient-22" x1="289.56" y1="657.06" x2="473.92" y2="657.06" gradientTransform="translate(15.76 142.31)" gradientUnits="userSpaceOnUse"><stop offset="0" stop-color="#fff"/><stop offset="0.12" stop-color="#fbfbfb"/><stop offset="0.24" stop-color="#eee"/><stop offset="0.37" stop-color="#d8d8d8"/><stop offset="0.5" stop-color="#bababa"/><stop offset="0.63" stop-color="#939393"/><stop offset="0.77" stop-color="#636363"/><stop offset="0.9" stop-color="#2c2c2c"/><stop offset="1"/></linearGradient><radialGradient id="radial-gradient-4" cx="381.74" cy="657.06" r="67.01" gradientTransform="translate(15.76 142.31)" xlink:href="#linear-gradient-22"/><radialGradient id="radial-gradient-5" cx="379.88" cy="850.99" r="57.12" gradientTransform="translate(140.34 84.3) rotate(10.38)" xlink:href="#linear-gradient-22"/><radialGradient id="radial-gradient-6" cx="334.5" cy="767.53" r="25.62" gradientTransform="matrix(0.98, 0.18, 0.18, -0.98, -146.47, 1650.76)" xlink:href="#linear-gradient-22"/></defs><title>game_in_action</title><rect class="cls-1" x="1" y="-3" width="1081" height="1928"/><polygon class="cls-2" points="564.26 960.8 5 139.84 5 -6 134.57 -6 564.26 960.8"/><polygon class="cls-3" points="1087 -6 1087 202.03 560.79 954.08 560.27 954.83 560.05 955.15 560.04 955.15 559.68 955.67 559.35 956.14 559.3 956.2 559.3 956.21 559 956.64 557.63 958.6 558.11 957.56 558.11 957.55 558.12 957.54 559.09 955.42 559.29 954.98 559.3 954.98 559.82 953.84 560.14 953.13 1000.88 -6 1087 -6"/><polygon class="cls-4" points="556.61 954.13 556.24 955.02 556.23 955.05 556.04 955.49 555.99 955.61 555.87 955.9 555.78 956.1 555.53 956.71 555.13 957.65 152.14 1918 5 1918 5 1801.41 554.27 957.72 554.71 957.04 555.35 956.06 555.51 955.82 555.67 955.58 556 955.07 556.07 954.95 556.61 954.13"/><polygon class="cls-5" points="1087 1716.14 1087 1918 995.64 1918 562.27 959.26 561.58 957.73 561.29 957.09 561.06 956.57 561.01 956.47 560.87 956.16 560.82 956.05 560.45 955.23 560.42 955.18 560.42 955.17 560.27 954.83 560.23 954.75 560.2 954.68 560.17 954.6 559.82 953.84 559.05 952.13 558.78 951.53 558.29 950.45 558.81 951.2 559.16 951.71 560.14 953.13 560.73 953.98 560.74 954 560.79 954.08 561.03 954.42 561.08 954.5 561.15 954.6 561.79 955.52 561.97 955.78 562.24 956.18 562.61 956.71 562.78 956.95 562.79 956.96 565.01 960.18 569.52 966.73 569.54 966.75 1087 1716.14"/><polygon class="cls-6" points="558.31 950.17 304.16 -6 461.13 -6 558.31 950.17"/><polygon class="cls-7" points="813.72 -6 558.51 954.17 656.09 -6 813.72 -6"/><polygon class="cls-8" points="558.31 956.07 558.28 956.32 558.27 956.42 558.18 957.37 558.17 957.42 558.17 957.49 558.12 957.89 558.05 958.58 460.55 1918 302.63 1918 557.55 958.94 557.64 958.58 557.65 958.56 557.84 957.84 557.96 957.39 558.22 956.41 558.24 956.32 558.31 956.07"/><polygon class="cls-9" points="816.19 1918 658.27 1918 560.67 957.61 560.62 957.15 560.61 957.04 560.6 956.92 560.59 956.83 560.58 956.78 560.56 956.53 560.51 956.07 560.63 956.53 560.68 956.71 560.73 956.89 560.74 956.95 560.79 957.14 560.8 957.18 561.01 957.96 816.19 1918"/><polygon class="cls-10" points="5 385.34 558 954.77 5 559.77 5 385.34"/><polygon class="cls-11" points="554 956.88 553.26 957.65 553.08 957.83 5 1522.19 5 1349.02 552.49 957.96 552.61 957.87 554 956.88"/><polygon class="cls-12" points="1087 412.96 1087 580.76 562.21 955.61 561.97 955.78 561.23 956.31 561.01 956.47 560.41 956.9 560.16 957.08 554.99 960.77 558.11 957.56 558.11 957.55 558.12 957.54 559 956.64 559.36 956.27 559.43 956.2 559.87 955.75 560.38 955.22 560.42 955.18 560.42 955.17 561.08 954.5 1087 412.96"/><polygon class="cls-13" points="1087 1333.03 1087 1499.57 569.54 966.75 569.52 966.73 562.27 959.26 561.01 957.96 560.67 957.61 560.26 957.18 559.84 956.76 559.53 956.44 559.3 956.21 559.3 956.2 558.99 955.88 559.35 956.14 559.43 956.2 559.8 956.46 559.94 956.56 560.37 956.87 560.41 956.9 560.61 957.04 560.75 957.14 560.8 957.17 560.8 957.18 561.58 957.73 565.01 960.18 1087 1333.03"/><polygon class="cls-14" points="561.06 957.02 560.43 956.88 559.05 956.59 559.04 956.58 558.6 956.49 556.93 956.13 556.92 956.13 555.01 955.71 555 955.71 553.47 955.38 553.45 955.38 5 836.99 5 726.9 556.91 955.3 556.92 955.3 557.91 955.72 558.11 955.8 558.12 955.8 558.79 956.08 559.26 956.27 559.33 956.3 560.54 956.81 561.06 957.02"/><polygon class="cls-15" points="561.06 954.41 560.36 954.7 559.2 955.18 557.91 955.72 557.77 955.77 556.93 956.13 556.92 956.13 552.74 957.86 552.73 957.86 5 1184.53 5 1074.43 539.72 959.02 539.75 959.01 539.78 959.01 555 955.71 555.01 955.71 555.65 955.58 556.91 955.3 556.92 955.3 559.39 954.77 560.47 954.54 561.06 954.41"/><polygon class="cls-16" points="1087 1068.88 1087 1173.89 562.8 956.96 562.79 956.96 562.78 956.95 562.08 956.66 561.23 956.31 560.87 956.16 560.55 956.03 559.87 955.75 559.68 955.67 559.09 955.42 558.85 955.33 558.15 955.04 557.82 954.9 556.64 954.41 557.87 954.67 557.92 954.69 558.59 954.83 558.85 954.89 559.29 954.98 559.3 954.98 559.55 955.04 560.04 955.15 560.05 955.15 560.38 955.22 560.45 955.23 561.79 955.52 562.21 955.61 566.74 956.59 566.8 956.6 570.59 957.42 1087 1068.88"/><polygon class="cls-17" points="1087 736.2 1087 840.4 566.09 952.84 561.79 953.77 561.78 953.77 560.87 953.97 560.74 954 560.64 954.02 560.73 953.98 560.91 953.91 562.15 953.39 562.16 953.38 569.67 950.28 1087 736.2"/><polygon class="cls-18" points="1087 906.64 1087 1003.42 570.6 957.42 570.59 957.42 564.11 956.84 562.61 956.71 562.09 956.66 562.08 956.66 561.06 956.57 560.89 956.56 560.63 956.53 560.56 956.53 559.8 956.46 559.68 956.45 559.53 956.44 559.22 956.41 559.17 956.4 558.66 956.36 558.28 956.32 558.24 956.32 557.51 956.26 556.77 956.19 555.78 956.1 555.35 956.06 553.95 955.94 550.15 955.6 553.01 955.34 553.19 955.32 556 955.07 556.23 955.05 556.28 955.04 557.82 954.9 558.59 954.83 559.4 954.76 559.49 954.75 560.2 954.68 560.38 954.67 560.46 954.66 560.97 954.61 561.15 954.6 563.99 954.34 564 954.34 1087 906.64"/><polygon class="cls-19" points="566.85 956.6 559.97 957.21 558.51 957.34 558.3 957.36 558.29 957.36 558.2 957.37 552.74 957.86 552.73 957.86 539.8 959.01 539.75 959.01 539.72 959.02 5 1006.65 5 905.36 553.45 955.38 553.47 955.38 555.65 955.58 557.77 955.77 558.11 955.8 558.12 955.8 558.88 955.87 558.89 955.87 559.5 955.93 559.67 955.95 561.51 956.11 566.85 956.6"/><path class="cls-20" d="M75.5,1918l-76-262.64c0-38.7,94.55-70.36,210.1-70.36H869.4c115.55,0,210.1,31.66,210.1,70.36L1041,1918"/><path class="cls-21" d="M1086.5,1628.08v193c-75.48,28.15-245.1,10.64-531.95,9.58-264-1-474.42,19-549-32.2V1653c78-132.84,269.85-107,549.05-107C815.1,1546,1000.76,1522.76,1086.5,1628.08Z"/><path class="cls-22" d="M1083.5,1665.84v82.55c-47.66,37.75-212.35,21.06-529.37,20.19-334-.92-576.75,24.61-539.94-79.84,49.89-141.57,242-118.38,539.94-118.38C835,1570.36,1023.22,1549.06,1083.5,1665.84Z"/><path class="cls-23" d="M878.73,417.09l-.24.56"/><path class="cls-23" d="M622.5,528l0,0"/><path d="M633.36,538.55a.17.17,0,0,1,.15.14.46.46,0,0,1,0,.23.66.66,0,0,1-.15.3.23.23,0,0,1-.31,0,.3.3,0,0,1-.07-.15,4.36,4.36,0,0,1-.14-1,.61.61,0,0,1,.52.54"/><path d="M52.78,213.48l17-2.3q-.33,4.66-.51,9.75T69,231.12q-.1,5.1-.16,9.95t0,9.06q0,4.23,0,8.88t.16,9.51q.1,4.85.27,9.75c.11,3.27.25,6.45.43,9.56h-10c.21-3.11.38-6.29.51-9.56s.22-6.52.29-9.75.13-6.41.16-9.51.06-6.06.06-8.88,0-5.88-.08-9.09-.12-6.31-.19-9.29-.15-5.68-.24-8.13S60,219.31,60,218l-7.2.66Z"/><path d="M125.72,250.24a90.43,90.43,0,0,1-1.51,17.86,41.57,41.57,0,0,1-4.16,12.11,18,18,0,0,1-6.36,6.9,15.86,15.86,0,0,1-16.12,0,18.33,18.33,0,0,1-6.41-6.9,40.37,40.37,0,0,1-4.22-12.11,91.28,91.28,0,0,1-1.5-17.86,91,91,0,0,1,1.5-17.8,40.47,40.47,0,0,1,4.22-12.11,18.59,18.59,0,0,1,6.41-6.93,15.74,15.74,0,0,1,16.12,0,18.25,18.25,0,0,1,6.36,6.93,41.68,41.68,0,0,1,4.16,12.11A90.14,90.14,0,0,1,125.72,250.24Zm-9.13,0a135.43,135.43,0,0,0-.89-15,48.17,48.17,0,0,0-2.17-10,13.51,13.51,0,0,0-3.39-5.62,6.66,6.66,0,0,0-4.51-1.75,7,7,0,0,0-4.62,1.73,13.12,13.12,0,0,0-3.46,5.59,45.81,45.81,0,0,0-2.2,10,146.94,146.94,0,0,0,0,30.24,46.05,46.05,0,0,0,2.2,10A12.93,12.93,0,0,0,101,281a7,7,0,0,0,4.62,1.7,7.16,7.16,0,0,0,4.65-1.7,12.77,12.77,0,0,0,3.49-5.56,45.65,45.65,0,0,0,2.17-10A115.27,115.27,0,0,0,116.59,250.24Z"/><rect class="cls-24" x="33.93" y="173.57" width="110.35" height="4.15"/><rect class="cls-24" x="33.34" y="76.27" width="110.35" height="4.15"/><rect class="cls-24" x="29.78" y="178.91" width="120.44" height="10.09"/><rect class="cls-24" x="28" y="65" width="120.44" height="10.09"/><path class="cls-25" d="M141.91,173.57c5.77-24.73-23.24-46-51.91-46s-60.37,22-51.91,46"/><path class="cls-26" d="M141.32,81.32c5.76,24.73-23.24,46-51.91,46s-60.37-22-51.92-46"/><path class="cls-27" d="M142,171.71a1,1,0,0,0,.13-1.41,2.73,2.73,0,0,0-1.3-.87,29.42,29.42,0,0,0-7.56-2,12.57,12.57,0,0,1-3.86-.78,3.32,3.32,0,0,1-2.09-3.06l-7.64-3.47c-4-1.84-8.3-3.85-10.82-7.51a21,21,0,0,0-1.38-2c-1.18-1.33-3.11-4.38-4.32-3.08-1,1-7.18-3.57-7.5-6.67s-4.08-3.45-3.56-6.52c.14-.89-.62-6.48,0-7.12s8.67-1,9.49-1.19c2.84-.75,5.34-.59,8.9-2.37,4.75-2.38,9.49-4.75,13.64-7.12-.32-1.3-1.75-1.06-3-1.55-3.29-1.29-7.1-2.56-10.23-.9-1.86,1-3.19,2.9-5.2,3.51-1.39.42-2.9.14-4.34.35-3.24.46-6,3.32-9.24,3-3.1-.25-5.61-3.32-8.72-3-1.77.16-3.28,1.4-5,1.74-2.3.43-4.59-.77-6.54-2.08s-3.92-2.82-6.25-3.11-5.09,1.27-5.05,3.62c0,.65-.35.74-.47,1.37a67.2,67.2,0,0,0,12.46,5.34c1.9.53,4.69.81,7.12,1.78,3,1.19,7-.27,8.3,1.19,1.72,1.88-4.49,5.78-4.74,8.31-.32,3.12-2.3,6-3.07,9-.59,2.29-.67,4.83-2.15,6.67-2.44,3-7.16,2.49-10.72,4.06a42.62,42.62,0,0,0-4.14,2.51c-4.28,2.55-9.46,3.1-14,5.12a47.44,47.44,0,0,0-7.06,4.2c-1.62,1.11-3.45,2.61-3.23,4.56l20.34-.17c8-.08,16,.29,24,.23,7.81-.06,16.7.17,24.92,0,4.41-.1,8.3-.6,12.46-.6C128.29,171.79,134.2,172.39,142,171.71Z"/><path class="cls-28" d="M44.85,100.46a21.68,21.68,0,0,0,1.93,4.18c1.22,2.22,2.52,4.51,4.63,5.91a14.28,14.28,0,0,0,3.72,1.6,3.5,3.5,0,0,0,2.8,0,2.38,2.38,0,0,0,1-2.32,7.14,7.14,0,0,0-.94-2.47,16.77,16.77,0,0,0-3.66-5.15c-1.11-.92-2.51-1.63-3.06-3A9.91,9.91,0,0,1,51,95.83c-.07-2.07-3.74-8.73-6.56-6.37C43.05,90.63,44.44,99.05,44.85,100.46Z"/><path class="cls-28" d="M125.91,144.28c1,.89,2,1.78,2.89,2.72,1.48,1.49,2.82,3.11,4.16,4.72a11.94,11.94,0,0,1,1.52,2.15c1.08,2.11.84,4.64.34,6.95-.21,1-.89,2.18-1.82,1.85-.73-.25-.81-1.22-.83-2-.13-3.77-1.95-7.3-4.19-10.34-1.62-2.19-4.27-4.27-5.5-6.67C120.84,140.48,124.94,143.4,125.91,144.28Z"/><path class="cls-29" d="M1008.1,97s32.16-21.27,40.82-36.56l1.92-3.42a24.49,24.49,0,0,0-42.77-23.62A24.49,24.49,0,0,0,965.3,57l1.92,3.42C975.88,75.73,1008,97,1008,97Z"/><path class="cls-29" d="M910,97s32.16-21.27,40.82-36.56L952.76,57A24.49,24.49,0,0,0,910,33.4,24.49,24.49,0,0,0,867.22,57l1.91,3.42C877.8,75.73,910,97,910,97Z"/><path class="cls-29" d="M805.1,97s32.16-21.27,40.82-36.56L847.84,57A24.49,24.49,0,0,0,805.07,33.4,24.49,24.49,0,0,0,762.3,57l1.92,3.42C772.88,75.73,805,97,805,97Z"/><polygon class="cls-30" points="798.79 693.56 715.7 976.66 946.39 786.95 798.79 693.56"/><rect class="cls-30" x="776.13" y="721.08" width="202.54" height="22.11" rx="11.05" transform="translate(526.07 -355.25) rotate(32.25)"/><path class="cls-31" d="M804.39,716.15c-4.1,6.81-2.09,15.83-5.43,23a57.19,57.19,0,0,1-4.19,6.73,74.24,74.24,0,0,0-6.29,13.56,1010.28,1010.28,0,0,0-40,130.69c-5.88,25.15-11.18,51.4-26.52,72.18,12.35-2.17,17.69-16.94,28-24.13,4-2.83,9.06-4.64,11.76-8.76,1.35-2.07,2-4.54,3.42-6.54,3.19-4.45,9.24-5.41,14.29-7.52,16.32-6.82,23.82-27.19,40.22-33.84,4.71-1.92,10.18-2.73,13.62-6.47,1.71-1.86,2.72-4.27,4.36-6.18,2.79-3.24,7.06-4.71,10.7-7,11.88-7.38,17.47-23.54,30.8-27.78,2.26-.71,4.68-1,6.74-2.25a19.53,19.53,0,0,0,5-4.86,141.19,141.19,0,0,1,23.59-23c5-3.82,10.7-8.14,11.16-14.4.39-5.16-3.2-9.94-7.61-12.65s-9.59-3.83-14.58-5.22c-7.32-2-14.6-4.83-20.47-9.66s-10.18-11.63-16.46-16c-5-3.51-11-5.31-16.58-7.7-11.09-4.7-21-11.76-30.8-18.77l-17.07-12.18c-2.92,1.28-2.31,6.56.83,7.14l-2.61,17.75"/><circle class="cls-32" cx="822.87" cy="763.99" r="18.28"/><circle class="cls-32" cx="787.62" cy="875.04" r="18.28"/><circle class="cls-32" cx="861.29" cy="829.32" r="18.28"/><circle class="cls-32" cx="785.47" cy="815.92" r="18.28"/><circle class="cls-32" cx="902.1" cy="789.9" r="18.28"/><path class="cls-33" d="M829.07,801.64c-.87-.29-1.57,1-1.26,1.82a9.29,9.29,0,0,0,1.64,2.19c1.52,2.07.75,5.13-.9,7.09s-4,3.2-6.08,4.71c-.32.24-.67.54-.66.93a1.07,1.07,0,0,0,.48.74c1.83,1.4,4.43.25,6.42-.91a2.2,2.2,0,0,0,1-.86,2.82,2.82,0,0,0,0-1.63C829.39,813,831,810.5,832,808a6.75,6.75,0,0,0,.56-4.71c-.53-1.53-2.43-2.65-3.83-1.84"/><path class="cls-33" d="M759.61,894.9c-.47-.19-1.16,1.56-1.16,2.61A9.44,9.44,0,0,0,759,900c.47,2.34-.67,6.43-2.1,9.32a64.14,64.14,0,0,1-4.71,7.38,3.38,3.38,0,0,0-.6,1.33,1.21,1.21,0,0,0,.13.84c.8,1.4,2.63-.63,4.09-2.56a5.17,5.17,0,0,0,.78-1.32,9.11,9.11,0,0,0,.38-2.1c.38-3.4,1.88-7,3.06-10.43a21,21,0,0,0,1.37-6.18c0-1.85-.89-2.88-1.92-1.54"/><path class="cls-33" d="M842.13,773.26a.94.94,0,0,1,1.71,0,8.17,8.17,0,0,1,.38,2.32,4,4,0,0,0,4.55,3c2-.2,4-1.27,5.93-2,.3-.12.66-.21.88,0a.94.94,0,0,1,.17.72c-.17,2.05-2.21,3.37-3.93,4.22a1.74,1.74,0,0,1-1,.26c-.41-.07-.67-.47-.95-.81-1.38-1.63-3.65-1.79-5.65-2.3a4.36,4.36,0,0,1-3-2,3,3,0,0,1,1-3.74"/><path class="cls-33" d="M806.86,718.43a7.62,7.62,0,0,0-8.57,6.1c1.3.68,2.88.22,4.34.07s3.33.35,3.59,1.8c.24,1.26-1,2.37-2.18,2.75s-2.56.29-3.79.68a5.35,5.35,0,0,0-3.47,6.06,15.41,15.41,0,0,0,11.87-11.43l-7.23-2.28c1.06-1.18,2.87-1.16,4.43-1.5s3.27-1.72,2.68-3.2a2.24,2.24,0,0,0-3,.09"/><path class="cls-33" d="M841,846.49c1,.9.31,6.62-1.39,11.87-.55.26-.6-1.07-.78-1.94s-.73-1.11-1.45.63a12.67,12.67,0,0,0-.91,4.56c0,1,.29,1.58.32,2.65a28.81,28.81,0,0,1-2.24,9.42c-.47-4.07.89-12.36,3.32-20.25l2.3.44a10.62,10.62,0,0,0,0-4,12.63,12.63,0,0,1,1-5.38c.48-.55.69.15.46,1.5"/><path class="cls-33" d="M793.71,829.87c6.47,2.25,10.85,6.94,9.08,9.74-2.51-.49-4.64-1.87-6.81-3s-5.41-2.11-6.84-1.4c-1.24.61-.16,2.13,1.49,3.22s3.77,2,5.4,3.06c3.25,2.17,3.79,5,1.17,6.15-8.12-4.65-12.41-10.92-10.48-15.31L799.56,836c-.83-1.47-3.66-2.72-5.85-4s-3.88-3.34-1.93-3.84c1.77.12,3.89,1.1,4.53,2.11"/><path class="cls-28" d="M820.33,750.18a3,3,0,0,0-4.94,1.37,1.28,1.28,0,0,0,.1,1.05c.36.52,1.18.43,1.73.09a7.41,7.41,0,0,1,1.61-1c.51-.16,1.09-.07,1.58-.28s.75-1,.27-1.26"/><path class="cls-28" d="M828.8,774.24l-1-.27-2.63,3.77c1.34.43,2.76-.18,4-.77.81-.39,1.77-1,1.6-1.92a.87.87,0,0,1-.88-.87,2.51,2.51,0,0,0-2.15-.27"/><path class="cls-28" d="M810.91,765.16a3.49,3.49,0,0,0-.47,3,2,2,0,0,0,2.5,1.18c.19-.1.36-.24.55-.35.63-.37,1.41-.43,2.07-.74s1.23-1.12.87-1.76c-.76-.78-1.85-1.61-2.8-1.1-.17.09-.33.22-.51.2-.69-.07,0-1.48-.65-1.77l-1.63,1.87"/><path class="cls-28" d="M904.2,801.6l-.48,2c.28.81,1.52.62,2.19.09s1.41-1.28,2.24-1.05a6.2,6.2,0,0,0,.69.23,1,1,0,0,0,1-.75,2.72,2.72,0,0,0,0-1.3c-.06-.38-.17-.82-.53-1-.52-.23-1,.34-1.57.53-1,.35-2.27-.7-3.14-.06-.55.4-.54,1.21-.47,1.89"/><path class="cls-28" d="M888.17,781.47a17.18,17.18,0,0,0-1.1,4.41l1.62-2.29a1.92,1.92,0,0,0,.51-1.7c-.22-.6-1-.8-1.59-.92"/><path class="cls-28" d="M914.58,784.7a6.65,6.65,0,0,1-1.36,2.52,2.94,2.94,0,0,1-1.8,1.1,1.39,1.39,0,0,1-1.55-1.16c0-.81.83-1.7.31-2.33a1.26,1.26,0,0,0-.69-.34,5.58,5.58,0,0,0-2.44,0,1.78,1.78,0,0,1,1.56-1.89,5.13,5.13,0,0,1,2.65.48c-.35.45.29,1,.86,1.07s1.19-.2,1.68.08l-.2,1.74"/><path class="cls-28" d="M899.35,790.42l-.47,1.65a1.73,1.73,0,0,0,1.92-.2,1.27,1.27,0,0,0,0-1.82c-.49-.4-1.45-.07-1.39.56"/><path class="cls-28" d="M801.73,814.84,799.9,820a1.15,1.15,0,0,1-.35.58,1.17,1.17,0,0,1-.92.11,2.51,2.51,0,0,1-1.59-.68c-.68-.81-.17-2,.47-2.89s1.44-1.77,1.26-2.81c-.08-.46-.36-.9-.25-1.35.19-.76,1.37-.81,1.88-.23a2.54,2.54,0,0,1,.31,2.22"/><path class="cls-28" d="M770.52,815.87a2.33,2.33,0,0,0,.69,3c1,.56,2.54-.3,2.36-1.42a6.32,6.32,0,0,0-.33-.92,2.48,2.48,0,0,1,.19-2.06c-.56-.09-1.07-.4-1.62-.54a1.4,1.4,0,0,0-1.54.41.92.92,0,0,0,.53,1.33"/><path class="cls-28" d="M787.42,828.43a5.18,5.18,0,0,0-1.81-1.24,1.79,1.79,0,0,0-2,.53c-.64.94.35,2.33,1.49,2.41a3.49,3.49,0,0,0,2.83-1.66.48.48,0,0,0-.56-.35"/><path class="cls-28" d="M857.14,840.92c-.25-.15-.56-.31-.8-.16a.59.59,0,0,0-.2.29,1.25,1.25,0,0,0,.48,1.29,3.53,3.53,0,0,0,1.33.58c1.62.48,5.6,2.55,6.7.58C862.44,842.3,859.51,842.41,857.14,840.92Z"/><path class="cls-28" d="M870.58,817.82l-.43,3.66a1.41,1.41,0,0,0,1.84-.25,2.16,2.16,0,0,0-1.07-3.45"/><path class="cls-28" d="M857,825.31a3.78,3.78,0,0,0-1.47-2.28,1.54,1.54,0,0,0-1.07-.37,1.94,1.94,0,0,0-1.2.91l-2.52,3.27a3.77,3.77,0,0,0,2.65,1.53,18.25,18.25,0,0,1,2,.1c.63.15,1.27.66,1.23,1.31.35.37.87-.22,1-.7a6.46,6.46,0,0,0,.38-2.81,2.49,2.49,0,0,0-1.66-2.11"/><path class="cls-28" d="M865.85,833.47a4,4,0,0,1,3.52,3,5.05,5.05,0,0,0,.86-2.56c0-.91-.8-1.85-1.7-1.74s-1.42,1.24-1.68,2.19a.69.69,0,0,1,.52.66"/><path class="cls-28" d="M798.23,880.5a3.4,3.4,0,0,1-6.08,1.91,1.25,1.25,0,0,1-.32-1c.14-.55.8-.74,1.34-.92A6.39,6.39,0,0,0,797,877a3.36,3.36,0,0,1,.88-1.45c.94-.69,2.39.29,2.48,1.45a3.49,3.49,0,0,1-1.66,2.91"/><path class="cls-28" d="M775.76,866.18l-1,3.19c-.17.54-.14,1.38.42,1.38a.86.86,0,0,0,.53-.26,4,4,0,0,0-.13-5.84"/><path class="cls-28" d="M781.78,885.53a5,5,0,0,0-2.09-1.19,3.79,3.79,0,0,0,1.82,4.43,2.74,2.74,0,0,0,2.12.32,1.56,1.56,0,0,0,1.11-1.68c-.15-.69-.83-1.12-1.45-1.46l-2.44-1.36"/><path class="cls-28" d="M786.6,875a4.5,4.5,0,0,0-1.35-.72c-.55-.17-1.36-.09-1.44.48s.51.84,1,1l2.81,1a2.38,2.38,0,0,0-1.14-2.47"/><path class="cls-28" d="M797.26,865.56a5.67,5.67,0,0,1,2,2.07,1.32,1.32,0,0,0,.4-1.48,3.72,3.72,0,0,0-.9-1.36c-.6-.68-1.37-1.42-2.26-1.29a1.46,1.46,0,0,0,.53,1.35"/><path d="M779.64,1461.71l-30.94-24.34a10.88,10.88,0,0,1-1.82-15.25l79.38-100.92a7.67,7.67,0,0,1,10.76-1.29l34.15,26.86a7.68,7.68,0,0,1,1.28,10.76l-79.43,100-.12.13c-3.26,3.07-5.46,7-12.84,4.31A1.41,1.41,0,0,1,779.64,1461.71Z"/><rect class="cls-34" x="752.18" y="1438.67" width="17.25" height="17.25" rx="8.62" transform="translate(1057.55 -160.63) rotate(38.19)"/><rect class="cls-34" x="843.01" y="1323.19" width="17.25" height="17.25" rx="8.62" transform="translate(1005.59 -241.5) rotate(38.19)"/><rect class="cls-35" x="779.9" y="1316.72" width="57.49" height="140.54" rx="12" transform="translate(1030.5 -203.11) rotate(38.19)"/><path class="cls-36" d="M810.31,1431.37l-45.19-35.54c-34.5,38.7-21.52,35.66-3.31,51.74C786.27,1469.17,787.27,1461.69,810.31,1431.37Z"/><polygon class="cls-36" points="847.12 1358.74 839.09 1352.42 845.8 1343.88 842.28 1341.12 835.57 1349.65 827.54 1343.34 824.77 1346.85 832.81 1353.17 826.49 1361.2 830 1363.97 836.32 1355.93 844.36 1362.25 847.12 1358.74"/><rect x="771.46" y="1419.29" width="4.47" height="24.27" transform="translate(2377.12 1708.23) rotate(128.19)"/><path class="cls-23" d="M809,1450.42l.08.06"/><path class="cls-28" d="M853,1325.12a2.77,2.77,0,0,0-3-.45,7.7,7.7,0,0,0-2.51,2c.22.38.79.13,1.16-.1a4.21,4.21,0,0,1,3.46-.42,3,3,0,0,0,1,.23.7.7,0,0,0,.7-.57l-1.11-.91"/><path class="cls-28" d="M746.38,1428.09a5.12,5.12,0,0,0-.07,1.41,4.45,4.45,0,0,0,.39,1.22,14.64,14.64,0,0,0,5.82,6.63,1,1,0,0,0,.74.19c.53-.16.42-1,.16-1.44-1.25-2.36-3.36-4.26-4.15-6.81a10.8,10.8,0,0,1,.31-6.26,37.82,37.82,0,0,1,2.94-6.52c.47-.88,1.13-2.17-.51-1.92-.75.12-1,.55-1.32,1.17A42.56,42.56,0,0,0,746.38,1428.09Z"/><rect class="cls-37" x="305.32" y="778.03" width="184.35" height="42.66" rx="9.5" transform="translate(150.47 -58.52) rotate(10.38)"/><path d="M486.69,798.66c-1.36,7.45-35.35-6.48-85.42-15.64S313,774.55,314.34,767.1s59.48,1.6,109.55,10.77S488.05,791.21,486.69,798.66Z"/><path class="cls-23" d="M303,853.12l.37.06"/><path class="cls-23" d="M313.54,855.05l-.37-.06"/><path class="cls-38" d="M435.3,1026,275.15,995.64a15,15,0,0,1-12-17.46l9.68-163.94a15.05,15.05,0,0,1,17.46-12L496.8,840a15.05,15.05,0,0,1,12.06,17.46l-45.22,149.8C461.65,1018.09,443.42,1027.46,435.3,1026Z"/><path class="cls-39" d="M440.33,999.27c-2.05,11.17-54.26,5.56-91.92-1.34s-66.53-21.54-64.48-32.72"/><path class="cls-40" d="M356.78,952.22c-37.66-6.89-69.84-3.43-71.89,7.75"/><path class="cls-28" d="M300.16,819.08c-7.23,1.9-10.88,9.84-13,17a158.93,158.93,0,0,0-6.73,43.19c0,2.26,0,4.62,1.08,6.61s3.53,3.4,5.63,2.57l5.6-24.32c1.09-4.73,2.26-9.63,5.24-13.46,2.82-3.64,7-5.94,11-8.14l15.38-8.36c8-4.33,10.46-13,0-15.84C318.8,816.8,305.63,817.65,300.16,819.08Z"/><path class="cls-41" d="M442.48,971.89a17.22,17.22,0,0,0-1.27,6.94c.23,2.35,1.73,4.76,4,5.27,4,.89,6.76-3.75,8.06-7.6A215.85,215.85,0,0,0,462.67,937c.4-2.87.67-6-1-8.42-6.27-8.9-8.47,10.89-9.37,13.69C449.13,952.18,445.75,962,442.48,971.89Z"/><polygon class="cls-42" points="447.64 451.54 359.08 484.91 276.98 293.9 361.6 256.56 447.64 451.54"/><polygon class="cls-42" points="287.19 202.84 324.22 229.95 361.25 257.07 319.25 275.58 277.25 294.1 282.22 248.47 287.19 202.84"/><path class="cls-23" d="M267.89,320.16l.2.45"/><polygon class="cls-43" points="472.17 405.8 447.73 451.5 361.77 256.7 399.3 236.26 472.17 405.8"/><path d="M321,393.05a10.1,10.1,0,0,1,5.67-11.43,5.31,5.31,0,0,1,4.29-.17c1.94.95,2.59,3.38,2.7,5.53s-.09,4.44,1,6.32c1.41,2.55,4.59,3.49,7.49,3.75s5.94.12,8.55,1.4a7.85,7.85,0,0,1,4.4,6.73,6.73,6.73,0,0,1-4.56,6.43c-1.6.48-3.77.62-4.2,2.23a3.24,3.24,0,0,0,.15,1.71c1,3.46,2.65,6.67,3.85,10.05s1.91,7.12.85,10.54-4.33,6.37-7.9,6.07L341.12,438"/><path d="M338.59,323c1.61,6.25,9.4,8.4,13.58,13.33,2.08,2.46,3.21,5.56,4.3,8.59,2.5-1.07,4.15-3.54,5.06-6.11a70.64,70.64,0,0,0,1.81-8c.4-1.78,1.08-3.7,2.67-4.61,1.95-1.13,4.56-.2,6.07,1.46s2.22,3.89,2.95,6a9.79,9.79,0,0,0,2.25,4.14,3.62,3.62,0,0,0,4.34.68c2-1.34,1.32-4.34.42-6.54q-1.74-4.28-3.72-8.47a8,8,0,0,0-2-3c-2.35-1.92-6.36-1-8.32-3.28-1.58-1.86-.86-4.71.3-6.85s2.72-4.26,2.64-6.69c-.1-3-2.81-5.36-5.73-5.87-7.76-1.37-10.36,5.53-15.44,9.36S336.49,314.86,338.59,323Z"/><path d="M284.52,310.19c.12-1.47,1.7-3.88,3.09-4.35s2.86.72,4.26,1.36a6.1,6.1,0,0,0,6.74-1.3c2.7-2.83,1.86-7.74-.75-10.65s-6.46-4.35-10.14-5.66c-3,1.43-7.38,2.94-10.36,4.36.15,1.27.92,2.08,1.43,3.25C280.94,302.07,283.37,310.87,284.52,310.19Z"/><path d="M419.47,437.89c-.51,3,1.57,6.5,4.62,6.66,1.76.09,3.76-.82,5.18.23s1.19,2.86.79,4.4-1,3.2-.32,4.63c.83,1.78,3.39,2.24,5.05,1.2a5.56,5.56,0,0,0,2.27-5.11,13,13,0,0,0-2-5.47c-.88-1.54-1.9-3.25-1.45-5a14.18,14.18,0,0,1,1-2.13c1.45-3.17-.09-6.84-1.62-10-.51-1-1.33-2.25-2.46-2.05a2.7,2.7,0,0,0-1.42,1C426.14,429.59,420.24,433.33,419.47,437.89Z"/><path d="M399.74,342.74a10.81,10.81,0,0,0-3.31,2.18,2.89,2.89,0,0,0-1.17,3.07,4.65,4.65,0,0,0,1.69,1.92,26.18,26.18,0,0,1,5.65,6.36,2.1,2.1,0,0,1,.33.73c.14.88-.8,1.52-1.6,1.91s-1.74,1.06-1.57,1.94a1.83,1.83,0,0,0,.66.94,6.09,6.09,0,0,0,3.64,1.44,24.33,24.33,0,0,1,3.62,0,1.5,1.5,0,0,1,.88.43c.56.65,0,1.62-.53,2.29a2,2,0,0,0,1.77,0"/><path d="M379.8,402a29.55,29.55,0,0,0,7.64,15.79c.87.93,1.88,2,1.89,3.23,0,3.12-5.46,4.2-5.14,7.29,4.4-.79,8.21-3.51,11.51-6.53,2.67-2.46,5.31-6.15,3.74-9.42-1.4-2.92-5.43-3.71-7.07-6.5a2.47,2.47,0,0,1-.4-1.72c.2-1,1.21-1.55,2.11-2q6.21-3,12.58-5.57c.56-.23,1.17-.52,1.35-1.09a1.66,1.66,0,0,0-.16-1.19c-1.08-2.44-3.79-3.63-6.27-4.6-2.15-.84-4.39-1.69-6.69-1.51s-4.67,1.68-5.05,3.95c-.1.61-.14,1.37-.7,1.63a1.52,1.52,0,0,1-1,0C381.14,391.92,378.65,394.4,379.8,402Z"/><path d="M463.6,421.87,458.73,411c-.74-1.66-1.5-3.5-1-5.26a3.94,3.94,0,0,1,7.34-.65c1,.54,1.45-1.6,1.71-2.69s.69-1,.62-2.16a2.8,2.8,0,0,1,1.27-2.87"/><path d="M463.54,420.72a.56.56,0,0,0,.5.1c.39-1.29,1.52-2.23,2-3.47A10.82,10.82,0,0,1,467,415c.15-.19.32-.36.46-.56a4.35,4.35,0,0,0,.35-.63c.5-1,1-2,1.58-3l.41-.75.54-1c.39-.72.79-1.45,1.2-2.17a2.19,2.19,0,0,0,.4-1.33,1.87,1.87,0,0,0-.18-.55l-3-6.92c-.05-.12-.16-.27-.28-.21s-.08.09-.11.14a10,10,0,0,0-.55,1.59,9.34,9.34,0,0,0-.16,1.06,22.84,22.84,0,0,1-1.73,6.22c-.46,1.06-1,2.09-1.42,3.17a23.07,23.07,0,0,0-1.14,8.83,6.47,6.47,0,0,0,.35,2.32,1.37,1.37,0,0,0,.32-.62"/><path class="cls-23" d="M475.19,406.48l0,0"/><path d="M466.58,415.07c-.07,0-.11.06-.13.12a.38.38,0,0,0,0,.18.51.51,0,0,0,.13.24.19.19,0,0,0,.25,0,.31.31,0,0,0,.05-.12,4,4,0,0,0,.1-.77.5.5,0,0,0-.41.44"/><path d="M378.09,247.73a30.26,30.26,0,0,0-.15,5.63,3.7,3.7,0,0,0,.77,2.39,3.5,3.5,0,0,0,2,.86,16.87,16.87,0,0,0,5.26.13,2.76,2.76,0,0,0,1.23-.37,2.39,2.39,0,0,0,.95-1.63c.33-1.76-.38-3.64.19-5.34.72-2.16,3.18-3.17,5.41-3.66.72-.16,1.55-.38,1.85-1.05a2.31,2.31,0,0,0,.1-1.14,5.56,5.56,0,0,0-.75-2.82,1.93,1.93,0,0,0-2.57-.65"/><path d="M382.59,286.39a3.6,3.6,0,0,0,1.05,3.12,6.31,6.31,0,0,0,3,1.61c.73.19,1.58.39,1.91,1.06a2.16,2.16,0,0,1-.71,2.26,3.68,3.68,0,0,0-1.28,2.11,2.1,2.1,0,0,0,1.71,1.93,6.17,6.17,0,0,0,2.76-.18c1.61-.35,3.52-1,3.84-2.61.22-1.13-.48-2.37,0-3.41a2.6,2.6,0,0,1,1.74-1.25c1.3-.36,2.68-.26,4-.57s2.66-1.21,2.79-2.55c.15-1.56-1.49-2.81-3.06-2.85a9,9,0,0,0-4.38,1.5,1.72,1.72,0,0,1-1.37.3,1.18,1.18,0,0,1-.61-.63,4.92,4.92,0,0,1-.15-2.36,2.24,2.24,0,0,0-.81-2.12,2.22,2.22,0,0,0-.95-.23,8.82,8.82,0,0,0-5.61,1.53,21.78,21.78,0,0,1-2.17,1.38A2.8,2.8,0,0,0,382.59,286.39Z"/><path d="M420.35,338.22c2,2.95,6.52,3,8.8,5.74,1.64,2,1.68,4.82,1.1,7.32s-1.69,4.85-2.06,7.38a2.44,2.44,0,0,0,.46,2.21,2.48,2.48,0,0,0,1.43.51A20.46,20.46,0,0,0,440,360.2a4.37,4.37,0,0,0,1.85-1.14,4.71,4.71,0,0,0,.77-1.65,11.55,11.55,0,0,0,.84-4.9c-.24-2-1.49-3.72-1.86-5.69a6.66,6.66,0,0,1,.7-4.44,3.43,3.43,0,0,0,.66-1.75c-.08-1.26-1.64-1.71-2.79-2.22-2.5-1.09-4-3.66-4.93-6.23s-1.43-5.29-2.73-7.68a24.64,24.64,0,0,0-2.4-3.44c-.91-1.15-2-2.4-3.49-2.42-4.14-.05-3.54,6.61-4.58,9.23C420.73,331.09,418.06,334.78,420.35,338.22Z"/><path d="M422,392.85c1.65-.85,3.68-1.59,5.29-.65s1.95,3.37,2.14,5.37a39.57,39.57,0,0,0,3.18,12.32,7.58,7.58,0,0,0,1.19,2c.57.65,1.34,1.12,1.85,1.82,1.42,1.9.48,4.61-.73,6.65a11.84,11.84,0,0,1,5.22,12.72"/><path d="M450.12,377.08a5.8,5.8,0,0,1,.45,3.93c-.07.31-.14.71.13.89a.68.68,0,0,0,.51.06,7.62,7.62,0,0,0,2.65-.89,2.78,2.78,0,0,0,1-.87c.58-.92.17-2.19.66-3.15.16-.32.4-.59.56-.9a1,1,0,0,0,0-1,1.28,1.28,0,0,0-.58-.35l-1.39-.52a2.77,2.77,0,0,0-1.26-.26c-.79.08-2.19-.3-2.75,0C448.9,374.73,449.7,376.24,450.12,377.08Z"/><polygon class="cls-43" points="399.5 235.88 362.13 256.76 287.84 202.96 330.66 188.46 399.5 235.88"/><polygon class="cls-43" points="330.13 188.25 287.31 202.75 282.67 194.25 325.09 180.81 330.13 188.25"/><path class="cls-44" d="M541.56,1297.26c-13.54-41.26-36.18-71.6-64.51-64.94s-49.6,47.64-47.24,91.81a82,82,0,0,0-6.71,56.27c10.26,43.64,53.09,70.9,95.68,60.89s61.57-51.81,51.31-95.45C565.36,1325.74,555.25,1308.76,541.56,1297.26Z"/><path class="cls-45" d="M536.06,1297c-13.09-40.23-33.47-69.8-57.56-64.13-.68.16-1.35.35-2,.56s-1.48.26-2.22.43c-25.13,5.91-44,41.08-44.57,81.18a84.67,84.67,0,0,0-7.8,60.25c10.26,43.64,51.1,71.37,91.22,61.94s57.53-50.86,47.27-94.5C556.07,1324.34,547.51,1308.49,536.06,1297Z"/><circle class="cls-44" cx="497.69" cy="1367.79" r="36.22"/><circle class="cls-46" cx="493.44" cy="1368.79" r="36.22"/><path class="cls-44" d="M485.1,1232.22c.33,1.41-2.45,3.27-6.2,4.15s-7.07.46-7.4-.95,2.9-5.16,6.65-6.05S484.77,1230.82,485.1,1232.22Z"/><path class="cls-28" d="M472.47,1347.61c-2.9,1.91-5.87,3.91-7.79,6.81s-2.51,6.95-.49,9.78c3.48-1,3-6.26,5.15-9.15a26,26,0,0,1,2.82-2.63,3.89,3.89,0,0,0,1.41-3.41c-.27-1.25-2-2.09-2.92-1.17"/><path d="M612.64,682.71,581.7,658.37a10.88,10.88,0,0,1-1.82-15.25L659.26,542.2A7.67,7.67,0,0,1,670,540.91l34.15,26.86a7.68,7.68,0,0,1,1.28,10.76L626,678.49l-.12.13c-3.26,3.07-5.46,7-12.84,4.31A1.41,1.41,0,0,1,612.64,682.71Z"/><rect class="cls-34" x="585.18" y="659.67" width="17.25" height="17.25" rx="8.62" transform="translate(540.22 -224.09) rotate(38.19)"/><rect class="cls-34" x="676.01" y="544.19" width="17.25" height="17.25" rx="8.62" transform="translate(488.26 -304.96) rotate(38.19)"/><rect class="cls-35" x="612.9" y="537.72" width="57.49" height="140.54" rx="12" transform="translate(513.18 -266.57) rotate(38.19)"/><path class="cls-36" d="M643.31,652.37l-45.19-35.54c-34.5,38.7-21.52,35.66-3.31,51.74C619.27,690.17,620.27,682.69,643.31,652.37Z"/><polygon class="cls-36" points="680.12 579.74 672.09 573.42 678.8 564.88 675.28 562.12 668.57 570.65 660.54 564.34 657.77 567.85 665.81 574.17 659.49 582.2 663 584.97 669.32 576.93 677.36 583.25 680.12 579.74"/><rect x="604.46" y="640.29" width="4.47" height="24.27" transform="translate(1494.57 578.9) rotate(128.19)"/><path class="cls-23" d="M642,671.42l.08.06"/><path class="cls-28" d="M686,546.12a2.77,2.77,0,0,0-3-.45,7.7,7.7,0,0,0-2.51,2c.22.38.79.13,1.16-.1a4.21,4.21,0,0,1,3.46-.42,3,3,0,0,0,1,.23.7.7,0,0,0,.7-.57l-1.11-.91"/><path class="cls-28" d="M579.38,649.09a5.12,5.12,0,0,0-.07,1.41,4.45,4.45,0,0,0,.39,1.22,14.64,14.64,0,0,0,5.82,6.63,1,1,0,0,0,.74.19c.53-.16.42-.95.16-1.44-1.25-2.36-3.36-4.26-4.15-6.81a10.8,10.8,0,0,1,.31-6.26,37.82,37.82,0,0,1,2.94-6.52c.47-.88,1.13-2.17-.51-1.92-.75.12-1,.55-1.32,1.17A42.56,42.56,0,0,0,579.38,649.09Z"/></svg>
