<svg id="Layer_1" data-name="Layer 1" xmlns="http://www.w3.org/2000/svg" xmlns:xlink="http://www.w3.org/1999/xlink" width="1080" height="1920" viewBox="0 0 1080 1920"><defs><style>.cls-1{fill:url(#linear-gradient);}.cls-2{fill:url(#linear-gradient-2);}.cls-3{fill:url(#linear-gradient-3);}.cls-4{fill:#f7f7f7;}.cls-5{stroke:#000;stroke-miterlimit:10;stroke-width:0.25px;}.cls-6{fill:#fff;}</style><linearGradient id="linear-gradient" x1="553.57" y1="2440.71" x2="539.34" y2="981.49" gradientTransform="matrix(1, 0, 0, 1, 0.44, -0.26)" gradientUnits="userSpaceOnUse"><stop offset="0" stop-color="#656565"/><stop offset="0.36" stop-color="#00003f"/><stop offset="0.74" stop-color="#86baff"/><stop offset="0.98" stop-color="#3e3e3e"/></linearGradient><linearGradient id="linear-gradient-2" x1="-9.5" y1="1119.42" x2="1071.5" y2="1119.42" gradientTransform="matrix(1, 0, 0, 1, 0.44, -0.26)" gradientUnits="userSpaceOnUse"><stop offset="0" stop-color="#656565"/><stop offset="0.12"/><stop offset="0.42" stop-color="#3e3e3e"/><stop offset="0.95" stop-color="#fff"/></linearGradient><linearGradient id="linear-gradient-3" x1="538.89" y1="1577.56" x2="527.13" y2="489.75" gradientTransform="matrix(1, 0, 0, 1, 0.44, -0.26)" gradientUnits="userSpaceOnUse"><stop offset="0" stop-color="#656565"/><stop offset="0.36" stop-color="#00003f"/><stop offset="0.79" stop-color="#86baff"/><stop offset="0.98" stop-color="#3e3e3e"/></linearGradient></defs><title>game_over_front</title><path class="cls-1" d="M869,1038.13l-654.6-.3c-114.65,0-208.49,86.06-208.54,191.34L81,1943.77l957.9.44,38.52-714.55C1077.43,1124.37,983.67,1038.18,869,1038.13Z"/><path class="cls-2" d="M1071.46,1057.3l-.08,193c-75.5,28.12-245.11,10.53-532,9.34-264-1.1-474.43,18.8-549-32.45l.06-145.43C68.51,949,260.35,974.88,539.55,975,800.1,975.13,985.77,951.94,1071.46,1057.3Z"/><path class="cls-3" d="M1070.44,1104.06l0,82.55c-47.67,37.73-212.36,21-529.37,20-334-1.07-576.77,24.35-539.91-80.08,50-141.55,242.06-118.27,540-118.14C821.93,1008.47,1010.21,987.25,1070.44,1104.06Z"/><ellipse class="cls-4" cx="480.37" cy="1470.79" rx="80.4" ry="95.1"/><ellipse class="cls-4" cx="612.45" cy="1485.66" rx="55.9" ry="66.12"/><circle class="cls-5" cx="496.49" cy="1482.03" r="34.06"/><circle class="cls-5" cx="611.02" cy="1484.45" r="34.06"/><path d="M513.26,1311.7c-14.72-23.32-38.08-39.23-65.77-44.81a110.17,110.17,0,0,0-80.86,15.27l-.53-.84a111.1,111.1,0,0,1,81.59-15.41c28,5.63,51.55,21.71,66.42,45.26Z"/><path d="M590.49,1368.5l-.83-.56a58.57,58.57,0,0,1,81.24-15.62l-.56.83A57.56,57.56,0,0,0,590.49,1368.5Z"/><path d="M515.57,1737.75a93.35,93.35,0,0,1-15-1.24c-26.8-4.38-46-18.6-43.78-32.4l4.93.81c-1.73,10.66,16.42,22.86,39.66,26.65,11.74,1.92,23.1,1.5,32-1.17,8.16-2.46,13.3-6.65,14.09-11.5l4.93.81c-1.13,6.9-7.37,12.4-17.57,15.47A67.34,67.34,0,0,1,515.57,1737.75Z"/><path d="M387.9,1641.55l-4.07-2.91c28.21-39.38,75-61.8,131.85-63.13,56.55-1.29,116.28,18.43,168.19,55.61l-2.92,4.07C575.82,1559.88,444.35,1562.73,387.9,1641.55Z"/><path class="cls-6" d="M481.73,1462.22a9.26,9.26,0,0,0-6.16,6.85,4.61,4.61,0,0,0,.46,3.5,2.39,2.39,0,0,0,3.16.83c1.82-1.27.38-4.66,2.08-6.08.87-.73,2.19-.57,3.21-1.09a2.6,2.6,0,1,0-3.76-2.72"/><path class="cls-6" d="M635.36,1477a7.54,7.54,0,0,0-3.39-6.26,5.07,5.07,0,0,0-2.8-1.09c-1,0-1.79.68-1.56,1.53.42,1.55,3.42,2,4,3.57.3.79-.21,1.5-.12,2.29a2.78,2.78,0,0,0,3.27,1.92c1.22-.43,1.17-2.22-.09-3.06"/></svg>
