<svg id="Layer_1" data-name="Layer 1" xmlns="http://www.w3.org/2000/svg" xmlns:xlink="http://www.w3.org/1999/xlink" width="1080" height="1920" viewBox="0 0 1080 1920"><defs><style>.cls-1{fill:url(#radial-gradient);}.cls-2{fill:url(#linear-gradient);}.cls-3{fill:url(#linear-gradient-2);}.cls-4{fill:url(#linear-gradient-3);}.cls-5{fill:url(#linear-gradient-4);}.cls-6{fill:url(#linear-gradient-5);}.cls-7{fill:url(#linear-gradient-6);}.cls-8{fill:url(#linear-gradient-7);}.cls-9{fill:url(#linear-gradient-8);}.cls-10{fill:url(#linear-gradient-9);}.cls-11{fill:url(#linear-gradient-10);}.cls-12{fill:url(#linear-gradient-11);}.cls-13{fill:url(#linear-gradient-12);}.cls-14{fill:url(#linear-gradient-13);}.cls-15{fill:url(#linear-gradient-14);}.cls-16{fill:url(#linear-gradient-15);}.cls-17{fill:url(#linear-gradient-16);}.cls-18{fill:url(#linear-gradient-17);}.cls-19{fill:url(#linear-gradient-18);}.cls-20{fill:url(#linear-gradient-19);}.cls-21{fill:url(#linear-gradient-20);}.cls-22{fill:url(#linear-gradient-21);}.cls-23{fill:#352900;}.cls-24{fill:url(#radial-gradient-2);}.cls-25{fill:url(#radial-gradient-3);}.cls-26{fill:#e2c791;}.cls-27{fill:#fff;}.cls-28{fill:#262660;}</style><radialGradient id="radial-gradient" cx="541.5" cy="944.12" r="781.48" gradientTransform="translate(0 -0.01) scale(1 1.01)" gradientUnits="userSpaceOnUse"><stop offset="0" stop-color="#fff"/><stop offset="1" stop-color="#80bed6"/></radialGradient><linearGradient id="linear-gradient" y1="489.4" x2="559.26" y2="489.4" gradientUnits="userSpaceOnUse"><stop offset="0.13" stop-color="#80bed6"/><stop offset="0.88" stop-color="#fff"/></linearGradient><linearGradient id="linear-gradient-2" x1="542.63" y1="493.3" x2="1072" y2="493.3" gradientUnits="userSpaceOnUse"><stop offset="0.26" stop-color="#fff"/><stop offset="0.82" stop-color="#80bed6"/><stop offset="0.9" stop-color="#8ec5db"/></linearGradient><linearGradient id="linear-gradient-3" x1="1" y1="1447.89" x2="541.61" y2="1447.89" gradientUnits="userSpaceOnUse"><stop offset="0" stop-color="#80bed6"/><stop offset="0.19" stop-color="#86c1d8"/><stop offset="0.7" stop-color="#fff"/></linearGradient><linearGradient id="linear-gradient-4" x1="543.29" y1="1446.04" x2="1072" y2="1446.04" gradientUnits="userSpaceOnUse"><stop offset="0.32" stop-color="#fff"/><stop offset="0.58" stop-color="#80bed6"/><stop offset="0.84" stop-color="#86c1d8"/></linearGradient><linearGradient id="linear-gradient-5" x1="521.55" y1="724.53" x2="369.12" y2="17.82" gradientUnits="userSpaceOnUse"><stop offset="0" stop-color="#fff"/><stop offset="0.58" stop-color="#bfdeea"/><stop offset="1" stop-color="#80bed6"/></linearGradient><linearGradient id="linear-gradient-6" x1="594.41" y1="822.3" x2="747.24" y2="-165.71" gradientUnits="userSpaceOnUse"><stop offset="0.02" stop-color="#fff"/><stop offset="0.71" stop-color="#80bed6"/><stop offset="0.9" stop-color="#8ec5db"/></linearGradient><linearGradient id="linear-gradient-7" x1="294.81" y1="1448.87" x2="543.31" y2="1448.87" xlink:href="#linear-gradient-3"/><linearGradient id="linear-gradient-8" x1="545.51" y1="1446.04" x2="796.94" y2="1446.04" gradientUnits="userSpaceOnUse"><stop offset="0" stop-color="#80bed6"/><stop offset="0" stop-color="#fff"/><stop offset="0.65" stop-color="#8fc6db"/><stop offset="0.75" stop-color="#86c1d8"/></linearGradient><linearGradient id="linear-gradient-9" x1="-10" y1="687.06" x2="543" y2="687.06" gradientUnits="userSpaceOnUse"><stop offset="0" stop-color="#fff"/><stop offset="0" stop-color="#80bed6"/><stop offset="0.84" stop-color="#fbfdfe"/></linearGradient><linearGradient id="linear-gradient-10" x1="-10" y1="1256.53" x2="539" y2="1256.53" xlink:href="#linear-gradient-3"/><linearGradient id="linear-gradient-11" x1="539.99" y1="703.86" x2="1072" y2="703.86" gradientUnits="userSpaceOnUse"><stop offset="0.39" stop-color="#fff"/><stop offset="0.82" stop-color="#80bed6"/><stop offset="0.9" stop-color="#8ec5db"/></linearGradient><linearGradient id="linear-gradient-12" x1="543.99" y1="1244.73" x2="1072" y2="1244.73" gradientUnits="userSpaceOnUse"><stop offset="0.06" stop-color="#fff"/><stop offset="0.28" stop-color="#f7fbfc"/><stop offset="0.6" stop-color="#86c1d8"/><stop offset="0.84" stop-color="#80bed6"/></linearGradient><linearGradient id="linear-gradient-13" x1="-10" y1="858.96" x2="546.06" y2="858.96" gradientUnits="userSpaceOnUse"><stop offset="0" stop-color="#80bed6"/><stop offset="0.7" stop-color="#fff"/></linearGradient><linearGradient id="linear-gradient-14" x1="-10" y1="1086.47" x2="546.06" y2="1086.47" xlink:href="#linear-gradient-3"/><linearGradient id="linear-gradient-15" x1="541.64" y1="1081.15" y2="1081.15" xlink:href="#linear-gradient-11"/><linearGradient id="linear-gradient-16" x1="545.64" y1="862.11" x2="1072" y2="862.11" gradientUnits="userSpaceOnUse"><stop offset="0.31" stop-color="#fff"/><stop offset="0.82" stop-color="#80bed6"/><stop offset="0.9" stop-color="#8ec5db"/></linearGradient><linearGradient id="linear-gradient-17" x1="535.15" y1="972.03" y2="972.03" xlink:href="#linear-gradient-11"/><linearGradient id="linear-gradient-18" x1="-10" y1="973" x2="551.85" y2="973" xlink:href="#linear-gradient-3"/><linearGradient id="linear-gradient-19" x1="528.69" y1="2098.85" x2="523.63" y2="1579.79" gradientUnits="userSpaceOnUse"><stop offset="0" stop-color="#656565"/><stop offset="0.36" stop-color="#00003f"/><stop offset="0.74" stop-color="#86baff"/><stop offset="0.98" stop-color="#3e3e3e"/></linearGradient><linearGradient id="linear-gradient-20" x1="-9.5" y1="1707.42" x2="1071.5" y2="1707.42" gradientUnits="userSpaceOnUse"><stop offset="0" stop-color="#656565"/><stop offset="0.12"/><stop offset="0.42" stop-color="#3e3e3e"/><stop offset="0.95" stop-color="#fff"/></linearGradient><linearGradient id="linear-gradient-21" x1="536.89" y1="2156.56" x2="525.13" y2="1068.75" gradientUnits="userSpaceOnUse"><stop offset="0" stop-color="#656565"/><stop offset="0.36" stop-color="#00003f"/><stop offset="0.79" stop-color="#86baff"/><stop offset="0.98" stop-color="#3e3e3e"/></linearGradient><radialGradient id="radial-gradient-2" cx="76.67" cy="138.58" fx="43.125697223753825" r="40.84" gradientUnits="userSpaceOnUse"><stop offset="0" stop-color="#fff"/><stop offset="0.47" stop-color="#d0ebf4"/><stop offset="0.87" stop-color="#e2f2f7"/></radialGradient><radialGradient id="radial-gradient-3" cx="76.08" cy="1806.19" fx="42.53239578834678" r="40.84" gradientTransform="matrix(1, 0, 0, -1, 0, 1898.5)" xlink:href="#radial-gradient-2"/></defs><title>game_no_action</title><rect class="cls-1" x="1" y="-20" width="1081" height="1939"/><polygon class="cls-2" points="559.26 972.8 0 151.84 0 6 129.57 6 559.26 972.8"/><polygon class="cls-3" points="1072 11 1072 219.03 545.79 971.08 545.27 971.83 545.05 972.15 545.04 972.15 544.68 972.67 544.35 973.14 544.3 973.2 544.3 973.21 544 973.64 542.63 975.6 543.11 974.56 543.11 974.55 543.12 974.54 544.09 972.42 544.29 971.98 544.3 971.98 544.82 970.84 545.14 970.13 985.88 11 1072 11"/><polygon class="cls-4" points="541.61 976.78 541.24 977.68 541.23 977.71 541.04 978.15 540.99 978.27 540.87 978.57 540.78 978.77 540.53 979.38 540.13 980.33 148.47 1919 1 1919 1 1811.9 539.27 980.39 539.71 979.71 540.35 978.73 540.51 978.48 540.67 978.24 541 977.73 541.07 977.61 541.61 976.78"/><polygon class="cls-5" points="1072 1743.14 1072 1919 968.44 1919 547.27 981.94 546.58 980.4 546.29 979.76 546.06 979.24 546.01 979.14 545.87 978.83 545.82 978.72 545.45 977.89 545.42 977.84 545.42 977.83 545.27 977.49 545.23 977.41 545.2 977.34 545.17 977.26 544.82 976.49 544.05 974.77 543.78 974.17 543.29 973.08 543.81 973.84 544.16 974.35 545.14 975.78 545.73 976.63 545.74 976.65 545.79 976.73 546.03 977.08 546.08 977.16 546.15 977.26 546.79 978.18 546.97 978.44 547.24 978.85 547.61 979.38 547.78 979.62 547.79 979.63 550.01 982.87 554.52 989.46 554.54 989.48 1072 1743.14"/><polygon class="cls-6" points="543.31 967.17 289.16 11 446.13 11 543.31 967.17"/><polygon class="cls-7" points="798.72 11 543.51 971.17 641.09 11 798.72 11"/><polygon class="cls-8" points="543.31 978.74 543.28 978.99 543.27 979.09 543.18 980.04 543.17 980.09 543.17 980.16 543.12 980.57 543.05 981.26 448.29 1919 294.81 1919 542.55 981.62 542.64 981.26 542.65 981.24 542.84 980.52 542.96 980.06 543.22 979.08 543.24 978.99 543.31 978.74"/><polygon class="cls-9" points="796.94 1919 641.64 1919 609.43 1602 545.67 974.61 545.62 974.15 545.61 974.04 545.6 973.92 545.59 973.83 545.58 973.78 545.56 973.53 545.51 973.07 545.63 973.53 545.68 973.71 545.73 973.89 545.74 973.95 545.79 974.14 545.8 974.18 546.01 974.96 712.68 1602 796.94 1919"/><polygon class="cls-10" points="-10 402.34 543 971.77 -10 576.77 -10 402.34"/><polygon class="cls-11" points="539 973.88 538.26 974.65 538.08 974.83 -10 1539.19 -10 1366.02 537.49 974.96 537.61 974.87 539 973.88"/><polygon class="cls-12" points="1072 429.96 1072 597.76 547.21 972.61 546.97 972.78 546.23 973.31 546.01 973.47 545.41 973.9 545.16 974.08 539.99 977.77 543.11 974.56 543.11 974.55 543.12 974.54 544 973.64 544.36 973.27 544.43 973.2 544.87 972.75 545.38 972.22 545.42 972.18 545.42 972.17 546.08 971.5 1072 429.96"/><polygon class="cls-13" points="1072 1350.03 1072 1516.57 554.54 983.75 554.52 983.73 547.27 976.26 546.01 974.96 545.67 974.61 545.26 974.18 544.84 973.76 544.53 973.44 544.3 973.21 544.3 973.2 543.99 972.88 544.35 973.14 544.43 973.2 544.8 973.46 544.94 973.56 545.37 973.87 545.41 973.9 545.61 974.04 545.75 974.14 545.8 974.17 545.8 974.18 546.58 974.73 550.01 977.18 1072 1350.03"/><polygon class="cls-14" points="546.06 974.02 545.43 973.88 544.05 973.59 544.04 973.58 543.6 973.49 541.93 973.13 541.92 973.13 540.01 972.71 540 972.71 538.47 972.38 538.45 972.38 -10 853.99 -10 743.9 541.91 972.3 541.92 972.3 542.91 972.72 543.11 972.8 543.12 972.8 543.79 973.08 544.26 973.27 544.33 973.3 545.54 973.81 546.06 974.02"/><polygon class="cls-15" points="546.06 971.41 545.36 971.7 544.2 972.18 542.91 972.72 542.77 972.77 541.93 973.13 541.92 973.13 537.74 974.86 537.73 974.86 -10 1201.53 -10 1091.43 524.72 976.02 524.75 976.01 524.78 976.01 540 972.71 540.01 972.71 540.65 972.58 541.91 972.3 541.92 972.3 544.39 971.77 545.47 971.54 546.06 971.41"/><polygon class="cls-16" points="1072 1085.88 1072 1190.89 547.8 973.96 547.79 973.96 547.78 973.95 547.08 973.66 546.23 973.31 545.87 973.16 545.55 973.03 544.87 972.75 544.68 972.67 544.09 972.42 543.85 972.33 543.15 972.04 542.82 971.9 541.64 971.41 542.87 971.67 542.92 971.69 543.59 971.83 543.85 971.89 544.29 971.98 544.3 971.98 544.55 972.04 545.04 972.15 545.05 972.15 545.38 972.22 545.45 972.23 546.79 972.52 547.21 972.61 551.74 973.59 551.8 973.6 555.59 974.42 1072 1085.88"/><polygon class="cls-17" points="1072 753.2 1072 857.4 551.09 969.84 546.79 970.77 546.78 970.77 545.87 970.97 545.74 971 545.64 971.02 545.73 970.98 545.91 970.91 547.15 970.39 547.16 970.38 554.67 967.28 1072 753.2"/><polygon class="cls-18" points="1072 923.64 1072 1020.42 555.6 974.42 555.59 974.42 549.11 973.84 547.61 973.71 547.09 973.66 547.08 973.66 546.06 973.57 545.89 973.56 545.63 973.53 545.56 973.53 544.8 973.46 544.68 973.45 544.53 973.44 544.22 973.41 544.17 973.4 543.66 973.36 543.28 973.32 543.24 973.32 542.51 973.26 541.77 973.19 540.78 973.1 540.35 973.06 538.95 972.94 535.15 972.6 538.01 972.34 538.19 972.32 541 972.07 541.23 972.05 541.28 972.04 542.82 971.9 543.59 971.83 544.4 971.76 544.49 971.75 545.2 971.68 545.38 971.67 545.46 971.66 545.97 971.61 546.15 971.6 548.99 971.34 549 971.34 1072 923.64"/><polygon class="cls-19" points="551.85 973.6 544.97 974.21 543.51 974.34 543.3 974.36 543.29 974.36 543.2 974.37 537.74 974.86 537.73 974.86 524.8 976.01 524.75 976.01 524.72 976.02 -10 1023.65 -10 922.36 538.45 972.38 538.47 972.38 540.65 972.58 542.77 972.77 543.11 972.8 543.12 972.8 543.88 972.87 543.89 972.87 544.5 972.93 544.67 972.95 546.51 973.11 551.85 973.6"/><path class="cls-20" d="M1064.5,1669,1026,1919H60.5L17.22,1776.61-15.5,1669c0-29.51,60.65-54.72,144.17-63.58a628.31,628.31,0,0,1,65.93-3.4H854.4C970,1602,1064.5,1632.14,1064.5,1669Z"/><path class="cls-21" d="M1071.5,1645.08v193c-75.48,28.15-245.1,10.64-531.95,9.58-264-1-474.42,19-549-32.2V1670c78-132.84,269.85-107,549.05-107C800.1,1563,985.76,1539.76,1071.5,1645.08Z"/><path class="cls-22" d="M1068.5,1682.84v82.55c-47.66,37.75-212.35,21.06-529.37,20.19-334-.92-576.75,24.61-539.94-79.84,49.89-141.57,242-118.38,539.94-118.38C820,1587.36,1008.22,1566.06,1068.5,1682.84Z"/><path d="M36.78,202.48l17-2.3q-.33,4.66-.51,9.75T53,220.12q-.11,5.1-.16,9.95t-.05,9.06q0,4.23.05,8.88t.16,9.51q.11,4.85.27,9.75c.11,3.27.25,6.45.43,9.56h-10c.21-3.11.38-6.29.51-9.56s.22-6.52.29-9.75.13-6.41.16-9.51.06-6.06.06-8.88,0-5.88-.08-9.09-.12-6.31-.19-9.29-.15-5.68-.24-8.13S44,208.31,44,207l-7.2.66Z"/><path d="M109.72,239.24a90.43,90.43,0,0,1-1.51,17.86,41.57,41.57,0,0,1-4.16,12.11,18,18,0,0,1-6.36,6.9,15.86,15.86,0,0,1-16.12,0,18.33,18.33,0,0,1-6.41-6.9,40.37,40.37,0,0,1-4.22-12.11,91.28,91.28,0,0,1-1.5-17.86,91,91,0,0,1,1.5-17.8,40.47,40.47,0,0,1,4.22-12.11,18.59,18.59,0,0,1,6.41-6.93,15.74,15.74,0,0,1,16.12,0,18.25,18.25,0,0,1,6.36,6.93,41.68,41.68,0,0,1,4.16,12.11A90.14,90.14,0,0,1,109.72,239.24Zm-9.13,0a135.43,135.43,0,0,0-.89-15,48.17,48.17,0,0,0-2.17-10,13.51,13.51,0,0,0-3.39-5.62,6.66,6.66,0,0,0-4.51-1.75A7,7,0,0,0,85,208.54a13.12,13.12,0,0,0-3.46,5.59,45.81,45.81,0,0,0-2.2,10,123,123,0,0,0-.78,15.09,123.61,123.61,0,0,0,.78,15.15,46.05,46.05,0,0,0,2.2,10A12.93,12.93,0,0,0,85,270a7,7,0,0,0,4.62,1.7,7.16,7.16,0,0,0,4.65-1.7,12.77,12.77,0,0,0,3.49-5.56,45.65,45.65,0,0,0,2.17-10A115.27,115.27,0,0,0,100.59,239.24Z"/><rect class="cls-23" x="20.93" y="161.57" width="110.35" height="4.15"/><rect class="cls-23" x="20.34" y="64.27" width="110.35" height="4.15"/><rect class="cls-23" x="16.78" y="166.91" width="120.44" height="10.09"/><rect class="cls-23" x="15" y="53" width="120.44" height="10.09"/><path class="cls-24" d="M128.91,161.57c5.77-24.73-23.24-46-51.91-46s-60.37,22-51.91,46"/><path class="cls-25" d="M128.32,69.32c5.76,24.73-23.24,46-51.91,46s-60.37-22-51.92-46"/><path class="cls-26" d="M129,159.71a1,1,0,0,0,.13-1.41,2.73,2.73,0,0,0-1.3-.87,29.42,29.42,0,0,0-7.56-2,12.57,12.57,0,0,1-3.86-.78,3.32,3.32,0,0,1-2.09-3.06l-7.64-3.47c-4-1.84-8.3-3.85-10.82-7.51a21,21,0,0,0-1.38-2c-1.18-1.33-3.11-4.38-4.32-3.08-1,1-7.18-3.57-7.5-6.67s-4.08-3.45-3.56-6.52c.14-.89-.62-6.48,0-7.12s8.67-1,9.49-1.19c2.84-.75,5.34-.59,8.9-2.37,4.75-2.38,9.49-4.75,13.64-7.12-.32-1.3-1.75-1.06-3-1.55-3.29-1.29-7.1-2.56-10.23-.9-1.86,1-3.19,2.9-5.2,3.51-1.39.42-2.9.14-4.34.35-3.24.46-6,3.32-9.24,3-3.1-.25-5.61-3.32-8.72-3-1.77.16-3.28,1.4-5,1.74-2.3.43-4.59-.77-6.54-2.08s-3.92-2.82-6.25-3.11-5.09,1.27-5.05,3.62c0,.65-.35.74-.47,1.37a67.2,67.2,0,0,0,12.46,5.34c1.9.53,4.69.81,7.12,1.78,3,1.19,7-.27,8.3,1.19,1.72,1.88-4.49,5.78-4.74,8.31-.32,3.12-2.3,6-3.07,9-.59,2.29-.67,4.83-2.15,6.67-2.44,3-7.16,2.49-10.72,4.06a42.62,42.62,0,0,0-4.14,2.51c-4.28,2.55-9.46,3.1-14,5.12a47.44,47.44,0,0,0-7.06,4.2c-1.62,1.11-3.45,2.61-3.23,4.56l20.34-.17c8-.08,16,.29,24,.23,7.81-.06,16.7.17,24.92,0,4.41-.1,8.3-.6,12.46-.6C115.29,159.79,121.2,160.39,129,159.71Z"/><path class="cls-27" d="M31.85,88.46a21.68,21.68,0,0,0,1.93,4.18c1.22,2.22,2.52,4.51,4.63,5.91a14.28,14.28,0,0,0,3.72,1.6,3.5,3.5,0,0,0,2.8,0,2.38,2.38,0,0,0,1-2.32A7.14,7.14,0,0,0,45,95.39a16.77,16.77,0,0,0-3.66-5.15c-1.11-.92-2.51-1.63-3.06-3A9.91,9.91,0,0,1,38,83.83c-.07-2.07-3.74-8.73-6.56-6.37C30.05,78.63,31.44,87.05,31.85,88.46Z"/><path class="cls-27" d="M112.91,132.28c1,.89,2,1.78,2.89,2.72,1.48,1.49,2.82,3.11,4.16,4.72a11.94,11.94,0,0,1,1.52,2.15c1.08,2.11.84,4.64.34,6.95-.21,1-.89,2.18-1.82,1.85-.73-.25-.81-1.22-.83-2-.13-3.77-2-7.3-4.19-10.34-1.62-2.19-4.27-4.27-5.5-6.67C107.84,128.48,111.94,131.4,112.91,132.28Z"/><path class="cls-28" d="M1017.1,98s32.16-21.27,40.82-36.56l1.92-3.42a24.49,24.49,0,0,0-42.77-23.62A24.49,24.49,0,0,0,974.3,58l1.92,3.42C984.88,76.73,1017,98,1017,98Z"/><path class="cls-28" d="M919,98s32.16-21.27,40.82-36.56L961.76,58A24.49,24.49,0,0,0,919,34.4,24.49,24.49,0,0,0,876.22,58l1.91,3.42C886.8,76.73,919,98,919,98Z"/><path class="cls-28" d="M814.1,98s32.16-21.27,40.82-36.56L856.84,58A24.49,24.49,0,0,0,814.07,34.4,24.49,24.49,0,0,0,771.3,58l1.92,3.42C781.88,76.73,814,98,814,98Z"/></svg>
