<svg id="Layer_1" data-name="Layer 1" xmlns="http://www.w3.org/2000/svg" xmlns:xlink="http://www.w3.org/1999/xlink" viewBox="0 0 220.72 220.45">
  <defs>
    <style>
      .cls-1, .cls-4, .cls-5 {
        stroke-miterlimit: 10;
        stroke-width: 0.25px;
      }

      .cls-1 {
        fill: url(#linear-gradient);
        stroke: url(#radial-gradient);
      }

      .cls-2, .cls-4, .cls-5 {
        fill: none;
      }

      .cls-3 {
        fill: #ebf2f1;
      }

      .cls-4 {
        stroke: url(#radial-gradient-2);
      }

      .cls-5 {
        stroke: url(#radial-gradient-3);
      }

      .cls-6 {
        fill: #fff;
      }

      .cls-7 {
        fill: #fafcfc;
      }
    </style>
    <linearGradient id="linear-gradient" x1="-25.72" y1="196.09" x2="122.83" y2="196.09" gradientTransform="translate(50.67 -162.23)" gradientUnits="userSpaceOnUse">
      <stop offset="0" stop-color="#fff"/>
      <stop offset="0.12" stop-color="#fbfbfb"/>
      <stop offset="0.24" stop-color="#eee"/>
      <stop offset="0.37" stop-color="#d8d8d8"/>
      <stop offset="0.5" stop-color="#bababa"/>
      <stop offset="0.63" stop-color="#939393"/>
      <stop offset="0.77" stop-color="#636363"/>
      <stop offset="0.9" stop-color="#2c2c2c"/>
      <stop offset="1"/>
    </linearGradient>
    <radialGradient id="radial-gradient" cx="48.55" cy="196.09" r="54.01" gradientTransform="translate(50.67 -162.23)" xlink:href="#linear-gradient"/>
    <radialGradient id="radial-gradient-2" cx="47.06" cy="352.37" r="46.04" gradientTransform="translate(13.31 -148.98) rotate(-11.26)" xlink:href="#linear-gradient"/>
    <radialGradient id="radial-gradient-3" cx="10.47" cy="-819.86" r="20.66" gradientTransform="matrix(0.98, -0.2, -0.2, -0.98, -82.09, -628.05)" xlink:href="#linear-gradient"/>
  </defs>
  <title>glass_rotated_02</title>
  <g>
    <rect class="cls-1" x="24.95" y="16.67" width="148.55" height="34.37" rx="9.5" transform="translate(-4.7 20.03) rotate(-11.26)"/>
    <path d="M165.82,6.82c1.19,6-28.4,5.66-68.63,13.67S28.55,40.38,27.36,34.4s45-16.48,85.25-24.49S164.63.84,165.82,6.82Z"/>
    <path class="cls-2" d="M44.39,102.2l.3-.06"/>
    <path class="cls-2" d="M52.89,100.51l-.3.06"/>
    <path class="cls-3" d="M194.87,192.35l-129,24.87a12.13,12.13,0,0,1-14.21-9.5L10.23,82.06a12.13,12.13,0,0,1,9.49-14.22l166-33.05a12.14,12.14,0,0,1,14.22,9.5l10.64,125.64C212.27,178.62,201.39,191.06,194.87,192.35Z"/>
    <path class="cls-4" d="M190.7,170.86c1.79,9-39,20.28-69.24,26.3s-56.23,3.64-58-5.34"/>
    <path class="cls-5" d="M114.15,160.44c-30.26,6-53.34,18.19-51.55,27.16"/>
    <path class="cls-6" d="M32.18,77.54c-4.86,3.57-5.23,10.6-4.72,16.6a128.2,128.2,0,0,0,7.79,34.35A10.67,10.67,0,0,0,38,133.12c1.39,1.17,3.66,1.5,5,.25L40,113.5c-.59-3.87-1.17-7.89-.08-11.64,1-3.57,3.48-6.53,5.85-9.38l9-10.84c4.68-5.6,4-12.85-4.67-11.87C45.46,70.3,35.85,74.85,32.18,77.54Z"/>
    <path class="cls-7" d="M184.18,149.71a13.62,13.62,0,0,0,1.11,5.57c.87,1.7,2.71,3.06,4.59,2.76,3.24-.52,4-4.82,3.78-8.09a173.29,173.29,0,0,0-4.73-32.36c-.55-2.27-1.29-4.73-3.25-6-7.33-4.81-3.1,10.67-2.94,13C183.31,133,183.7,141.35,184.18,149.71Z"/>
  </g>
</svg>
