<svg id="Layer_1" data-name="Layer 1" xmlns="http://www.w3.org/2000/svg" xmlns:xlink="http://www.w3.org/1999/xlink" width="240" height="250" viewBox="0 0 240 250"><defs><style>.cls-1,.cls-4,.cls-5{stroke-miterlimit:10;stroke-width:0.25px;}.cls-1{fill:url(#linear-gradient);stroke:url(#radial-gradient);}.cls-2,.cls-4,.cls-5{fill:none;}.cls-3{fill:#ebf2f1;}.cls-4{stroke:url(#radial-gradient-2);}.cls-5{stroke:url(#radial-gradient-3);}.cls-6{fill:#fff;}.cls-7{fill:#fafcfc;}</style><linearGradient id="linear-gradient" x1="27.82" y1="29.9" x2="212.18" y2="29.9" gradientUnits="userSpaceOnUse"><stop offset="0" stop-color="#fff"/><stop offset="0.12" stop-color="#fbfbfb"/><stop offset="0.24" stop-color="#eee"/><stop offset="0.37" stop-color="#d8d8d8"/><stop offset="0.5" stop-color="#bababa"/><stop offset="0.63" stop-color="#939393"/><stop offset="0.77" stop-color="#636363"/><stop offset="0.9" stop-color="#2c2c2c"/><stop offset="1"/></linearGradient><radialGradient id="radial-gradient" cx="120" cy="29.9" r="67.01" xlink:href="#linear-gradient"/><radialGradient id="radial-gradient-2" cx="118.15" cy="223.84" r="57.12" xlink:href="#linear-gradient"/><radialGradient id="radial-gradient-3" cx="72.76" cy="-3581.31" r="25.62" gradientTransform="matrix(1, 0, 0, -1, 0, -3383.5)" xlink:href="#linear-gradient"/></defs><title>glass</title><rect class="cls-1" x="27.82" y="8.57" width="184.35" height="42.66" rx="9.5"/><path d="M207.61,13.14c0,7.57-35.94,0-86.85,0s-88.37,7.57-88.37,0S91.18,4,142.09,4,207.61,5.57,207.61,13.14Z"/><path class="cls-2" d="M36.69,99.8h.38"/><path class="cls-2" d="M47.45,99.8h-.38"/><path class="cls-3" d="M198,246,35,245a15,15,0,0,1-15-15L0,67A15,15,0,0,1,15,52H225a15,15,0,0,1,15,15L222.5,222.5C222.5,233.5,206.25,246,198,246Z"/><path class="cls-4" d="M198.13,218.82c0,11.36-52.36,15.24-90.65,15.24s-69.32-9.21-69.32-20.57"/><path class="cls-5" d="M107.48,187.59c-38.29,0-69.32,9.21-69.32,20.57"/><path class="cls-6" d="M27.81,66.83C21,70,18.88,78.46,18,85.89a159.09,159.09,0,0,0,1.15,43.69c.38,2.23.84,4.55,2.25,6.31s4.09,2.71,6,1.51l1.14-24.92c.22-4.85.48-9.88,2.72-14.19,2.13-4.09,5.81-7.1,9.4-10l13.62-11c7-5.7,7.94-14.69-2.81-15.59C45.73,61.23,32.93,64.44,27.81,66.83Z"/><path class="cls-7" d="M195.32,191.51a17.09,17.09,0,0,0,0,7.05c.65,2.27,2.55,4.37,4.92,4.46,4.06.16,6-4.91,6.56-8.93a215.46,215.46,0,0,0,2.09-40.53c-.12-2.89-.43-6.07-2.5-8.1-7.76-7.63-6.37,12.24-6.74,15.15C198.31,170.92,196.76,181.21,195.32,191.51Z"/></svg>
