<svg id="Layer_1" data-name="Layer 1" xmlns="http://www.w3.org/2000/svg" xmlns:xlink="http://www.w3.org/1999/xlink" width="1080" height="1920" viewBox="0 0 1080 1920"><defs><style>.cls-1{fill:url(#linear-gradient);}.cls-2{fill:url(#linear-gradient-2);}.cls-3{fill:url(#linear-gradient-3);}</style><linearGradient id="linear-gradient" x1="538.69" y1="2096.85" x2="533.63" y2="1577.79" gradientUnits="userSpaceOnUse"><stop offset="0" stop-color="#656565"/><stop offset="0.36" stop-color="#00003f"/><stop offset="0.74" stop-color="#86baff"/><stop offset="0.98" stop-color="#3e3e3e"/></linearGradient><linearGradient id="linear-gradient-2" x1="0.5" y1="1705.42" x2="1081.5" y2="1705.42" gradientUnits="userSpaceOnUse"><stop offset="0" stop-color="#656565"/><stop offset="0.12"/><stop offset="0.42" stop-color="#3e3e3e"/><stop offset="0.95" stop-color="#fff"/></linearGradient><linearGradient id="linear-gradient-3" x1="546.89" y1="2154.56" x2="535.13" y2="1066.75" gradientUnits="userSpaceOnUse"><stop offset="0" stop-color="#656565"/><stop offset="0.36" stop-color="#00003f"/><stop offset="0.79" stop-color="#86baff"/><stop offset="0.98" stop-color="#3e3e3e"/></linearGradient></defs><title>in_game_front</title><path class="cls-1" d="M1074.5,1667,1036,1917H70.5L27.22,1774.61-5.5,1667c0-29.51,60.65-54.72,144.17-63.58a628.31,628.31,0,0,1,65.93-3.4H864.4C980,1600,1074.5,1630.14,1074.5,1667Z"/><path class="cls-2" d="M1081.5,1643.08v193c-75.48,28.15-245.1,10.64-531.95,9.58-264-1-474.42,19-549-32.2V1668c78-132.84,269.85-107,549.05-107C810.1,1561,995.76,1537.76,1081.5,1643.08Z"/><path class="cls-3" d="M1078.5,1680.84v82.55c-47.66,37.75-212.35,21.06-529.37,20.19-334-.92-576.75,24.61-539.94-79.84,49.89-141.57,242-118.38,539.94-118.38C830,1585.36,1018.22,1564.06,1078.5,1680.84Z"/></svg>
