<svg id="Layer_1" data-name="Layer 1" xmlns="http://www.w3.org/2000/svg" width="200" height="380" viewBox="0 0 200 380"><defs><style>.cls-1{fill:#dae5e5;}.cls-1,.cls-3{stroke:#1d1d1b;stroke-miterlimit:10;}.cls-2{fill:none;}.cls-3{fill:#a3c6c5;}</style></defs><title>milk</title><polygon class="cls-1" points="142.09 377.52 24.59 371.02 27.09 112.52 142.09 112.52 142.09 377.52"/><polygon class="cls-1" points="84.41 14.05 112.92 63.49 141.44 112.93 84.37 112.91 27.3 112.88 55.85 63.47 84.41 14.05"/><path class="cls-2" d="M3.57,137.83v.61"/><polygon class="cls-3" points="192.96 337.81 142.21 377.52 142.21 112.77 195.16 108.36 192.96 337.81"/><path d="M27.33,247.39a12.55,12.55,0,0,1,12.19-10.16,6.53,6.53,0,0,1,5,2c1.73,2.05,1.25,5.14.29,7.65s-2.32,5-2.08,7.67c.33,3.6,3.48,6.27,6.64,8s6.71,3.12,9,5.89A9.79,9.79,0,0,1,60,278.28a8.4,8.4,0,0,1-8.43,5c-2.05-.26-4.59-1.19-5.88.43a4,4,0,0,0-.7,2c-.63,4.41-.33,8.91-.66,13.36s-1.4,9.05-4.33,12.42-8.11,5.07-12,2.94l-.23-5.86"/><path d="M82.54,176.59c-1.31,7.93,6.47,14.28,8.75,22,1.14,3.84.87,7.94.58,11.93,3.39,0,6.51-1.94,8.83-4.41s4-5.43,6-8.14c1.36-1.83,3.09-3.67,5.36-3.92,2.78-.29,5.28,2.07,6.17,4.72s.57,5.54.33,8.33a12.33,12.33,0,0,0,.48,5.83c.76,1.82,2.66,3.31,4.6,3,2.9-.54,3.69-4.28,3.77-7.23.1-3.83.11-7.67,0-11.5a10,10,0,0,0-.78-4.39c-1.72-3.36-6.75-4.29-7.82-7.91-.86-2.9,1.39-5.78,3.78-7.63s5.23-3.49,6.36-6.29c1.37-3.41-.51-7.51-3.57-9.56-8.14-5.44-14.56,1.1-22.27,2.9C95.31,166.11,84.26,166.24,82.54,176.59Z"/><path d="M27.49,134.83c.87-1.6,3.87-3.55,5.69-3.4s2.9,2.26,4.17,3.69A7.55,7.55,0,0,0,45.66,137c4.5-1.87,6-7.87,4.5-12.5S45,116.35,41.46,113c-4.1.14-9.87-.36-14-.23-.47,1.52,0,2.82,0,4.42C27.49,123.8,25.83,135,27.49,134.83Z"/><path d="M116.89,347.85c-2.09,3.17-1.47,8.18,1.92,9.89,2,1,4.68,1,5.77,2.87,1,1.71-.08,3.86-1.31,5.4s-2.72,3.14-2.69,5.11c0,2.44,2.74,4.26,5.15,3.9a6.92,6.92,0,0,0,5.14-4.67,16.28,16.28,0,0,0,.51-7.22c-.23-2.19-.53-4.64.84-6.37a17.6,17.6,0,0,1,2.2-1.92c3.24-2.88,3.32-7.83,3.16-12.16-.06-1.43-.39-3.22-1.78-3.57a3.38,3.38,0,0,0-2.11.42C128.65,341.76,120.06,343.05,116.89,347.85Z"/><path d="M142.21,229.7c-1.43-.24-3.45.47-4.86.82a3.62,3.62,0,0,0-2.87,2.91,5.83,5.83,0,0,0,1,3,32.51,32.51,0,0,1,3.23,10.07,2.36,2.36,0,0,1,0,1c-.27,1.08-1.67,1.33-2.78,1.38s-2.51.34-2.75,1.42a2.22,2.22,0,0,0,.28,1.4,7.47,7.47,0,0,0,3.41,3.46c1.35.67,2.9.92,4.14,1.78a1.88,1.88,0,0,1,.78.94c.31,1-.8,1.85-1.75,2.33a2.48,2.48,0,0,0,2,.87"/><path d="M89.79,287.08a36.77,36.77,0,0,0,.76,21.8c.53,1.5,1.16,3.17.54,4.63-1.53,3.56-8.33,2-9.51,5.72,5.4,1.31,11.1.12,16.37-1.66,4.27-1.45,9.12-4.33,9-8.84-.12-4-4.31-6.94-4.78-10.94a3.11,3.11,0,0,1,.41-2.16c.73-1,2.16-1.16,3.4-1.19q8.55-.26,17.1,0a2.6,2.6,0,0,0,2.09-.56,2.14,2.14,0,0,0,.41-1.44c0-3.31-2.49-6-4.82-8.38-2-2-4.15-4.12-6.85-5.08s-6.16-.43-7.73,2c-.42.65-.85,1.49-1.62,1.51a2,2,0,0,1-1.16-.55C96.36,276.31,92.29,277.89,89.79,287.08Z"/><path d="M175.13,351.78l-.06-14.85c0-2.27.06-4.74,1.5-6.49a4.91,4.91,0,0,1,8.69,2.95c.84,1.1,2.44-1.1,3.28-2.2s1.32-.84,1.79-2.15,1.5-2.64,2.89-2.63"/><path d="M175.64,350.44a.71.71,0,0,0,.53.37c1.08-1.27,2.84-1.78,4.06-2.92a13.5,13.5,0,0,1,2.24-2.23c.27-.15.55-.26.81-.41a5.41,5.41,0,0,0,.72-.54c1.07-.9,2.17-1.74,3.28-2.59l.84-.64,1.11-.85c.81-.62,1.63-1.25,2.45-1.86a2.77,2.77,0,0,0,1.13-1.32,2.41,2.41,0,0,0,.07-.71l.08-9.37c0-.16-.05-.38-.21-.38a.29.29,0,0,0-.19.11,11.4,11.4,0,0,0-1.43,1.52c-.27.36-.49.75-.72,1.13a28.12,28.12,0,0,1-5.08,6.21c-1.06,1-2.2,1.87-3.21,2.89a28.66,28.66,0,0,0-5.73,9.48,8,8,0,0,0-.77,2.81,1.57,1.57,0,0,0,.67-.55"/><path class="cls-2" d="M196,340.09l.05,0"/><path d="M181.93,345.54a.17.17,0,0,0-.19.07.55.55,0,0,0-.06.22.56.56,0,0,0,0,.34.22.22,0,0,0,.28.14.31.31,0,0,0,.12-.11,4.85,4.85,0,0,0,.5-.82.64.64,0,0,0-.7.3"/><path d="M165.28,110.76a38.06,38.06,0,0,0-3,6.32,4.68,4.68,0,0,0-.32,3.11,4.38,4.38,0,0,0,1.82,2,20.93,20.93,0,0,0,5.91,2.79,3.65,3.65,0,0,0,1.6.2,3,3,0,0,0,1.9-1.38c1.25-1.83,1.39-4.33,2.89-6,1.9-2.1,5.21-2,8-1.45.9.18,2,.36,2.64-.26a2.78,2.78,0,0,0,.68-1.25,7,7,0,0,0,.56-3.58,2.4,2.4,0,0,0-2.59-2"/><path d="M151,157a4.49,4.49,0,0,0-.37,4.07,8,8,0,0,0,2.57,3.32c.73.59,1.61,1.24,1.64,2.17s-1,1.8-1.94,2.22a4.55,4.55,0,0,0-2.51,1.75,2.6,2.6,0,0,0,1,3.05,7.65,7.65,0,0,0,3.23,1.19c2,.41,4.51.63,5.68-1.05.82-1.18.64-2.94,1.72-3.88a3.21,3.21,0,0,1,2.59-.54c1.66.24,3.19,1,4.84,1.36s3.64,0,4.46-1.5c.95-1.7-.29-3.95-2.05-4.78s-3.8-.66-5.73-.49a2.14,2.14,0,0,1-1.71-.35,1.41,1.41,0,0,1-.38-1,6.14,6.14,0,0,1,1-2.76,2.78,2.78,0,0,0,.14-2.82,2.69,2.69,0,0,0-1-.74,10.93,10.93,0,0,0-7.15-1.08,24.35,24.35,0,0,1-3.17.48A3.52,3.52,0,0,0,151,157Z"/><path d="M167.93,234.91c.76,4.35,5.9,6.71,7.13,11,.88,3-.52,6.33-2.43,8.87s-4.35,4.68-6,7.37a3.08,3.08,0,0,0-.58,2.75,3.22,3.22,0,0,0,1.36,1.3,25.66,25.66,0,0,0,11.86,3.62,5.36,5.36,0,0,0,2.67-.38,5.9,5.9,0,0,0,1.71-1.48,14.46,14.46,0,0,0,3.4-5.15c.73-2.39.18-5,.75-7.42a8.37,8.37,0,0,1,3-4.69,4.28,4.28,0,0,0,1.64-1.66c.54-1.47-1-2.77-2.06-3.93-2.29-2.49-2.73-6.18-2.49-9.55s1-6.74.76-10.12a31.12,31.12,0,0,0-1-5.12c-.46-1.76-1.1-3.74-2.76-4.5-4.68-2.13-7.34,5.74-9.84,8.19C171.94,227,167.05,229.85,167.93,234.91Z"/><path d="M142.32,297.86c2.31-.14,5,0,6.34,1.91,1.47,2,.54,4.82-.26,7.19a49.58,49.58,0,0,0-2.56,15.61,9.88,9.88,0,0,0,.32,2.92c.33,1,1,1.95,1.2,3,.66,2.87-1.77,5.49-4.17,7.2a14.71,14.71,0,0,1-.45,17.09"/><path d="M182.29,294.06a7.3,7.3,0,0,1-1.46,4.7c-.24.32-.52.74-.31,1.08a.93.93,0,0,0,.55.32,9.4,9.4,0,0,0,3.46.32,3.56,3.56,0,0,0,1.61-.48c1.12-.75,1.29-2.4,2.33-3.26.34-.28.75-.45,1.09-.73a1.23,1.23,0,0,0,.5-1.14,1.52,1.52,0,0,0-.49-.69l-1.31-1.29A3.43,3.43,0,0,0,187,292c-.94-.3-2.34-1.44-3.14-1.36C182.07,290.78,182.23,292.89,182.29,294.06Z"/><polygon class="cls-3" points="195.59 108.02 142.59 113.02 85.09 14.52 141.09 19.52 195.59 108.02"/><polygon class="cls-3" points="140.59 19.02 84.59 14.02 83.59 2.02 138.59 8.02 140.59 19.02"/></svg>
