<svg id="Layer_1" data-name="Layer 1" xmlns="http://www.w3.org/2000/svg" width="95" height="95" viewBox="0 0 95 95"><defs><style>.cls-1{fill:#262660;}.cls-2{fill:#fff;}</style></defs><title>mini_settings</title><circle cx="48.12" cy="48.86" r="45.53"/><circle class="cls-1" cx="46.88" cy="46.14" r="45.53"/><path class="cls-2" d="M8.07,39.67c.94.25,1.65-.84,2-1.74C12,33.05,13.78,28,16.8,23.72A28.46,28.46,0,0,1,24.94,16c2.25-1.41,6-2.43,7.41-4.77-4.62-.63-11.26,4.94-14.23,7.9A34.51,34.51,0,0,0,8.07,39.67Z"/><path class="cls-2" d="M80.1,50.53V40.42H71a22.63,22.63,0,0,0-3.3-7.06l6.35-5.72L68,20.86l-7,6.25A21.32,21.32,0,0,0,55,24.63V15.75H43.85V25a21.45,21.45,0,0,0-6.31,3.15l-6.85-6.84-6.45,6.45,7.18,7.17a22.64,22.64,0,0,0-2.55,6.47H18.94v9.13h9.73a22.43,22.43,0,0,0,2.86,7.67l-7.32,6.59,6.11,6.78,7.39-6.66a21.35,21.35,0,0,0,6.88,3.25v8.76h11.1v-8.8a21.27,21.27,0,0,0,6.42-3l5.74,5.73,6.45-6.45-5.88-5.88a22.61,22.61,0,0,0,3.06-8Z"/><ellipse class="cls-1" cx="50.01" cy="46.34" rx="7.4" ry="7.65"/></svg>
