<svg id="Layer_1" data-name="Layer 1" xmlns="http://www.w3.org/2000/svg" width="130" height="110" viewBox="0 0 130 110"><defs><style>.cls-1{fill:#262660;}</style></defs><title>no_life</title><path class="cls-1" d="M67.44,109.53H62.56l-2-1.32C56.29,105.39,18.61,80.1,7.22,60L4.54,55.17A38.47,38.47,0,0,1,65,10.21a38.46,38.46,0,0,1,60.46,45l-.27.53L122.81,60c-11.42,20.14-49.1,45.43-53.36,48.25ZM18.93,48.16l2.23,4C28.27,64.71,52.19,83,65,91.88c12.82-8.94,36.74-27.2,43.86-39.77l2.21-4a22.21,22.21,0,0,0,2-9.21A22.47,22.47,0,0,0,71.72,26.76L65,37.13,58.29,26.76A22.47,22.47,0,0,0,16.93,39,22.21,22.21,0,0,0,18.93,48.16Z"/></svg>
