<svg id="Layer_1" data-name="Layer 1" xmlns="http://www.w3.org/2000/svg" viewBox="0 0 380 380">
  <defs>
    <style>
      .cls-1 {
        fill: #262660;
      }

      .cls-2 {
        fill: #fff;
      }
    </style>
  </defs>
  <title>play</title>
  <g>
    <circle cx="195.05" cy="194.33" r="184.61"/>
    <circle class="cls-1" cx="184.95" cy="185.67" r="184.61"/>
    <path class="cls-2" d="M290.71,154.18a25.1,25.1,0,0,1,3.37,43.34l-68.71,47.12-68.71,47.13A25.09,25.09,0,0,1,117.45,273L111,190l-6.46-83.07a25.1,25.1,0,0,1,35.85-24.58l75.16,35.94Z"/>
    <path class="cls-2" d="M31.07,147.91c3.81,1,6.66-3.4,8.11-7.06,7.86-19.79,15-40.17,27.25-57.6a116.2,116.2,0,0,1,33-31.38c9.1-5.74,24.53-9.85,30-19.35-18.73-2.53-45.64,20-57.71,32C49.47,86.75,34.4,116.48,31.07,147.91Z"/>
  </g>
</svg>
