<svg id="Layer_1" data-name="Layer 1" xmlns="http://www.w3.org/2000/svg" xmlns:xlink="http://www.w3.org/1999/xlink" width="1080" height="1920" viewBox="0 0 1080 1920"><defs><style>.cls-1,.cls-10,.cls-11,.cls-12,.cls-13,.cls-14,.cls-15,.cls-16,.cls-17,.cls-18,.cls-19,.cls-2,.cls-3,.cls-4,.cls-5,.cls-6,.cls-7,.cls-8,.cls-9{opacity:0.53;}.cls-1{fill:url(#radial-gradient);}.cls-2{fill:url(#linear-gradient);}.cls-3{fill:url(#linear-gradient-2);}.cls-4{fill:url(#linear-gradient-3);}.cls-5{fill:url(#linear-gradient-4);}.cls-6{fill:url(#linear-gradient-5);}.cls-7{fill:url(#linear-gradient-6);}.cls-8{fill:url(#linear-gradient-7);}.cls-9{fill:url(#linear-gradient-8);}.cls-10{fill:url(#linear-gradient-9);}.cls-11{fill:url(#linear-gradient-10);}.cls-12{fill:url(#linear-gradient-11);}.cls-13{fill:url(#linear-gradient-12);}.cls-14{fill:url(#linear-gradient-13);}.cls-15{fill:url(#linear-gradient-14);}.cls-16{fill:url(#linear-gradient-15);}.cls-17{fill:url(#linear-gradient-16);}.cls-18{fill:url(#linear-gradient-17);}.cls-19{fill:url(#linear-gradient-18);}.cls-20{fill:#0a1733;}.cls-21{fill:#1c96c6;}.cls-22,.cls-23,.cls-24{fill:#fff;}.cls-22{opacity:0.2;}.cls-23{opacity:0.31;}.cls-25{fill:#1f4754;}.cls-25,.cls-26,.cls-27{stroke:#0a1733;stroke-miterlimit:10;}.cls-26{fill:url(#radial-gradient-2);}.cls-27{fill:url(#radial-gradient-3);}</style><radialGradient id="radial-gradient" cx="546.5" cy="948" r="781.48" gradientUnits="userSpaceOnUse"><stop offset="0" stop-color="#fff"/><stop offset="1" stop-color="#80bed6"/></radialGradient><linearGradient id="linear-gradient" x1="5" y1="471.4" x2="564.26" y2="471.4" gradientUnits="userSpaceOnUse"><stop offset="0.13" stop-color="#80bed6"/><stop offset="0.88" stop-color="#fff"/></linearGradient><linearGradient id="linear-gradient-2" x1="557.63" y1="470.3" x2="1087" y2="470.3" gradientUnits="userSpaceOnUse"><stop offset="0.26" stop-color="#fff"/><stop offset="0.82" stop-color="#80bed6"/><stop offset="0.9" stop-color="#8ec5db"/></linearGradient><linearGradient id="linear-gradient-3" x1="5" y1="1430.07" x2="556.61" y2="1430.07" gradientUnits="userSpaceOnUse"><stop offset="0" stop-color="#80bed6"/><stop offset="0.19" stop-color="#86c1d8"/><stop offset="0.7" stop-color="#fff"/></linearGradient><linearGradient id="linear-gradient-4" x1="558.29" y1="1428.23" x2="1087" y2="1428.23" gradientUnits="userSpaceOnUse"><stop offset="0.32" stop-color="#fff"/><stop offset="0.58" stop-color="#80bed6"/><stop offset="0.84" stop-color="#86c1d8"/></linearGradient><linearGradient id="linear-gradient-5" x1="536.55" y1="701.53" x2="384.12" y2="-5.18" gradientUnits="userSpaceOnUse"><stop offset="0" stop-color="#fff"/><stop offset="0.58" stop-color="#bfdeea"/><stop offset="1" stop-color="#80bed6"/></linearGradient><linearGradient id="linear-gradient-6" x1="609.41" y1="799.3" x2="762.24" y2="-188.71" gradientUnits="userSpaceOnUse"><stop offset="0.02" stop-color="#fff"/><stop offset="0.71" stop-color="#80bed6"/><stop offset="0.9" stop-color="#8ec5db"/></linearGradient><linearGradient id="linear-gradient-7" x1="302.63" y1="1431.04" x2="558.31" y2="1431.04" xlink:href="#linear-gradient-3"/><linearGradient id="linear-gradient-8" x1="560.51" y1="1431.04" x2="816.19" y2="1431.04" gradientUnits="userSpaceOnUse"><stop offset="0" stop-color="#80bed6"/><stop offset="0" stop-color="#fff"/><stop offset="0.65" stop-color="#8fc6db"/><stop offset="0.75" stop-color="#86c1d8"/></linearGradient><linearGradient id="linear-gradient-9" x1="5" y1="664.06" x2="558" y2="664.06" gradientUnits="userSpaceOnUse"><stop offset="0" stop-color="#fff"/><stop offset="0" stop-color="#80bed6"/><stop offset="0.84" stop-color="#fbfdfe"/></linearGradient><linearGradient id="linear-gradient-10" y1="1233.53" x2="554" y2="1233.53" xlink:href="#linear-gradient-3"/><linearGradient id="linear-gradient-11" x1="554.99" y1="680.86" x2="1087" y2="680.86" gradientUnits="userSpaceOnUse"><stop offset="0.39" stop-color="#fff"/><stop offset="0.82" stop-color="#80bed6"/><stop offset="0.9" stop-color="#8ec5db"/></linearGradient><linearGradient id="linear-gradient-12" x1="558.99" y1="1221.73" x2="1087" y2="1221.73" gradientUnits="userSpaceOnUse"><stop offset="0.06" stop-color="#fff"/><stop offset="0.28" stop-color="#f7fbfc"/><stop offset="0.6" stop-color="#86c1d8"/><stop offset="0.84" stop-color="#80bed6"/></linearGradient><linearGradient id="linear-gradient-13" x1="5" y1="835.96" x2="561.06" y2="835.96" gradientUnits="userSpaceOnUse"><stop offset="0" stop-color="#80bed6"/><stop offset="0.7" stop-color="#fff"/></linearGradient><linearGradient id="linear-gradient-14" y1="1063.47" x2="561.06" y2="1063.47" xlink:href="#linear-gradient-3"/><linearGradient id="linear-gradient-15" x1="556.64" y1="1058.15" y2="1058.15" xlink:href="#linear-gradient-11"/><linearGradient id="linear-gradient-16" x1="560.64" y1="839.11" x2="1087" y2="839.11" gradientUnits="userSpaceOnUse"><stop offset="0.31" stop-color="#fff"/><stop offset="0.82" stop-color="#80bed6"/><stop offset="0.9" stop-color="#8ec5db"/></linearGradient><linearGradient id="linear-gradient-17" x1="550.15" y1="949.03" y2="949.03" xlink:href="#linear-gradient-11"/><linearGradient id="linear-gradient-18" y1="950" x2="566.85" y2="950" xlink:href="#linear-gradient-3"/><radialGradient id="radial-gradient-2" cx="9727.48" cy="841.5" r="50.9" gradientTransform="matrix(-1, 0, 0, 1, 10565.98, 0)" xlink:href="#radial-gradient"/><radialGradient id="radial-gradient-3" cx="9725.48" cy="995.5" r="50.9" gradientTransform="matrix(-1, 0, 0, 1, 10562.98, 0)" xlink:href="#radial-gradient"/></defs><title>settings_off_full</title><rect class="cls-1" x="6" y="-16" width="1081" height="1928"/><polygon class="cls-2" points="564.26 954.8 5 133.84 5 -12 134.57 -12 564.26 954.8"/><polygon class="cls-3" points="1087 -12 1087 196.03 560.79 948.08 560.27 948.83 560.05 949.15 560.04 949.15 559.68 949.67 559.35 950.14 559.3 950.2 559.3 950.21 559 950.64 557.63 952.6 558.11 951.56 558.11 951.55 558.12 951.54 559.09 949.42 559.29 948.98 559.3 948.98 559.82 947.84 560.14 947.13 1000.88 -12 1087 -12"/><polygon class="cls-4" points="556.61 948.13 556.24 949.02 556.23 949.05 556.04 949.49 555.99 949.61 555.87 949.9 555.78 950.1 555.53 950.71 555.13 951.65 152.14 1912 5 1912 5 1795.41 554.27 951.72 554.71 951.04 555.35 950.06 555.51 949.82 555.67 949.58 556 949.07 556.07 948.95 556.61 948.13"/><polygon class="cls-5" points="1087 1710.14 1087 1912 995.64 1912 562.27 953.26 561.58 951.73 561.29 951.09 561.06 950.57 561.01 950.47 560.87 950.16 560.82 950.05 560.45 949.23 560.42 949.18 560.42 949.17 560.27 948.83 560.23 948.75 560.2 948.68 560.17 948.6 559.82 947.84 559.05 946.13 558.78 945.53 558.29 944.45 558.81 945.2 559.16 945.71 560.14 947.13 560.73 947.98 560.74 948 560.79 948.08 561.03 948.42 561.08 948.5 561.15 948.6 561.79 949.52 561.97 949.78 562.24 950.18 562.61 950.71 562.78 950.95 562.79 950.96 565.01 954.18 569.52 960.73 569.54 960.75 1087 1710.14"/><polygon class="cls-6" points="558.31 944.17 304.16 -12 461.13 -12 558.31 944.17"/><polygon class="cls-7" points="813.72 -12 558.51 948.17 656.09 -12 813.72 -12"/><polygon class="cls-8" points="558.31 950.07 558.28 950.32 558.27 950.42 558.18 951.37 558.17 951.42 558.17 951.49 558.12 951.89 558.05 952.58 460.55 1912 302.63 1912 557.55 952.94 557.64 952.58 557.65 952.56 557.84 951.84 557.96 951.39 558.22 950.41 558.24 950.32 558.31 950.07"/><polygon class="cls-9" points="816.19 1912 658.27 1912 560.67 951.61 560.62 951.15 560.61 951.04 560.6 950.92 560.59 950.83 560.58 950.78 560.56 950.53 560.51 950.07 560.63 950.53 560.68 950.71 560.73 950.89 560.74 950.95 560.79 951.14 560.8 951.18 561.01 951.96 816.19 1912"/><polygon class="cls-10" points="5 379.34 558 948.77 5 553.77 5 379.34"/><polygon class="cls-11" points="554 950.88 553.26 951.65 553.08 951.83 5 1516.19 5 1343.02 552.49 951.96 552.61 951.87 554 950.88"/><polygon class="cls-12" points="1087 406.96 1087 574.76 562.21 949.61 561.97 949.78 561.23 950.31 561.01 950.47 560.41 950.9 560.16 951.08 554.99 954.77 558.11 951.56 558.11 951.55 558.12 951.54 559 950.64 559.36 950.27 559.43 950.2 559.87 949.75 560.38 949.22 560.42 949.18 560.42 949.17 561.08 948.5 1087 406.96"/><polygon class="cls-13" points="1087 1327.03 1087 1493.57 569.54 960.75 569.52 960.73 562.27 953.26 561.01 951.96 560.67 951.61 560.26 951.18 559.84 950.76 559.53 950.44 559.3 950.21 559.3 950.2 558.99 949.88 559.35 950.14 559.43 950.2 559.8 950.46 559.94 950.56 560.37 950.87 560.41 950.9 560.61 951.04 560.75 951.14 560.8 951.17 560.8 951.18 561.58 951.73 565.01 954.18 1087 1327.03"/><polygon class="cls-14" points="561.06 951.02 560.43 950.88 559.05 950.59 559.04 950.58 558.6 950.49 556.93 950.13 556.92 950.13 555.01 949.71 555 949.71 553.47 949.38 553.45 949.38 5 830.99 5 720.9 556.91 949.3 556.92 949.3 557.91 949.72 558.11 949.8 558.12 949.8 558.79 950.08 559.26 950.27 559.33 950.3 560.54 950.81 561.06 951.02"/><polygon class="cls-15" points="561.06 948.41 560.36 948.7 559.2 949.18 557.91 949.72 557.77 949.77 556.93 950.13 556.92 950.13 552.74 951.86 552.73 951.86 5 1178.53 5 1068.43 539.72 953.02 539.75 953.01 539.78 953.01 555 949.71 555.01 949.71 555.65 949.58 556.91 949.3 556.92 949.3 559.39 948.77 560.47 948.54 561.06 948.41"/><polygon class="cls-16" points="1087 1062.88 1087 1167.89 562.8 950.96 562.79 950.96 562.78 950.95 562.08 950.66 561.23 950.31 560.87 950.16 560.55 950.03 559.87 949.75 559.68 949.67 559.09 949.42 558.85 949.33 558.15 949.04 557.82 948.9 556.64 948.41 557.87 948.67 557.92 948.69 558.59 948.83 558.85 948.89 559.29 948.98 559.3 948.98 559.55 949.04 560.04 949.15 560.05 949.15 560.38 949.22 560.45 949.23 561.79 949.52 562.21 949.61 566.74 950.59 566.8 950.6 570.59 951.42 1087 1062.88"/><polygon class="cls-17" points="1087 730.2 1087 834.4 566.09 946.84 561.79 947.77 561.78 947.77 560.87 947.97 560.74 948 560.64 948.02 560.73 947.98 560.91 947.91 562.15 947.39 562.16 947.38 569.67 944.28 1087 730.2"/><polygon class="cls-18" points="1087 900.64 1087 997.42 570.6 951.42 570.59 951.42 564.11 950.84 562.61 950.71 562.09 950.66 562.08 950.66 561.06 950.57 560.89 950.56 560.63 950.53 560.56 950.53 559.8 950.46 559.68 950.45 559.53 950.44 559.22 950.41 559.17 950.4 558.66 950.36 558.28 950.32 558.24 950.32 557.51 950.26 556.77 950.19 555.78 950.1 555.35 950.06 553.95 949.94 550.15 949.6 553.01 949.34 553.19 949.32 556 949.07 556.23 949.05 556.28 949.04 557.82 948.9 558.59 948.83 559.4 948.76 559.49 948.75 560.2 948.68 560.38 948.67 560.46 948.66 560.97 948.61 561.15 948.6 563.99 948.34 564 948.34 1087 900.64"/><polygon class="cls-19" points="566.85 950.6 559.97 951.21 558.51 951.34 558.3 951.36 558.29 951.36 558.2 951.37 552.74 951.86 552.73 951.86 539.8 953.01 539.75 953.01 539.72 953.02 5 1000.65 5 899.36 553.45 949.38 553.47 949.38 555.65 949.58 557.77 949.77 558.11 949.8 558.12 949.8 558.88 949.87 558.89 949.87 559.5 949.93 559.67 949.95 561.51 950.11 566.85 950.6"/><rect class="cls-20" x="69" y="567" width="981" height="697" rx="12"/><rect class="cls-21" x="48.5" y="552.5" width="981" height="697" rx="12"/><ellipse class="cls-22" cx="69.5" cy="792.5" rx="4.5" ry="212.5"/><ellipse class="cls-23" cx="856.5" cy="1224.5" rx="140.5" ry="4.5"/><line class="cls-24" x1="170" y1="914" x2="907" y2="912"/><path class="cls-25" d="M679.5,841.5c1-56.5,47.46-48.5,106-48.5v97C727,890,678.5,900,679.5,841.5Z"/><path class="cls-26" d="M891.5,841.5c1,54.5-47.46,48.5-106,48.5V793C844,793,890.5,787,891.5,841.5Z"/><path class="cls-27" d="M890.5,995.5c1,54.5-47.46,48.5-106,48.5V947C843,947,889.5,941,890.5,995.5Z"/><path class="cls-25" d="M679,995.2c1-55.7,47.22-47.82,105.48-47.82V1043C726.24,1043,678,1052.87,679,995.2Z"/><path d="M728.37,843.26a36.43,36.43,0,0,1-.89,8.58,18.76,18.76,0,0,1-2.45,6,10.25,10.25,0,0,1-3.7,3.48,9.83,9.83,0,0,1-9.15,0,10.25,10.25,0,0,1-3.7-3.48,19,19,0,0,1-2.47-6,41.21,41.21,0,0,1,0-17.13,19.33,19.33,0,0,1,2.47-6,10.28,10.28,0,0,1,3.7-3.49,9.83,9.83,0,0,1,9.15,0,10.28,10.28,0,0,1,3.7,3.49,19.09,19.09,0,0,1,2.45,6A36.28,36.28,0,0,1,728.37,843.26Zm-4.62,0a40.89,40.89,0,0,0-.54-7.14,19.31,19.31,0,0,0-1.47-5,7.58,7.58,0,0,0-2.22-2.87,4.58,4.58,0,0,0-5.53,0,7.69,7.69,0,0,0-2.23,2.87,18.87,18.87,0,0,0-1.49,5,47.67,47.67,0,0,0,0,14.31,18.59,18.59,0,0,0,1.49,4.94,7.57,7.57,0,0,0,2.23,2.86,4.58,4.58,0,0,0,5.53,0,7.46,7.46,0,0,0,2.22-2.86,19,19,0,0,0,1.47-4.94A41.1,41.1,0,0,0,723.75,843.26Z"/><path d="M753.05,824.79c-.11,1.52-.19,3.07-.26,4.67s-.11,3.18-.14,4.75-.07,3.13-.08,4.65,0,3,0,4.35,0,2.83,0,4.35,0,3.07.08,4.66.08,3.18.13,4.78.13,3.16.22,4.68h-5q-1.37-3.95-2.69-7.51c-.87-2.39-1.75-4.69-2.62-6.92s-1.73-4.4-2.59-6.53-1.72-4.23-2.58-6.32h-.18c0,1.56,0,3.07,0,4.55s0,2.9,0,4.26,0,2.83,0,4.35,0,3.07.08,4.66.08,3.18.13,4.78.13,3.16.22,4.68h-4.92c.11-1.52.19-3.08.26-4.68s.11-3.2.14-4.78.07-3.14.09-4.66,0-3,0-4.35,0-2.83,0-4.35,0-3.07-.09-4.65-.08-3.16-.14-4.75-.15-3.15-.26-4.67h5q2.72,7.89,5.32,14.9T748.43,853h.19c0-.78,0-1.61,0-2.47s0-1.71,0-2.56,0-1.68,0-2.49,0-1.55,0-2.25c0-1.38,0-2.83,0-4.35s-.05-3.07-.08-4.65-.09-3.16-.15-4.75-.15-3.15-.26-4.67Z"/><path d="M731.6,991.36a36.47,36.47,0,0,1-.88,8.58,18.76,18.76,0,0,1-2.46,6,10.3,10.3,0,0,1-3.69,3.48,9.85,9.85,0,0,1-9.16,0,10.25,10.25,0,0,1-3.7-3.48,19,19,0,0,1-2.47-6,41.21,41.21,0,0,1,0-17.13,19.33,19.33,0,0,1,2.47-6,10.28,10.28,0,0,1,3.7-3.49,9.85,9.85,0,0,1,9.16,0,10.34,10.34,0,0,1,3.69,3.49,19.09,19.09,0,0,1,2.46,6A36.26,36.26,0,0,1,731.6,991.36Zm-4.62,0a42,42,0,0,0-.53-7.14,19.69,19.69,0,0,0-1.48-5,7.5,7.5,0,0,0-2.22-2.87,4.58,4.58,0,0,0-5.53,0,7.61,7.61,0,0,0-2.23,2.87,19.26,19.26,0,0,0-1.49,5,47.67,47.67,0,0,0,0,14.31,19,19,0,0,0,1.49,4.94,7.65,7.65,0,0,0,2.23,2.86,4.58,4.58,0,0,0,5.53,0,7.54,7.54,0,0,0,2.22-2.86,19.38,19.38,0,0,0,1.48-4.94A42.2,42.2,0,0,0,727,991.36Z"/><path d="M756.28,972.88c-.11,1.53-.19,3.08-.25,4.68s-.11,3.17-.15,4.75-.06,3.12-.08,4.65,0,3,0,4.35,0,2.83,0,4.35,0,3.07.08,4.66.08,3.17.13,4.78.13,3.16.22,4.68h-5q-1.37-3.94-2.69-7.52c-.87-2.38-1.75-4.68-2.61-6.91s-1.74-4.41-2.6-6.53-1.71-4.23-2.57-6.32h-.19c0,1.56-.05,3.07,0,4.55s0,2.9,0,4.26,0,2.83,0,4.35,0,3.07.08,4.66.08,3.17.13,4.78.13,3.16.22,4.68h-4.92c.11-1.52.2-3.08.26-4.68s.11-3.2.15-4.78.06-3.14.08-4.66,0-3,0-4.35,0-2.83,0-4.35-.05-3.07-.08-4.65-.09-3.16-.15-4.75-.15-3.15-.26-4.68h5q2.72,7.9,5.32,14.91t5.21,13.29h.19c0-.79,0-1.61,0-2.47s0-1.71,0-2.56,0-1.68,0-2.49,0-1.56,0-2.25c0-1.38,0-2.83,0-4.35s0-3.07-.08-4.65-.09-3.16-.15-4.75-.15-3.15-.26-4.68Z"/><path d="M820.52,839.48a36.43,36.43,0,0,1-.89,8.58,18.54,18.54,0,0,1-2.46,6,10.22,10.22,0,0,1-3.69,3.48,9.6,9.6,0,0,1-4.56,1.13,9.7,9.7,0,0,1-4.6-1.13,10.3,10.3,0,0,1-3.69-3.48,18.77,18.77,0,0,1-2.47-6,41.21,41.21,0,0,1,0-17.13,19.09,19.09,0,0,1,2.47-6,10.34,10.34,0,0,1,3.69-3.49,9.7,9.7,0,0,1,4.6-1.13,9.6,9.6,0,0,1,4.56,1.13,10.26,10.26,0,0,1,3.69,3.49,18.86,18.86,0,0,1,2.46,6A36.28,36.28,0,0,1,820.52,839.48Zm-4.62,0a41,41,0,0,0-.54-7.14,19.28,19.28,0,0,0-1.48-5,7.46,7.46,0,0,0-2.21-2.87,4.58,4.58,0,0,0-5.53,0,7.59,7.59,0,0,0-2.23,2.87,18.5,18.5,0,0,0-1.49,5,47.67,47.67,0,0,0,0,14.31,18.23,18.23,0,0,0,1.49,4.94,7.47,7.47,0,0,0,2.23,2.86,4.58,4.58,0,0,0,5.53,0,7.35,7.35,0,0,0,2.21-2.86,19,19,0,0,0,1.48-4.94A41.1,41.1,0,0,0,815.9,839.48Z"/><path d="M840,821v3.14H829.92q-.17,3.17-.23,6.36t-.1,6.15h9.7v3.14h-9.7c0,1.37,0,2.79,0,4.29s0,3,.08,4.56.08,3.11.13,4.68.13,3.09.22,4.57h-5c.11-1.52.19-3.08.25-4.68s.12-3.2.15-4.78.06-3.14.08-4.66,0-3,0-4.35,0-2.83,0-4.35,0-3.07-.08-4.65-.08-3.16-.15-4.75-.14-3.15-.25-4.67Z"/><path d="M858.89,821v3.14H848.77q-.16,3.17-.23,6.36c0,2.13-.08,4.18-.09,6.15h9.69v3.14h-9.69c0,1.37,0,2.79,0,4.29s0,3,.08,4.56.08,3.11.14,4.68.12,3.09.21,4.57h-5c.11-1.52.19-3.08.26-4.68s.11-3.2.14-4.78.07-3.14.08-4.66,0-3,0-4.35,0-2.83,0-4.35,0-3.07-.08-4.65-.08-3.16-.14-4.75-.15-3.15-.26-4.67Z"/><path d="M817.52,994.48a36.43,36.43,0,0,1-.89,8.58,18.54,18.54,0,0,1-2.46,6,10.22,10.22,0,0,1-3.69,3.48,9.6,9.6,0,0,1-4.56,1.13,9.7,9.7,0,0,1-4.6-1.13,10.3,10.3,0,0,1-3.69-3.48,18.77,18.77,0,0,1-2.47-6,41.21,41.21,0,0,1,0-17.13,19.09,19.09,0,0,1,2.47-6,10.34,10.34,0,0,1,3.69-3.49,9.7,9.7,0,0,1,4.6-1.13,9.6,9.6,0,0,1,4.56,1.13,10.26,10.26,0,0,1,3.69,3.49,18.86,18.86,0,0,1,2.46,6A36.28,36.28,0,0,1,817.52,994.48Zm-4.62,0a41,41,0,0,0-.54-7.14,19.28,19.28,0,0,0-1.48-5,7.46,7.46,0,0,0-2.21-2.87,4.58,4.58,0,0,0-5.53,0,7.59,7.59,0,0,0-2.23,2.87,18.5,18.5,0,0,0-1.49,5,47.67,47.67,0,0,0,0,14.31,18.23,18.23,0,0,0,1.49,4.94,7.47,7.47,0,0,0,2.23,2.86,4.58,4.58,0,0,0,5.53,0,7.35,7.35,0,0,0,2.21-2.86,19,19,0,0,0,1.48-4.94A41.1,41.1,0,0,0,812.9,994.48Z"/><path d="M837,976v3.14H826.92q-.17,3.17-.23,6.36t-.1,6.15h9.7v3.14h-9.7c0,1.37,0,2.79,0,4.29s0,3,.08,4.56.08,3.11.13,4.68.13,3.09.22,4.58h-5c.11-1.53.19-3.09.25-4.69s.12-3.2.15-4.78.06-3.14.08-4.66,0-3,0-4.35,0-2.83,0-4.35,0-3.07-.08-4.65-.08-3.16-.15-4.75-.14-3.15-.25-4.67Z"/><path d="M855.89,976v3.14H845.77q-.16,3.17-.23,6.36c0,2.13-.08,4.18-.09,6.15h9.69v3.14h-9.69c0,1.37,0,2.79,0,4.29s0,3,.08,4.56.08,3.11.14,4.68.12,3.09.21,4.58h-5c.11-1.53.19-3.09.26-4.69s.11-3.2.14-4.78.07-3.14.08-4.66,0-3,0-4.35,0-2.83,0-4.35,0-3.07-.08-4.65-.08-3.16-.14-4.75-.15-3.15-.26-4.67Z"/><path d="M232.49,857.68c-.56-2.91-1.16-6-1.78-9.14s-1.29-6.42-2-9.71-1.48-6.56-2.29-9.84-1.67-6.47-2.58-9.56h-.35c-.05,1-.08,2.14-.09,3.41s0,2.54,0,3.81,0,2.52,0,3.71,0,2.24,0,3.13c0,1.81,0,3.7,0,5.7s.06,4,.11,6.1.11,4.16.18,6.25.16,4.15.28,6.14h-6.44q.21-3,.34-6.14c.08-2.09.14-4.18.19-6.25s.08-4.11.11-6.1,0-3.89,0-5.7,0-3.7,0-5.7-.06-4-.11-6.08-.11-4.13-.19-6.22-.2-4.12-.34-6.12h8.34q2.07,10,4.2,19.18t4.62,17.35h.46q2.49-8.19,4.62-17.35t4.2-19.18h8.33c-.14,2-.25,4-.33,6.12s-.15,4.16-.19,6.22-.09,4.09-.11,6.08,0,3.9,0,5.7,0,3.7,0,5.7.06,4,.11,6.1.11,4.16.19,6.25.19,4.15.33,6.14h-6.43q.18-3,.28-6.14c.07-2.09.13-4.18.18-6.25s.08-4.11.1-6.1,0-3.89,0-5.7v-6.84c0-1.27,0-2.55,0-3.81s0-2.4-.05-3.41h-.36q-1.36,4.64-2.58,9.56t-2.28,9.84c-.72,3.29-1.39,6.52-2,9.71s-1.21,6.23-1.77,9.14Z"/><path d="M265.11,832.51c0,1.71.05,3.34.07,4.9s.06,3,.11,4.39.11,2.62.18,3.75.16,2.1.28,2.92a8,8,0,0,0,1.75,4.41,4.45,4.45,0,0,0,3.34,1.35,5.45,5.45,0,0,0,2.4-.6,10.53,10.53,0,0,0,2.37-1.58,17.3,17.3,0,0,0,2.18-2.25,22.37,22.37,0,0,0,1.84-2.6q.21-7,.21-14.1,0-3.27,0-6.22c0-2-.06-3.9-.12-5.8s-.13-3.8-.21-5.71-.19-3.91-.3-6h6.5q-.18,3.14-.3,6c-.08,1.91-.15,3.81-.21,5.71s-.1,3.83-.12,5.8,0,4,0,6.22,0,4.3,0,6.35.06,4.08.12,6.08.13,4,.21,6,.18,4.05.3,6.14h-6.54c.05-.92.1-1.82.14-2.73s.1-1.8.14-2.69a29.2,29.2,0,0,1-2.16,2.41,15.36,15.36,0,0,1-2.48,2,12.77,12.77,0,0,1-2.86,1.37,10.47,10.47,0,0,1-3.33.51,7.43,7.43,0,0,1-6.48-3.33q-2.31-3.32-2.3-9.89c0-1.08,0-2.23,0-3.46s0-2.44.06-3.63,0-2.28.05-3.28,0-1.83,0-2.46c0-2.18,0-4.22,0-6.12s-.06-3.76-.1-5.59-.12-3.67-.2-5.52-.18-3.82-.3-5.91h6.47c-.11,2.09-.22,4.06-.31,5.91s-.17,3.69-.23,5.52-.1,3.69-.13,5.59S265.09,830.33,265.11,832.51Z"/><path d="M300.87,854.65a8.66,8.66,0,0,0,2.76-.44,6.36,6.36,0,0,0,2.41-1.42,7,7,0,0,0,1.68-2.51,9.66,9.66,0,0,0,.64-3.75,8.26,8.26,0,0,0-.76-3.51,14.28,14.28,0,0,0-2-3.1,25.15,25.15,0,0,0-2.81-2.86q-1.57-1.39-3.23-2.8t-3.24-2.9a23.73,23.73,0,0,1-2.81-3.16,16,16,0,0,1-2-3.6,11.59,11.59,0,0,1-.75-4.22,11.77,11.77,0,0,1,1.23-5.63,10.73,10.73,0,0,1,3.13-3.67,12.14,12.14,0,0,1,4.2-2,17.71,17.71,0,0,1,4.48-.6,26.33,26.33,0,0,1,4.41.37c1.42.25,2.79.51,4.1.79v7c-.75-.63-1.46-1.21-2.13-1.72a14.35,14.35,0,0,0-2-1.32,9.81,9.81,0,0,0-2.06-.84,8.16,8.16,0,0,0-2.25-.3,9.46,9.46,0,0,0-2.79.4,6.29,6.29,0,0,0-2.29,1.25,6.22,6.22,0,0,0-1.55,2.14,7.69,7.69,0,0,0-.58,3.1,8.33,8.33,0,0,0,1.31,4.55,20.26,20.26,0,0,0,3.26,3.92q2,1.86,4.26,3.73a41.34,41.34,0,0,1,4.25,4,20.65,20.65,0,0,1,3.27,4.7,12.59,12.59,0,0,1,1.3,5.82,15,15,0,0,1-.56,4.34,11.22,11.22,0,0,1-1.53,3.27A10.37,10.37,0,0,1,310,856a11.68,11.68,0,0,1-2.71,1.52,13.38,13.38,0,0,1-3,.83,19.2,19.2,0,0,1-3,.25c-1.15,0-2.2,0-3.16-.13s-1.86-.2-2.69-.35-1.61-.33-2.32-.53-1.42-.41-2.1-.65v-7.2c.73.68,1.46,1.32,2.18,1.91a16.75,16.75,0,0,0,2.27,1.57,11.73,11.73,0,0,0,2.48,1A10.69,10.69,0,0,0,300.87,854.65Z"/><path d="M326.46,809.37c-.14,2-.25,4-.33,6.12s-.15,4.16-.2,6.22-.08,4.09-.1,6.08,0,3.9,0,5.7,0,3.7,0,5.7.06,4,.1,6.1.11,4.16.18,6.25.16,4.15.28,6.14h-6.57q.21-3,.33-6.14c.08-2.09.15-4.18.19-6.25s.09-4.11.11-6.1,0-3.89,0-5.7,0-3.7,0-5.7-.06-4-.11-6.08-.11-4.13-.19-6.22-.19-4.12-.33-6.12Z"/><path d="M338.7,833.56a44.93,44.93,0,0,0,.8,9,22.47,22.47,0,0,0,2.31,6.52,11.12,11.12,0,0,0,3.58,4,8.43,8.43,0,0,0,4.66,1.35,9.12,9.12,0,0,0,2.74-.38,10.5,10.5,0,0,0,2.17-1,14.55,14.55,0,0,0,1.81-1.3l1.65-1.39v7.07c-1.31.32-2.63.59-4,.79a29.59,29.59,0,0,1-4.41.3,16,16,0,0,1-7-1.52,14.9,14.9,0,0,1-5.54-4.58,23.17,23.17,0,0,1-3.65-7.77,41.14,41.14,0,0,1-1.32-11.06A39.06,39.06,0,0,1,334,822.5a23.64,23.64,0,0,1,3.76-7.77,15.17,15.17,0,0,1,5.55-4.58,15.59,15.59,0,0,1,6.77-1.52,29.59,29.59,0,0,1,4.41.3c1.33.2,2.65.47,4,.79v7.07c-.54-.44-1.09-.91-1.65-1.39a14.55,14.55,0,0,0-1.81-1.3,10.5,10.5,0,0,0-2.17-1,9.12,9.12,0,0,0-2.74-.38,8.43,8.43,0,0,0-4.66,1.35,11.12,11.12,0,0,0-3.58,4,22.47,22.47,0,0,0-2.31,6.52A45,45,0,0,0,338.7,833.56Z"/><path d="M236,944.37c-.15,2-.26,4-.34,6.12s-.15,4.16-.19,6.22-.08,4.09-.11,6.08,0,3.9,0,5.7,0,3.7,0,5.7.06,4,.11,6.1.1,4.16.17,6.25.17,4.15.29,6.14h-6.51c-1.19-3.45-2.37-6.73-3.51-9.85s-2.3-6.13-3.43-9.05-2.27-5.76-3.39-8.54-2.25-5.54-3.38-8.28h-.25c0,2-.06,4,0,6s0,3.79,0,5.57,0,3.7,0,5.7.06,4,.11,6.1.11,4.16.18,6.25.16,4.15.28,6.14h-6.44q.21-3,.34-6.14c.08-2.09.14-4.18.19-6.25s.08-4.11.11-6.1,0-3.89,0-5.7,0-3.7,0-5.7-.06-4-.11-6.08-.11-4.13-.19-6.22-.2-4.12-.34-6.12h6.58q3.54,10.33,7,19.51t6.82,17.41h.24c0-1,0-2.11,0-3.24s0-2.24,0-3.35,0-2.2,0-3.26,0-2,0-3c0-1.8,0-3.7,0-5.7s-.05-4-.1-6.08-.11-4.13-.19-6.22-.2-4.12-.34-6.12Z"/><path d="M272.34,968.56a47.75,47.75,0,0,1-1.16,11.23A24.62,24.62,0,0,1,268,987.6a13.43,13.43,0,0,1-4.83,4.55,12.88,12.88,0,0,1-12,0,13.45,13.45,0,0,1-4.84-4.55,24.62,24.62,0,0,1-3.23-7.81,53.88,53.88,0,0,1,0-22.43,24.88,24.88,0,0,1,3.23-7.82,13.52,13.52,0,0,1,4.84-4.57,12.88,12.88,0,0,1,12,0,13.49,13.49,0,0,1,4.83,4.57,24.88,24.88,0,0,1,3.22,7.82A47.71,47.71,0,0,1,272.34,968.56Zm-6,0a53.8,53.8,0,0,0-.7-9.35,25.34,25.34,0,0,0-1.94-6.49,9.71,9.71,0,0,0-2.9-3.76,6,6,0,0,0-3.6-1.21,6.05,6.05,0,0,0-3.64,1.21,9.93,9.93,0,0,0-2.92,3.76,24.92,24.92,0,0,0-2,6.49,63.06,63.06,0,0,0,0,18.74,24.76,24.76,0,0,0,2,6.47,10,10,0,0,0,2.92,3.74,6.05,6.05,0,0,0,3.64,1.21,6,6,0,0,0,3.6-1.21,9.78,9.78,0,0,0,2.9-3.74,25.17,25.17,0,0,0,1.94-6.47A54.21,54.21,0,0,0,266.29,968.56Z"/><path d="M273.5,944.37h24.08v4.12h-9c-.18,3.44-.3,6.89-.35,10.33s-.07,6.67-.07,9.67c0,1.81,0,3.7,0,5.7s.06,4,.1,6.1.11,4.16.18,6.25.16,4.15.28,6.14h-6.57q.21-3,.33-6.14c.08-2.09.15-4.18.19-6.25s.09-4.11.11-6.1,0-3.89,0-5.7q0-4.5-.08-9.67c-.06-3.44-.17-6.89-.34-10.33h-9Z"/><path d="M308.48,944.37c-.14,2-.25,4-.34,6.12s-.14,4.16-.19,6.22-.08,4.09-.11,6.08,0,3.9,0,5.7,0,3.7,0,5.7.06,4,.11,6.1.11,4.16.18,6.25.16,4.15.28,6.14h-6.58q.21-3,.34-6.14c.08-2.09.14-4.18.19-6.25s.08-4.11.11-6.1,0-3.89,0-5.7,0-3.7,0-5.7-.06-4-.11-6.08-.11-4.13-.19-6.22-.2-4.12-.34-6.12Z"/><path d="M335.37,944.37v4.12H322.12q-.21,4.14-.3,8.33t-.12,8h12.69V969H321.7q0,2.67,0,5.61t.11,6q.06,3,.17,6.11c.07,2.05.17,4.05.28,6h-6.57q.21-3,.33-6.14c.09-2.09.15-4.18.2-6.25s.08-4.11.1-6.1,0-3.89,0-5.7,0-3.7,0-5.7-.06-4-.1-6.08-.11-4.13-.2-6.22-.19-4.12-.33-6.12Z"/><path d="M347.25,944.37c-.14,2-.25,4-.33,6.12s-.15,4.16-.19,6.22-.08,4.09-.11,6.08,0,3.9,0,5.7,0,3.7,0,5.7.06,4,.11,6.1.1,4.16.17,6.25.17,4.15.28,6.14h-6.57q.21-3,.33-6.14c.09-2.09.15-4.18.2-6.25s.08-4.11.1-6.1,0-3.89,0-5.7,0-3.7,0-5.7-.06-4-.1-6.08-.11-4.13-.2-6.22-.19-4.12-.33-6.12Z"/><path d="M359.49,968.56a44.15,44.15,0,0,0,.81,9,22.47,22.47,0,0,0,2.3,6.52,11.14,11.14,0,0,0,3.59,4,8.37,8.37,0,0,0,4.65,1.35,9.18,9.18,0,0,0,2.75-.38,10.65,10.65,0,0,0,2.16-1,13.84,13.84,0,0,0,1.81-1.3l1.65-1.39v7.07c-1.31.32-2.63.59-3.95.79a29.82,29.82,0,0,1-4.42.3,16.1,16.1,0,0,1-7-1.52,14.87,14.87,0,0,1-5.53-4.58,23,23,0,0,1-3.66-7.77,41.14,41.14,0,0,1-1.32-11.06,39.06,39.06,0,0,1,1.39-11.06,23.84,23.84,0,0,1,3.76-7.77,15.2,15.2,0,0,1,5.56-4.58,15.51,15.51,0,0,1,6.76-1.52,29.82,29.82,0,0,1,4.42.3c1.32.2,2.64.47,3.95.79v7.07c-.54-.44-1.09-.91-1.65-1.39a13.84,13.84,0,0,0-1.81-1.3,10.65,10.65,0,0,0-2.16-1,9.18,9.18,0,0,0-2.75-.38,8.37,8.37,0,0,0-4.65,1.35,11.14,11.14,0,0,0-3.59,4,22.47,22.47,0,0,0-2.3,6.52A44.22,44.22,0,0,0,359.49,968.56Z"/><path d="M403.4,992.68q-.5-3.37-1-6.68l-1.05-6.61H389.9c-.38,2.2-.73,4.4-1.07,6.61s-.68,4.43-1,6.68h-6.68c.75-2.84,1.48-5.76,2.21-8.77s1.42-6,2.07-9,1.29-5.93,1.89-8.83,1.14-5.66,1.65-8.29,1-5.1,1.39-7.37.78-4.29,1.09-6h8.33c.3,1.76.67,3.78,1.09,6s.88,4.73,1.39,7.37,1.05,5.4,1.65,8.29,1.22,5.84,1.88,8.83,1.35,6,2.07,9,1.47,5.93,2.22,8.77Zm-8-41.21q-1.44,6-2.6,11.89t-2.18,11.92h10.05q-1-6-2.2-11.92t-2.58-11.89Z"/><path d="M408.67,944.37h24.08v4.12h-9c-.19,3.44-.3,6.89-.35,10.33s-.07,6.67-.07,9.67c0,1.81,0,3.7,0,5.7s.06,4,.11,6.1.1,4.16.17,6.25.17,4.15.29,6.14h-6.58q.21-3,.34-6.14c.08-2.09.14-4.18.19-6.25s.08-4.11.1-6.1,0-3.89,0-5.7q0-4.5-.09-9.67c-.06-3.44-.17-6.89-.33-10.33h-9Z"/><path d="M443.65,944.37c-.14,2-.25,4-.33,6.12s-.15,4.16-.19,6.22-.09,4.09-.11,6.08,0,3.9,0,5.7,0,3.7,0,5.7.06,4,.11,6.1.1,4.16.17,6.25.17,4.15.28,6.14H437q.21-3,.33-6.14c.08-2.09.15-4.18.2-6.25s.08-4.11.1-6.1,0-3.89,0-5.7,0-3.7,0-5.7-.06-4-.1-6.08-.12-4.13-.2-6.22-.19-4.12-.33-6.12Z"/><path d="M480.22,968.56a47.75,47.75,0,0,1-1.16,11.23,24.62,24.62,0,0,1-3.22,7.81,13.38,13.38,0,0,1-4.84,4.55,12.86,12.86,0,0,1-12,0,13.45,13.45,0,0,1-4.84-4.55,24.62,24.62,0,0,1-3.23-7.81,53.88,53.88,0,0,1,0-22.43,24.88,24.88,0,0,1,3.23-7.82A13.52,13.52,0,0,1,459,945a12.86,12.86,0,0,1,12,0,13.44,13.44,0,0,1,4.84,4.57,24.88,24.88,0,0,1,3.22,7.82A47.71,47.71,0,0,1,480.22,968.56Zm-6.05,0a54.8,54.8,0,0,0-.7-9.35,25.34,25.34,0,0,0-1.94-6.49,9.71,9.71,0,0,0-2.9-3.76,6,6,0,0,0-3.6-1.21,6.05,6.05,0,0,0-3.64,1.21,9.93,9.93,0,0,0-2.92,3.76,24.92,24.92,0,0,0-2,6.49,63.06,63.06,0,0,0,0,18.74,24.76,24.76,0,0,0,2,6.47,10,10,0,0,0,2.92,3.74,6.05,6.05,0,0,0,3.64,1.21,6,6,0,0,0,3.6-1.21,9.78,9.78,0,0,0,2.9-3.74,25.17,25.17,0,0,0,1.94-6.47A55.22,55.22,0,0,0,474.17,968.56Z"/><path d="M512.52,944.37c-.14,2-.25,4-.33,6.12s-.15,4.16-.19,6.22-.08,4.09-.11,6.08,0,3.9,0,5.7,0,3.7,0,5.7.06,4,.11,6.1.1,4.16.17,6.25.17,4.15.28,6.14H506q-1.8-5.17-3.52-9.85c-1.14-3.11-2.29-6.13-3.42-9.05s-2.27-5.76-3.4-8.54-2.25-5.54-3.37-8.28H492c0,2-.06,4-.05,6s0,3.79,0,5.57,0,3.7,0,5.7.06,4,.11,6.1.1,4.16.17,6.25.17,4.15.29,6.14h-6.44q.21-3,.34-6.14c.08-2.09.14-4.18.19-6.25s.08-4.11.1-6.1,0-3.89,0-5.7,0-3.7,0-5.7-.05-4-.1-6.08-.11-4.13-.19-6.22-.2-4.12-.34-6.12h6.58q3.54,10.33,7,19.51t6.82,17.41h.24c0-1,0-2.11,0-3.24s0-2.24,0-3.35,0-2.2,0-3.26,0-2,0-3c0-1.8,0-3.7,0-5.7s-.06-4-.1-6.08-.11-4.13-.2-6.22-.19-4.12-.33-6.12Z"/><path d="M527.71,989.65a8.66,8.66,0,0,0,2.76-.44,6.28,6.28,0,0,0,2.41-1.42,7.12,7.12,0,0,0,1.69-2.51,9.86,9.86,0,0,0,.63-3.75,8.11,8.11,0,0,0-.76-3.51,14.23,14.23,0,0,0-2-3.1,26,26,0,0,0-2.81-2.86q-1.59-1.39-3.24-2.8t-3.23-2.9a23.13,23.13,0,0,1-2.82-3.16,15.6,15.6,0,0,1-2-3.6,11.39,11.39,0,0,1-.76-4.22,11.77,11.77,0,0,1,1.23-5.63,10.84,10.84,0,0,1,3.13-3.67,12.31,12.31,0,0,1,4.2-2,17.79,17.79,0,0,1,4.49-.6,26.42,26.42,0,0,1,4.41.37c1.42.25,2.78.51,4.09.79v7c-.75-.63-1.46-1.21-2.12-1.72a14.43,14.43,0,0,0-2-1.32,9.73,9.73,0,0,0-2-.84,8.26,8.26,0,0,0-2.25-.3,9.48,9.48,0,0,0-2.8.4,6.16,6.16,0,0,0-2.28,1.25,6.09,6.09,0,0,0-1.55,2.14,7.52,7.52,0,0,0-.58,3.1,8.32,8.32,0,0,0,1.3,4.55,20.69,20.69,0,0,0,3.27,3.92q2,1.86,4.25,3.73a41.45,41.45,0,0,1,4.26,4,21.3,21.3,0,0,1,3.27,4.7,12.72,12.72,0,0,1,1.3,5.82,15,15,0,0,1-.57,4.34,11.22,11.22,0,0,1-1.53,3.27,10.15,10.15,0,0,1-2.23,2.34,11.62,11.62,0,0,1-2.7,1.52,13.62,13.62,0,0,1-3,.83,19,19,0,0,1-3,.25c-1.14,0-2.2,0-3.16-.13s-1.86-.2-2.69-.35-1.6-.33-2.32-.53-1.41-.41-2.09-.65v-7.2c.73.68,1.45,1.32,2.18,1.91a15.59,15.59,0,0,0,2.27,1.57,11.65,11.65,0,0,0,2.47,1A10.69,10.69,0,0,0,527.71,989.65Z"/><path d="M334.69,447.07a17.83,17.83,0,0,0,5.68-.92,13.14,13.14,0,0,0,4.95-3,15.08,15.08,0,0,0,3.47-5.27,21.1,21.1,0,0,0,1.3-7.85,17.47,17.47,0,0,0-1.56-7.38,29.88,29.88,0,0,0-4.08-6.48,53.2,53.2,0,0,0-5.78-6q-3.26-2.91-6.65-5.86t-6.65-6.08a49.19,49.19,0,0,1-5.78-6.64,32.59,32.59,0,0,1-4.08-7.55A24.42,24.42,0,0,1,314,375.2a25.13,25.13,0,0,1,2.53-11.79,22.63,22.63,0,0,1,6.43-7.7,25.18,25.18,0,0,1,8.64-4.17,36.2,36.2,0,0,1,9.21-1.25,52.52,52.52,0,0,1,9.07.77c2.92.52,5.72,1.07,8.42,1.66v14.67q-2.31-2-4.37-3.61a30.86,30.86,0,0,0-4.12-2.76,19.37,19.37,0,0,0-4.23-1.77,16.43,16.43,0,0,0-4.62-.63,19,19,0,0,0-5.75.85,12.25,12.25,0,0,0-7.87,7.11,16,16,0,0,0-1.2,6.49,17.66,17.66,0,0,0,2.68,9.54,42.38,42.38,0,0,0,6.72,8.22q4,3.92,8.74,7.81a84.88,84.88,0,0,1,8.75,8.41,44.89,44.89,0,0,1,6.72,9.84,26.93,26.93,0,0,1,2.67,12.2,32.08,32.08,0,0,1-1.16,9.1,24.06,24.06,0,0,1-3.14,6.86,20.9,20.9,0,0,1-4.59,4.9,24.53,24.53,0,0,1-5.56,3.2,28.4,28.4,0,0,1-6.11,1.74,38,38,0,0,1-6.1.51c-2.37,0-4.53-.08-6.51-.26s-3.82-.41-5.53-.73-3.3-.69-4.77-1.11-2.9-.87-4.3-1.36V436.83q2.25,2.13,4.48,4a32.08,32.08,0,0,0,4.67,3.28,22.65,22.65,0,0,0,5.09,2.18A21.18,21.18,0,0,0,334.69,447.07Z"/><path d="M421.19,352.13v8.63H392.43q-.44,8.48-.61,16.91t-.26,16.4H419.1v8.63H391.56q0,9.51.15,20.38t.65,21.71h29.27v8.62H379.28q.44-6.26.69-12.86c.16-4.4.3-8.77.39-13.12s.17-8.61.22-12.79.07-8.16.07-11.94,0-7.77-.07-11.94-.12-8.43-.22-12.75-.23-8.68-.39-13.05-.4-8.65-.69-12.83Z"/><path d="M434.42,352.13h49.5v8.63H465.49q-.58,10.83-.72,21.67t-.15,20.27q0,5.67.07,11.94t.22,12.79q.15,6.52.36,13.12t.58,12.86H452.34q.44-6.26.68-12.86t.4-13.12q.15-6.53.22-12.79t.07-11.94q0-9.43-.18-20.27t-.69-21.67H434.42Z"/><path d="M492.15,352.13h49.51v8.63H523.23q-.59,10.83-.73,21.67t-.14,20.27q0,5.67.07,11.94t.22,12.79q.15,6.52.36,13.12t.58,12.86H510.08q.42-6.26.68-12.86t.4-13.12q.13-6.53.22-12.79t.07-11.94q0-9.43-.18-20.27t-.69-21.67H492.15Z"/><path d="M570.13,352.13q-.43,6.27-.69,12.83T569,378c-.09,4.32-.17,8.57-.21,12.75s-.08,8.16-.08,11.94,0,7.76.08,11.94.12,8.44.21,12.79.22,8.72.36,13.12.34,8.69.58,12.86H556.47q.43-6.26.68-12.86t.4-13.12q.15-6.53.22-12.79t.07-11.94c0-3.78,0-7.77-.07-11.94s-.12-8.43-.22-12.75-.23-8.68-.4-13.05-.39-8.65-.68-12.83Z"/><path d="M645.35,352.13q-.44,6.27-.68,12.83t-.4,13.05q-.15,6.48-.22,12.75c0,4.17-.07,8.16-.07,11.94s0,7.76.07,11.94.12,8.44.22,12.79.21,8.72.36,13.12.34,8.69.58,12.86H631.84q-3.69-10.83-7.23-20.64t-7-19q-3.51-9.18-7-17.91t-6.94-17.36h-.5Q603,384.94,603,391c0,4.05,0,7.94,0,11.68s0,7.76.07,11.94.12,8.44.22,12.79.21,8.72.36,13.12.33,8.69.57,12.86H591.08q.43-6.26.69-12.86c.16-4.4.3-8.77.39-13.12s.17-8.61.22-12.79.07-8.16.07-11.94,0-7.77-.07-11.94-.12-8.43-.22-12.75-.23-8.68-.39-13.05-.4-8.65-.69-12.83h13.51Q611.9,373.8,618.9,393t14,36.49h.51q.08-3.24.07-6.78t0-7c0-2.33,0-4.61-.07-6.82s0-4.28,0-6.19c0-3.78,0-7.77-.08-11.94s-.12-8.43-.21-12.75-.23-8.68-.4-13.05-.4-8.65-.69-12.83Z"/><path d="M694.35,403.58h26.3q-.28,6-.4,11.87t-.11,11.13c0,3.54,0,6.77,0,9.69s.08,5.45.18,7.56c.1,2.51.19,4.74.29,6.71a41,41,0,0,1-9,3.24,53.39,53.39,0,0,1-12.79,1.33,30.19,30.19,0,0,1-25.15-12.79A49.17,49.17,0,0,1,666.27,426a87.77,87.77,0,0,1-2.71-23.18,83.44,83.44,0,0,1,2.86-23.19,49.37,49.37,0,0,1,7.76-16.29,32,32,0,0,1,11.46-9.62,31.51,31.51,0,0,1,13.91-3.17,53.52,53.52,0,0,1,5.49.26c1.64.18,3.17.41,4.59.7a32,32,0,0,1,4,1.11c1.25.44,2.48.91,3.69,1.4v14.89a32.47,32.47,0,0,0-8.86-7.56,19.1,19.1,0,0,0-9-2.17,16.46,16.46,0,0,0-9.9,3.13,24.93,24.93,0,0,0-7.34,8.88A50.44,50.44,0,0,0,677.69,385a92.84,92.84,0,0,0-1.56,17.73,98.45,98.45,0,0,0,1.45,17.43A52.18,52.18,0,0,0,681.92,434a25.21,25.21,0,0,0,7.26,9.18,16.42,16.42,0,0,0,10.22,3.31,21.74,21.74,0,0,0,4.45-.4,13.77,13.77,0,0,0,3.79-1.44c.05-1.08.1-2.33.15-3.76,0-1.23.09-2.71.14-4.46s.07-3.77.07-6.08c0-2.51,0-5.28-.1-8.33s-.21-6.34-.4-9.88H694.35Z"/><path d="M757.07,447.07a17.72,17.72,0,0,0,5.67-.92,13,13,0,0,0,5-3,15,15,0,0,0,3.47-5.27,20.9,20.9,0,0,0,1.3-7.85,17.62,17.62,0,0,0-1.55-7.38,30.27,30.27,0,0,0-4.08-6.48,53.32,53.32,0,0,0-5.79-6q-3.24-2.91-6.64-5.86t-6.65-6.08A48.49,48.49,0,0,1,742,391.6a33,33,0,0,1-4.09-7.55,24.63,24.63,0,0,1-1.55-8.85,25,25,0,0,1,2.53-11.79,22.52,22.52,0,0,1,6.43-7.7,25.09,25.09,0,0,1,8.64-4.17,36.09,36.09,0,0,1,9.21-1.25,52.6,52.6,0,0,1,9.07.77q4.37.78,8.42,1.66v14.67q-2.31-2-4.37-3.61a31.52,31.52,0,0,0-4.12-2.76,19.79,19.79,0,0,0-4.23-1.77,16.55,16.55,0,0,0-4.63-.63,19,19,0,0,0-5.74.85,12.57,12.57,0,0,0-4.7,2.61,12.88,12.88,0,0,0-3.18,4.5,16.21,16.21,0,0,0-1.19,6.49,17.74,17.74,0,0,0,2.67,9.54,43.13,43.13,0,0,0,6.72,8.22q4,3.92,8.75,7.81a84.78,84.78,0,0,1,8.74,8.41,44.2,44.2,0,0,1,6.72,9.84,26.8,26.8,0,0,1,2.68,12.2,32.44,32.44,0,0,1-1.16,9.1,24.34,24.34,0,0,1-3.14,6.86,21.32,21.32,0,0,1-4.59,4.9,24.59,24.59,0,0,1-5.57,3.2,28.31,28.31,0,0,1-6.1,1.74,38.16,38.16,0,0,1-6.11.51c-2.36,0-4.53-.08-6.5-.26s-3.82-.41-5.53-.73-3.3-.69-4.77-1.11-2.9-.87-4.3-1.36V436.83c1.49,1.42,3,2.76,4.48,4a32,32,0,0,0,4.66,3.28,22.53,22.53,0,0,0,5.1,2.18A21.18,21.18,0,0,0,757.07,447.07Z"/></svg>
