<svg id="Layer_1" data-name="Layer 1" xmlns="http://www.w3.org/2000/svg" xmlns:xlink="http://www.w3.org/1999/xlink" viewBox="0 0 1080 1920">
  <defs>
    <style>
      .cls-1 {
        fill: url(#radial-gradient);
      }

      .cls-2 {
        fill: url(#linear-gradient);
      }

      .cls-3 {
        fill: url(#linear-gradient-2);
      }

      .cls-4 {
        fill: url(#linear-gradient-3);
      }

      .cls-5 {
        fill: url(#linear-gradient-4);
      }

      .cls-6 {
        fill: url(#linear-gradient-5);
      }

      .cls-7 {
        fill: url(#linear-gradient-6);
      }

      .cls-8 {
        fill: url(#linear-gradient-7);
      }

      .cls-9 {
        fill: url(#linear-gradient-8);
      }

      .cls-10 {
        fill: url(#linear-gradient-9);
      }

      .cls-11 {
        fill: url(#linear-gradient-10);
      }

      .cls-12 {
        fill: url(#linear-gradient-11);
      }

      .cls-13 {
        fill: url(#linear-gradient-12);
      }

      .cls-14 {
        fill: url(#linear-gradient-13);
      }

      .cls-15 {
        fill: url(#linear-gradient-14);
      }

      .cls-16 {
        fill: url(#linear-gradient-15);
      }

      .cls-17 {
        fill: url(#linear-gradient-16);
      }

      .cls-18 {
        fill: url(#linear-gradient-17);
      }

      .cls-19 {
        fill: url(#linear-gradient-18);
      }

      .cls-20 {
        fill: url(#linear-gradient-19);
      }

      .cls-21 {
        fill: #f7f7f7;
      }

      .cls-22 {
        fill: url(#linear-gradient-20);
      }

      .cls-23 {
        fill: url(#linear-gradient-21);
      }

      .cls-24 {
        fill: #ff000f;
        opacity: 0.65;
      }

      .cls-25 {
        fill: #39c;
      }

      .cls-26 {
        fill: #fff;
      }
    </style>
    <radialGradient id="radial-gradient" cx="538.5" cy="960" r="781.48" gradientUnits="userSpaceOnUse">
      <stop offset="0" stop-color="#fff"/>
      <stop offset="1" stop-color="#80bed6"/>
    </radialGradient>
    <linearGradient id="linear-gradient" x1="-3" y1="483.4" x2="556.26" y2="483.4" gradientUnits="userSpaceOnUse">
      <stop offset="0.13" stop-color="#80bed6"/>
      <stop offset="0.88" stop-color="#fff"/>
    </linearGradient>
    <linearGradient id="linear-gradient-2" x1="549.63" y1="482.3" x2="1079" y2="482.3" gradientUnits="userSpaceOnUse">
      <stop offset="0.26" stop-color="#fff"/>
      <stop offset="0.82" stop-color="#80bed6"/>
      <stop offset="0.9" stop-color="#8ec5db"/>
    </linearGradient>
    <linearGradient id="linear-gradient-3" x1="-3" y1="1442.07" x2="548.61" y2="1442.07" gradientUnits="userSpaceOnUse">
      <stop offset="0" stop-color="#80bed6"/>
      <stop offset="0.19" stop-color="#86c1d8"/>
      <stop offset="0.7" stop-color="#fff"/>
    </linearGradient>
    <linearGradient id="linear-gradient-4" x1="550.29" y1="1440.23" x2="1079" y2="1440.23" gradientUnits="userSpaceOnUse">
      <stop offset="0.32" stop-color="#fff"/>
      <stop offset="0.58" stop-color="#80bed6"/>
      <stop offset="0.84" stop-color="#86c1d8"/>
    </linearGradient>
    <linearGradient id="linear-gradient-5" x1="528.55" y1="713.53" x2="376.12" y2="6.82" gradientUnits="userSpaceOnUse">
      <stop offset="0" stop-color="#fff"/>
      <stop offset="0.58" stop-color="#bfdeea"/>
      <stop offset="1" stop-color="#80bed6"/>
    </linearGradient>
    <linearGradient id="linear-gradient-6" x1="601.41" y1="811.3" x2="754.24" y2="-176.71" gradientUnits="userSpaceOnUse">
      <stop offset="0.02" stop-color="#fff"/>
      <stop offset="0.71" stop-color="#80bed6"/>
      <stop offset="0.9" stop-color="#8ec5db"/>
    </linearGradient>
    <linearGradient id="linear-gradient-7" x1="294.63" y1="1443.04" x2="550.31" y2="1443.04" xlink:href="#linear-gradient-3"/>
    <linearGradient id="linear-gradient-8" x1="552.51" y1="1443.04" x2="808.19" y2="1443.04" gradientUnits="userSpaceOnUse">
      <stop offset="0" stop-color="#80bed6"/>
      <stop offset="0" stop-color="#fff"/>
      <stop offset="0.65" stop-color="#8fc6db"/>
      <stop offset="0.75" stop-color="#86c1d8"/>
    </linearGradient>
    <linearGradient id="linear-gradient-9" x1="-3" y1="676.06" x2="550" y2="676.06" gradientUnits="userSpaceOnUse">
      <stop offset="0" stop-color="#fff"/>
      <stop offset="0" stop-color="#80bed6"/>
      <stop offset="0.84" stop-color="#fbfdfe"/>
    </linearGradient>
    <linearGradient id="linear-gradient-10" y1="1245.53" x2="546" y2="1245.53" xlink:href="#linear-gradient-3"/>
    <linearGradient id="linear-gradient-11" x1="546.99" y1="692.86" x2="1079" y2="692.86" gradientUnits="userSpaceOnUse">
      <stop offset="0.39" stop-color="#fff"/>
      <stop offset="0.82" stop-color="#80bed6"/>
      <stop offset="0.9" stop-color="#8ec5db"/>
    </linearGradient>
    <linearGradient id="linear-gradient-12" x1="550.99" y1="1233.73" x2="1079" y2="1233.73" gradientUnits="userSpaceOnUse">
      <stop offset="0.06" stop-color="#fff"/>
      <stop offset="0.28" stop-color="#f7fbfc"/>
      <stop offset="0.6" stop-color="#86c1d8"/>
      <stop offset="0.84" stop-color="#80bed6"/>
    </linearGradient>
    <linearGradient id="linear-gradient-13" x1="-3" y1="847.96" x2="553.06" y2="847.96" gradientUnits="userSpaceOnUse">
      <stop offset="0" stop-color="#80bed6"/>
      <stop offset="0.7" stop-color="#fff"/>
    </linearGradient>
    <linearGradient id="linear-gradient-14" y1="1075.47" x2="553.06" y2="1075.47" xlink:href="#linear-gradient-3"/>
    <linearGradient id="linear-gradient-15" x1="548.64" y1="1070.15" y2="1070.15" xlink:href="#linear-gradient-11"/>
    <linearGradient id="linear-gradient-16" x1="552.64" y1="851.11" x2="1079" y2="851.11" gradientUnits="userSpaceOnUse">
      <stop offset="0.31" stop-color="#fff"/>
      <stop offset="0.82" stop-color="#80bed6"/>
      <stop offset="0.9" stop-color="#8ec5db"/>
    </linearGradient>
    <linearGradient id="linear-gradient-17" x1="542.15" y1="961.03" y2="961.03" xlink:href="#linear-gradient-11"/>
    <linearGradient id="linear-gradient-18" y1="962" x2="558.85" y2="962" xlink:href="#linear-gradient-3"/>
    <linearGradient id="linear-gradient-19" x1="553.58" y1="2306.71" x2="542.64" y2="1185.82" gradientUnits="userSpaceOnUse">
      <stop offset="0" stop-color="#656565"/>
      <stop offset="0.36" stop-color="#00003f"/>
      <stop offset="0.74" stop-color="#86baff"/>
      <stop offset="0.98" stop-color="#3e3e3e"/>
    </linearGradient>
    <linearGradient id="linear-gradient-20" x1="2.5" y1="1349.42" x2="1083.5" y2="1349.42" gradientUnits="userSpaceOnUse">
      <stop offset="0" stop-color="#656565"/>
      <stop offset="0.12"/>
      <stop offset="0.42" stop-color="#3e3e3e"/>
      <stop offset="0.95" stop-color="#fff"/>
    </linearGradient>
    <linearGradient id="linear-gradient-21" x1="547.89" y1="1794.56" x2="536.13" y2="706.75" gradientUnits="userSpaceOnUse">
      <stop offset="0" stop-color="#656565"/>
      <stop offset="0.36" stop-color="#00003f"/>
      <stop offset="0.79" stop-color="#86baff"/>
      <stop offset="0.98" stop-color="#3e3e3e"/>
    </linearGradient>
  </defs>
  <title>start</title>
  <rect class="cls-1" x="-2" y="-4" width="1081" height="1928"/>
  <polygon class="cls-2" points="556.26 966.8 -3 145.84 -3 0 126.57 0 556.26 966.8"/>
  <polygon class="cls-3" points="1079 0 1079 208.03 552.79 960.08 552.27 960.83 552.05 961.15 552.04 961.15 551.68 961.67 551.35 962.14 551.3 962.2 551.3 962.21 551 962.64 549.63 964.6 550.11 963.56 550.11 963.55 550.12 963.54 551.09 961.42 551.29 960.98 551.3 960.98 551.82 959.84 552.14 959.13 992.88 0 1079 0"/>
  <polygon class="cls-4" points="548.61 960.13 548.24 961.02 548.23 961.05 548.04 961.49 547.99 961.61 547.87 961.9 547.78 962.1 547.53 962.71 547.13 963.65 144.14 1924 -3 1924 -3 1807.41 546.27 963.72 546.71 963.04 547.35 962.06 547.51 961.82 547.67 961.58 548 961.07 548.07 960.95 548.61 960.13"/>
  <polygon class="cls-5" points="1079 1722.14 1079 1924 987.64 1924 554.27 965.26 553.58 963.73 553.29 963.09 553.06 962.57 553.01 962.47 552.87 962.16 552.82 962.05 552.45 961.23 552.42 961.18 552.42 961.17 552.27 960.83 552.23 960.75 552.2 960.68 552.17 960.6 551.82 959.84 551.05 958.13 550.78 957.53 550.29 956.45 550.81 957.2 551.16 957.71 552.14 959.13 552.73 959.98 552.74 960 552.79 960.08 553.03 960.42 553.08 960.5 553.15 960.6 553.79 961.52 553.97 961.78 554.24 962.18 554.61 962.71 554.78 962.95 554.79 962.96 557.01 966.18 561.52 972.73 561.54 972.75 1079 1722.14"/>
  <polygon class="cls-6" points="550.31 956.17 296.16 0 453.13 0 550.31 956.17"/>
  <polygon class="cls-7" points="805.72 0 550.51 960.17 648.09 0 805.72 0"/>
  <polygon class="cls-8" points="550.31 962.07 550.28 962.32 550.27 962.42 550.18 963.37 550.17 963.42 550.17 963.49 550.12 963.89 550.05 964.58 452.55 1924 294.63 1924 549.55 964.94 549.64 964.58 549.65 964.56 549.84 963.84 549.96 963.39 550.22 962.41 550.24 962.32 550.31 962.07"/>
  <polygon class="cls-9" points="808.19 1924 650.27 1924 552.67 963.61 552.62 963.15 552.61 963.04 552.6 962.92 552.59 962.83 552.58 962.78 552.56 962.53 552.51 962.07 552.63 962.53 552.68 962.71 552.73 962.89 552.74 962.95 552.79 963.14 552.8 963.18 553.01 963.96 808.19 1924"/>
  <polygon class="cls-10" points="-3 391.34 550 960.77 -3 565.77 -3 391.34"/>
  <polygon class="cls-11" points="546 962.88 545.26 963.65 545.08 963.83 -3 1528.19 -3 1355.02 544.49 963.96 544.61 963.87 546 962.88"/>
  <polygon class="cls-12" points="1079 418.96 1079 586.76 554.21 961.61 553.97 961.78 553.23 962.31 553.01 962.47 552.41 962.9 552.16 963.08 546.99 966.77 550.11 963.56 550.11 963.55 550.12 963.54 551 962.64 551.36 962.27 551.43 962.2 551.87 961.75 552.38 961.22 552.42 961.18 552.42 961.17 553.08 960.5 1079 418.96"/>
  <polygon class="cls-13" points="1079 1339.03 1079 1505.57 561.54 972.75 561.52 972.73 554.27 965.26 553.01 963.96 552.67 963.61 552.26 963.18 551.84 962.76 551.53 962.44 551.3 962.21 551.3 962.2 550.99 961.88 551.35 962.14 551.43 962.2 551.8 962.46 551.94 962.56 552.37 962.87 552.41 962.9 552.61 963.04 552.75 963.14 552.8 963.17 552.8 963.18 553.58 963.73 557.01 966.18 1079 1339.03"/>
  <polygon class="cls-14" points="553.06 963.02 552.43 962.88 551.05 962.59 551.04 962.58 550.6 962.49 548.93 962.13 548.92 962.13 547.01 961.71 547 961.71 545.47 961.38 545.45 961.38 -3 842.99 -3 732.9 548.91 961.3 548.92 961.3 549.91 961.72 550.11 961.8 550.12 961.8 550.79 962.08 551.26 962.27 551.33 962.3 552.54 962.81 553.06 963.02"/>
  <polygon class="cls-15" points="553.06 960.41 552.36 960.7 551.2 961.18 549.91 961.72 549.77 961.77 548.93 962.13 548.92 962.13 544.74 963.86 544.73 963.86 -3 1190.53 -3 1080.43 531.72 965.02 531.75 965.01 531.78 965.01 547 961.71 547.01 961.71 547.65 961.58 548.91 961.3 548.92 961.3 551.39 960.77 552.47 960.54 553.06 960.41"/>
  <polygon class="cls-16" points="1079 1074.88 1079 1179.89 554.8 962.96 554.79 962.96 554.78 962.95 554.08 962.66 553.23 962.31 552.87 962.16 552.55 962.03 551.87 961.75 551.68 961.67 551.09 961.42 550.85 961.33 550.15 961.04 549.82 960.9 548.64 960.41 549.87 960.67 549.92 960.69 550.59 960.83 550.85 960.89 551.29 960.98 551.3 960.98 551.55 961.04 552.04 961.15 552.05 961.15 552.38 961.22 552.45 961.23 553.79 961.52 554.21 961.61 558.74 962.59 558.8 962.6 562.59 963.42 1079 1074.88"/>
  <polygon class="cls-17" points="1079 742.2 1079 846.4 558.09 958.84 553.79 959.77 553.78 959.77 552.87 959.97 552.74 960 552.64 960.02 552.73 959.98 552.91 959.91 554.15 959.39 554.16 959.38 561.67 956.28 1079 742.2"/>
  <polygon class="cls-18" points="1079 912.64 1079 1009.42 562.6 963.42 562.59 963.42 556.11 962.84 554.61 962.71 554.09 962.66 554.08 962.66 553.06 962.57 552.89 962.56 552.63 962.53 552.56 962.53 551.8 962.46 551.68 962.45 551.53 962.44 551.22 962.41 551.17 962.4 550.66 962.36 550.28 962.32 550.24 962.32 549.51 962.26 548.77 962.19 547.78 962.1 547.35 962.06 545.95 961.94 542.15 961.6 545.01 961.34 545.19 961.32 548 961.07 548.23 961.05 548.28 961.04 549.82 960.9 550.59 960.83 551.4 960.76 551.49 960.75 552.2 960.68 552.38 960.67 552.46 960.66 552.97 960.61 553.15 960.6 555.99 960.34 556 960.34 1079 912.64"/>
  <polygon class="cls-19" points="558.85 962.6 551.97 963.21 550.51 963.34 550.3 963.36 550.29 963.36 550.2 963.37 544.74 963.86 544.73 963.86 531.8 965.01 531.75 965.01 531.72 965.02 -3 1012.65 -3 911.36 545.45 961.38 545.47 961.38 547.65 961.58 549.77 961.77 550.11 961.8 550.12 961.8 550.88 961.87 550.89 961.87 551.5 961.93 551.67 961.95 553.51 962.11 558.85 962.6"/>
  <path class="cls-20" d="M80.5,1924l-76-547.36C4.5,1296,99.05,1230,214.6,1230H874.4c115.55,0,210.1,66,210.1,146.64L1046,1924"/>
  <ellipse class="cls-21" cx="496.6" cy="1687.84" rx="80.4" ry="95.1"/>
  <path class="cls-22" d="M1083.5,1287.08v193c-75.48,28.15-245.1,10.64-531.95,9.58-264-1-474.42,19-549-32.2V1312c78-132.84,269.85-107,549.05-107C812.1,1205,997.76,1181.76,1083.5,1287.08Z"/>
  <path class="cls-23" d="M1079.5,1320.84v82.55c-47.66,37.75-212.35,21.06-529.37,20.19-334-.92-576.75,24.61-539.94-79.84,49.89-141.57,242-118.38,539.94-118.38C831,1225.36,1019.22,1204.06,1079.5,1320.84Z"/>
  <ellipse class="cls-21" cx="634.2" cy="1687.52" rx="55.9" ry="66.12"/>
  <circle cx="524.72" cy="1715.07" r="34.06"/>
  <circle cx="636.25" cy="1701.44" r="34.06"/>
  <path class="cls-24" d="M670.16,1853.43c4.84,2.74,18.06-11.62,23.34-19.16,7-10,18.65-27.17,13.8-29.91s-23.35,7.79-29.36,18.41S665.32,1850.69,670.16,1853.43Z"/>
  <path d="M358.82,1610.43l-1-.25a110.93,110.93,0,0,1,48.95-67c24.27-15,52.53-19.44,79.57-12.46l-.25,1c-26.77-6.92-54.76-2.53-78.8,12.34A109.93,109.93,0,0,0,358.82,1610.43Z"/>
  <path d="M709.85,1633.61a57.54,57.54,0,0,0-59.15-55.79l0-1a58.58,58.58,0,0,1,60.18,56.76Z"/>
  <path d="M617.15,1880.81c-23.7,0-45.35-9.8-57.67-28.59l4.18-2.75c19.92,30.38,66.45,35.21,103.72,10.77s51.4-69,31.49-99.41l4.18-2.74c21.43,32.68,6.66,80.38-32.92,106.33C653.3,1875.45,634.67,1880.81,617.15,1880.81Z"/>
  <path d="M495,1857.89q-12.31,0-24.8-1l.39-5c62.59,4.83,122.82-9,169.59-38.8,46.55-29.71,74.17-71.78,77.77-118.47l5,.38c-3.72,48.29-32.15,91.73-80.06,122.3C601.44,1843.81,549.67,1857.89,495,1857.89Z"/>
  <g>
    <path class="cls-25" d="M169.86,183.56a1097.67,1097.67,0,0,1,135.67-18.09,304.35,304.35,0,0,0-15.24,28.92q-24.5,2.79-49.26,6.79a274.43,274.43,0,0,0-21.54,78.76,281.43,281.43,0,0,0,.86,71.52,297,297,0,0,0,8.57,40.33,329.86,329.86,0,0,0,14.93,41.33,377.67,377.67,0,0,0,20.63,40.21,408.4,408.4,0,0,0,24.74,37.12q-11.46,7.65-22.68,15.85c-8.58-12.39-16.91-25.38-24.78-39a439.26,439.26,0,0,1-21.22-41.69A369.75,369.75,0,0,1,204.72,403a343.33,343.33,0,0,1-9.78-41.41A313.94,313.94,0,0,1,191,288.27a321.81,321.81,0,0,1,15.92-81q-24.93,4.88-50.07,11.05A339.87,339.87,0,0,1,169.86,183.56Z"/>
    <path class="cls-25" d="M390.25,162.92c21.42.27,32.26,7.84,34.81,21.31s-3.93,33.39-13.47,60.84c-6.09,17.78-11.64,32.78-18.34,45.24s-14.46,22.8-24.14,31.22a216.48,216.48,0,0,0,11.64,37.35A297.44,297.44,0,0,0,400,396.76a318.7,318.7,0,0,0,30.54,42.34q-14.06,5.06-27.94,10.79a400.19,400.19,0,0,1-29.7-48.06,290,290,0,0,1-16.09-36.66,222.85,222.85,0,0,1-8.67-30.84q-16.64,4.08-33.27,8.91a260.44,260.44,0,0,0,5.44,32.35,313.81,313.81,0,0,0,9.51,32.62,340.3,340.3,0,0,0,13.06,31.85c4.89,10.46,10.19,20.43,15.73,29.95q-12,6-23.88,12.64c-6.32-11.91-12.37-24.31-17.94-37.25a392.39,392.39,0,0,1-14.55-39.25,338.72,338.72,0,0,1-9.71-39.5A310.08,310.08,0,0,1,288,328.78a294.44,294.44,0,0,1,.33-38.6,280.55,280.55,0,0,1,6.28-41.72,292.53,292.53,0,0,1,13.26-42.77,324.78,324.78,0,0,1,20-41.54Q359.37,162.61,390.25,162.92Zm-42.73,25.44A255.4,255.4,0,0,0,320.62,255a252.35,252.35,0,0,0-7.23,62.91q12.38-3.12,24.73-5.86a37.73,37.73,0,0,0,13.66-5.95,41.65,41.65,0,0,0,10.89-11.95,102.68,102.68,0,0,0,9-19.12c2.87-7.63,5.64-16.79,8.91-27.53,6.68-21.76,11.58-37.06,10.73-46.48s-6.62-14.13-18.55-13.77Q360.2,187.64,347.52,188.36Z"/>
    <path class="cls-25" d="M518.15,414.38q-5.88-16-10.3-32.11a299.13,299.13,0,0,1-7-32.48Q476,352.56,451,357a244.73,244.73,0,0,0,1,36.43,286.13,286.13,0,0,0,6.07,36.4q-12.78,4-25.44,8.47a325.16,325.16,0,0,1-5.79-50.52,283.43,283.43,0,0,1,3-51.92,255.67,255.67,0,0,1,12.92-50.22,260.56,260.56,0,0,1,22.12-45.62,270.18,270.18,0,0,1,28.36-38.26,302.91,302.91,0,0,1,29.67-29.12q21.24,3,42,6.73A201.94,201.94,0,0,0,546,207.2a198.08,198.08,0,0,0-15.64,35.21,192.19,192.19,0,0,0-8.69,40.49,216.28,216.28,0,0,0-.1,43A248.52,248.52,0,0,0,529.67,369a313.74,313.74,0,0,0,14.48,40.57Q531.13,411.7,518.15,414.38Zm-3.37-205.24a230.59,230.59,0,0,0-42.2,60.36A221.3,221.3,0,0,0,453,334.34q22.65-3.18,45.2-5a256.43,256.43,0,0,1,1.7-60.14,232.37,232.37,0,0,1,17.31-59.79Z"/>
    <path class="cls-25" d="M589.32,390.32a35.13,35.13,0,0,0,11-2.56,28.11,28.11,0,0,0,9.56-6.45A36.09,36.09,0,0,0,617,370.64a53.48,53.48,0,0,0,4-15.58,36.58,36.58,0,0,0-.93-14.74,57.78,57.78,0,0,0-5.81-13.42A101.07,101.07,0,0,0,605,314q-5.32-6.4-10.74-13a163.85,163.85,0,0,1-10.16-13.77,56.68,56.68,0,0,1-7.12-15,40.22,40.22,0,0,1-1.31-16.82c.75-5.93,3.27-12.25,7.79-18.78a72.17,72.17,0,0,1,24.74-22.27,99.72,99.72,0,0,1,29.6-10.64,105.5,105.5,0,0,1,28.52-1.5,107.23,107.23,0,0,1,23.6,4.55,108.58,108.58,0,0,1,18.65,7.92q8.07,4.44,15.14,8.85a213.31,213.31,0,0,0-27.23,21.18c-1.19-3-2.35-5.85-3.5-8.43a32.46,32.46,0,0,0-4.21-7,26.19,26.19,0,0,0-6.18-5.56,33.85,33.85,0,0,0-9.25-4,59.94,59.94,0,0,0-14.67-2.24A56.29,56.29,0,0,0,643.07,219a56.88,56.88,0,0,0-15.2,6.34,47.81,47.81,0,0,0-13.08,11.55c-5.23,6.65-7.43,13.24-6.93,19.49a44.61,44.61,0,0,0,5.85,18.29,143.64,143.64,0,0,0,11.95,17.77A155.78,155.78,0,0,1,638,311a80.6,80.6,0,0,1,8.1,20.18c1.81,7.09,1.75,14.84.26,23.47a87.53,87.53,0,0,1-4.55,17.17,62.08,62.08,0,0,1-6.89,13.07,49.49,49.49,0,0,1-8.82,9.67,53.32,53.32,0,0,1-10.31,6.78,56.31,56.31,0,0,1-11.28,4.25,74.79,74.79,0,0,1-11.43,2c-4.47.42-8.59.68-12.38.74s-7.37,0-10.72-.31-6.51-.68-9.46-1.2-5.85-1.14-8.71-1.84A279.66,279.66,0,0,1,548,371.29q4.77,4.36,9.56,8.1a62.54,62.54,0,0,0,9.8,6.34,43.3,43.3,0,0,0,10.4,3.82A39.67,39.67,0,0,0,589.32,390.32Z"/>
    <path class="cls-25" d="M867.86,288.73a175.78,175.78,0,0,0-23.55,10,158.14,158.14,0,0,0-20.45,12.54,146.87,146.87,0,0,0-16.75,14.14A136.41,136.41,0,0,0,794.21,340a133.06,133.06,0,0,0-10.31,15.73,147.09,147.09,0,0,0-8.42,17.78,139.13,139.13,0,0,0-6,19,144.25,144.25,0,0,0-3.22,19.21q-12.54-2.33-25.16-4.16c1.31-6.53,2.89-13.17,4.85-19.9a203,203,0,0,1,6.89-19.79,179.15,179.15,0,0,1,8.87-18.63,176.07,176.07,0,0,1,10.4-16.64Q742,323,710.75,315.73a154.2,154.2,0,0,0-9.32,19.5,160.82,160.82,0,0,0-6.85,21.64,178.77,178.77,0,0,0-3.94,22.75,173.42,173.42,0,0,0-.95,22.61q-12.81-.81-25.67-1.11c.53-7.69,1.35-15.56,2.52-23.58a230.18,230.18,0,0,1,4.74-23.71,203.36,203.36,0,0,1,7.19-22.61,196.33,196.33,0,0,1,9.24-20.49A188.63,188.63,0,0,1,699.55,291a191.76,191.76,0,0,1,15.73-19.95,206.28,206.28,0,0,1,19.55-19,240.44,240.44,0,0,1,22.52-17Q772,241,786.2,247.38a176.8,176.8,0,0,0-39.08,24.91,170.12,170.12,0,0,0-27.82,29.92q31.4,8.3,61.6,18.91a175.38,175.38,0,0,1,26.29-25.4,202.82,202.82,0,0,1,34.13-21.57Q854.77,281.26,867.86,288.73Z"/>
    <path class="cls-25" d="M562.82,595.55a384.37,384.37,0,0,0,29.95,36.64c9.16,9.78,17.2,17.15,24.17,22.33s12.79,8.19,17.68,9.19,8.69,0,11.68-2.9a15,15,0,0,0,3.88-6,30.25,30.25,0,0,0,1.54-7.09A58.68,58.68,0,0,0,652,640c-.08-2.65-.13-5.23-.12-7.71q8.58,13.19,16.88,25.72-2.43,4.89-5.12,9.26a53.4,53.4,0,0,1-6.67,8.56,20.39,20.39,0,0,1-15.06,6.79c-6.07.12-13.23-2.22-21.92-7.33s-18.9-13.15-30.83-24.46a400.89,400.89,0,0,1-40-44.9c-14.51-18.75-25.89-36.52-33.32-52.66s-11.44-30.53-12.15-42.7,1.6-22.12,6.43-29.63A35.49,35.49,0,0,1,530,465.9a72.6,72.6,0,0,1,15.87-3.1,113.31,113.31,0,0,1,15.09-.06c3.85,10.71,8.14,21.3,12.75,31.76q-3.9-2.13-8-4.48a59.68,59.68,0,0,0-8.48-4,36.27,36.27,0,0,0-9-2.09,22.68,22.68,0,0,0-9.85,1.27,19.43,19.43,0,0,0-12.09,12c-2.32,6-2.75,13.92-1,23.56s5.74,20.91,12,33.57S552.13,580.83,562.82,595.55Z"/>
    <path class="cls-25" d="M619.31,449.39c14.19-2,26.2,1.72,35.84,10s16.47,21.45,22.09,39.23c3.66,11.51,5.41,21.14,5.15,29.26s-2.35,15-6.32,20.74c4.8,7,10.27,14.49,16.32,22.22,5.26,6.64,11.43,14.1,18.45,22.15s14.75,16.16,23.06,24.15q-8.61,4-16.8,8.45c-8.53-10.11-16.12-19.52-22.55-27.81s-11.83-15.57-16.1-21.58c-5-7-9.17-13.13-12.52-18.37q-9.6,3.61-18.89,7.7c3.37,6.38,7,12.88,10.69,19.44s7.56,13.09,11.39,19.51,7.71,12.77,11.58,19,7.64,12.11,11.28,17.73q-6.63,4.65-12.89,9.65-6.18-10.71-13-22.33T652.26,605q-6.93-11.88-13.59-23.65t-12.58-22.7q-5.93-10.92-12.28-23.25T601.3,510c-4.1-8.73-8.09-17.58-11.9-26.6s-7.38-17.87-10.71-26.62Q598.84,452.33,619.31,449.39Zm-12.92,19.74a385.05,385.05,0,0,0,15,42.51c5.79,13.93,11.83,26.77,17.78,38.57q7-2.79,14.17-5.31a16.23,16.23,0,0,0,7-4.58,14.88,14.88,0,0,0,3.29-8.06,39.77,39.77,0,0,0-.74-12.34,121.36,121.36,0,0,0-5.07-17.57c-4.92-13.89-9.71-23.8-15.35-29.55s-12.26-8.15-19.93-6.79Q614.42,467.43,606.39,469.13Z"/>
    <path class="cls-25" d="M771.66,591.74a16.27,16.27,0,0,0,8.06-4.47,16,16,0,0,0,3.9-7.88,33.58,33.58,0,0,0,.12-11.18,84,84,0,0,0-3.37-14.33c-3.67-11.52-7-23.27-9.78-35.2-2.64-11.22-5-22.9-6.93-35s-3.44-24.39-4.43-36.89q12,1.28,24,3.05a203.14,203.14,0,0,0-.41,35,257.36,257.36,0,0,0,4.73,33.5c2.38,11.51,5.28,22.89,8.54,34a89.07,89.07,0,0,1,3.69,19.3,38.5,38.5,0,0,1-1.7,15,25.23,25.23,0,0,1-7.36,11,34.57,34.57,0,0,1-13.49,6.94A36,36,0,0,1,761.37,606a34.17,34.17,0,0,1-14.45-6,57.65,57.65,0,0,1-13.29-13.53,107.11,107.11,0,0,1-11.69-21.12c-5.44-12.84-10.63-26-15.35-39.51-4.37-12.51-8.68-25.68-12.59-39.51s-7.36-28-10.06-42.5q12-.33,24-.15a233.89,233.89,0,0,0,4.74,40.81,363.3,363.3,0,0,0,10.14,38.59c4.18,13.08,8.85,25.92,13.8,38.43a89.94,89.94,0,0,0,7.49,15,45.17,45.17,0,0,0,8.47,10.19,23.42,23.42,0,0,0,9.21,5.08A19,19,0,0,0,771.66,591.74Z"/>
    <path class="cls-25" d="M850.72,582.37a28.4,28.4,0,0,0,7.66-1.1,14.37,14.37,0,0,0,6-3.39,12.44,12.44,0,0,0,3.37-6,20.56,20.56,0,0,0-.26-9.26,24.42,24.42,0,0,0-4.14-9.15,59.21,59.21,0,0,0-7.64-8.64,116.76,116.76,0,0,0-10.13-8.47q-5.61-4.23-11.49-8.56t-11.62-9A93.1,93.1,0,0,1,812.1,509a55,55,0,0,1-7.84-11.07,31.51,31.51,0,0,1-3.65-12.71c-.45-6.59.82-12,3.74-16a24.19,24.19,0,0,1,11.49-8.6,40.36,40.36,0,0,1,15.61-2.2A74.12,74.12,0,0,1,847.78,461a117.73,117.73,0,0,1,15.61,5.5q7.41,3.22,14.17,6.52c-1.11,5.59-1.93,11.24-2.5,16.95q-3.66-3.45-6.94-6.35a74.43,74.43,0,0,0-6.63-5.26,51.9,51.9,0,0,0-7-4.1,42.6,42.6,0,0,0-17.84-4.13,19.94,19.94,0,0,0-8.3,1.65,12.94,12.94,0,0,0-5.63,4.9,14.65,14.65,0,0,0-2,8.35,23.22,23.22,0,0,0,5,13.46,78.42,78.42,0,0,0,11.74,12.37q6.94,6,14.9,12t14.89,12.51a91.7,91.7,0,0,1,11.94,13.44,36.71,36.71,0,0,1,6.41,14.84,30.6,30.6,0,0,1,.45,10.27,18.73,18.73,0,0,1-2.69,7.41,18.22,18.22,0,0,1-5.08,5.16,28.6,28.6,0,0,1-6.8,3.38,43.74,43.74,0,0,1-7.91,1.9,70.69,70.69,0,0,1-8.26.72c-3.25.08-6.26.11-9,0s-5.38-.21-7.84-.43-4.77-.51-6.94-.86-4.31-.73-6.41-1.16q-3.47-9.71-6.59-19.73,4,2.63,7.92,4.89a63.92,63.92,0,0,0,7.83,3.88,45.06,45.06,0,0,0,8,2.46A39,39,0,0,0,850.72,582.37Z"/>
    <path class="cls-25" d="M993.51,525.44a72.93,72.93,0,0,0-4.69,9.59,85.49,85.49,0,0,0-3.42,10.44,100.67,100.67,0,0,0-2.18,10.74c-.54,3.58-.88,7.06-1.08,10.41s-.25,6.92-.16,10.72.33,7.69.71,11.69.93,8.08,1.66,12.2S986,609.42,987,613.4q-9.91-3.72-19.83-6.82-.68-5.87-1.21-12.07t-.85-12.34q-.32-6.13-.35-12c0-3.91,0-7.63.17-11.16a465.48,465.48,0,0,0-46.91-16.79q.15,6,.8,12.74c.44,4.48,1,9,1.83,13.72s1.71,9.35,2.81,14.05,2.35,9.28,3.75,13.72q-9.84-1.91-19.59-3.24c-.76-4.5-1.54-9.15-2.31-14s-1.47-9.6-2.09-14.4-1.13-9.51-1.54-14.15-.71-9.05-.91-13.26-.35-8.63-.39-13.28,0-9.37.26-14.15.55-9.6,1-14.42,1-9.52,1.63-14.12q11.64,4.46,23.14,9.45a92.41,92.41,0,0,0-6.15,20.62,157.78,157.78,0,0,0-2.3,21.54A480.64,480.64,0,0,1,965.32,551c.45-6.19,1.13-12.57,2.2-19.12s2.38-12.87,4-19Q982.57,518.88,993.51,525.44Z"/>
  </g>
  <path class="cls-26" d="M510,1699.26a9.28,9.28,0,0,0-6.16,6.86,4.62,4.62,0,0,0,.47,3.5,2.37,2.37,0,0,0,3.15.82c1.83-1.26.38-4.65,2.08-6.07.87-.74,2.2-.58,3.21-1.1a2.6,2.6,0,1,0-3.76-2.71"/>
  <path class="cls-26" d="M654.57,1688.31a7.54,7.54,0,0,0-3.39-6.26,5.07,5.07,0,0,0-2.8-1.09c-1,0-1.8.68-1.57,1.53.42,1.55,3.43,2,4,3.57.3.79-.22,1.5-.12,2.29a2.78,2.78,0,0,0,3.27,1.92c1.22-.44,1.17-2.22-.09-3.06"/>
</svg>
