<svg id="Layer_1" data-name="Layer 1" xmlns="http://www.w3.org/2000/svg" xmlns:xlink="http://www.w3.org/1999/xlink" width="1080" height="1920" viewBox="0 0 1080 1920"><defs><style>.cls-1{fill:url(#linear-gradient);}.cls-2{fill:#f7f7f7;}.cls-3{fill:url(#linear-gradient-2);}.cls-4{fill:url(#linear-gradient-3);}.cls-5{fill:#ff000f;opacity:0.65;}.cls-6{fill:#fff;}</style><linearGradient id="linear-gradient" x1="550.58" y1="2305.71" x2="539.64" y2="1184.82" gradientUnits="userSpaceOnUse"><stop offset="0" stop-color="#656565"/><stop offset="0.36" stop-color="#00003f"/><stop offset="0.74" stop-color="#86baff"/><stop offset="0.98" stop-color="#3e3e3e"/></linearGradient><linearGradient id="linear-gradient-2" x1="-0.5" y1="1348.42" x2="1080.5" y2="1348.42" gradientUnits="userSpaceOnUse"><stop offset="0" stop-color="#656565"/><stop offset="0.12"/><stop offset="0.42" stop-color="#3e3e3e"/><stop offset="0.95" stop-color="#fff"/></linearGradient><linearGradient id="linear-gradient-3" x1="544.89" y1="1793.56" x2="533.13" y2="705.75" gradientUnits="userSpaceOnUse"><stop offset="0" stop-color="#656565"/><stop offset="0.36" stop-color="#00003f"/><stop offset="0.79" stop-color="#86baff"/><stop offset="0.98" stop-color="#3e3e3e"/></linearGradient></defs><title>start_site_front</title><path class="cls-1" d="M77.5,1923l-76-547.36C1.5,1295,96.05,1229,211.6,1229H871.4c115.55,0,210.1,66,210.1,146.64L1043,1923"/><ellipse class="cls-2" cx="493.6" cy="1686.84" rx="80.4" ry="95.1"/><path class="cls-3" d="M1080.5,1286.08v193c-75.48,28.15-245.1,10.64-531.95,9.58-264-1-474.42,19-549-32.2V1311c78-132.84,269.85-107,549.05-107C809.1,1204,994.76,1180.76,1080.5,1286.08Z"/><path class="cls-4" d="M1076.5,1319.84v82.55c-47.66,37.75-212.35,21.06-529.37,20.19-334-.92-576.75,24.61-539.94-79.84,49.89-141.57,242-118.38,539.94-118.38C828,1224.36,1016.22,1203.06,1076.5,1319.84Z"/><ellipse class="cls-2" cx="631.2" cy="1686.52" rx="55.9" ry="66.12"/><circle cx="521.72" cy="1714.07" r="34.06"/><circle cx="633.25" cy="1700.44" r="34.06"/><path class="cls-5" d="M667.16,1852.43c4.84,2.74,18.06-11.62,23.34-19.16,7-10,18.65-27.17,13.8-29.91s-23.35,7.79-29.36,18.41S662.32,1849.69,667.16,1852.43Z"/><path d="M355.82,1609.43l-1-.25a110.93,110.93,0,0,1,48.95-67c24.27-15,52.53-19.44,79.57-12.46l-.25,1c-26.77-6.92-54.76-2.53-78.8,12.34A109.93,109.93,0,0,0,355.82,1609.43Z"/><path d="M706.85,1632.61a57.54,57.54,0,0,0-59.15-55.79l0-1a58.58,58.58,0,0,1,60.18,56.76Z"/><path d="M614.15,1879.81c-23.7,0-45.35-9.8-57.67-28.59l4.18-2.75c19.92,30.38,66.45,35.21,103.72,10.77s51.4-69,31.49-99.41l4.18-2.74c21.43,32.68,6.66,80.38-32.92,106.33C650.3,1874.45,631.67,1879.81,614.15,1879.81Z"/><path d="M492,1856.89q-12.31,0-24.8-1l.39-5c62.59,4.83,122.82-9,169.59-38.8,46.55-29.71,74.17-71.78,77.77-118.47l5,.38c-3.72,48.29-32.15,91.73-80.06,122.3C598.44,1842.81,546.67,1856.89,492,1856.89Z"/><path class="cls-6" d="M507,1698.26a9.28,9.28,0,0,0-6.16,6.86,4.62,4.62,0,0,0,.47,3.5,2.37,2.37,0,0,0,3.15.82c1.83-1.26.38-4.65,2.08-6.07.87-.74,2.2-.58,3.21-1.1a2.6,2.6,0,1,0-3.76-2.71"/><path class="cls-6" d="M651.57,1687.31a7.54,7.54,0,0,0-3.39-6.26,5.07,5.07,0,0,0-2.8-1.09c-1,0-1.8.68-1.57,1.53.42,1.55,3.43,2,4,3.57.3.79-.22,1.5-.12,2.29a2.78,2.78,0,0,0,3.27,1.92c1.22-.44,1.17-2.22-.09-3.06"/></svg>
