<svg id="Layer_1" data-name="Layer 1" xmlns="http://www.w3.org/2000/svg" width="95" height="125" viewBox="0 0 95 125"><title>timer_time</title><path d="M3.78,21.79l17-2.3q-.32,4.67-.51,9.76T20,39.44c-.07,3.39-.13,6.71-.16,9.94s-.06,6.25-.06,9.07,0,5.77.06,8.87.09,6.27.16,9.51.16,6.48.27,9.75.25,6.45.43,9.56h-10c.22-3.11.39-6.29.51-9.56s.23-6.52.3-9.75.12-6.4.16-9.51.05-6.06.05-8.87,0-5.88-.08-9.1-.11-6.31-.19-9.29-.15-5.68-.24-8.13S11,27.62,11,26.34L3.78,27Z"/><path d="M76.71,58.55a91.46,91.46,0,0,1-1.5,17.87,41.6,41.6,0,0,1-4.16,12.1,18.2,18.2,0,0,1-6.37,6.91,15.91,15.91,0,0,1-16.11,0,18.54,18.54,0,0,1-6.42-6.91,40.68,40.68,0,0,1-4.22-12.1,91.46,91.46,0,0,1-1.5-17.87,91,91,0,0,1,1.5-17.8,40.75,40.75,0,0,1,4.22-12.11,18.69,18.69,0,0,1,6.42-6.93,15.72,15.72,0,0,1,16.11,0,18.35,18.35,0,0,1,6.37,6.93,41.68,41.68,0,0,1,4.16,12.11A91,91,0,0,1,76.71,58.55Zm-9.13,0a135.86,135.86,0,0,0-.88-15,48.1,48.1,0,0,0-2.18-10,13.49,13.49,0,0,0-3.38-5.61,6.65,6.65,0,0,0-4.51-1.76A7,7,0,0,0,52,27.85a13.13,13.13,0,0,0-3.47,5.59,46.4,46.4,0,0,0-2.2,10,123,123,0,0,0-.78,15.09,123.61,123.61,0,0,0,.78,15.15,46.65,46.65,0,0,0,2.2,10A12.94,12.94,0,0,0,52,89.29,7,7,0,0,0,56.63,91a7.15,7.15,0,0,0,4.64-1.7,12.68,12.68,0,0,0,3.49-5.56,45.59,45.59,0,0,0,2.18-10A115.48,115.48,0,0,0,67.58,58.55Z"/></svg>
