<svg id="Layer_1" data-name="Layer 1" xmlns="http://www.w3.org/2000/svg" xmlns:xlink="http://www.w3.org/1999/xlink" width="210" height="210" viewBox="0 0 210 210"><defs><style>.cls-1{fill:#352900;}.cls-2{fill:url(#radial-gradient);}.cls-3{fill:url(#radial-gradient-2);}.cls-4{fill:#e2c791;}.cls-5{fill:#fff;}</style><radialGradient id="radial-gradient" cx="105.95" cy="144.75" fx="49.40540903035865" r="68.83" gradientUnits="userSpaceOnUse"><stop offset="0" stop-color="#fff"/><stop offset="0.47" stop-color="#d0ebf4"/><stop offset="0.87" stop-color="#e2f2f7"/></radialGradient><radialGradient id="radial-gradient-2" cx="104.95" cy="-2987.25" fx="48.40540903035865" r="68.83" gradientTransform="matrix(1, 0, 0, -1, 0, -2920.5)" xlink:href="#radial-gradient"/></defs><title>timer</title><rect class="cls-1" x="12" y="183.5" width="186" height="7"/><rect class="cls-1" x="11" y="19.5" width="186" height="7"/><rect class="cls-1" x="5" y="192.5" width="203" height="17"/><rect class="cls-1" x="2" y="0.5" width="203" height="17"/><path class="cls-2" d="M194,183.5c9.71-41.69-39.18-77.5-87.5-77.5S4.75,143.14,19,183.5"/><path class="cls-3" d="M193,28c9.71,41.69-39.18,77.5-87.5,77.5S3.75,68.36,18,28"/><path class="cls-4" d="M194.11,180.35a1.74,1.74,0,0,0,.23-2.38,4.86,4.86,0,0,0-2.19-1.45,49.35,49.35,0,0,0-12.75-3.29,20.9,20.9,0,0,1-6.5-1.32c-2-.93-3.73-2.94-3.53-5.15l-12.87-5.85c-6.83-3.11-14-6.49-18.25-12.66a32.28,32.28,0,0,0-2.32-3.32c-2-2.24-5.25-7.38-7.28-5.2-1.65,1.77-12.11-6-12.65-11.23s-6.87-5.83-6-11c.25-1.49-1-10.91,0-12s14.63-1.64,16-2c4.8-1.27,9-1,15-4,8-4,16-8,23-12-.55-2.19-3-1.79-5.06-2.61-5.55-2.17-12-4.31-17.25-1.51-3.13,1.66-5.37,4.88-8.75,5.91-2.35.71-4.89.24-7.32.58-5.47.78-10.07,5.61-15.57,5.16-5.24-.43-9.47-5.6-14.71-5.13-3,.27-5.52,2.36-8.47,2.92-3.89.74-7.74-1.28-11-3.49s-6.6-4.76-10.53-5.25-8.58,2.14-8.51,6.1c0,1.1-.59,1.25-.8,2.32a114.13,114.13,0,0,0,21,9c3.2.89,7.91,1.36,12,3,5,2,11.76-.46,14,2,2.89,3.17-7.57,9.73-8,14-.53,5.27-3.87,10.07-5.18,15.2-1,3.85-1.11,8.14-3.61,11.24-4.11,5.1-12.07,4.19-18.07,6.84-2.49,1.11-4.64,2.84-7,4.23-7.21,4.3-15.93,5.22-23.61,8.64a76.89,76.89,0,0,0-11.89,7.08c-2.74,1.85-5.81,4.39-5.44,7.68l34.28-.3c13.48-.12,27,.5,40.51.39,13.18-.11,28.16.29,42,0,7.45-.16,14-1,21-1C171,180.5,181,181.5,194.11,180.35Z"/><path class="cls-5" d="M30.4,60.26a35.26,35.26,0,0,0,3.26,7.06c2.06,3.73,4.25,7.6,7.79,10A23.7,23.7,0,0,0,47.74,80c1.55.48,3.32.9,4.71.06a4,4,0,0,0,1.63-3.92,12.08,12.08,0,0,0-1.59-4.16c-1.68-3.15-3.43-6.39-6.17-8.68-1.86-1.55-4.23-2.74-5.15-5-.75-1.81-.35-3.85-.42-5.81-.12-3.5-6.31-14.73-11-10.74C27.37,43.69,29.71,57.89,30.4,60.26Z"/><path class="cls-5" d="M167,134.13c1.65,1.49,3.3,3,4.87,4.57,2.49,2.52,4.74,5.25,7,8a20.37,20.37,0,0,1,2.58,3.62c1.82,3.55,1.4,7.82.56,11.72-.35,1.62-1.5,3.67-3.07,3.11-1.22-.43-1.36-2.06-1.4-3.35-.2-6.36-3.28-12.31-7-17.43-2.73-3.7-7.2-7.2-9.28-11.24C158.48,127.72,165.39,132.64,167,134.13Z"/></svg>
