<svg id="Layer_1" data-name="Layer 1" xmlns="http://www.w3.org/2000/svg" xmlns:xlink="http://www.w3.org/1999/xlink" width="500" height="100" viewBox="0 0 500 100"><defs><style>.cls-1{opacity:0.2;}.cls-2{fill:none;}.cls-3{fill:url(#linear-gradient);}.cls-4{fill:#fff;}.cls-5{fill:url(#linear-gradient-2);}.cls-6{fill:url(#linear-gradient-3);}.cls-7{fill:url(#linear-gradient-4);}.cls-8{fill:url(#linear-gradient-5);}</style><linearGradient id="linear-gradient" x1="16.38" y1="49" x2="80.38" y2="49" gradientUnits="userSpaceOnUse"><stop offset="0" stop-color="#fff"/><stop offset="0.29" stop-color="#80bed6"/><stop offset="0.99" stop-color="#0876be"/><stop offset="1" stop-color="#0071bc"/></linearGradient><linearGradient id="linear-gradient-2" x1="116" x2="180" xlink:href="#linear-gradient"/><linearGradient id="linear-gradient-3" x1="216" x2="280" xlink:href="#linear-gradient"/><linearGradient id="linear-gradient-4" x1="316" x2="380" xlink:href="#linear-gradient"/><linearGradient id="linear-gradient-5" x1="416" y1="49" x2="480" y2="49" gradientUnits="userSpaceOnUse"><stop offset="0" stop-color="#fff"/><stop offset="0.84" stop-color="gray"/><stop offset="1" stop-color="gray"/></linearGradient></defs><title>toggel_sprite</title><g class="cls-1"><path d="M69.76,37.38H31a12.62,12.62,0,0,0,0,25.24H69.76a12.62,12.62,0,0,0,0-25.24Z"/></g><rect class="cls-2" x="0.38" width="100" height="100"/><path class="cls-3" d="M67.76,36.38H29a12.62,12.62,0,0,0,0,25.24H67.76a12.62,12.62,0,0,0,0-25.24Z"/><circle class="cls-4" cx="69.5" cy="48.5" r="8.5"/><g class="cls-1"><path d="M169.38,37.38H130.62a12.62,12.62,0,0,0,0,25.24h38.76a12.62,12.62,0,1,0,0-25.24Z"/></g><rect class="cls-2" x="100" width="100" height="100"/><path class="cls-5" d="M167.38,36.38H128.62a12.62,12.62,0,0,0,0,25.24h38.76a12.62,12.62,0,1,0,0-25.24Z"/><circle class="cls-4" cx="159.13" cy="49.5" r="8.5"/><g class="cls-1"><path d="M269.38,37.38H230.62a12.62,12.62,0,0,0,0,25.24h38.76a12.62,12.62,0,1,0,0-25.24Z"/></g><rect class="cls-2" x="200" width="100" height="100"/><path class="cls-6" d="M267.38,36.38H228.62a12.62,12.62,0,0,0,0,25.24h38.76a12.62,12.62,0,1,0,0-25.24Z"/><circle class="cls-4" cx="249.13" cy="49.5" r="8.5"/><g class="cls-1"><path d="M369.38,37.38H330.62a12.62,12.62,0,0,0,0,25.24h38.76a12.62,12.62,0,1,0,0-25.24Z"/></g><rect class="cls-2" x="300" width="100" height="100"/><path class="cls-7" d="M367.38,36.38H328.62a12.62,12.62,0,0,0,0,25.24h38.76a12.62,12.62,0,1,0,0-25.24Z"/><circle class="cls-4" cx="339.5" cy="48.5" r="8.5"/><g class="cls-1"><path d="M469.38,37.38H430.62a12.62,12.62,0,0,0,0,25.24h38.76a12.62,12.62,0,1,0,0-25.24Z"/></g><rect class="cls-2" x="400" width="100" height="100"/><path class="cls-8" d="M467.38,36.38H428.62a12.62,12.62,0,0,0,0,25.24h38.76a12.62,12.62,0,1,0,0-25.24Z"/><circle class="cls-4" cx="429.5" cy="49.5" r="8.5"/></svg>
